<?xml version="1.0" standalone="no"?>
<!DOCTYPE svg PUBLIC "-//W3C//DTD SVG 1.1//EN" "http://www.w3.org/Graphics/SVG/1.1/DTD/svg11.dtd" >
<svg>
<metadata>
Created by FontForge 20090622 at Tue Apr  7 09:39:59 2020
 By deploy user
Copyright (c) 2018 by The Temporary State. All rights reserved.
</metadata>
<defs>
<font id="Steinbeck-Italic" horiz-adv-x="534" >
  <font-face 
    font-family="Steinbeck"
    font-weight="400"
    font-style="italic"
    font-stretch="normal"
    units-per-em="1000"
    panose-1="0 0 0 0 0 0 0 0 0 0"
    ascent="750"
    descent="-250"
    x-height="490"
    cap-height="700"
    bbox="-152 -290 1375 990"
    underline-thickness="55"
    underline-position="-288"
    unicode-range="U+000D-U+E00A"
  />
<missing-glyph horiz-adv-x="860" 
d="M218 520l42 42l170 -170l170 170l42 -42l-170 -170l170 -170l-42 -42l-170 170l-170 -170l-42 42l170 170zM80 0v700h700v-700h-700zM140 640v-580h580v580h-580z" />
    <glyph glyph-name=".notdef" horiz-adv-x="860" 
d="M218 520l42 42l170 -170l170 170l42 -42l-170 -170l170 -170l-42 -42l-170 170l-170 -170l-42 42l170 170zM80 0v700h700v-700h-700zM140 640v-580h580v580h-580z" />
    <glyph glyph-name=".null" horiz-adv-x="0" 
 />
    <glyph glyph-name="nonmarkingreturn" horiz-adv-x="333" 
 />
    <glyph glyph-name="NULL" horiz-adv-x="330" 
 />
    <glyph glyph-name="NULL" horiz-adv-x="330" 
 />
    <glyph glyph-name="CR" unicode="&#xd;" horiz-adv-x="330" 
 />
    <glyph glyph-name="space" unicode=" " horiz-adv-x="260" 
 />
    <glyph glyph-name="exclam" unicode="!" horiz-adv-x="258" 
d="M15 0l30 100h74l-30 -100h-74zM82 180l156 570h85l-192 -570h-49z" />
    <glyph glyph-name="quotedbl" unicode="&#x22;" horiz-adv-x="320" 
d="M155 510l45 240h85l-101 -240h-29zM280 510l45 240h85l-101 -240h-29z" />
    <glyph glyph-name="numbersign" unicode="#" horiz-adv-x="660" 
d="M44 270h159l43 140h-159l18 60h160l70 230h71l-71 -230h130l70 230h71l-71 -230h160l-19 -60h-159l-43 -140h159l-18 -60h-160l-64 -210h-70l64 210h-130l-64 -210h-70l64 210h-160zM317 410l-43 -140h129l43 140h-129z" />
    <glyph glyph-name="dollar" unicode="$" horiz-adv-x="652" 
d="M475 880h65l-50 -162q77 -9 114.5 -53.5t37.5 -111.5q0 -41 -14 -88h-70q12 38 12 76q0 101 -99 116l-84 -274q37 -12 56.5 -19t49.5 -21.5t45 -29.5t27 -38t12 -51q0 -104 -92 -171t-221 -72l-49 -161h-64l49 163q-87 11 -128.5 61.5t-41.5 124.5q0 44 13 86h70
q-12 -44 -12 -76q0 -118 118 -136l90 295q-75 23 -116.5 54.5t-41.5 89.5q0 99 83.5 163t191.5 73zM505 211q0 42 -35 65.5t-102 43.5l-86 -280q60 3 106 22.5t70 47.5t35.5 53.5t11.5 47.5zM224 502q0 -36 27.5 -59t77.5 -41l78 256q-81 -8 -132 -58t-51 -98z" />
    <glyph glyph-name="percent" unicode="%" horiz-adv-x="766" 
d="M443 619q0 -86 -63 -137.5t-132 -51.5q-46 0 -77 27t-31 74q0 85 64 137t133 52q45 0 75.5 -27t30.5 -74zM382 605q0 27 -17.5 43.5t-44.5 16.5q-41 0 -79.5 -35t-38.5 -85q0 -27 17.5 -43.5t45.5 -16.5q41 0 79 35t38 85zM775 725l41 -45l-755 -705l-41 45zM695 169
q0 -86 -63 -137.5t-132 -51.5q-46 0 -77 27t-31 74q0 85 64 137t133 52q45 0 75.5 -27t30.5 -74zM634 155q0 27 -17.5 43.5t-44.5 16.5q-41 0 -79.5 -35t-38.5 -85q0 -27 17.5 -43.5t45.5 -16.5q41 0 79 35t38 85z" />
    <glyph glyph-name="ampersand" unicode="&#x26;" horiz-adv-x="732" 
d="M296 314q17 -16 50 -44t45 -40l106 -99q58 53 97 120t53 114h60q-20 -65 -64 -139.5t-107 -132.5l99 -93h-92l-55 50q-102 -70 -224 -70q-102 0 -163 44t-61 114q0 131 156 198q-42 45 -42 111q0 46 22.5 93.5t63.5 88t108.5 66t148.5 25.5q99 0 153.5 -46.5t54.5 -116.5
q0 -38 -12 -69.5t-30.5 -53t-48 -39t-57.5 -27.5t-66.5 -19t-67.5 -13l-67 -12q-39 -6 -60 -10zM258 360q33 8 83 16.5t87 14t78.5 17.5t68.5 27.5t44.5 44.5t17.5 68q0 47 -35 79.5t-114 32.5q-120 0 -193.5 -67t-73.5 -138q0 -55 37 -95zM229 291q-51 -20 -86.5 -54.5
t-35.5 -84.5q0 -47 41 -79.5t135 -32.5q82 0 164 49l-96 87l-40 37q-28 24 -47 43z" />
    <glyph glyph-name="quotesingle" unicode="'" horiz-adv-x="195" 
d="M155 510l45 240h85l-101 -240h-29z" />
    <glyph glyph-name="parenleft" unicode="(" horiz-adv-x="360" 
d="M199 -185l-26 -20q-7 7 -18.5 20t-37.5 58.5t-40.5 96.5t-14 134t27.5 171t75.5 170t98.5 136t96.5 95t75.5 60l30 19l14 -20q-9 -6 -24.5 -18t-59 -54.5t-81.5 -91.5t-81 -129t-69 -167q-27 -87 -33.5 -166t3.5 -130.5t24 -90t27 -56.5z" />
    <glyph glyph-name="parenright" unicode=")" horiz-adv-x="360" 
d="M-96 -205l-14 20q9 6 24.5 18t59 54.5t81.5 91.5t81 129t69 167q27 87 33 166t-4 130.5t-24 90t-27 56.5l-13 17l26 20q7 -7 18.5 -20t37.5 -58.5t41 -96.5t14.5 -134t-27.5 -171t-76 -170t-99 -136t-96 -95t-75 -60z" />
    <glyph glyph-name="asterisk" unicode="*" horiz-adv-x="449" 
d="M417 750l-71 -154l161 70l2 -81l-163 -25l77 -111l-84 -50l-30 139l-113 -139l-54 50l144 111l-146 25l50 81l119 -71l23 155h85z" />
    <glyph glyph-name="plus" unicode="+" horiz-adv-x="649" 
d="M394 585h65l-65 -215h215l-19 -60h-215l-65 -215h-65l65 215h-215l19 60h215z" />
    <glyph glyph-name="comma" unicode="," horiz-adv-x="192" 
d="M-72 -115h-25l7 25h10q31 0 51 19.5t36 70.5l30 100h65l-21 -70q-25 -79 -62 -112t-91 -33z" />
    <glyph glyph-name="hyphen" unicode="-" horiz-adv-x="524" 
d="M474 320l-19 -60h-380l19 60h380z" />
    <glyph glyph-name="period" unicode="." horiz-adv-x="211" 
d="M5 0l31 100h75l-31 -100h-75z" />
    <glyph glyph-name="slash" unicode="/" horiz-adv-x="661" 
d="M720 725l41 -45l-755 -705l-41 45z" />
    <glyph glyph-name="zero" unicode="0" horiz-adv-x="654" 
d="M468 720q91 0 141 -61t50 -158q0 -63 -19.5 -134.5t-57 -140t-87 -123.5t-116.5 -89t-138 -34q-91 0 -141 61t-50 157q0 79 31.5 169.5t84.5 169.5t133.5 131t168.5 52zM448 655q-91 0 -168 -78t-116.5 -181t-39.5 -193q0 -74 34.5 -116t102.5 -42q91 0 168 77.5
t116.5 180t39.5 193.5q0 74 -34.5 116.5t-102.5 42.5z" />
    <glyph glyph-name="one" unicode="1" horiz-adv-x="292" 
d="M352 710l-217 -710h-75l177 580h-125l14 45h60q44 0 71.5 17.5t49.5 67.5h45z" />
    <glyph glyph-name="two" unicode="2" horiz-adv-x="622" 
d="M489 0h-504l23 75l70 33l76 37l74 36q46 24 74 40l68 42q40 26 64 46.5t51.5 48t42.5 53t25 55.5t10 60q0 64 -37 96.5t-106 32.5q-85 0 -149 -54t-64 -140q0 -26 10.5 -49t20.5 -32l10 -10l-55 -45q-6 5 -15 15t-24.5 43t-15.5 68q0 115 87.5 192t204.5 77
q95 0 151 -48.5t56 -128.5q0 -67 -38 -131t-79.5 -105t-133 -94.5t-132.5 -72.5l-145 -66q-5 -3 -8 -4l-2 -5h410z" />
    <glyph glyph-name="three" unicode="3" horiz-adv-x="618" 
d="M35 210h75q-9 -27 -9 -54q0 -49 34.5 -80t108.5 -31q104 0 171 58.5t67 134.5q0 92 -151 92h-95l19 60h90q87 0 149 44t62 128q0 93 -130 93q-79 0 -136.5 -47t-79.5 -118h-75q31 100 112.5 165t198.5 65q84 0 135 -39.5t51 -107.5q0 -70 -47 -128.5t-116 -74.5l-3 -10
q4 0 10 -1.5t22.5 -8.5t29 -17.5t22.5 -31t10 -47.5q0 -107 -96 -190.5t-240 -83.5q-90 0 -144.5 46.5t-54.5 121.5q0 31 10 62z" />
    <glyph glyph-name="four" unicode="4" horiz-adv-x="624" 
d="M548 700h45l-144 -470h145l-20 -65h-145l-51 -165h-75l51 165h-324l22 75zM121 230h253l100 326z" />
    <glyph glyph-name="five" unicode="5" horiz-adv-x="614" 
d="M78 310l166 390h440q-29 -36 -71.5 -55.5t-121.5 -19.5q-36 0 -87.5 3.5t-85.5 7.5l-33 4l-95 -229h10l8 8q6 6 25.5 19.5t40.5 24t53.5 19t66.5 8.5q83 0 130.5 -42.5t47.5 -118.5q0 -134 -104 -241.5t-250 -107.5q-84 0 -138.5 43t-54.5 114q0 27 9 58h75
q-7 -22 -7 -46q0 -46 32 -75t99 -29q60 0 111 26.5t83 68t50 88t18 89.5q0 113 -139 113q-67 0 -128.5 -37.5t-84.5 -82.5h-65z" />
    <glyph glyph-name="six" unicode="6" horiz-adv-x="642" 
d="M409 485q85 0 138 -47t53 -124q0 -134 -106 -234t-240 -100q-84 0 -141.5 49.5t-57.5 151.5q0 64 22 134q55 180 162 292.5t242 112.5q89 0 132.5 -44t43.5 -110q0 -29 -6 -56h-70q4 28 4 49q0 96 -124 96q-91 0 -169 -79.5t-131 -215.5h10l11 14q6 8 29.5 29.5t49 38
t66 30t82.5 13.5zM380 425q-105 0 -181 -79t-76 -170q0 -58 36.5 -94.5t104.5 -36.5q105 0 181.5 78.5t76.5 172.5q0 58 -35 93.5t-107 35.5z" />
    <glyph glyph-name="seven" unicode="7" horiz-adv-x="565" 
d="M685 700l-17 -55q-14 -9 -37.5 -25.5t-90 -76t-125 -128.5t-124.5 -181t-106 -234h-85q41 115 103.5 221.5t122.5 176.5t114.5 124t87.5 78l34 25l3 10h-435l20 65h535z" />
    <glyph glyph-name="eight" unicode="8" horiz-adv-x="605" 
d="M217 385q-3 1 -7 3.5t-15 11.5t-19 19.5t-15 28t-7 36.5q0 102 89.5 169t206.5 67q78 0 129 -38t51 -101q-1 -131 -153 -196l-3 -10q3 -1 9 -3.5t20.5 -12t25.5 -21.5t20 -34.5t9 -49.5q0 -109 -97 -191.5t-238 -82.5q-92 0 -147.5 44.5t-55.5 113.5q0 84 55.5 146.5
t138.5 90.5zM335 345q-104 0 -171.5 -60.5t-67.5 -137.5q0 -48 36.5 -77.5t109.5 -29.5q105 0 171.5 59.5t66.5 137.5q0 48 -36.5 78t-108.5 30zM353 405q89 0 147 49.5t58 113.5q0 41 -32 66.5t-95 25.5q-89 0 -147 -50t-58 -114q0 -40 33.5 -65.5t93.5 -25.5z" />
    <glyph glyph-name="nine" unicode="9" horiz-adv-x="642" 
d="M298 215q-85 0 -138 47t-53 124q0 134 106 234t240 100q84 0 141.5 -49.5t57.5 -151.5q0 -64 -22 -134q-56 -183 -159.5 -294t-244.5 -111q-89 0 -132.5 44t-43.5 110q0 29 6 56h70q-4 -28 -4 -49q0 -96 124 -96q91 0 169 79.5t131 215.5h-10l-10 -14q-7 -8 -30.5 -29.5
t-49 -38t-66 -30t-82.5 -13.5zM327 275q105 0 181 79t76 170q0 58 -36.5 94.5t-104.5 36.5q-105 0 -181.5 -78.5t-76.5 -172.5q0 -58 35 -93.5t107 -35.5z" />
    <glyph glyph-name="colon" unicode=":" horiz-adv-x="232" 
d="M25 60l31 100h75l-31 -100h-75zM111 340l31 100h75l-31 -100h-75z" />
    <glyph glyph-name="semicolon" unicode=";" horiz-adv-x="231" 
d="M111 340l30 100h75l-30 -100h-75zM-87 -115h25q54 0 91 33t62 112l21 70h-65l-30 -100q-15 -51 -35.5 -70.5t-51.5 -19.5h-10z" />
    <glyph glyph-name="less" unicode="&#x3c;" horiz-adv-x="536" 
d="M363 145l-50 -39l-195 238l335 234l33 -45l-282 -195z" />
    <glyph glyph-name="equal" unicode="=" horiz-adv-x="649" 
d="M88 290h495l-18 -60h-495zM137 450h495l-18 -60h-495z" />
    <glyph glyph-name="greater" unicode="&#x3e;" horiz-adv-x="536" 
d="M211 539l50 39l195 -238l-335 -234l-33 47l281 196z" />
    <glyph glyph-name="question" unicode="?" horiz-adv-x="554" 
d="M343 285h65q-14 -48 -53 -86.5t-100 -38.5q-43 0 -65 21.5t-22 54.5q0 16 6 34q14 47 57.5 82.5t95.5 58.5l100 47q49 23 82 60.5t33 88.5q0 39 -30 63.5t-93 24.5q-81 0 -142 -48.5t-61 -118.5q0 -20 7 -37.5t15 -24.5l7 -8l-56 -44q-5 4 -12.5 12t-19.5 35t-12 57
q0 102 88.5 172t205.5 70q79 0 127 -39t48 -101q0 -23 -8 -50q-16 -52 -60.5 -92.5t-95.5 -65.5l-100 -48q-49 -23 -81.5 -51t-32.5 -63q0 -33 37 -33q50 0 70 68zM166 0l31 100h75l-31 -100h-75z" />
    <glyph glyph-name="at" unicode="@" horiz-adv-x="1063" 
d="M697 245q24 80 -6 142.5t-112 62.5t-145 -62t-87 -143q-12 -38 -12.5 -73.5t9.5 -65.5t38.5 -48t71.5 -18q83 0 150.5 62.5t92.5 142.5zM841 490l-105 -345q-32 -105 35 -105q52 0 97 52.5t76 152.5q53 175 -19 290t-263 115q-112 0 -219 -49.5t-190 -143t-119 -212.5
q-56 -181 24 -293t257 -112q43 0 84.5 9t70.5 21t52 24.5t34 21.5l12 9l31 -56q-5 -4 -14.5 -10.5t-41.5 -24t-65.5 -30.5t-84 -23.5t-100.5 -10.5q-126 0 -216.5 60.5t-121.5 166t9 248.5q64 210 239 342.5t381 132.5q83 0 150.5 -24t110.5 -67.5t68.5 -103t24 -130.5
t-23.5 -150q-42 -135 -114.5 -200t-147.5 -65q-50 0 -76.5 31t-11.5 94h-10q-3 -5 -9.5 -13.5t-29 -30t-47 -38t-63.5 -30t-80 -13.5q-96 0 -139 77.5t-9 187.5q34 113 121.5 189t194.5 76q39 0 68.5 -13t43.5 -31t22.5 -36.5t10.5 -31.5l1 -13h10l32 105h60z" />
    <glyph glyph-name="A" unicode="A" horiz-adv-x="652" 
d="M-60 0l485 700h81l46 -700h-73l-12 195h-318l-132 -195h-77zM440 620l-250 -365h273z" />
    <glyph glyph-name="B" unicode="B" horiz-adv-x="655" 
d="M10 0l214 700h245q92 0 144 -32t52 -98q0 -72 -52 -123t-133 -67l-3 -10q5 0 12.5 -1.5t27 -9.5t34.5 -20t27.5 -36.5t12.5 -56.5q0 -113 -86 -179.5t-235 -66.5h-260zM187 335l-84 -275h190q106 0 166 49t60 128q0 51 -34 74.5t-108 23.5h-190zM280 640l-75 -245h170
q55 0 102.5 15t81.5 53t34 92q0 47 -37 66t-106 19h-170z" />
    <glyph glyph-name="C" unicode="C" horiz-adv-x="686" 
d="M467 660q-95 0 -176.5 -74t-123.5 -175.5t-42 -195.5q0 -80 40 -127.5t118 -47.5q178 0 275 210h76q-57 -132 -146 -201t-224 -69q-101 0 -157.5 62t-56.5 167q0 84 32.5 173.5t88 165t139 124t176.5 48.5q101 0 155.5 -53.5t54.5 -149.5q0 -33 -6 -67h-76q4 25 4 56
q0 154 -151 154z" />
    <glyph glyph-name="D" unicode="D" horiz-adv-x="667" 
d="M10 0l214 700h200q116 0 182 -61t66 -167q0 -89 -33.5 -174t-92.5 -151t-147 -106.5t-190 -40.5h-199zM103 60h105q165 0 276 117t111 284q0 84 -48.5 131.5t-141.5 47.5h-125z" />
    <glyph glyph-name="E" unicode="E" horiz-adv-x="604" 
d="M10 0l214 700h465l-19 -60h-390l-75 -245h295l-18 -60h-295l-84 -275h390l-19 -60h-464z" />
    <glyph glyph-name="F" unicode="F" horiz-adv-x="574" 
d="M10 0l214 700h435l-19 -60h-359l-75 -245h279l-18 -60h-279l-103 -335h-75z" />
    <glyph glyph-name="G" unicode="G" horiz-adv-x="701" 
d="M663 330l-101 -330h-50l51 204q-58 -110 -127 -167t-172 -57q-101 0 -157.5 62t-56.5 167q0 84 32.5 173.5t88 165t139 124t176.5 48.5q101 0 155.5 -53.5t54.5 -149.5q0 -33 -6 -67h-76q4 25 4 56q0 154 -151 154q-95 0 -176.5 -74t-123.5 -175.5t-42 -195.5
q0 -80 40 -127.5t118 -47.5q170 0 277 230h-235l18 60h320z" />
    <glyph glyph-name="H" unicode="H" horiz-adv-x="650" 
d="M705 700l-214 -700h-75l102 335h-331l-102 -335h-75l214 700h75l-94 -305h331l94 305h75z" />
    <glyph glyph-name="I" unicode="I" horiz-adv-x="244" 
d="M224 700h75l-214 -700h-75z" />
    <glyph glyph-name="J" unicode="J" horiz-adv-x="563" 
d="M618 700l-147 -480q-73 -240 -289 -240q-70 0 -113.5 35.5t-43.5 108.5q0 42 31 146h75q-33 -108 -33 -138q0 -48 25.5 -70t77.5 -22q140 0 195 180l147 480h75z" />
    <glyph glyph-name="K" unicode="K" horiz-adv-x="634" 
d="M299 700l-114 -371l464 371h95l-352 -277l92 -423h-79l-73 376l-174 -137l-73 -239h-75l214 700h75z" />
    <glyph glyph-name="L" unicode="L" horiz-adv-x="555" 
d="M10 0l214 700h75l-196 -640h357l-18 -60h-432z" />
    <glyph glyph-name="M" unicode="M" horiz-adv-x="745" 
d="M260 0l-6 585l-179 -585h-65l214 700h96l4 -606l376 606h100l-215 -700h-70l179 585l-364 -585h-70z" />
    <glyph glyph-name="N" unicode="N" horiz-adv-x="669" 
d="M724 700l-215 -700h-55l-199 575l-176 -575h-69l214 700h55l199 -575l176 575h70z" />
    <glyph glyph-name="O" unicode="O" horiz-adv-x="680" 
d="M480 720q94 0 149.5 -63.5t55.5 -168.5q0 -83 -33 -172.5t-88.5 -164t-138 -123t-172.5 -48.5q-94 0 -148.5 63t-54.5 168q0 83 32.5 172.5t87.5 164.5t137.5 123.5t172.5 48.5zM461 660q-81 0 -159.5 -64.5t-127.5 -168t-49 -210.5q0 -81 38 -129t109 -48q80 0 158.5 64
t128 167.5t49.5 209.5q0 81 -38 130t-109 49z" />
    <glyph glyph-name="P" unicode="P" horiz-adv-x="632" 
d="M10 0l214 700h275q84 0 123.5 -35.5t39.5 -90.5q0 -30 -8 -60t-28.5 -61t-50.5 -54.5t-78 -38.5t-107 -15h-199l-106 -345h-75zM280 640l-71 -235h192q93 0 141.5 44.5t48.5 113.5q0 77 -108 77h-203z" />
    <glyph glyph-name="Q" unicode="Q" horiz-adv-x="680" 
d="M480 720q94 0 149.5 -63.5t55.5 -168.5q0 -115 -60.5 -237t-158.5 -196q18 -46 38 -70.5t54 -24.5l52 5l-17 -55q-18 -10 -48 -10q-55 0 -84.5 31t-52.5 88q-76 -39 -155 -39q-94 0 -148.5 63t-54.5 168q0 83 32.5 172.5t87.5 164.5t137.5 123.5t172.5 48.5zM461 660
q-81 0 -159.5 -64.5t-127.5 -168t-49 -210.5q0 -51 15 -90q77 93 173 93q49 0 78.5 -28t50.5 -78q73 65 119.5 164.5t46.5 202.5q0 81 -38 130t-109 49zM290 160q-69 0 -124 -76q39 -44 106 -44q57 0 114 34q-18 42 -39 64t-57 22z" />
    <glyph glyph-name="R" unicode="R" horiz-adv-x="661" 
d="M394 0l49 160q23 75 23 98q0 35 -30 51t-106 16h-145l-101 -325h-74l214 700h305q82 0 117 -37t35 -92q0 -79 -56.5 -141t-135.5 -77l-3 -10q51 -13 51 -70q0 -30 -27 -123l-13 -45q-10 -35 -10 -46q0 -15 8.5 -19.5t29.5 -4.5h15l-11 -35h-135zM280 640l-77 -255h202
q46 0 83.5 13t59.5 33t36.5 44.5t20 46t5.5 39.5q0 35 -23 57t-74 22h-233z" />
    <glyph glyph-name="S" unicode="S" horiz-adv-x="642" 
d="M43 255h70q-12 -44 -12 -76q0 -60 36.5 -99.5t125.5 -39.5q65 0 115.5 19t76 47.5t38 55t12.5 49.5q0 41 -36.5 66.5t-88.5 40t-104 31t-88.5 49.5t-36.5 84q0 72 48 128t116.5 83t139.5 27q94 0 140.5 -46t46.5 -121q0 -41 -14 -88h-70q12 38 12 76q0 119 -134 119
q-93 0 -152.5 -52.5t-59.5 -105.5q0 -39 36.5 -65.5t88 -42t103.5 -33t88.5 -52t36.5 -85.5q0 -109 -99 -176.5t-234 -67.5q-109 0 -161.5 53t-52.5 136q0 44 13 86z" />
    <glyph glyph-name="T" unicode="T" horiz-adv-x="605" 
d="M695 700l-19 -60h-225l-196 -640h-75l196 640h-226l19 60h526z" />
    <glyph glyph-name="U" unicode="U" horiz-adv-x="646" 
d="M701 700l-144 -470q-40 -131 -116 -190.5t-206 -59.5q-83 0 -134 38t-51 113q0 47 17 99l144 470h75l-144 -470q-17 -57 -17 -94q0 -49 30.5 -72.5t98.5 -23.5q93 0 145 45t83 145l144 470h75z" />
    <glyph glyph-name="V" unicode="V" horiz-adv-x="668" 
d="M778 700l-486 -700h-76l-56 700h68l49 -620l424 620h77z" />
    <glyph glyph-name="W" unicode="W" horiz-adv-x="865" 
d="M960 700l-386 -700h-94l61 612l-325 -612h-91l44 700h70l-46 -620l331 620h88l-56 -620l329 620h75z" />
    <glyph glyph-name="X" unicode="X" horiz-adv-x="657" 
d="M264 700l111 -274l274 274h88l-336 -337l148 -363h-75l-126 310l-309 -310h-89l373 373l-132 327h73z" />
    <glyph glyph-name="Y" unicode="Y" horiz-adv-x="648" 
d="M758 700l-376 -356l-106 -344h-75l105 343l-156 357h85l123 -295l310 295h90z" />
    <glyph glyph-name="Z" unicode="Z" horiz-adv-x="614" 
d="M79 65h415l-20 -65h-499l20 65l589 570h-415l20 65h500l-20 -65z" />
    <glyph glyph-name="bracketleft" unicode="[" horiz-adv-x="291" 
d="M286 900h205l-19 -60h-140l-299 -980h140l-19 -60h-204z" />
    <glyph glyph-name="backslash" unicode="\" horiz-adv-x="629" 
d="M165 698l56 27l313 -723l-56 -27z" />
    <glyph glyph-name="bracketright" unicode="]" horiz-adv-x="291" 
d="M196 900h205l-337 -1100h-204l19 60h140l298 980h-140z" />
    <glyph glyph-name="asciicircum" unicode="^" horiz-adv-x="515" 
d="M149 481l-34 46l289 226l151 -226l-51 -37l-118 177z" />
    <glyph glyph-name="underscore" unicode="_" horiz-adv-x="754" 
d="M634 60l-19 -60h-610l19 60h610z" />
    <glyph glyph-name="a" unicode="a" horiz-adv-x="571" 
d="M426 245q13 44 13 81q0 57 -27 93t-82 36q-62 0 -116 -46t-84 -115t-30 -140q0 -52 25.5 -85.5t76.5 -33.5q75 0 137 64.5t87 145.5zM356 0l12 40l25 65h-10q-3 -5 -9 -13.5t-26.5 -30t-43 -38t-58 -30t-71.5 -13.5q-67 0 -106 44t-39 116q0 102 48.5 189.5t117.5 134
t136 46.5q36 0 63.5 -13t41 -31t21.5 -36.5t10 -31.5l1 -13h10l32 105h60l-150 -490h-65z" />
    <glyph glyph-name="b" unicode="b" horiz-adv-x="552" 
d="M372 368v-5l12 -2q8 -2 28 -12t35.5 -24t28 -41t12.5 -62q0 -94 -74 -168t-187 -74q-86 0 -134 51t-48 138q0 114 60.5 232.5t162 198.5t207.5 80q46 0 74 -23.5t28 -71.5q0 -124 -138 -191q-18 -10 -67 -26zM249 385h37q94 0 158 59.5t67 120.5q0 60 -56 60
q-49 0 -108.5 -37t-112 -96.5t-88 -145t-35.5 -172.5q0 -61 30 -100t95 -39q78 0 131 53t53 131q0 111 -134 111h-56z" />
    <glyph glyph-name="c" unicode="c" horiz-adv-x="554" 
d="M403 175h70q-29 -94 -103 -144.5t-163 -50.5q-84 0 -130.5 47.5t-46.5 124.5q0 140 97.5 249t232.5 109q76 0 120 -37.5t44 -102.5q0 -27 -8 -55h-70q7 21 7 44q0 96 -110 96q-59 0 -108 -31.5t-77.5 -79t-43.5 -96t-15 -87.5q0 -126 115 -126q66 0 118.5 41t70.5 99z
" />
    <glyph glyph-name="d" unicode="d" horiz-adv-x="570" 
d="M426 245q13 44 13 81q0 57 -27 93t-82 36q-62 0 -116 -46t-84 -115t-30 -140q0 -52 25.5 -85.5t76.5 -33.5q75 0 137 64.5t87 145.5zM488 450l92 300h70l-229 -750h-60l32 105h-10q-3 -5 -9 -13.5t-26.5 -30t-43 -38t-58 -30t-71.5 -13.5q-67 0 -106 44t-39 116
q0 102 48.5 189.5t117.5 134t136 46.5q36 0 63.5 -13t41 -31t21.5 -36.5t10 -31.5l1 -13h10z" />
    <glyph glyph-name="e" unicode="e" horiz-adv-x="546" 
d="M111 235q-13 -47 -13 -85q0 -51 28.5 -83t84.5 -32q58 0 105 34.5t71 85.5h70q-82 -175 -263 -175q-78 0 -121 46.5t-43 123.5q0 61 23.5 124t65 116t104 86.5t132.5 33.5q80 0 120.5 -42t40.5 -112q0 -44 -15 -91l-10 -30h-380zM436 290q11 31 11 64q0 44 -26 72.5
t-83 28.5q-71 0 -123 -47.5t-84 -117.5h305z" />
    <glyph glyph-name="f" unicode="f" horiz-adv-x="349" 
d="M183 435h-100l17 55h100l49 160q17 56 38.5 78t71.5 22h100l-17 -55h-80q-30 0 -39 -30l-53 -175h110l-17 -55h-110l-133 -435h-70z" />
    <glyph glyph-name="g" unicode="g" horiz-adv-x="572" 
d="M427 245q13 44 13 81q0 57 -27 93t-82 36q-62 0 -116 -46t-84 -115t-30 -140q0 -52 25.5 -85.5t76.5 -33.5q75 0 137 64.5t87 145.5zM364 40l30 65h-10q-3 -5 -9 -13.5t-26.5 -30t-43 -38t-58 -30t-71.5 -13.5q-67 0 -106 44t-39 116q0 102 48.5 189.5t117.5 134
t136 46.5q36 0 63.5 -13t41 -31t21.5 -36.5t9 -31.5l2 -13h10l32 105h60l-144 -470q-32 -105 -104 -162.5t-182 -57.5q-29 0 -58.5 10t-55 29.5t-37 53.5t-1.5 77h65q-10 -54 19.5 -84.5t84.5 -30.5q150 0 199 165z" />
    <glyph glyph-name="h" unicode="h" 
d="M320 0l94 307q12 41 12 69q0 74 -81 74q-57 0 -111.5 -46.5t-81.5 -134.5l-82 -269h-70l229 750h70l-79 -260l-34 -80h9q83 100 180 100q56 0 90 -33t34 -88q0 -30 -15 -82l-94 -307h-70z" />
    <glyph glyph-name="i" unicode="i" horiz-adv-x="222" 
d="M220 490l-150 -490h-70l150 490h70zM168 550l29 95h70l-29 -95h-70z" />
    <glyph glyph-name="j" unicode="j" horiz-adv-x="227" 
d="M224 490l-174 -570q-17 -56 -38.5 -78t-71.5 -22h-65l17 55h45q30 0 39 30l178 585h70zM173 550l29 95h70l-29 -95h-70z" />
    <glyph glyph-name="k" unicode="k" horiz-adv-x="524" 
d="M574 490l-261 -185l81 -305h-75l-64 265l-133 -94l-52 -171h-70l229 750h70l-154 -503l339 243h90z" />
    <glyph glyph-name="l" unicode="l" horiz-adv-x="220" 
d="M300 750l-230 -750h-70l229 750h71z" />
    <glyph glyph-name="m" unicode="m" horiz-adv-x="739" 
d="M520 0l94 307q18 59 18 83q0 60 -57 60q-48 0 -92 -46t-71 -135l-82 -269h-70l94 307q15 49 15 81q0 62 -54 62q-48 0 -92 -46t-71 -135l-82 -269h-70l150 490h60l-24 -80h9q40 52 73.5 76t76.5 24q44 0 70.5 -27.5t26.5 -77.5h8q37 56 73.5 80.5t81.5 24.5t72 -27
t27 -77q0 -35 -20 -99l-94 -307h-70z" />
    <glyph glyph-name="n" unicode="n" 
d="M320 0l94 307q12 41 12 69q0 74 -81 74q-57 0 -111.5 -46.5t-81.5 -134.5l-82 -269h-70l150 490h60l-24 -80h9q83 100 180 100q56 0 90 -33t34 -88q0 -30 -15 -82l-94 -307h-70z" />
    <glyph glyph-name="o" unicode="o" horiz-adv-x="550" 
d="M356 510q78 0 121 -47.5t43 -124.5q0 -87 -41.5 -169t-118.5 -135.5t-167 -53.5q-78 0 -120.5 47t-42.5 124q0 87 41 169t117.5 136t167.5 54zM339 455q-56 0 -103.5 -31t-76 -78t-44 -97.5t-15.5 -93.5q0 -54 26.5 -87t83.5 -33q73 0 130.5 52.5t83.5 119.5t26 127
q0 54 -27 87.5t-84 33.5z" />
    <glyph glyph-name="p" unicode="p" horiz-adv-x="571" 
d="M145 245q-13 -44 -13 -81q0 -57 27 -93t82 -36q62 0 116 46t84 115t30 140q0 52 -25.5 85.5t-76.5 33.5q-75 0 -137 -64.5t-87 -145.5zM83 40l-68 -220h-70l205 670h60l-32 -105h10q3 5 9 13.5t26.5 30t43 38t58 30t71.5 13.5q67 0 106 -44t39 -116q0 -102 -48.5 -189.5
t-117.5 -134t-136 -46.5q-36 0 -63.5 13t-41 31t-21.5 36.5t-9 31.5l-2 13h-10z" />
    <glyph glyph-name="q" unicode="q" horiz-adv-x="571" 
d="M426 245q13 44 13 81q0 57 -27 93t-82 36q-62 0 -116 -46t-84 -115t-30 -140q0 -52 25.5 -85.5t76.5 -33.5q75 0 137 64.5t87 145.5zM296 -180l67 220l30 65h-10q-3 -5 -9 -13.5t-26.5 -30t-43 -38t-58 -30t-71.5 -13.5q-67 0 -106 44t-39 116q0 102 48.5 189.5
t117.5 134t136 46.5q36 0 63.5 -13t41 -31t21.5 -36.5t10 -31.5l1 -13h10l32 105h60l-205 -670h-70z" />
    <glyph glyph-name="r" unicode="r" horiz-adv-x="432" 
d="M208 490l-32 -105h10q33 53 77 89t86 36q73 0 73 -66q0 -22 -9 -54l-23 -75h-70l20 65q7 24 7 40q0 35 -39 35q-38 0 -84.5 -49.5t-72.5 -135.5l-82 -270h-69l148 490h60z" />
    <glyph glyph-name="s" unicode="s" horiz-adv-x="510" 
d="M24 165h70q-8 -27 -8 -46q0 -39 26 -61.5t78 -22.5q70 0 119 34t49 83q0 25 -27.5 43t-66.5 30l-79 26q-39 13 -66.5 36t-27.5 54q0 74 69.5 121.5t168.5 47.5q55 0 98 -25.5t43 -80.5q0 -20 -8 -49h-70q6 19 6 34q0 33 -23.5 49.5t-62.5 16.5q-63 0 -106.5 -30
t-43.5 -67q0 -23 27.5 -39.5t66.5 -28t78 -25.5t66.5 -41t27.5 -66q0 -76 -71 -127t-174 -51q-73 0 -120.5 32t-47.5 95q0 27 9 58z" />
    <glyph glyph-name="t" unicode="t" horiz-adv-x="359" 
d="M84 490h75q26 0 43.5 20.5t34.5 69.5l42 120h50l-65 -210h125l-17 -55h-125l-107 -350q-9 -30 21 -30h75l-17 -55h-95q-41 0 -53 24t4 76l102 335h-110z" />
    <glyph glyph-name="u" unicode="u" 
d="M214 490l-94 -307q-12 -40 -12 -70q0 -75 80 -75q57 0 112 47.5t82 135.5l82 269h70l-150 -490h-60l24 80h-9q-83 -100 -180 -100q-56 0 -90 33t-34 88q0 30 15 82l94 307h70z" />
    <glyph glyph-name="v" unicode="v" horiz-adv-x="503" 
d="M548 490l-345 -490h-76l-47 490h73l31 -420l287 420h77z" />
    <glyph glyph-name="w" unicode="w" horiz-adv-x="710" 
d="M750 490l-289 -490h-81l3 404l-217 -404h-81l13 490h70l-19 -420l224 420h68l-2 -420l237 420h74z" />
    <glyph glyph-name="x" unicode="x" horiz-adv-x="657" 
d="M291 245q15 51 17.5 97.5t-14.5 79.5t-53 33q-68 0 -100 -110h-70q51 165 187 165q52 0 82 -42t21 -107q32 67 84.5 108t110.5 41q44 0 68.5 -25t26 -61.5t-9.5 -78.5h-70q32 110 -32 110q-54 0 -104 -64.5t-74 -145.5q-26 -73 -15.5 -141.5t64.5 -68.5q68 0 100 110h70
q-51 -165 -183 -165q-55 0 -85 39.5t-24 103.5q-31 -66 -81.5 -104.5t-111.5 -38.5q-43 0 -67.5 25t-26 61.5t9.5 78.5h69q-32 -110 32 -110q54 0 104 64.5t75 145.5z" />
    <glyph glyph-name="y" unicode="y" horiz-adv-x="532" 
d="M212 490l-88 -287q-12 -41 -12 -70q0 -75 80 -75q57 0 112 47.5t82 135.5l76 249h70l-144 -470q-32 -105 -104 -162.5t-182 -57.5q-29 0 -58.5 10t-55 29.5t-37 53.5t-1.5 77h65q-10 -54 19.5 -84.5t84.5 -30.5q150 0 199 165l6 20l21 40l7 20h-9q-83 -100 -180 -100
q-56 0 -90 33t-34 88q0 30 15 82l88 287h70z" />
    <glyph glyph-name="z" unicode="z" horiz-adv-x="508" 
d="M63 55h337l-16 -55h-409l19 65l450 370h-337l16 55h410l-19 -65z" />
    <glyph glyph-name="braceleft" unicode="{" horiz-adv-x="360" 
d="M525 910l-18 -60h-35q-60 0 -92 -34.5t-42 -125.5l-20 -180q-5 -45 -20.5 -77t-34 -46t-36.5 -22t-30 -8h-12l-1 -4q5 0 12.5 -0.5t23.5 -8t24.5 -21.5t4.5 -46t-26 -77l-90 -180q-45 -96 -35.5 -128t71.5 -32h35l-18 -60h-45q-48 0 -76.5 20t-34 69t37.5 131l101 200
q54 105 -58 105h-25l19 60h25q111 0 122 105l21 200q13 120 63.5 170t143.5 50h45z" />
    <glyph glyph-name="bar" unicode="|" horiz-adv-x="241" 
d="M286 900h65l-337 -1100h-64z" />
    <glyph glyph-name="braceright" unicode="}" horiz-adv-x="360" 
d="M220 850l18 60h45q35 0 60.5 -11.5t40.5 -36t8.5 -68.5t-36.5 -104l-101 -200q-54 -105 58 -105h25l-19 -60h-25q-111 0 -122 -105l-21 -200q-13 -120 -63.5 -170t-142.5 -50h-45l18 60h35q60 0 91.5 34t41.5 126l20 180q5 45 20.5 77t34 46t36.5 22t30 8h12l1 4
q-5 0 -12.5 0.5t-23.5 8t-24.5 21.5t-4.5 46t26 77l90 180q31 62 35 98t-13.5 49t-57.5 13h-35z" />
    <glyph glyph-name="asciitilde" unicode="~" horiz-adv-x="731" 
d="M678 447l53 -15l-25 -44q-45 -81 -112 -101.5t-161 28.5l-91 52q-71 37 -113.5 24.5t-75.5 -69.5l-20 -34l-53 15l25 44q45 81 112 101.5t161 -28.5l91 -52q71 -37 113.5 -24.5t75.5 69.5z" />
    <glyph glyph-name="exclamdown" unicode="&#xa1;" horiz-adv-x="258" 
d="M248 510l-30 -100h-74l30 100h74zM181 330l-156 -570h-85l192 570h49z" />
    <glyph glyph-name="cent" unicode="&#xa2;" horiz-adv-x="554" 
d="M363 650h65l-43 -141q65 -6 102 -43t37 -96q0 -27 -8 -55h-70q7 21 7 44q0 83 -85 94l-127 -416q58 8 102 47t60 91h70q-27 -90 -96 -139.5t-153 -54.5l-43 -141h-65l44 145q-63 12 -96.5 56.5t-33.5 110.5q0 128 83.5 232.5t205.5 122.5zM99 161q0 -103 77 -122l126 412
q-65 -13 -113.5 -68t-69 -113.5t-20.5 -108.5z" />
    <glyph glyph-name="currency" unicode="&#xa4;" horiz-adv-x="636" 
d="M67 92l-27 38l141 108q-16 46 2 102q16 55 60 101l-74 109l49 38l75 -109q54 31 111 31q58 0 92 -31l142 109l27 -38l-143 -109q18 -42 1 -101q-18 -57 -63 -102l76 -108l-49 -38l-76 108q-52 -30 -110 -30q-60 0 -93 30zM243 340q-17 -53 5 -84t69 -31t88 31t58 84
q16 53 -6 84t-69 31t-88 -31t-57 -84z" />
    <glyph glyph-name="yen" unicode="&#xa5;" horiz-adv-x="675" 
d="M126 350h194l-173 350h84l143 -295l330 295h91l-389 -350h195l-19 -60h-200l-18 -60h200l-19 -60h-200l-52 -170h-75l52 170h-200l19 60h200l18 60h-200z" />
    <glyph glyph-name="brokenbar" unicode="&#xa6;" horiz-adv-x="241" 
d="M286 900h65l-153 -500h-65zM14 -200h-64l152 500h65z" />
    <glyph glyph-name="section" unicode="&#xa7;" horiz-adv-x="625" 
d="M45 175h70q-21 -69 15.5 -102t129.5 -33q82 0 131 28t62 67q10 33 -14.5 51.5t-68 23t-93.5 12t-92 17.5t-63.5 39t-6.5 77q20 64 95 107q-50 40 -32 98q25 80 97.5 120t175.5 40q30 0 57 -4.5t54 -16t43 -30t22.5 -47t-6.5 -67.5h-70q16 53 -18.5 79t-100.5 26
q-78 0 -126 -25.5t-62 -69.5q-11 -36 25.5 -53.5t94 -24t114 -16.5t89 -40.5t15.5 -85.5q-22 -69 -98 -105q56 -32 34 -105q-22 -72 -97 -113.5t-180 -41.5q-106 0 -165.5 48.5t-30.5 146.5zM180 355q-2 -14 -2.5 -24t8 -18t16 -13t23 -9.5t29 -7t32.5 -4.5l36 -4
q16 -1 36 -4l37 -4q56 9 84 27t38 51q7 21 -2.5 35.5t-35.5 22.5t-51.5 12t-67 9.5t-65.5 9.5q-96 -17 -115 -79z" />
    <glyph glyph-name="copyright" unicode="&#xa9;" horiz-adv-x="1050" 
d="M792 315h-70q4 13 4 29q0 46 -37 76t-102 30q-63 0 -116 -28.5t-85 -72t-49.5 -90.5t-17.5 -89q0 -58 34 -94t109 -36q70 0 135 40t82 95h70q-28 -91 -120 -143t-186 -52q-91 0 -143 50.5t-52 131.5q0 85 46 164.5t130 131.5t182 52q74 0 134 -39t60 -108q0 -21 -8 -48z
M956 371q0 126 -81.5 205t-223.5 79q-100 0 -200.5 -44t-179 -116t-127.5 -172t-49 -205q0 -126 81.5 -204.5t223.5 -78.5q100 0 200.5 43.5t178.5 115.5t127.5 172t49.5 205zM1022 379q0 -158 -93 -300t-241.5 -225.5t-307.5 -83.5q-154 0 -252 96t-98 244q0 119 55 232.5
t143.5 195.5t206 132t236.5 50q155 0 253 -96.5t98 -244.5z" />
    <glyph glyph-name="guillemotleft" unicode="&#xab;" horiz-adv-x="498" 
d="M162 260l70 -121l-33 -26l-129 157l224 157l19 -26zM327 260l70 -121l-33 -26l-129 157l224 157l19 -26z" />
    <glyph glyph-name="logicalnot" unicode="&#xac;" horiz-adv-x="649" 
d="M134 440h495l-85 -275h-65l66 215h-430z" />
    <glyph glyph-name="registered" unicode="&#xae;" horiz-adv-x="1052" 
d="M956 371q0 126 -81.5 205t-223.5 79q-100 0 -200.5 -44t-179 -116t-127.5 -172t-49 -205q0 -126 81.5 -204.5t223.5 -78.5q100 0 200.5 43.5t178.5 115.5t127.5 172t49.5 205zM1022 379q0 -158 -93 -300t-241.5 -225.5t-307.5 -83.5q-154 0 -252 96t-98 244
q0 119 55 232.5t143.5 195.5t206 132t236.5 50q155 0 253 -96.5t98 -244.5zM596 115l-35 -115h130l10 35h-10q-29 0 -34.5 10.5t6.5 59.5l8 27q7 25 5.5 41.5t-8.5 27t-14.5 16t-13.5 7.5l-7 1l3 10q4 1 11 3t25.5 11t34 21t32.5 34t25 49q19 62 -14.5 99t-144.5 38h-200
l-149 -490h70l62 205h135q57 0 73 -22.5t0 -67.5zM405 260l54 175h128q70 0 94 -22t11 -64q-27 -89 -149 -89h-138z" />
    <glyph glyph-name="degree" unicode="&#xb0;" horiz-adv-x="352" 
d="M417 624q0 -85 -61.5 -134.5t-126.5 -49.5q-43 0 -73.5 25t-30.5 71q0 85 62 134.5t127 49.5q43 0 73 -25t30 -71zM356 608q0 27 -16.5 42t-42.5 15q-37 0 -73.5 -32t-36.5 -82q0 -27 17 -41.5t42 -14.5q37 0 73.5 31.5t36.5 81.5z" />
    <glyph glyph-name="plusminus" unicode="&#xb1;" horiz-adv-x="649" 
d="M413 645h65l-66 -215h215l-18 -60h-215l-66 -215h-65l66 215h-215l18 60h215zM532 120l-18 -60h-494l18 60h494z" />
    <glyph glyph-name="mu" unicode="&#xb5;" horiz-adv-x="569" 
d="M219 490l-89 -290q-48 -160 79 -160q64 0 126 58.5t94 161.5l70 230h70l-150 -490h-60l32 105h-10q-49 -58 -96 -91.5t-102 -33.5q-24 0 -43 6t-29.5 15t-17.5 18t-9 15l-3 6l-67 -220h-69l204 670h70z" />
    <glyph glyph-name="paragraph" unicode="&#xb6;" horiz-adv-x="660" 
d="M744 700l-18 -60h-80l-251 -820h-65l251 820h-60l-251 -820h-65l104 340q-92 0 -151.5 51t-59.5 138q0 99 54 180.5t140 126t182 44.5h270z" />
    <glyph glyph-name="periodcentered" unicode="&#xb7;" horiz-adv-x="301" 
d="M120 280l31 100h75l-31 -100h-75z" />
    <glyph glyph-name="guillemotright" unicode="&#xbb;" horiz-adv-x="499" 
d="M205 139l152 141l-71 121l33 26l130 -157l-225 -157zM40 139l152 141l-71 121l33 26l130 -157l-225 -157z" />
    <glyph glyph-name="questiondown" unicode="&#xbf;" horiz-adv-x="554" 
d="M236 225h-65q14 48 53 86.5t100 38.5q43 0 65 -21.5t22 -54.5q0 -16 -6 -34q-14 -47 -57.5 -82.5t-95.5 -58.5l-100 -47q-49 -23 -82 -60.5t-33 -88.5q0 -39 30 -63.5t93 -24.5q81 0 142 48.5t61 118.5q0 20 -7.5 37.5t-14.5 24.5l-7 8l56 44q5 -4 12.5 -12t19.5 -35
t12 -57q0 -102 -88.5 -172t-205.5 -70q-79 0 -127 39t-48 101q0 23 8 50q16 52 60.5 92.5t95.5 65.5l100 48q49 23 81.5 51t32.5 63q0 33 -37 33q-50 0 -70 -68zM413 510l-31 -100h-75l31 100h75z" />
    <glyph glyph-name="Agrave" unicode="&#xc0;" horiz-adv-x="652" 
d="M-60 0l485 700h81l46 -700h-73l-12 195h-318l-132 -195h-77zM440 620l-250 -365h273zM383 950l111 -200h-39l-167 200h95z" />
    <glyph glyph-name="Aacute" unicode="&#xc1;" horiz-adv-x="652" 
d="M-60 0l485 700h81l46 -700h-73l-12 195h-318l-132 -195h-77zM440 620l-250 -365h273zM442 750l168 200h115l-244 -200h-39z" />
    <glyph glyph-name="Acircumflex" unicode="&#xc2;" horiz-adv-x="652" 
d="M-60 0l485 700h81l46 -700h-73l-12 195h-318l-132 -195h-77zM440 620l-250 -365h273zM518 870l-223 -120l-14 24l258 186l139 -196l-23 -14z" />
    <glyph glyph-name="Atilde" unicode="&#xc3;" horiz-adv-x="652" 
d="M-60 0l485 700h81l46 -700h-73l-12 195h-318l-132 -195h-77zM440 620l-250 -365h273zM712 880h30q-18 -46 -57.5 -80.5t-97.5 -34.5q-49 0 -104 30t-78 30q-60 0 -98 -60h-30q18 46 57.5 80.5t97.5 34.5q49 0 104 -30t78 -30q60 0 98 60z" />
    <glyph glyph-name="Adieresis" unicode="&#xc4;" horiz-adv-x="652" 
d="M-60 0l485 700h81l46 -700h-73l-12 195h-318l-132 -195h-77zM440 620l-250 -365h273zM353 770l31 100h75l-31 -100h-75zM538 770l31 100h75l-31 -100h-75z" />
    <glyph glyph-name="Aring" unicode="&#xc5;" horiz-adv-x="652" 
d="M372 800q16 54 63 87t98 33q48 0 76.5 -33.5t12.5 -86.5q-13 -41 -44.5 -71t-70.5 -42l45 -687h-73l-12 195h-318l-132 -195h-77l477 688q-30 14 -43.5 43t-1.5 69zM440 620l-250 -365h273zM432 800q-10 -29 3.5 -47t41.5 -18t51.5 17.5t33.5 47.5q9 29 -4.5 47t-41.5 18
t-51.5 -17.5t-32.5 -47.5z" />
    <glyph glyph-name="AE" unicode="&#xc6;" horiz-adv-x="1019" 
d="M889 0h-465l60 195h-285l-179 -195h-85l646 700h523l-19 -60h-390l-75 -245h295l-18 -60h-295l-84 -275h390zM610 640l-356 -385h248l118 385h-10z" />
    <glyph glyph-name="Ccedilla" unicode="&#xc7;" horiz-adv-x="686" 
d="M89 -180h60q-7 -23 4.5 -39t38.5 -16t48.5 16.5t29.5 43.5t-3 43.5t-38 16.5q-30 0 -57 -18l-22 44l86 71q-89 8 -137.5 68.5t-48.5 158.5q0 84 32.5 173.5t88 165t139 124t176.5 48.5q101 0 155.5 -53.5t54.5 -149.5q0 -33 -6 -67h-76q4 25 4 56q0 154 -151 154
q-95 0 -176.5 -74t-123.5 -175.5t-42 -195.5q0 -80 40 -127.5t118 -47.5q178 0 275 210h76q-53 -122 -132.5 -190t-196.5 -78l-55 -42q50 -2 73.5 -32t6.5 -83q-17 -55 -59 -85t-96 -30q-45 0 -73 30.5t-13 79.5z" />
    <glyph glyph-name="Egrave" unicode="&#xc8;" horiz-adv-x="604" 
d="M10 0l214 700h465l-19 -60h-390l-75 -245h295l-18 -60h-295l-84 -275h390l-19 -60h-464zM378 950l111 -200h-39l-167 200h95z" />
    <glyph glyph-name="Eacute" unicode="&#xc9;" horiz-adv-x="604" 
d="M10 0l214 700h465l-19 -60h-390l-75 -245h295l-18 -60h-295l-84 -275h390l-19 -60h-464zM387 750l168 200h115l-244 -200h-39z" />
    <glyph glyph-name="Ecircumflex" unicode="&#xca;" horiz-adv-x="604" 
d="M10 0l214 700h465l-19 -60h-390l-75 -245h295l-18 -60h-295l-84 -275h390l-19 -60h-464zM513 870l-223 -120l-14 24l258 186l139 -196l-23 -14z" />
    <glyph glyph-name="Edieresis" unicode="&#xcb;" horiz-adv-x="604" 
d="M10 0l214 700h465l-19 -60h-390l-75 -245h295l-18 -60h-295l-84 -275h390l-19 -60h-464zM333 770l31 100h75l-31 -100h-75zM518 770l31 100h75l-31 -100h-75z" />
    <glyph glyph-name="Igrave" unicode="&#xcc;" horiz-adv-x="244" 
d="M224 700h75l-214 -700h-75zM178 950l111 -200h-39l-167 200h95z" />
    <glyph glyph-name="Iacute" unicode="&#xcd;" horiz-adv-x="244" 
d="M224 700h75l-214 -700h-75zM237 750l168 200h115l-244 -200h-39z" />
    <glyph glyph-name="Icircumflex" unicode="&#xce;" horiz-adv-x="244" 
d="M224 700h75l-214 -700h-75zM309 840l-174 -90l-14 24l211 156l113 -166l-23 -14z" />
    <glyph glyph-name="Idieresis" unicode="&#xcf;" horiz-adv-x="244" 
d="M224 700h75l-214 -700h-75zM165 770l30 100h75l-30 -100h-75zM325 770l30 100h75l-30 -100h-75z" />
    <glyph glyph-name="Eth" unicode="&#xd0;" horiz-adv-x="697" 
d="M40 0l102 335h-117l17 60h119l93 305h200q116 0 182 -61t66 -167q0 -89 -33.5 -174t-92.5 -151t-147 -106.5t-190 -40.5h-199zM133 60h105q165 0 276 117t111 284q0 84 -48.5 131.5t-141.5 47.5h-125l-75 -245h196l-18 -60h-196z" />
    <glyph glyph-name="Ntilde" unicode="&#xd1;" horiz-adv-x="669" 
d="M724 700l-215 -700h-55l-199 575l-176 -575h-69l214 700h55l199 -575l176 575h70zM722 880h30q-18 -46 -57.5 -80.5t-97.5 -34.5q-49 0 -104 30t-78 30q-60 0 -98 -60h-30q18 46 57.5 80.5t97.5 34.5q49 0 104 -30t78 -30q60 0 98 60z" />
    <glyph glyph-name="Ograve" unicode="&#xd2;" horiz-adv-x="680" 
d="M480 720q94 0 149.5 -63.5t55.5 -168.5q0 -83 -33 -172.5t-88.5 -164t-138 -123t-172.5 -48.5q-94 0 -148.5 63t-54.5 168q0 83 32.5 172.5t87.5 164.5t137.5 123.5t172.5 48.5zM461 660q-81 0 -159.5 -64.5t-127.5 -168t-49 -210.5q0 -81 38 -129t109 -48q80 0 158.5 64
t128 167.5t49.5 209.5q0 81 -38 130t-109 49zM398 950l111 -200h-39l-167 200h95z" />
    <glyph glyph-name="Oacute" unicode="&#xd3;" horiz-adv-x="680" 
d="M480 720q94 0 149.5 -63.5t55.5 -168.5q0 -83 -33 -172.5t-88.5 -164t-138 -123t-172.5 -48.5q-94 0 -148.5 63t-54.5 168q0 83 32.5 172.5t87.5 164.5t137.5 123.5t172.5 48.5zM461 660q-81 0 -159.5 -64.5t-127.5 -168t-49 -210.5q0 -81 38 -129t109 -48q80 0 158.5 64
t128 167.5t49.5 209.5q0 81 -38 130t-109 49zM446 750l168 200h115l-244 -200h-39z" />
    <glyph glyph-name="Ocircumflex" unicode="&#xd4;" horiz-adv-x="680" 
d="M480 720q94 0 149.5 -63.5t55.5 -168.5q0 -83 -33 -172.5t-88.5 -164t-138 -123t-172.5 -48.5q-94 0 -148.5 63t-54.5 168q0 83 32.5 172.5t87.5 164.5t137.5 123.5t172.5 48.5zM461 660q-81 0 -159.5 -64.5t-127.5 -168t-49 -210.5q0 -81 38 -129t109 -48q80 0 158.5 64
t128 167.5t49.5 209.5q0 81 -38 130t-109 49zM538 870l-223 -120l-14 24l258 186l139 -196l-23 -14z" />
    <glyph glyph-name="Otilde" unicode="&#xd5;" horiz-adv-x="680" 
d="M480 720q94 0 149.5 -63.5t55.5 -168.5q0 -83 -33 -172.5t-88.5 -164t-138 -123t-172.5 -48.5q-94 0 -148.5 63t-54.5 168q0 83 32.5 172.5t87.5 164.5t137.5 123.5t172.5 48.5zM461 660q-81 0 -159.5 -64.5t-127.5 -168t-49 -210.5q0 -81 38 -129t109 -48q80 0 158.5 64
t128 167.5t49.5 209.5q0 81 -38 130t-109 49zM732 880h30q-18 -46 -57.5 -80.5t-97.5 -34.5q-49 0 -104 30t-78 30q-60 0 -98 -60h-30q18 46 57.5 80.5t97.5 34.5q49 0 104 -30t78 -30q60 0 98 60z" />
    <glyph glyph-name="Odieresis" unicode="&#xd6;" horiz-adv-x="680" 
d="M480 720q94 0 149.5 -63.5t55.5 -168.5q0 -83 -33 -172.5t-88.5 -164t-138 -123t-172.5 -48.5q-94 0 -148.5 63t-54.5 168q0 83 32.5 172.5t87.5 164.5t137.5 123.5t172.5 48.5zM461 660q-81 0 -159.5 -64.5t-127.5 -168t-49 -210.5q0 -81 38 -129t109 -48q80 0 158.5 64
t128 167.5t49.5 209.5q0 81 -38 130t-109 49zM358 770l31 100h75l-31 -100h-75zM543 770l31 100h75l-31 -100h-75z" />
    <glyph glyph-name="multiply" unicode="&#xd7;" horiz-adv-x="649" 
d="M196 510l50 38l115 -165l222 170l32 -47l-221 -170l118 -170l-50 -38l-118 170l-222 -170l-32 47l222 170z" />
    <glyph glyph-name="Oslash" unicode="&#xd8;" horiz-adv-x="701" 
d="M730 725l41 -45l-94 -88q18 -49 18 -104q0 -83 -33 -172.5t-88.5 -164t-138 -123t-172.5 -48.5q-105 0 -160 76l-87 -81l-41 45l100 93q-15 43 -15 98q0 83 32.5 172.5t87.5 164.5t137.5 123.5t172.5 48.5q101 0 157 -72zM618 481q0 25 -5 52l-454 -425q39 -68 123 -68
q80 0 158.5 64t128 167.5t49.5 209.5zM471 660q-81 0 -159.5 -64.5t-127.5 -168t-49 -210.5q0 -24 3 -45l453 423q-38 65 -120 65z" />
    <glyph glyph-name="Ugrave" unicode="&#xd9;" horiz-adv-x="646" 
d="M701 700l-144 -470q-40 -131 -116 -190.5t-206 -59.5q-83 0 -134 38t-51 113q0 47 17 99l144 470h75l-144 -470q-17 -57 -17 -94q0 -49 30.5 -72.5t98.5 -23.5q93 0 145 45t83 145l144 470h75zM378 950l111 -200h-39l-167 200h95z" />
    <glyph glyph-name="Uacute" unicode="&#xda;" horiz-adv-x="646" 
d="M701 700l-144 -470q-40 -131 -116 -190.5t-206 -59.5q-83 0 -134 38t-51 113q0 47 17 99l144 470h75l-144 -470q-17 -57 -17 -94q0 -49 30.5 -72.5t98.5 -23.5q93 0 145 45t83 145l144 470h75zM411 750l168 200h115l-244 -200h-39z" />
    <glyph glyph-name="Ucircumflex" unicode="&#xdb;" horiz-adv-x="646" 
d="M701 700l-144 -470q-40 -131 -116 -190.5t-206 -59.5q-83 0 -134 38t-51 113q0 47 17 99l144 470h75l-144 -470q-17 -57 -17 -94q0 -49 30.5 -72.5t98.5 -23.5q93 0 145 45t83 145l144 470h75zM508 870l-223 -120l-14 24l258 186l139 -196l-23 -14z" />
    <glyph glyph-name="Udieresis" unicode="&#xdc;" horiz-adv-x="646" 
d="M701 700l-144 -470q-40 -131 -116 -190.5t-206 -59.5q-83 0 -134 38t-51 113q0 47 17 99l144 470h75l-144 -470q-17 -57 -17 -94q0 -49 30.5 -72.5t98.5 -23.5q93 0 145 45t83 145l144 470h75zM338 770l31 100h75l-31 -100h-75zM523 770l31 100h75l-31 -100h-75z" />
    <glyph glyph-name="Yacute" unicode="&#xdd;" horiz-adv-x="648" 
d="M758 700l-376 -356l-106 -344h-75l105 343l-156 357h85l123 -295l310 295h90zM416 750l168 200h115l-244 -200h-39z" />
    <glyph glyph-name="Thorn" unicode="&#xde;" horiz-adv-x="628" 
d="M84 0h-74l214 700h75l-36 -115h150q110 0 160 -45.5t50 -116.5q0 -37 -10.5 -76t-36.5 -80.5t-65 -73.5t-101 -52.5t-139 -20.5h-150zM245 525l-105 -345h153q123 0 191 72t68 160q0 51 -36.5 82t-117.5 31h-153z" />
    <glyph glyph-name="germandbls" unicode="&#xdf;" horiz-adv-x="585" 
d="M-55 -180l201 660q30 98 80 160.5t104.5 86t118.5 23.5q58 0 99.5 -31t41.5 -88q0 -118 -127 -184q-38 -19 -54 -22l-1 -5q5 -1 14 -2.5t32 -12.5t40 -27.5t31.5 -50.5t14.5 -77q0 -118 -83.5 -194t-203.5 -76q-40 0 -70 7.5t-40 14.5l-10 8l35 50q24 -20 89 -20
q84 0 147.5 55.5t63.5 152.5q0 137 -146 137h-38l17 55h18q93 0 145.5 57.5t52.5 119.5q0 36 -22 57t-63 21q-150 0 -216 -215l-201 -660h-70z" />
    <glyph glyph-name="agrave" unicode="&#xe0;" horiz-adv-x="571" 
d="M426 245q13 44 13 81q0 57 -27 93t-82 36q-62 0 -116 -46t-84 -115t-30 -140q0 -52 25.5 -85.5t76.5 -33.5q75 0 137 64.5t87 145.5zM356 0l12 40l25 65h-10q-3 -5 -9 -13.5t-26.5 -30t-43 -38t-58 -30t-71.5 -13.5q-67 0 -106 44t-39 116q0 102 48.5 189.5t117.5 134
t136 46.5q36 0 63.5 -13t41 -31t21.5 -36.5t10 -31.5l1 -13h10l32 105h60l-150 -490h-65zM267 750l111 -200h-39l-167 200h95z" />
    <glyph glyph-name="aacute" unicode="&#xe1;" horiz-adv-x="571" 
d="M426 245q-25 -81 -87 -145.5t-137 -64.5q-51 0 -76.5 33.5t-25.5 85.5q0 71 30 140t84 115t116 46q55 0 82 -36t27 -93q0 -37 -13 -81zM368 40l-12 -40h65l150 490h-60l-32 -105h-10q0 5 -1.5 13.5t-9.5 30t-21.5 38t-41 30t-63.5 13.5q-67 0 -136 -46.5t-117.5 -134
t-48.5 -189.5q0 -72 39 -116t106 -44q36 0 71 13t58.5 31t42 36.5t27.5 31.5l9 13h10zM316 550l168 200h115l-244 -200h-39z" />
    <glyph glyph-name="acircumflex" unicode="&#xe2;" horiz-adv-x="571" 
d="M426 245q13 44 13 81q0 57 -27 93t-82 36q-62 0 -116 -46t-84 -115t-30 -140q0 -52 25.5 -85.5t76.5 -33.5q75 0 137 64.5t87 145.5zM356 0l12 40l25 65h-10q-3 -5 -9 -13.5t-26.5 -30t-43 -38t-58 -30t-71.5 -13.5q-67 0 -106 44t-39 116q0 102 48.5 189.5t117.5 134
t136 46.5q36 0 63.5 -13t41 -31t21.5 -36.5t10 -31.5l1 -13h10l32 105h60l-150 -490h-65zM418 665l-213 -115l-14 19l244 181l138 -183l-23 -17z" />
    <glyph glyph-name="atilde" unicode="&#xe3;" horiz-adv-x="571" 
d="M426 245q13 44 13 81q0 57 -27 93t-82 36q-62 0 -116 -46t-84 -115t-30 -140q0 -52 25.5 -85.5t76.5 -33.5q75 0 137 64.5t87 145.5zM356 0l12 40l25 65h-10q-3 -5 -9 -13.5t-26.5 -30t-43 -38t-58 -30t-71.5 -13.5q-67 0 -106 44t-39 116q0 102 48.5 189.5t117.5 134
t136 46.5q36 0 63.5 -13t41 -31t21.5 -36.5t10 -31.5l1 -13h10l32 105h60l-150 -490h-65zM595 700h30q-19 -46 -58.5 -80.5t-97.5 -34.5q-42 0 -91 30t-80 30q-49 0 -89 -60h-30q19 46 58.5 80.5t97.5 34.5q42 0 91 -30t80 -30q49 0 89 60z" />
    <glyph glyph-name="adieresis" unicode="&#xe4;" horiz-adv-x="571" 
d="M426 245q-25 -81 -87 -145.5t-137 -64.5q-51 0 -76.5 33.5t-25.5 85.5q0 71 30 140t84 115t116 46q55 0 82 -36t27 -93q0 -37 -13 -81zM368 40l-12 -40h65l150 490h-60l-32 -105h-10q0 5 -1.5 13.5t-9.5 30t-21.5 38t-41 30t-63.5 13.5q-67 0 -136 -46.5t-117.5 -134
t-48.5 -189.5q0 -72 39 -116t106 -44q36 0 71 13t58.5 31t42 36.5t27.5 31.5l9 13h10zM250 585l29 95h70l-29 -95h-70zM430 585l29 95h70l-29 -95h-70z" />
    <glyph glyph-name="aring" unicode="&#xe5;" horiz-adv-x="571" 
d="M426 245q-25 -81 -87 -145.5t-137 -64.5q-51 0 -76.5 33.5t-25.5 85.5q0 71 30 140t84 115t116 46q55 0 82 -36t27 -93q0 -37 -13 -81zM368 40l-12 -40h65l150 490h-60l-32 -105h-10q0 5 -1.5 13.5t-9.5 30t-21.5 38t-41 30t-63.5 13.5q-67 0 -136 -46.5t-117.5 -134
t-48.5 -189.5q0 -72 39 -116t106 -44q36 0 71 13t58.5 31t42 36.5t27.5 31.5l9 13h10zM280 685q16 53 61.5 84t93.5 31q46 0 73.5 -31t11.5 -84t-61.5 -84t-93.5 -31q-46 0 -73.5 31t-11.5 84zM335 685q-10 -29 3.5 -47t41.5 -18t51.5 17.5t33.5 47.5q9 30 -4 47.5t-41 17.5
t-52 -18t-33 -47z" />
    <glyph glyph-name="ae" unicode="&#xe6;" horiz-adv-x="974" 
d="M919 235h-380q-13 -47 -13 -85q0 -51 28.5 -83t84.5 -32q58 0 105 34.5t71 85.5h70q-82 -175 -263 -175q-71 0 -113.5 39t-49.5 106l-38 -125h-65l12 40l25 65h-10q-3 -5 -9 -13.5t-26.5 -30t-43 -38t-58 -30t-71.5 -13.5q-67 0 -106 44t-39 116q0 102 48.5 189.5
t117.5 134t136 46.5q36 0 63.5 -13t41 -31t21.5 -36.5t10 -31.5l1 -13h10l32 105h60l-35 -114q99 134 247 134q80 0 120.5 -42t40.5 -112q0 -44 -15 -91zM426 245q13 44 13 81q0 57 -27 93t-82 36q-62 0 -116 -46t-84 -115t-30 -140q0 -52 25.5 -85.5t76.5 -33.5
q75 0 137 64.5t87 145.5zM559 290h305q11 31 11 64q0 44 -26 72.5t-83 28.5q-71 0 -123 -47.5t-84 -117.5z" />
    <glyph glyph-name="ccedilla" unicode="&#xe7;" horiz-adv-x="554" 
d="M29 -180h60q-7 -23 4.5 -39t38.5 -16t48.5 16.5t29.5 43.5t-3 43.5t-38 16.5q-30 0 -57 -18l-22 44l86 71q-69 9 -107.5 55t-38.5 115q0 140 97.5 249t232.5 109q76 0 120 -37.5t44 -102.5q0 -27 -8 -55h-70q7 21 7 44q0 96 -110 96q-59 0 -108 -31.5t-77.5 -79
t-43.5 -96t-15 -87.5q0 -126 115 -126q66 0 118.5 41t70.5 99h70q-25 -83 -86.5 -132t-139.5 -60l-57 -43q50 -2 73.5 -32t6.5 -83q-17 -55 -59 -85t-96 -30q-45 0 -73 30.5t-13 79.5z" />
    <glyph glyph-name="egrave" unicode="&#xe8;" horiz-adv-x="546" 
d="M111 235q-13 -47 -13 -85q0 -51 28.5 -83t84.5 -32q58 0 105 34.5t71 85.5h70q-82 -175 -263 -175q-78 0 -121 46.5t-43 123.5q0 61 23.5 124t65 116t104 86.5t132.5 33.5q80 0 120.5 -42t40.5 -112q0 -44 -15 -91l-10 -30h-380zM436 290q11 31 11 64q0 44 -26 72.5
t-83 28.5q-71 0 -123 -47.5t-84 -117.5h305zM277 750l111 -200h-39l-167 200h95z" />
    <glyph glyph-name="eacute" unicode="&#xe9;" horiz-adv-x="546" 
d="M111 235q-13 -47 -13 -85q0 -51 28.5 -83t84.5 -32q58 0 105 34.5t71 85.5h70q-82 -175 -263 -175q-78 0 -121 46.5t-43 123.5q0 61 23.5 124t65 116t104 86.5t132.5 33.5q80 0 120.5 -42t40.5 -112q0 -44 -15 -91l-10 -30h-380zM436 290q11 31 11 64q0 44 -26 72.5
t-83 28.5q-71 0 -123 -47.5t-84 -117.5h305zM316 550l168 200h115l-244 -200h-39z" />
    <glyph glyph-name="ecircumflex" unicode="&#xea;" horiz-adv-x="546" 
d="M111 235q-13 -47 -13 -85q0 -51 28.5 -83t84.5 -32q58 0 105 34.5t71 85.5h70q-82 -175 -263 -175q-78 0 -121 46.5t-43 123.5q0 61 23.5 124t65 116t104 86.5t132.5 33.5q80 0 120.5 -42t40.5 -112q0 -44 -15 -91l-10 -30h-380zM436 290q11 31 11 64q0 44 -26 72.5
t-83 28.5q-71 0 -123 -47.5t-84 -117.5h305zM408 665l-213 -115l-14 19l244 181l138 -183l-23 -17z" />
    <glyph glyph-name="edieresis" unicode="&#xeb;" horiz-adv-x="546" 
d="M111 235q-13 -47 -13 -85q0 -51 28.5 -83t84.5 -32q58 0 105 34.5t71 85.5h70q-82 -175 -263 -175q-78 0 -121 46.5t-43 123.5q0 61 23.5 124t65 116t104 86.5t132.5 33.5q80 0 120.5 -42t40.5 -112q0 -44 -15 -91l-10 -30h-380zM436 290q11 31 11 64q0 44 -26 72.5
t-83 28.5q-71 0 -123 -47.5t-84 -117.5h305zM250 585l29 95h70l-29 -95h-70zM430 585l29 95h70l-29 -95h-70z" />
    <glyph glyph-name="igrave" unicode="&#xec;" horiz-adv-x="222" 
d="M220 490l-150 -490h-70l150 490h70zM122 750l111 -200h-39l-167 200h95z" />
    <glyph glyph-name="iacute" unicode="&#xed;" horiz-adv-x="222" 
d="M220 490l-150 -490h-70l150 490h70zM161 550l168 200h115l-244 -200h-39z" />
    <glyph glyph-name="icircumflex" unicode="&#xee;" horiz-adv-x="222" 
d="M220 490l-150 -490h-70l150 490h70zM242 662l-163 -92l-14 19l199 161l103 -163l-23 -17z" />
    <glyph glyph-name="idieresis" unicode="&#xef;" horiz-adv-x="222" 
d="M220 490l-150 -490h-70l150 490h70zM99 550l28 95h70l-29 -95h-69zM238 550l29 95h70l-29 -95h-70z" />
    <glyph glyph-name="eth" unicode="&#xf0;" horiz-adv-x="559" 
d="M312 596l63 64q-64 35 -168 35l16 55q117 0 195 -47l72 72l35 -35l-67 -67q81 -76 81 -217q0 -78 -31.5 -184.5t-98.5 -187.5q-85 -104 -210 -104q-76 0 -122.5 48.5t-46.5 125.5q0 86 41.5 169t111 135t143.5 52q38 0 66.5 -13t42 -31t22 -36.5t9.5 -31.5l2 -13h9
q4 18 4 64q0 119 -65 181l-69 -69zM329 455q-69 0 -124 -50.5t-80.5 -116.5t-25.5 -127q0 -54 28 -90t89 -36q65 0 118 52.5t78 118t25 120.5q0 57 -26.5 93t-81.5 36z" />
    <glyph glyph-name="ntilde" unicode="&#xf1;" 
d="M320 0l94 307q12 41 12 69q0 74 -81 74q-57 0 -111.5 -46.5t-81.5 -134.5l-82 -269h-70l150 490h60l-24 -80h9q83 100 180 100q56 0 90 -33t34 -88q0 -30 -15 -82l-94 -307h-70zM595 700h30q-19 -46 -58.5 -80.5t-97.5 -34.5q-42 0 -91 30t-80 30q-49 0 -89 -60h-30
q19 46 58.5 80.5t97.5 34.5q42 0 91 -30t80 -30q49 0 89 60z" />
    <glyph glyph-name="ograve" unicode="&#xf2;" horiz-adv-x="550" 
d="M356 510q78 0 121 -47.5t43 -124.5q0 -87 -41.5 -169t-118.5 -135.5t-167 -53.5q-78 0 -120.5 47t-42.5 124q0 87 41 169t117.5 136t167.5 54zM339 455q-56 0 -103.5 -31t-76 -78t-44 -97.5t-15.5 -93.5q0 -54 26.5 -87t83.5 -33q73 0 130.5 52.5t83.5 119.5t26 127
q0 54 -27 87.5t-84 33.5zM262 750l111 -200h-39l-167 200h95z" />
    <glyph glyph-name="oacute" unicode="&#xf3;" horiz-adv-x="550" 
d="M356 510q78 0 121 -47.5t43 -124.5q0 -87 -41.5 -169t-118.5 -135.5t-167 -53.5q-78 0 -120.5 47t-42.5 124q0 87 41 169t117.5 136t167.5 54zM339 455q-56 0 -103.5 -31t-76 -78t-44 -97.5t-15.5 -93.5q0 -54 26.5 -87t83.5 -33q73 0 130.5 52.5t83.5 119.5t26 127
q0 54 -27 87.5t-84 33.5zM321 550l168 200h115l-244 -200h-39z" />
    <glyph glyph-name="ocircumflex" unicode="&#xf4;" horiz-adv-x="550" 
d="M356 510q78 0 121 -47.5t43 -124.5q0 -87 -41.5 -169t-118.5 -135.5t-167 -53.5q-78 0 -120.5 47t-42.5 124q0 87 41 169t117.5 136t167.5 54zM339 455q-56 0 -103.5 -31t-76 -78t-44 -97.5t-15.5 -93.5q0 -54 26.5 -87t83.5 -33q73 0 130.5 52.5t83.5 119.5t26 127
q0 54 -27 87.5t-84 33.5zM403 665l-213 -115l-14 19l244 181l138 -183l-23 -17z" />
    <glyph glyph-name="otilde" unicode="&#xf5;" horiz-adv-x="550" 
d="M356 510q78 0 121 -47.5t43 -124.5q0 -87 -41.5 -169t-118.5 -135.5t-167 -53.5q-78 0 -120.5 47t-42.5 124q0 87 41 169t117.5 136t167.5 54zM339 455q-56 0 -103.5 -31t-76 -78t-44 -97.5t-15.5 -93.5q0 -54 26.5 -87t83.5 -33q73 0 130.5 52.5t83.5 119.5t26 127
q0 54 -27 87.5t-84 33.5zM595 700h30q-19 -46 -58.5 -80.5t-97.5 -34.5q-42 0 -91 30t-80 30q-49 0 -89 -60h-30q19 46 58.5 80.5t97.5 34.5q42 0 91 -30t80 -30q49 0 89 60z" />
    <glyph glyph-name="odieresis" unicode="&#xf6;" horiz-adv-x="550" 
d="M356 510q78 0 121 -47.5t43 -124.5q0 -87 -41.5 -169t-118.5 -135.5t-167 -53.5q-78 0 -120.5 47t-42.5 124q0 87 41 169t117.5 136t167.5 54zM339 455q-56 0 -103.5 -31t-76 -78t-44 -97.5t-15.5 -93.5q0 -54 26.5 -87t83.5 -33q73 0 130.5 52.5t83.5 119.5t26 127
q0 54 -27 87.5t-84 33.5zM250 585l29 95h70l-29 -95h-70zM430 585l29 95h70l-29 -95h-70z" />
    <glyph glyph-name="divide" unicode="&#xf7;" horiz-adv-x="649" 
d="M114 370h495l-19 -60h-495zM354 470l31 100h75l-31 -100h-75zM244 110l31 100h75l-31 -100h-75z" />
    <glyph glyph-name="oslash" unicode="&#xf8;" horiz-adv-x="570" 
d="M542 515l38 -42l-65 -59q15 -36 15 -76q0 -87 -41.5 -169t-118.5 -135.5t-167 -53.5q-73 0 -117 47l-58 -52l-38 42l64 58q-14 32 -14 76q0 87 41 169t117.5 136t167.5 54q72 0 117 -48zM349 455q-56 0 -103.5 -31t-76 -78t-44 -97.5t-15.5 -93.5q0 -19 2 -28l323 292
q-28 36 -86 36zM460 334q0 9 -2 29l-324 -293q29 -35 86 -35q73 0 130.5 52.5t83.5 119.5t26 127z" />
    <glyph glyph-name="ugrave" unicode="&#xf9;" 
d="M214 490l-94 -307q-12 -40 -12 -70q0 -75 80 -75q57 0 112 47.5t82 135.5l82 269h70l-150 -490h-60l24 80h-9q-83 -100 -180 -100q-56 0 -90 33t-34 88q0 30 15 82l94 307h70zM262 750l111 -200h-39l-167 200h95z" />
    <glyph glyph-name="uacute" unicode="&#xfa;" 
d="M214 490l-94 -307q-12 -40 -12 -70q0 -75 80 -75q57 0 112 47.5t82 135.5l82 269h70l-150 -490h-60l24 80h-9q-83 -100 -180 -100q-56 0 -90 33t-34 88q0 30 15 82l94 307h70zM296 550l168 200h115l-244 -200h-39z" />
    <glyph glyph-name="ucircumflex" unicode="&#xfb;" 
d="M214 490l-94 -307q-12 -40 -12 -70q0 -75 80 -75q57 0 112 47.5t82 135.5l82 269h70l-150 -490h-60l24 80h-9q-83 -100 -180 -100q-56 0 -90 33t-34 88q0 30 15 82l94 307h70zM403 665l-213 -115l-14 19l244 181l138 -183l-23 -17z" />
    <glyph glyph-name="udieresis" unicode="&#xfc;" 
d="M214 490l-94 -307q-12 -40 -12 -70q0 -75 80 -75q57 0 112 47.5t82 135.5l82 269h70l-150 -490h-60l24 80h-9q-83 -100 -180 -100q-56 0 -90 33t-34 88q0 30 15 82l94 307h70zM235 585l29 95h70l-29 -95h-70zM415 585l29 95h70l-29 -95h-70z" />
    <glyph glyph-name="yacute" unicode="&#xfd;" horiz-adv-x="532" 
d="M212 490l-88 -287q-12 -41 -12 -70q0 -75 80 -75q57 0 112 47.5t82 135.5l76 249h70l-144 -470q-32 -105 -104 -162.5t-182 -57.5q-29 0 -58.5 10t-55 29.5t-37 53.5t-1.5 77h65q-10 -54 19.5 -84.5t84.5 -30.5q150 0 199 165l6 20l21 40l7 20h-9q-83 -100 -180 -100
q-56 0 -90 33t-34 88q0 30 15 82l88 287h70zM296 550l168 200h115l-244 -200h-39z" />
    <glyph glyph-name="thorn" unicode="&#xfe;" horiz-adv-x="571" 
d="M300 750l-81 -260l-41 -105h10q3 5 9 13.5t26.5 30t43 38t58 30t71.5 13.5q67 0 106 -44t39 -116q0 -102 -48.5 -189.5t-117.5 -134t-136 -46.5q-36 0 -63.5 13t-41 31t-21.5 36.5t-9 31.5l-2 13h-10l-9 -65l-68 -220h-70l285 930h70zM145 245q-13 -44 -13 -81
q0 -57 27 -93t82 -36q62 0 116 46t84 115t30 140q0 52 -25.5 85.5t-76.5 33.5q-75 0 -137 -64.5t-87 -145.5z" />
    <glyph glyph-name="ydieresis" unicode="&#xff;" horiz-adv-x="532" 
d="M212 490l-88 -287q-12 -41 -12 -70q0 -75 80 -75q57 0 112 47.5t82 135.5l76 249h70l-144 -470q-32 -105 -104 -162.5t-182 -57.5q-29 0 -58.5 10t-55 29.5t-37 53.5t-1.5 77h65q-10 -54 19.5 -84.5t84.5 -30.5q150 0 199 165l6 20l21 40l7 20h-9q-83 -100 -180 -100
q-56 0 -90 33t-34 88q0 30 15 82l88 287h70zM235 585l29 95h70l-29 -95h-70zM415 585l29 95h70l-29 -95h-70z" />
    <glyph glyph-name="Amacron" unicode="&#x100;" horiz-adv-x="652" 
d="M-60 0l485 700h81l46 -700h-73l-12 195h-318l-132 -195h-77zM440 620l-250 -365h273zM729 830l-18 -60h-430l18 60h430z" />
    <glyph glyph-name="amacron" unicode="&#x101;" horiz-adv-x="571" 
d="M426 245q-25 -81 -87 -145.5t-137 -64.5q-51 0 -76.5 33.5t-25.5 85.5q0 71 30 140t84 115t116 46q55 0 82 -36t27 -93q0 -37 -13 -81zM368 40l-12 -40h65l150 490h-60l-32 -105h-10q0 5 -1.5 13.5t-9.5 30t-21.5 38t-41 30t-63.5 13.5q-67 0 -136 -46.5t-117.5 -134
t-48.5 -189.5q0 -72 39 -116t106 -44q36 0 71 13t58.5 31t42 36.5t27.5 31.5l9 13h10zM576 645l-18 -60h-350l18 60h350z" />
    <glyph glyph-name="Abreve" unicode="&#x102;" horiz-adv-x="652" 
d="M-60 0l485 700h81l46 -700h-73l-12 195h-318l-132 -195h-77zM440 620l-250 -365h273zM632 905h55q-53 -150 -205 -150q-62 0 -97 41t-18 109h55q-8 -42 9 -68.5t67 -26.5t83.5 26.5t50.5 68.5z" />
    <glyph glyph-name="abreve" unicode="&#x103;" horiz-adv-x="571" 
d="M426 245q-25 -81 -87 -145.5t-137 -64.5q-51 0 -76.5 33.5t-25.5 85.5q0 71 30 140t84 115t116 46q55 0 82 -36t27 -93q0 -37 -13 -81zM368 40l-12 -40h65l150 490h-60l-32 -105h-10q0 5 -1.5 13.5t-9.5 30t-21.5 38t-41 30t-63.5 13.5q-67 0 -136 -46.5t-117.5 -134
t-48.5 -189.5q0 -72 39 -116t106 -44q36 0 71 13t58.5 31t42 36.5t27.5 31.5l9 13h10zM504 700h50q-20 -64 -69.5 -102t-118.5 -38q-61 0 -91 39t-11 101h50q-11 -36 3.5 -63t63.5 -27t80.5 27.5t42.5 62.5z" />
    <glyph glyph-name="Aogonek" unicode="&#x104;" horiz-adv-x="652" 
d="M479 0l-12 195h-318l-132 -195h-77l485 700h81l46 -700q-48 -2 -97 -42t-49 -91q0 -25 15 -38.5t38 -13.5q57 0 76 65h60q-36 -120 -146 -120q-45 0 -73 26t-28 64q0 33 15 61t38 46t42.5 28t35.5 15zM440 620l-250 -365h273z" />
    <glyph glyph-name="aogonek" unicode="&#x105;" horiz-adv-x="571" 
d="M356 0l12 40l25 65h-10q-3 -5 -9 -13.5t-26.5 -30t-43 -38t-58 -30t-71.5 -13.5q-67 0 -106 44t-39 116q0 102 48.5 189.5t117.5 134t136 46.5q36 0 63.5 -13t41 -31t21.5 -36.5t10 -31.5l1 -13h10l32 105h60l-150 -490h1q-48 -2 -92 -39.5t-44 -88.5q0 -28 15 -42.5
t38 -14.5q57 0 76 65h60q-36 -120 -146 -120q-45 0 -73 28.5t-28 66.5q0 33 14.5 60.5t37.5 44.5t41 26t35 14zM426 245q13 44 13 81q0 57 -27 93t-82 36q-62 0 -116 -46t-84 -115t-30 -140q0 -52 25.5 -85.5t76.5 -33.5q75 0 137 64.5t87 145.5z" />
    <glyph glyph-name="Cacute" unicode="&#x106;" horiz-adv-x="686" 
d="M467 660q-95 0 -176.5 -74t-123.5 -175.5t-42 -195.5q0 -80 40 -127.5t118 -47.5q178 0 275 210h76q-57 -132 -146 -201t-224 -69q-101 0 -157.5 62t-56.5 167q0 84 32.5 173.5t88 165t139 124t176.5 48.5q101 0 155.5 -53.5t54.5 -149.5q0 -33 -6 -67h-76q4 25 4 56
q0 154 -151 154zM446 750l168 200h115l-244 -200h-39z" />
    <glyph glyph-name="cacute" unicode="&#x107;" horiz-adv-x="554" 
d="M403 175h70q-29 -94 -103 -144.5t-163 -50.5q-84 0 -130.5 47.5t-46.5 124.5q0 140 97.5 249t232.5 109q76 0 120 -37.5t44 -102.5q0 -27 -8 -55h-70q7 21 7 44q0 96 -110 96q-59 0 -108 -31.5t-77.5 -79t-43.5 -96t-15 -87.5q0 -126 115 -126q66 0 118.5 41t70.5 99z
M311 550l168 200h115l-244 -200h-39z" />
    <glyph glyph-name="Ccircumflex" unicode="&#x108;" horiz-adv-x="686" 
d="M467 660q-95 0 -176.5 -74t-123.5 -175.5t-42 -195.5q0 -80 40 -127.5t118 -47.5q178 0 275 210h76q-57 -132 -146 -201t-224 -69q-101 0 -157.5 62t-56.5 167q0 84 32.5 173.5t88 165t139 124t176.5 48.5q101 0 155.5 -53.5t54.5 -149.5q0 -33 -6 -67h-76q4 25 4 56
q0 154 -151 154zM533 870l-223 -120l-14 24l258 186l139 -196l-23 -14z" />
    <glyph glyph-name="ccircumflex" unicode="&#x109;" horiz-adv-x="554" 
d="M403 175h70q-29 -94 -103 -144.5t-163 -50.5q-84 0 -130.5 47.5t-46.5 124.5q0 140 97.5 249t232.5 109q76 0 120 -37.5t44 -102.5q0 -27 -8 -55h-70q7 21 7 44q0 96 -110 96q-59 0 -108 -31.5t-77.5 -79t-43.5 -96t-15 -87.5q0 -126 115 -126q66 0 118.5 41t70.5 99z
M413 665l-213 -115l-14 19l244 181l138 -183l-23 -17z" />
    <glyph glyph-name="Cdotaccent" unicode="&#x10a;" horiz-adv-x="686" 
d="M467 660q-95 0 -176.5 -74t-123.5 -175.5t-42 -195.5q0 -80 40 -127.5t118 -47.5q178 0 275 210h76q-57 -132 -146 -201t-224 -69q-101 0 -157.5 62t-56.5 167q0 84 32.5 173.5t88 165t139 124t176.5 48.5q101 0 155.5 -53.5t54.5 -149.5q0 -33 -6 -67h-76q4 25 4 56
q0 154 -151 154zM463 770l31 100h75l-31 -100h-75z" />
    <glyph glyph-name="cdotaccent" unicode="&#x10b;" horiz-adv-x="554" 
d="M403 175h70q-29 -94 -103 -144.5t-163 -50.5q-84 0 -130.5 47.5t-46.5 124.5q0 140 97.5 249t232.5 109q76 0 120 -37.5t44 -102.5q0 -27 -8 -55h-70q7 21 7 44q0 96 -110 96q-59 0 -108 -31.5t-77.5 -79t-43.5 -96t-15 -87.5q0 -126 115 -126q66 0 118.5 41t70.5 99z
M345 585l29 95h70l-29 -95h-70z" />
    <glyph glyph-name="Ccaron" unicode="&#x10c;" horiz-adv-x="686" 
d="M467 660q-95 0 -176.5 -74t-123.5 -175.5t-42 -195.5q0 -80 40 -127.5t118 -47.5q178 0 275 210h76q-57 -132 -146 -201t-224 -69q-101 0 -157.5 62t-56.5 167q0 84 32.5 173.5t88 165t139 124t176.5 48.5q101 0 155.5 -53.5t54.5 -149.5q0 -33 -6 -67h-76q4 25 4 56
q0 154 -151 154zM521 840l223 120l14 -24l-258 -186l-139 196l23 14z" />
    <glyph glyph-name="ccaron" unicode="&#x10d;" horiz-adv-x="554" 
d="M403 175h70q-29 -94 -103 -144.5t-163 -50.5q-84 0 -130.5 47.5t-46.5 124.5q0 140 97.5 249t232.5 109q76 0 120 -37.5t44 -102.5q0 -27 -8 -55h-70q7 21 7 44q0 96 -110 96q-59 0 -108 -31.5t-77.5 -79t-43.5 -96t-15 -87.5q0 -126 115 -126q66 0 118.5 41t70.5 99z
M376 635l213 115l14 -19l-244 -181l-138 183l23 17z" />
    <glyph glyph-name="Dcaron" unicode="&#x10e;" horiz-adv-x="667" 
d="M10 0l214 700h200q116 0 182 -61t66 -167q0 -89 -33.5 -174t-92.5 -151t-147 -106.5t-190 -40.5h-199zM103 60h105q165 0 276 117t111 284q0 84 -48.5 131.5t-141.5 47.5h-125zM446 840l223 120l14 -24l-258 -186l-139 196l23 14z" />
    <glyph glyph-name="dcaron" unicode="&#x10f;" horiz-adv-x="640" 
d="M426 245q13 44 13 81q0 57 -27 93t-82 36q-62 0 -116 -46t-84 -115t-30 -140q0 -52 25.5 -85.5t76.5 -33.5q75 0 137 64.5t87 145.5zM488 450l92 300h70l-229 -750h-60l32 105h-10q-3 -5 -9 -13.5t-26.5 -30t-43 -38t-58 -30t-71.5 -13.5q-67 0 -106 44t-39 116
q0 102 48.5 189.5t117.5 134t136 46.5q36 0 63.5 -13t41 -31t21.5 -36.5t10 -31.5l1 -13h10zM644 535h-25l8 25h10q31 0 51.5 19.5t36.5 70.5l30 100h65l-21 -70q-24 -79 -62 -112t-93 -33z" />
    <glyph glyph-name="Dcroat" unicode="&#x110;" horiz-adv-x="697" 
d="M40 0l102 335h-117l17 60h119l93 305h200q116 0 182 -61t66 -167q0 -89 -33.5 -174t-92.5 -151t-147 -106.5t-190 -40.5h-199zM133 60h105q165 0 276 117t111 284q0 84 -48.5 131.5t-141.5 47.5h-125l-75 -245h196l-18 -60h-196z" />
    <glyph glyph-name="dcroat" unicode="&#x111;" horiz-adv-x="591" 
d="M426 610h75q31 0 45 18t34 72l19 50h50l-43 -140h115l-17 -55h-115l-168 -555h-60l32 105h-10q-3 -5 -9 -13.5t-26.5 -30t-43 -38t-58 -30t-71.5 -13.5q-67 0 -106 44t-39 116q0 102 48.5 189.5t117.5 134t136 46.5q36 0 63.5 -13t41 -31t21.5 -36.5t10 -31.5l1 -13h10
l9 65l31 105h-110zM426 245q13 44 13 81q0 57 -27 93t-82 36q-62 0 -116 -46t-84 -115t-30 -140q0 -52 25.5 -85.5t76.5 -33.5q75 0 137 64.5t87 145.5z" />
    <glyph glyph-name="Emacron" unicode="&#x112;" horiz-adv-x="604" 
d="M10 0l214 700h465l-19 -60h-390l-75 -245h295l-18 -60h-295l-84 -275h390l-19 -60h-464zM709 830l-18 -60h-430l18 60h430z" />
    <glyph glyph-name="emacron" unicode="&#x113;" horiz-adv-x="546" 
d="M111 235q-13 -47 -13 -85q0 -51 28.5 -83t84.5 -32q58 0 105 34.5t71 85.5h70q-82 -175 -263 -175q-78 0 -121 46.5t-43 123.5q0 61 23.5 124t65 116t104 86.5t132.5 33.5q80 0 120.5 -42t40.5 -112q0 -44 -15 -91l-10 -30h-380zM436 290q11 31 11 64q0 44 -26 72.5
t-83 28.5q-71 0 -123 -47.5t-84 -117.5h305zM571 645l-18 -60h-350l18 60h350z" />
    <glyph glyph-name="Ebreve" unicode="&#x114;" horiz-adv-x="604" 
d="M10 0l214 700h465l-19 -60h-390l-75 -245h295l-18 -60h-295l-84 -275h390l-19 -60h-464zM608 905h55q-53 -150 -205 -150q-62 0 -97 41t-18 109h55q-8 -42 9 -68.5t67 -26.5t83.5 26.5t50.5 68.5z" />
    <glyph glyph-name="ebreve" unicode="&#x115;" horiz-adv-x="546" 
d="M111 235q-13 -47 -13 -85q0 -51 28.5 -83t84.5 -32q58 0 105 34.5t71 85.5h70q-82 -175 -263 -175q-78 0 -121 46.5t-43 123.5q0 61 23.5 124t65 116t104 86.5t132.5 33.5q80 0 120.5 -42t40.5 -112q0 -44 -15 -91l-10 -30h-380zM436 290q11 31 11 64q0 44 -26 72.5
t-83 28.5q-71 0 -123 -47.5t-84 -117.5h305zM509 700h50q-20 -64 -69.5 -102t-118.5 -38q-61 0 -91 39t-11 101h50q-11 -36 3.5 -63t63.5 -27t80.5 27.5t42.5 62.5z" />
    <glyph glyph-name="Edotaccent" unicode="&#x116;" horiz-adv-x="604" 
d="M10 0l214 700h465l-19 -60h-390l-75 -245h295l-18 -60h-295l-84 -275h390l-19 -60h-464zM428 770l31 100h75l-31 -100h-75z" />
    <glyph glyph-name="edotaccent" unicode="&#x117;" horiz-adv-x="546" 
d="M111 235q-13 -47 -13 -85q0 -51 28.5 -83t84.5 -32q58 0 105 34.5t71 85.5h70q-82 -175 -263 -175q-78 0 -121 46.5t-43 123.5q0 61 23.5 124t65 116t104 86.5t132.5 33.5q80 0 120.5 -42t40.5 -112q0 -44 -15 -91l-10 -30h-380zM436 290q11 31 11 64q0 44 -26 72.5
t-83 28.5q-71 0 -123 -47.5t-84 -117.5h305zM340 585l29 95h70l-29 -95h-70z" />
    <glyph glyph-name="Eogonek" unicode="&#x118;" horiz-adv-x="604" 
d="M10 0l214 700h465l-19 -60h-390l-75 -245h295l-18 -60h-295l-84 -275h390l-19 -60h-145q-52 -3 -109 -41.5t-57 -91.5q0 -25 15 -38.5t38 -13.5q56 0 76 65h60q-36 -120 -146 -120q-45 0 -73 26t-28 64q0 33 16.5 61t42 46t48 28.5t41.5 14.5h-243z" />
    <glyph glyph-name="eogonek" unicode="&#x119;" horiz-adv-x="546" 
d="M111 235q-13 -47 -13 -85q0 -51 28.5 -83t84.5 -32q58 0 105 34.5t71 85.5h70q-80 -170 -256 -175q-40 -18 -66.5 -47.5t-26.5 -65.5q0 -25 15 -38.5t38 -13.5q57 0 76 65h60q-36 -120 -146 -120q-45 0 -73 26t-28 64q0 86 102 134q-58 12 -90 56t-32 110q0 61 23.5 124
t65 116t104 86.5t132.5 33.5q80 0 120.5 -42t40.5 -112q0 -44 -15 -91l-10 -30h-380zM436 290q11 31 11 64q0 44 -26 72.5t-83 28.5q-71 0 -123 -47.5t-84 -117.5h305z" />
    <glyph glyph-name="Ecaron" unicode="&#x11a;" horiz-adv-x="604" 
d="M10 0l214 700h465l-19 -60h-390l-75 -245h295l-18 -60h-295l-84 -275h390l-19 -60h-464zM476 840l223 120l14 -24l-258 -186l-139 196l23 14z" />
    <glyph glyph-name="ecaron" unicode="&#x11b;" horiz-adv-x="546" 
d="M111 235q-13 -47 -13 -85q0 -51 28.5 -83t84.5 -32q58 0 105 34.5t71 85.5h70q-82 -175 -263 -175q-78 0 -121 46.5t-43 123.5q0 61 23.5 124t65 116t104 86.5t132.5 33.5q80 0 120.5 -42t40.5 -112q0 -44 -15 -91l-10 -30h-380zM436 290q11 31 11 64q0 44 -26 72.5
t-83 28.5q-71 0 -123 -47.5t-84 -117.5h305zM376 635l213 115l14 -19l-244 -181l-138 183l23 17z" />
    <glyph glyph-name="Gcircumflex" unicode="&#x11c;" horiz-adv-x="701" 
d="M663 330l-101 -330h-50l51 204q-58 -110 -127 -167t-172 -57q-101 0 -157.5 62t-56.5 167q0 84 32.5 173.5t88 165t139 124t176.5 48.5q101 0 155.5 -53.5t54.5 -149.5q0 -33 -6 -67h-76q4 25 4 56q0 154 -151 154q-95 0 -176.5 -74t-123.5 -175.5t-42 -195.5
q0 -80 40 -127.5t118 -47.5q170 0 277 230h-235l18 60h320zM538 870l-223 -120l-14 24l258 186l139 -196l-23 -14z" />
    <glyph glyph-name="gcircumflex" unicode="&#x11d;" horiz-adv-x="572" 
d="M427 245q13 44 13 81q0 57 -27 93t-82 36q-62 0 -116 -46t-84 -115t-30 -140q0 -52 25.5 -85.5t76.5 -33.5q75 0 137 64.5t87 145.5zM364 40l30 65h-10q-3 -5 -9 -13.5t-26.5 -30t-43 -38t-58 -30t-71.5 -13.5q-67 0 -106 44t-39 116q0 102 48.5 189.5t117.5 134
t136 46.5q36 0 63.5 -13t41 -31t21.5 -36.5t9 -31.5l2 -13h10l32 105h60l-144 -470q-32 -105 -104 -162.5t-182 -57.5q-29 0 -58.5 10t-55 29.5t-37 53.5t-1.5 77h65q-10 -54 19.5 -84.5t84.5 -30.5q150 0 199 165zM418 665l-213 -115l-14 19l244 181l138 -183l-23 -17z" />
    <glyph glyph-name="Gbreve" unicode="&#x11e;" horiz-adv-x="701" 
d="M663 330l-101 -330h-50l51 204q-58 -110 -127 -167t-172 -57q-101 0 -157.5 62t-56.5 167q0 84 32.5 173.5t88 165t139 124t176.5 48.5q101 0 155.5 -53.5t54.5 -149.5q0 -33 -6 -67h-76q4 25 4 56q0 154 -151 154q-95 0 -176.5 -74t-123.5 -175.5t-42 -195.5
q0 -80 40 -127.5t118 -47.5q170 0 277 230h-235l18 60h320zM648 905h55q-53 -150 -205 -150q-62 0 -97 41t-18 109h55q-8 -42 9 -68.5t67 -26.5t83.5 26.5t50.5 68.5z" />
    <glyph glyph-name="gbreve" unicode="&#x11f;" horiz-adv-x="572" 
d="M427 245q-25 -81 -87 -145.5t-137 -64.5q-51 0 -76.5 33.5t-25.5 85.5q0 71 30 140t84 115t116 46q55 0 82 -36t27 -93q0 -37 -13 -81zM394 105l-30 -65l-6 -20q-49 -165 -199 -165q-55 0 -84.5 30.5t-19.5 84.5h-65q-10 -43 1.5 -77t37 -53.5t55 -29.5t58.5 -10
q110 0 182 57.5t104 162.5l144 470h-60l-32 -105h-10q0 5 -1.5 13.5t-9.5 30t-21.5 38t-41 30t-63.5 13.5q-67 0 -136 -46.5t-117.5 -134t-48.5 -189.5q0 -72 39 -116t106 -44q36 0 71 13t58.5 31t42 36.5t27.5 31.5l9 13h10zM499 700h50q-20 -64 -69.5 -102t-118.5 -38
q-61 0 -91 39t-11 101h50q-11 -36 3.5 -63t63.5 -27t80.5 27.5t42.5 62.5z" />
    <glyph glyph-name="Gdotaccent" unicode="&#x120;" horiz-adv-x="701" 
d="M663 330l-101 -330h-50l51 204q-58 -110 -127 -167t-172 -57q-101 0 -157.5 62t-56.5 167q0 84 32.5 173.5t88 165t139 124t176.5 48.5q101 0 155.5 -53.5t54.5 -149.5q0 -33 -6 -67h-76q4 25 4 56q0 154 -151 154q-95 0 -176.5 -74t-123.5 -175.5t-42 -195.5
q0 -80 40 -127.5t118 -47.5q170 0 277 230h-235l18 60h320zM463 770l31 100h75l-31 -100h-75z" />
    <glyph glyph-name="gdotaccent" unicode="&#x121;" horiz-adv-x="572" 
d="M427 245q-25 -81 -87 -145.5t-137 -64.5q-51 0 -76.5 33.5t-25.5 85.5q0 71 30 140t84 115t116 46q55 0 82 -36t27 -93q0 -37 -13 -81zM394 105l-30 -65l-6 -20q-49 -165 -199 -165q-55 0 -84.5 30.5t-19.5 84.5h-65q-10 -43 1.5 -77t37 -53.5t55 -29.5t58.5 -10
q110 0 182 57.5t104 162.5l144 470h-60l-32 -105h-10q0 5 -1.5 13.5t-9.5 30t-21.5 38t-41 30t-63.5 13.5q-67 0 -136 -46.5t-117.5 -134t-48.5 -189.5q0 -72 39 -116t106 -44q36 0 71 13t58.5 31t42 36.5t27.5 31.5l9 13h10zM330 585l29 95h70l-29 -95h-70z" />
    <glyph glyph-name="Gcommaaccent" unicode="&#x122;" horiz-adv-x="701" 
d="M663 330l-101 -330h-50l51 204q-58 -110 -127 -167t-172 -57q-101 0 -157.5 62t-56.5 167q0 84 32.5 173.5t88 165t139 124t176.5 48.5q101 0 155.5 -53.5t54.5 -149.5q0 -33 -6 -67h-76q4 25 4 56q0 154 -151 154q-95 0 -176.5 -74t-123.5 -175.5t-42 -195.5
q0 -80 40 -127.5t118 -47.5q170 0 277 230h-235l18 60h320zM123 -285h-25l7 25h10q31 0 51 19.5t36 70.5l30 100h65l-21 -70q-25 -79 -62 -112t-91 -33z" />
    <glyph glyph-name="gcommaaccent" unicode="&#x123;" horiz-adv-x="572" 
d="M427 245q-25 -81 -87 -145.5t-137 -64.5q-51 0 -76.5 33.5t-25.5 85.5q0 71 30 140t84 115t116 46q55 0 82 -36t27 -93q0 -37 -13 -81zM394 105l-30 -65l-6 -20q-49 -165 -199 -165q-55 0 -84.5 30.5t-19.5 84.5h-65q-10 -43 1.5 -77t37 -53.5t55 -29.5t58.5 -10
q110 0 182 57.5t104 162.5l144 470h-60l-32 -105h-10q0 5 -1.5 13.5t-9.5 30t-21.5 38t-41 30t-63.5 13.5q-67 0 -136 -46.5t-117.5 -134t-48.5 -189.5q0 -72 39 -116t106 -44q36 0 71 13t58.5 31t42 36.5t27.5 31.5l9 13h10zM509 780h25l-7 -25h-10q-31 0 -51.5 -19.5
t-36.5 -70.5l-30 -100h-65l21 70q25 79 62 112t92 33z" />
    <glyph glyph-name="Hcircumflex" unicode="&#x124;" horiz-adv-x="650" 
d="M705 700l-214 -700h-75l102 335h-331l-102 -335h-75l214 700h75l-94 -305h331l94 305h75zM518 870l-223 -120l-14 24l258 186l139 -196l-23 -14z" />
    <glyph glyph-name="hcircumflex" unicode="&#x125;" 
d="M320 0l94 307q12 41 12 69q0 74 -81 74q-57 0 -111.5 -46.5t-81.5 -134.5l-82 -269h-70l229 750h70l-79 -260l-34 -80h9q83 100 180 100q56 0 90 -33t34 -88q0 -30 -15 -82l-94 -307h-70zM438 885l-213 -115l-14 19l244 181l138 -183l-23 -17z" />
    <glyph glyph-name="Hbar" unicode="&#x126;" horiz-adv-x="687" 
d="M797 610l-18 -60h-100l-169 -550h-75l103 335h-331l-103 -335h-74l168 550h-100l18 60h100l28 90h75l-28 -90h331l28 90h75l-28 -90h100zM225 395h331l48 155h-331z" />
    <glyph glyph-name="hbar" unicode="&#x127;" horiz-adv-x="543" 
d="M86 610h75q31 0 45 18t34 72l19 50h50l-43 -140h125l-17 -55h-125l-25 -85l-34 -80h9q83 100 180 100q56 0 90 -33t34 -88q0 -30 -15 -82l-88 -287h-70l88 287q12 41 12 69q0 74 -81 74q-57 0 -111.5 -46.5t-81.5 -134.5l-76 -249h-70l169 555h-110z" />
    <glyph glyph-name="Itilde" unicode="&#x128;" horiz-adv-x="244" 
d="M224 700h75l-214 -700h-75zM479 880h25q-19 -48 -52 -81.5t-78 -33.5q-38 0 -90.5 30t-71.5 30q-22 0 -44.5 -18t-33.5 -42h-25q19 48 52 81.5t78 33.5q38 0 90.5 -30t71.5 -30q22 0 44.5 18t33.5 42z" />
    <glyph glyph-name="itilde" unicode="&#x129;" horiz-adv-x="222" 
d="M220 490l-150 -490h-70l150 490h70zM387 700h25q-46 -115 -121 -115q-30 0 -52 15t-40.5 30t-38.5 15q-39 0 -69 -60h-25q46 115 121 115q30 0 52 -15t40.5 -30t38.5 -15q39 0 69 60z" />
    <glyph glyph-name="uni012A" unicode="&#x12a;" horiz-adv-x="244" 
d="M224 700h75l-214 -700h-75zM451 830l-18 -60h-295l18 60h295z" />
    <glyph glyph-name="imacron" unicode="&#x12b;" horiz-adv-x="222" 
d="M220 490l-150 -490h-70l150 490h70zM361 645l-18 -60h-250l18 60h250z" />
    <glyph glyph-name="Ibreve" unicode="&#x12c;" horiz-adv-x="244" 
d="M224 700h75l-214 -700h-75zM428 905h55q-53 -150 -205 -150q-62 0 -97 41t-18 109h55q-8 -42 9 -68.5t67 -26.5t83.5 26.5t50.5 68.5z" />
    <glyph glyph-name="uni012D" unicode="&#x12d;" horiz-adv-x="222" 
d="M220 490l-150 -490h-70l150 490h70zM342 700h55q-19 -63 -69.5 -99t-117.5 -36t-94.5 36t-8.5 99h55q-11 -35 2 -60t62 -25q88 0 116 85z" />
    <glyph glyph-name="Iogonek" unicode="&#x12e;" horiz-adv-x="244" 
d="M10 0l214 700h75l-214 -700q-48 -3 -94.5 -40t-46.5 -88q0 -28 15 -42.5t38 -14.5q57 0 76 65h60q-36 -120 -146 -120q-45 0 -73 28.5t-28 66.5q0 93 124 145z" />
    <glyph glyph-name="iogonek" unicode="&#x12f;" horiz-adv-x="222" 
d="M0 0l150 490h70l-150 -490q-48 -2 -94 -39.5t-46 -88.5q0 -28 15 -42.5t38 -14.5q57 0 76 65h60q-36 -120 -146 -120q-45 0 -73 28.5t-28 66.5q0 33 14.5 60.5t37.5 44.5t41 26t35 14zM168 550l29 95h70l-29 -95h-70z" />
    <glyph glyph-name="Idotaccent" unicode="&#x130;" horiz-adv-x="244" 
d="M224 700h75l-214 -700h-75zM245 770l31 100h75l-31 -100h-75z" />
    <glyph glyph-name="dotlessi" unicode="&#x131;" horiz-adv-x="220" 
d="M220 490l-150 -490h-70l150 490h70z" />
    <glyph glyph-name="Jcircumflex" unicode="&#x134;" horiz-adv-x="563" 
d="M618 700l-147 -480q-73 -240 -289 -240q-70 0 -113.5 35.5t-43.5 108.5q0 42 31 146h75q-33 -108 -33 -138q0 -48 25.5 -70t77.5 -22q140 0 195 180l147 480h75zM623 840l-174 -90l-14 24l211 156l113 -166l-23 -14z" />
    <glyph glyph-name="jcircumflex" unicode="&#x135;" horiz-adv-x="227" 
d="M224 490l-174 -570q-17 -56 -38.5 -78t-71.5 -22h-65l17 55h45q30 0 39 30l178 585h70zM246 662l-163 -92l-14 19l199 161l103 -163l-23 -17z" />
    <glyph glyph-name="Kcommaaccent" unicode="&#x136;" horiz-adv-x="634" 
d="M299 700l-114 -371l464 371h95l-352 -277l92 -423h-79l-73 376l-174 -137l-73 -239h-75l214 700h75zM83 -285h-25l7 25h10q31 0 51 19.5t36 70.5l30 100h65l-21 -70q-25 -79 -62 -112t-91 -33z" />
    <glyph glyph-name="kcommaaccent" unicode="&#x137;" horiz-adv-x="524" 
d="M574 490l-261 -185l81 -305h-75l-64 265l-133 -94l-52 -171h-70l229 750h70l-154 -503l339 243h90zM33 -285h-25l7 25h10q31 0 51 19.5t36 70.5l30 100h65l-21 -70q-25 -79 -62 -112t-91 -33z" />
    <glyph glyph-name="Lacute" unicode="&#x139;" horiz-adv-x="555" 
d="M10 0l214 700h75l-196 -640h357l-18 -60h-432zM261 750l168 200h115l-244 -200h-39z" />
    <glyph glyph-name="lacute" unicode="&#x13a;" horiz-adv-x="220" 
d="M300 750l-230 -750h-70l229 750h71zM251 790l168 200h115l-244 -200h-39z" />
    <glyph glyph-name="Lcommaaccent" unicode="&#x13b;" horiz-adv-x="555" 
d="M10 0l214 700h75l-196 -640h357l-18 -60h-432zM78 -285h-25l7 25h10q31 0 51 19.5t36 70.5l30 100h65l-21 -70q-25 -79 -62 -112t-91 -33z" />
    <glyph glyph-name="lcommaaccent" unicode="&#x13c;" horiz-adv-x="220" 
d="M300 750l-230 -750h-70l229 750h71zM-127 -285h-25l7 25h10q31 0 51 19.5t36 70.5l30 100h65l-21 -70q-25 -79 -62 -112t-91 -33z" />
    <glyph glyph-name="Lcaron" unicode="&#x13d;" horiz-adv-x="555" 
d="M10 0l214 700h75l-196 -640h357l-18 -60h-432zM328 535h-25l8 25h10q31 0 51.5 19.5t36.5 70.5l30 100h65l-21 -70q-24 -79 -62 -112t-93 -33z" />
    <glyph glyph-name="lcaron" unicode="&#x13e;" horiz-adv-x="288" 
d="M298 750l-229 -750h-69l228 750h70zM292 535h-25l8 25h10q31 0 51.5 19.5t36.5 70.5l30 100h65l-21 -70q-24 -79 -62 -112t-93 -33z" />
    <glyph glyph-name="Lslash" unicode="&#x141;" horiz-adv-x="586" 
d="M415 490l14 -52l-211 -103l-84 -275h357l-18 -60h-432l89 292l-112 -54l-13 52l146 71l104 339h75l-91 -296z" />
    <glyph glyph-name="lslash" unicode="&#x142;" horiz-adv-x="350" 
d="M365 460l15 -52l-148 -74l-102 -334h-70l89 293l-110 -55l-14 52l146 73l118 387h70l-106 -346z" />
    <glyph glyph-name="Nacute" unicode="&#x143;" horiz-adv-x="669" 
d="M724 700l-215 -700h-55l-199 575l-176 -575h-69l214 700h55l199 -575l176 575h70zM436 750l168 200h115l-244 -200h-39z" />
    <glyph glyph-name="nacute" unicode="&#x144;" 
d="M320 0l94 307q12 41 12 69q0 74 -81 74q-57 0 -111.5 -46.5t-81.5 -134.5l-82 -269h-70l150 490h60l-24 -80h9q83 100 180 100q56 0 90 -33t34 -88q0 -30 -15 -82l-94 -307h-70zM281 550l168 200h115l-244 -200h-39z" />
    <glyph glyph-name="Ncommaaccent" unicode="&#x145;" horiz-adv-x="669" 
d="M724 700l-215 -700h-55l-199 575l-176 -575h-69l214 700h55l199 -575l176 575h70zM113 -285h-25l7 25h10q31 0 51 19.5t36 70.5l30 100h65l-21 -70q-25 -79 -62 -112t-91 -33z" />
    <glyph glyph-name="ncommaaccent" unicode="&#x146;" 
d="M320 0l94 307q12 41 12 69q0 74 -81 74q-57 0 -111.5 -46.5t-81.5 -134.5l-82 -269h-70l150 490h60l-24 -80h9q83 100 180 100q56 0 90 -33t34 -88q0 -30 -15 -82l-94 -307h-70zM38 -285h-25l7 25h10q31 0 51 19.5t36 70.5l30 100h65l-21 -70q-25 -79 -62 -112t-91 -33z
" />
    <glyph glyph-name="Ncaron" unicode="&#x147;" horiz-adv-x="669" 
d="M724 700l-215 -700h-55l-199 575l-176 -575h-69l214 700h55l199 -575l176 575h70zM486 840l223 120l14 -24l-258 -186l-139 196l23 14z" />
    <glyph glyph-name="ncaron" unicode="&#x148;" 
d="M320 0l94 307q12 41 12 69q0 74 -81 74q-57 0 -111.5 -46.5t-81.5 -134.5l-82 -269h-70l150 490h60l-24 -80h9q83 100 180 100q56 0 90 -33t34 -88q0 -30 -15 -82l-94 -307h-70zM361 635l213 115l14 -19l-244 -181l-138 183l23 17z" />
    <glyph glyph-name="Eng" unicode="&#x14a;" horiz-adv-x="669" 
d="M724 700l-239 -780q-17 -56 -38.5 -78t-71.5 -22h-95l18 60h75q30 0 39 30l34 112l-191 553l-176 -575h-69l214 700h55l199 -575l176 575h70z" />
    <glyph glyph-name="eng" unicode="&#x14b;" 
d="M484 307l-119 -387q-17 -56 -38.5 -78t-71.5 -22h-75l17 55h55q30 0 39 30l123 402q12 41 12 69q0 74 -81 74q-57 0 -111.5 -46.5t-81.5 -134.5l-82 -269h-70l150 490h60l-24 -80h9q83 100 180 100q56 0 90 -33t34 -88q0 -30 -15 -82z" />
    <glyph glyph-name="Omacron" unicode="&#x14c;" horiz-adv-x="680" 
d="M480 720q94 0 149.5 -63.5t55.5 -168.5q0 -83 -33 -172.5t-88.5 -164t-138 -123t-172.5 -48.5q-94 0 -148.5 63t-54.5 168q0 83 32.5 172.5t87.5 164.5t137.5 123.5t172.5 48.5zM461 660q-81 0 -159.5 -64.5t-127.5 -168t-49 -210.5q0 -81 38 -129t109 -48q80 0 158.5 64
t128 167.5t49.5 209.5q0 81 -38 130t-109 49zM744 830l-18 -60h-430l18 60h430z" />
    <glyph glyph-name="omacron" unicode="&#x14d;" horiz-adv-x="550" 
d="M356 510q78 0 121 -47.5t43 -124.5q0 -87 -41.5 -169t-118.5 -135.5t-167 -53.5q-78 0 -120.5 47t-42.5 124q0 87 41 169t117.5 136t167.5 54zM339 455q-56 0 -103.5 -31t-76 -78t-44 -97.5t-15.5 -93.5q0 -54 26.5 -87t83.5 -33q73 0 130.5 52.5t83.5 119.5t26 127
q0 54 -27 87.5t-84 33.5zM576 645l-18 -60h-350l18 60h350z" />
    <glyph glyph-name="Obreve" unicode="&#x14e;" horiz-adv-x="680" 
d="M480 720q94 0 149.5 -63.5t55.5 -168.5q0 -83 -33 -172.5t-88.5 -164t-138 -123t-172.5 -48.5q-94 0 -148.5 63t-54.5 168q0 83 32.5 172.5t87.5 164.5t137.5 123.5t172.5 48.5zM461 660q-81 0 -159.5 -64.5t-127.5 -168t-49 -210.5q0 -81 38 -129t109 -48q80 0 158.5 64
t128 167.5t49.5 209.5q0 81 -38 130t-109 49zM642 905h55q-53 -150 -205 -150q-62 0 -97 41t-18 109h55q-8 -42 9 -68.5t67 -26.5t83.5 26.5t50.5 68.5z" />
    <glyph glyph-name="obreve" unicode="&#x14f;" horiz-adv-x="550" 
d="M356 510q78 0 121 -47.5t43 -124.5q0 -87 -41.5 -169t-118.5 -135.5t-167 -53.5q-78 0 -120.5 47t-42.5 124q0 87 41 169t117.5 136t167.5 54zM339 455q-56 0 -103.5 -31t-76 -78t-44 -97.5t-15.5 -93.5q0 -54 26.5 -87t83.5 -33q73 0 130.5 52.5t83.5 119.5t26 127
q0 54 -27 87.5t-84 33.5zM509 700h50q-20 -64 -69.5 -102t-118.5 -38q-61 0 -91 39t-11 101h50q-11 -36 3.5 -63t63.5 -27t80.5 27.5t42.5 62.5z" />
    <glyph glyph-name="Ohungarumlaut" unicode="&#x150;" horiz-adv-x="680" 
d="M480 720q94 0 149.5 -63.5t55.5 -168.5q0 -83 -33 -172.5t-88.5 -164t-138 -123t-172.5 -48.5q-94 0 -148.5 63t-54.5 168q0 83 32.5 172.5t87.5 164.5t137.5 123.5t172.5 48.5zM461 660q-81 0 -159.5 -64.5t-127.5 -168t-49 -210.5q0 -81 38 -129t109 -48q80 0 158.5 64
t128 167.5t49.5 209.5q0 81 -38 130t-109 49zM387 750l168 200h115l-244 -200h-39zM537 750l168 200h115l-244 -200h-39z" />
    <glyph glyph-name="ohungarumlaut" unicode="&#x151;" horiz-adv-x="550" 
d="M356 510q78 0 121 -47.5t43 -124.5q0 -87 -41.5 -169t-118.5 -135.5t-167 -53.5q-78 0 -120.5 47t-42.5 124q0 87 41 169t117.5 136t167.5 54zM339 455q-56 0 -103.5 -31t-76 -78t-44 -97.5t-15.5 -93.5q0 -54 26.5 -87t83.5 -33q73 0 130.5 52.5t83.5 119.5t26 127
q0 54 -27 87.5t-84 33.5zM247 550l168 200h115l-244 -200h-39zM397 550l168 200h115l-244 -200h-39z" />
    <glyph glyph-name="OE" unicode="&#x152;" horiz-adv-x="1079" 
d="M461 660q-81 0 -159.5 -64.5t-127.5 -168t-49 -210.5q0 -81 38 -129t109 -48q80 0 158.5 64t128 167.5t49.5 209.5q0 81 -38 130t-109 49zM485 0l29 97q-119 -117 -261 -117q-94 0 -148.5 63t-54.5 168q0 83 32.5 172.5t87.5 164.5t137.5 123.5t172.5 48.5
q67 0 115 -33.5t71 -92.5l33 106h465l-19 -60h-390l-75 -245h295l-18 -60h-295l-84 -275h390l-19 -60h-464z" />
    <glyph glyph-name="oe" unicode="&#x153;" horiz-adv-x="940" 
d="M339 455q-56 0 -103.5 -31t-76 -78t-44 -97.5t-15.5 -93.5q0 -54 26.5 -87t83.5 -33q73 0 130.5 52.5t83.5 119.5t26 127q0 54 -27 87.5t-84 33.5zM830 290q11 31 11 64q0 44 -26 72.5t-83 28.5q-71 0 -123 -47.5t-84 -117.5h305zM505 235q-13 -47 -13 -85
q0 -51 28.5 -83t84.5 -32q58 0 105 34.5t71 85.5h70q-82 -175 -263 -175q-64 0 -104.5 31.5t-53.5 86.5q-99 -118 -237 -118q-78 0 -120.5 47t-42.5 124q0 87 41 169t117.5 136t167.5 54q63 0 103.5 -32t54.5 -87q97 119 235 119q80 0 120.5 -42t40.5 -112q0 -44 -15 -91
l-10 -30h-380z" />
    <glyph glyph-name="Racute" unicode="&#x154;" horiz-adv-x="661" 
d="M394 0l49 160q23 75 23 98q0 35 -30 51t-106 16h-145l-101 -325h-74l214 700h305q82 0 117 -37t35 -92q0 -79 -56.5 -141t-135.5 -77l-3 -10q51 -13 51 -70q0 -30 -27 -123l-13 -45q-10 -35 -10 -46q0 -15 8.5 -19.5t29.5 -4.5h15l-11 -35h-135zM280 640l-77 -255h202
q46 0 83.5 13t59.5 33t36.5 44.5t20 46t5.5 39.5q0 35 -23 57t-74 22h-233zM386 750l168 200h115l-244 -200h-39z" />
    <glyph glyph-name="racute" unicode="&#x155;" horiz-adv-x="432" 
d="M208 490l-32 -105h10q33 53 77 89t86 36q73 0 73 -66q0 -22 -9 -54l-23 -75h-70l20 65q7 24 7 40q0 35 -39 35q-38 0 -84.5 -49.5t-72.5 -135.5l-82 -270h-69l148 490h60zM241 550l168 200h115l-244 -200h-39z" />
    <glyph glyph-name="Rcommaaccent" unicode="&#x156;" horiz-adv-x="661" 
d="M394 0l49 160q23 75 23 98q0 35 -30 51t-106 16h-145l-101 -325h-74l214 700h305q82 0 117 -37t35 -92q0 -79 -56.5 -141t-135.5 -77l-3 -10q51 -13 51 -70q0 -30 -27 -123l-13 -45q-10 -35 -10 -46q0 -15 8.5 -19.5t29.5 -4.5h15l-11 -35h-135zM280 640l-77 -255h202
q46 0 83.5 13t59.5 33t36.5 44.5t20 46t5.5 39.5q0 35 -23 57t-74 22h-233zM83 -285h-25l7 25h10q31 0 51 19.5t36 70.5l30 100h65l-21 -70q-25 -79 -62 -112t-91 -33z" />
    <glyph glyph-name="rcommaaccent" unicode="&#x157;" horiz-adv-x="432" 
d="M208 490l-32 -105h10q33 53 77 89t86 36q73 0 73 -66q0 -22 -9 -54l-23 -75h-70l20 65q7 24 7 40q0 35 -39 35q-38 0 -84.5 -49.5t-72.5 -135.5l-82 -270h-69l148 490h60zM-127 -285h-25l7 25h10q31 0 51 19.5t36 70.5l30 100h65l-21 -70q-25 -79 -62 -112t-91 -33z" />
    <glyph glyph-name="Rcaron" unicode="&#x158;" horiz-adv-x="661" 
d="M394 0l49 160q23 75 23 98q0 35 -30 51t-106 16h-145l-101 -325h-74l214 700h305q82 0 117 -37t35 -92q0 -79 -56.5 -141t-135.5 -77l-3 -10q51 -13 51 -70q0 -30 -27 -123l-13 -45q-10 -35 -10 -46q0 -15 8.5 -19.5t29.5 -4.5h15l-11 -35h-135zM280 640l-77 -255h202
q46 0 83.5 13t59.5 33t36.5 44.5t20 46t5.5 39.5q0 35 -23 57t-74 22h-233zM451 840l223 120l14 -24l-258 -186l-139 196l23 14z" />
    <glyph glyph-name="rcaron" unicode="&#x159;" horiz-adv-x="432" 
d="M208 490l-32 -105h10q33 53 77 89t86 36q73 0 73 -66q0 -22 -9 -54l-23 -75h-70l20 65q7 24 7 40q0 35 -39 35q-38 0 -84.5 -49.5t-72.5 -135.5l-82 -270h-69l148 490h60zM301 635l213 115l14 -19l-244 -181l-138 183l23 17z" />
    <glyph glyph-name="Sacute" unicode="&#x15a;" horiz-adv-x="642" 
d="M43 255h70q-12 -44 -12 -76q0 -60 36.5 -99.5t125.5 -39.5q65 0 115.5 19t76 47.5t38 55t12.5 49.5q0 41 -36.5 66.5t-88.5 40t-104 31t-88.5 49.5t-36.5 84q0 72 48 128t116.5 83t139.5 27q94 0 140.5 -46t46.5 -121q0 -41 -14 -88h-70q12 38 12 76q0 119 -134 119
q-93 0 -152.5 -52.5t-59.5 -105.5q0 -39 36.5 -65.5t88 -42t103.5 -33t88.5 -52t36.5 -85.5q0 -109 -99 -176.5t-234 -67.5q-109 0 -161.5 53t-52.5 136q0 44 13 86zM416 750l168 200h115l-244 -200h-39z" />
    <glyph glyph-name="sacute" unicode="&#x15b;" horiz-adv-x="510" 
d="M24 165h70q-8 -27 -8 -46q0 -39 26 -61.5t78 -22.5q70 0 119 34t49 83q0 25 -27.5 43t-66.5 30l-79 26q-39 13 -66.5 36t-27.5 54q0 74 69.5 121.5t168.5 47.5q55 0 98 -25.5t43 -80.5q0 -20 -8 -49h-70q6 19 6 34q0 33 -23.5 49.5t-62.5 16.5q-63 0 -106.5 -30
t-43.5 -67q0 -23 27.5 -39.5t66.5 -28t78 -25.5t66.5 -41t27.5 -66q0 -76 -71 -127t-174 -51q-73 0 -120.5 32t-47.5 95q0 27 9 58zM286 550l168 200h115l-244 -200h-39z" />
    <glyph glyph-name="Scircumflex" unicode="&#x15c;" horiz-adv-x="642" 
d="M43 255h70q-12 -44 -12 -76q0 -60 36.5 -99.5t125.5 -39.5q65 0 115.5 19t76 47.5t38 55t12.5 49.5q0 41 -36.5 66.5t-88.5 40t-104 31t-88.5 49.5t-36.5 84q0 72 48 128t116.5 83t139.5 27q94 0 140.5 -46t46.5 -121q0 -41 -14 -88h-70q12 38 12 76q0 119 -134 119
q-93 0 -152.5 -52.5t-59.5 -105.5q0 -39 36.5 -65.5t88 -42t103.5 -33t88.5 -52t36.5 -85.5q0 -109 -99 -176.5t-234 -67.5q-109 0 -161.5 53t-52.5 136q0 44 13 86zM503 870l-223 -120l-14 24l258 186l139 -196l-23 -14z" />
    <glyph glyph-name="scircumflex" unicode="&#x15d;" horiz-adv-x="510" 
d="M24 165h70q-8 -27 -8 -46q0 -39 26 -61.5t78 -22.5q70 0 119 34t49 83q0 25 -27.5 43t-66.5 30l-79 26q-39 13 -66.5 36t-27.5 54q0 74 69.5 121.5t168.5 47.5q55 0 98 -25.5t43 -80.5q0 -20 -8 -49h-70q6 19 6 34q0 33 -23.5 49.5t-62.5 16.5q-63 0 -106.5 -30
t-43.5 -67q0 -23 27.5 -39.5t66.5 -28t78 -25.5t66.5 -41t27.5 -66q0 -76 -71 -127t-174 -51q-73 0 -120.5 32t-47.5 95q0 27 9 58zM378 665l-213 -115l-14 19l244 181l138 -183l-23 -17z" />
    <glyph glyph-name="Scedilla" unicode="&#x15e;" horiz-adv-x="642" 
d="M59 -180h60q-7 -23 4.5 -39t38.5 -16t48.5 16.5t29.5 43.5t-3 43.5t-38 16.5q-30 0 -57 -18l-22 44l87 71q-90 9 -133.5 60.5t-43.5 126.5q0 44 13 86h70q-12 -44 -12 -76q0 -60 36.5 -99.5t125.5 -39.5q65 0 115.5 19t76 47.5t38 55t12.5 49.5q0 41 -36.5 66.5t-88.5 40
t-104 31t-88.5 49.5t-36.5 84q0 72 48 128t116.5 83t139.5 27q94 0 140.5 -46t46.5 -121q0 -41 -14 -88h-70q12 38 12 76q0 119 -134 119q-93 0 -152.5 -52.5t-59.5 -105.5q0 -39 36.5 -65.5t88 -42t103.5 -33t88.5 -52t36.5 -85.5q0 -102 -88.5 -168t-214.5 -75l-54 -41
q50 -2 73.5 -32t6.5 -83q-17 -55 -59 -85t-96 -30q-45 0 -73 30.5t-13 79.5z" />
    <glyph glyph-name="scedilla" unicode="&#x15f;" horiz-adv-x="510" 
d="M9 -180h60q-7 -23 4.5 -39t38.5 -16t48.5 16.5t29.5 43.5t-3 43.5t-38 16.5q-30 0 -57 -18l-22 44l86 70q-63 6 -102 37.5t-39 88.5q0 27 9 58h70q-8 -27 -8 -46q0 -39 26 -61.5t78 -22.5q70 0 119 34t49 83q0 25 -27.5 43t-67.5 30l-78 26q-39 13 -66.5 36t-27.5 54
q0 74 69.5 121.5t168.5 47.5q55 0 98 -25.5t43 -80.5q0 -20 -8 -49h-70q6 19 6 34q0 33 -23.5 49.5t-62.5 16.5q-63 0 -106.5 -30t-43.5 -67q0 -23 27.5 -39.5t66.5 -28t78 -25.5t66.5 -41t27.5 -66q0 -67 -57 -115.5t-145 -59.5l-56 -43q50 -2 73.5 -32t6.5 -83
q-17 -55 -59 -85t-96 -30q-45 0 -73 30.5t-13 79.5z" />
    <glyph glyph-name="Scaron" unicode="&#x160;" horiz-adv-x="642" 
d="M43 255h70q-12 -44 -12 -76q0 -60 36.5 -99.5t125.5 -39.5q65 0 115.5 19t76 47.5t38 55t12.5 49.5q0 41 -36.5 66.5t-88.5 40t-104 31t-88.5 49.5t-36.5 84q0 72 48 128t116.5 83t139.5 27q94 0 140.5 -46t46.5 -121q0 -41 -14 -88h-70q12 38 12 76q0 119 -134 119
q-93 0 -152.5 -52.5t-59.5 -105.5q0 -39 36.5 -65.5t88 -42t103.5 -33t88.5 -52t36.5 -85.5q0 -109 -99 -176.5t-234 -67.5q-109 0 -161.5 53t-52.5 136q0 44 13 86zM466 840l223 120l14 -24l-258 -186l-139 196l23 14z" />
    <glyph glyph-name="scaron" unicode="&#x161;" horiz-adv-x="510" 
d="M24 165h70q-8 -27 -8 -46q0 -39 26 -61.5t78 -22.5q70 0 119 34t49 83q0 25 -27.5 43t-66.5 30l-79 26q-39 13 -66.5 36t-27.5 54q0 74 69.5 121.5t168.5 47.5q55 0 98 -25.5t43 -80.5q0 -20 -8 -49h-70q6 19 6 34q0 33 -23.5 49.5t-62.5 16.5q-63 0 -106.5 -30
t-43.5 -67q0 -23 27.5 -39.5t66.5 -28t78 -25.5t66.5 -41t27.5 -66q0 -76 -71 -127t-174 -51q-73 0 -120.5 32t-47.5 95q0 27 9 58zM336 635l213 115l14 -19l-244 -181l-138 183l23 17z" />
    <glyph glyph-name="Tcommaaccent" unicode="&#x162;" horiz-adv-x="605" 
d="M695 700l-19 -60h-225l-196 -640h-75l196 640h-226l19 60h526zM58 -285h-25l7 25h10q31 0 51 19.5t36 70.5l30 100h65l-21 -70q-25 -79 -62 -112t-91 -33z" />
    <glyph glyph-name="tcommaaccent" unicode="&#x163;" horiz-adv-x="359" 
d="M84 490h75q26 0 43.5 20.5t34.5 69.5l42 120h50l-65 -210h125l-17 -55h-125l-107 -350q-9 -30 21 -30h75l-17 -55h-95q-41 0 -53 24t4 76l102 335h-110zM-27 -285h-25l7 25h10q31 0 51 19.5t36 70.5l30 100h65l-21 -70q-25 -79 -62 -112t-91 -33z" />
    <glyph glyph-name="Tcaron" unicode="&#x164;" horiz-adv-x="605" 
d="M695 700l-19 -60h-225l-196 -640h-75l196 640h-226l19 60h526zM456 840l223 120l14 -24l-258 -186l-139 196l23 14z" />
    <glyph glyph-name="tcaron" unicode="&#x165;" horiz-adv-x="364" 
d="M84 490h75q26 0 43.5 20.5t34.5 69.5l42 120h50l-65 -210h125l-17 -55h-125l-107 -350q-9 -30 21 -30h75l-17 -55h-95q-41 0 -53 24t4 76l102 335h-110zM348 535h-25l8 25h10q31 0 51.5 19.5t36.5 70.5l30 100h65l-21 -70q-24 -79 -62 -112t-93 -33z" />
    <glyph glyph-name="Utilde" unicode="&#x168;" horiz-adv-x="646" 
d="M701 700l-144 -470q-40 -131 -116 -190.5t-206 -59.5q-83 0 -134 38t-51 113q0 47 17 99l144 470h75l-144 -470q-17 -57 -17 -94q0 -49 30.5 -72.5t98.5 -23.5q93 0 145 45t83 145l144 470h75zM702 880h30q-18 -46 -57.5 -80.5t-97.5 -34.5q-49 0 -104 30t-78 30
q-60 0 -98 -60h-30q18 46 57.5 80.5t97.5 34.5q49 0 104 -30t78 -30q60 0 98 60z" />
    <glyph glyph-name="utilde" unicode="&#x169;" 
d="M214 490l-94 -307q-12 -40 -12 -70q0 -75 80 -75q57 0 112 47.5t82 135.5l82 269h70l-150 -490h-60l24 80h-9q-83 -100 -180 -100q-56 0 -90 33t-34 88q0 30 15 82l94 307h70zM595 700h30q-19 -46 -58.5 -80.5t-97.5 -34.5q-42 0 -91 30t-80 30q-49 0 -89 -60h-30
q19 46 58.5 80.5t97.5 34.5q42 0 91 -30t80 -30q49 0 89 60z" />
    <glyph glyph-name="Umacron" unicode="&#x16a;" horiz-adv-x="646" 
d="M701 700l-144 -470q-40 -131 -116 -190.5t-206 -59.5q-83 0 -134 38t-51 113q0 47 17 99l144 470h75l-144 -470q-17 -57 -17 -94q0 -49 30.5 -72.5t98.5 -23.5q93 0 145 45t83 145l144 470h75zM709 830l-18 -60h-430l18 60h430z" />
    <glyph glyph-name="umacron" unicode="&#x16b;" 
d="M214 490l-94 -307q-12 -40 -12 -70q0 -75 80 -75q57 0 112 47.5t82 135.5l82 269h70l-150 -490h-60l24 80h-9q-83 -100 -180 -100q-56 0 -90 33t-34 88q0 30 15 82l94 307h70zM561 645l-18 -60h-350l18 60h350z" />
    <glyph glyph-name="Ubreve" unicode="&#x16c;" horiz-adv-x="646" 
d="M701 700l-144 -470q-40 -131 -116 -190.5t-206 -59.5q-83 0 -134 38t-51 113q0 47 17 99l144 470h75l-144 -470q-17 -57 -17 -94q0 -49 30.5 -72.5t98.5 -23.5q93 0 145 45t83 145l144 470h75zM608 905h55q-53 -150 -205 -150q-62 0 -97 41t-18 109h55q-8 -42 9 -68.5
t67 -26.5t83.5 26.5t50.5 68.5z" />
    <glyph glyph-name="ubreve" unicode="&#x16d;" 
d="M494 700h50q-20 -64 -69.5 -102t-118.5 -38q-61 0 -91 39t-11 101h50q-11 -36 3.5 -63t63.5 -27t80.5 27.5t42.5 62.5zM214 490l-94 -307q-12 -40 -12 -70q0 -75 80 -75q57 0 112 47.5t82 135.5l82 269h70l-150 -490h-60l24 80h-9q-83 -100 -180 -100q-56 0 -90 33
t-34 88q0 30 15 82l94 307h70z" />
    <glyph glyph-name="Uring" unicode="&#x16e;" horiz-adv-x="646" 
d="M701 700l-144 -470q-40 -131 -116 -190.5t-206 -59.5q-83 0 -134 38t-51 113q0 47 17 99l144 470h75l-144 -470q-17 -57 -17 -94q0 -49 30.5 -72.5t98.5 -23.5q93 0 145 45t83 145l144 470h75zM357 800q16 54 63 87t98 33q48 0 76.5 -33.5t12.5 -86.5q-17 -54 -64 -87
t-98 -33q-48 0 -76 33.5t-12 86.5zM417 800q-10 -29 3.5 -47t41.5 -18t51.5 17.5t33.5 47.5q9 29 -4.5 47t-41.5 18t-51.5 -17.5t-32.5 -47.5z" />
    <glyph glyph-name="uring" unicode="&#x16f;" 
d="M214 490l-94 -307q-12 -40 -12 -70q0 -75 80 -75q57 0 112 47.5t82 135.5l82 269h70l-150 -490h-60l24 80h-9q-83 -100 -180 -100q-56 0 -90 33t-34 88q0 30 15 82l94 307h70zM265 685q16 53 61.5 84t93.5 31q46 0 73.5 -31t11.5 -84t-61.5 -84t-93.5 -31q-46 0 -73.5 31
t-11.5 84zM320 685q-10 -29 3.5 -47t41.5 -18t51.5 17.5t33.5 47.5q9 30 -4 47.5t-41 17.5t-52 -18t-33 -47z" />
    <glyph glyph-name="Uhungarumlaut" unicode="&#x170;" horiz-adv-x="646" 
d="M701 700l-144 -470q-40 -131 -116 -190.5t-206 -59.5q-83 0 -134 38t-51 113q0 47 17 99l144 470h75l-144 -470q-17 -57 -17 -94q0 -49 30.5 -72.5t98.5 -23.5q93 0 145 45t83 145l144 470h75zM347 750l168 200h115l-244 -200h-39zM497 750l168 200h115l-244 -200h-39z
" />
    <glyph glyph-name="uhungarumlaut" unicode="&#x171;" 
d="M214 490l-94 -307q-12 -40 -12 -70q0 -75 80 -75q57 0 112 47.5t82 135.5l82 269h70l-150 -490h-60l24 80h-9q-83 -100 -180 -100q-56 0 -90 33t-34 88q0 30 15 82l94 307h70zM232 550l168 200h115l-244 -200h-39zM382 550l168 200h115l-244 -200h-39z" />
    <glyph glyph-name="Uogonek" unicode="&#x172;" horiz-adv-x="646" 
d="M701 700l-144 -470q-40 -130 -115 -189.5t-203 -60.5q-75 -41 -75 -108q0 -28 15 -42.5t38 -14.5q57 0 76 65h60q-36 -120 -146 -120q-45 0 -73 28.5t-28 66.5q0 80 87 128q-66 9 -104.5 46t-38.5 102q0 47 17 99l144 470h75l-144 -470q-17 -57 -17 -94q0 -49 30.5 -72.5
t98.5 -23.5q93 0 145 45t83 145l144 470h75z" />
    <glyph glyph-name="uogonek" unicode="&#x173;" 
d="M324 0l24 80h-9q-83 -100 -180 -100q-56 0 -90 33t-34 88q0 30 15 82l94 307h70l-94 -307q-12 -40 -12 -70q0 -75 80 -75q57 0 112 47.5t82 135.5l82 269h70l-150 -490q-50 -7 -93 -42t-43 -86q0 -28 15 -42.5t38 -14.5q57 0 76 65h60q-36 -120 -146 -120q-45 0 -73 28.5
t-28 66.5q0 33 15.5 60.5t39.5 44.5t43 26t36 14z" />
    <glyph glyph-name="Ycircumflex" unicode="&#x176;" horiz-adv-x="648" 
d="M758 700l-376 -356l-106 -344h-75l105 343l-156 357h85l123 -295l310 295h90zM508 870l-223 -120l-14 24l258 186l139 -196l-23 -14z" />
    <glyph glyph-name="ycircumflex" unicode="&#x177;" horiz-adv-x="532" 
d="M212 490l-88 -287q-12 -41 -12 -70q0 -75 80 -75q57 0 112 47.5t82 135.5l76 249h70l-144 -470q-32 -105 -104 -162.5t-182 -57.5q-29 0 -58.5 10t-55 29.5t-37 53.5t-1.5 77h65q-10 -54 19.5 -84.5t84.5 -30.5q150 0 199 165l6 20l21 40l7 20h-9q-83 -100 -180 -100
q-56 0 -90 33t-34 88q0 30 15 82l88 287h70zM403 665l-213 -115l-14 19l244 181l138 -183l-23 -17z" />
    <glyph glyph-name="Ydieresis" unicode="&#x178;" horiz-adv-x="648" 
d="M758 700l-376 -356l-106 -344h-75l105 343l-156 357h85l123 -295l310 295h90zM333 770l31 100h75l-31 -100h-75zM518 770l31 100h75l-31 -100h-75z" />
    <glyph glyph-name="Zacute" unicode="&#x179;" horiz-adv-x="614" 
d="M79 65h415l-20 -65h-499l20 65l589 570h-415l20 65h500l-20 -65zM376 750l168 200h115l-244 -200h-39z" />
    <glyph glyph-name="zacute" unicode="&#x17a;" horiz-adv-x="508" 
d="M63 55h337l-16 -55h-409l19 65l450 370h-337l16 55h410l-19 -65zM286 550l168 200h115l-244 -200h-39z" />
    <glyph glyph-name="Zdotaccent" unicode="&#x17b;" horiz-adv-x="614" 
d="M79 65h415l-20 -65h-499l20 65l589 570h-415l20 65h500l-20 -65zM398 770l31 100h75l-31 -100h-75z" />
    <glyph glyph-name="zdotaccent" unicode="&#x17c;" horiz-adv-x="508" 
d="M63 55h337l-16 -55h-409l19 65l450 370h-337l16 55h410l-19 -65zM310 585l29 95h70l-29 -95h-70z" />
    <glyph glyph-name="Zcaron" unicode="&#x17d;" horiz-adv-x="614" 
d="M79 65h415l-20 -65h-499l20 65l589 570h-415l20 65h500l-20 -65zM456 840l223 120l14 -24l-258 -186l-139 196l23 14z" />
    <glyph glyph-name="zcaron" unicode="&#x17e;" horiz-adv-x="508" 
d="M63 55h337l-16 -55h-409l19 65l450 370h-337l16 55h410l-19 -65zM356 635l213 115l14 -19l-244 -181l-138 183l23 17z" />
    <glyph glyph-name="Scommaaccent" unicode="&#x218;" horiz-adv-x="642" 
d="M43 255h70q-12 -44 -12 -76q0 -60 36.5 -99.5t125.5 -39.5q65 0 115.5 19t76 47.5t38 55t12.5 49.5q0 41 -36.5 66.5t-88.5 40t-104 31t-88.5 49.5t-36.5 84q0 72 48 128t116.5 83t139.5 27q94 0 140.5 -46t46.5 -121q0 -41 -14 -88h-70q12 38 12 76q0 119 -134 119
q-93 0 -152.5 -52.5t-59.5 -105.5q0 -39 36.5 -65.5t88 -42t103.5 -33t88.5 -52t36.5 -85.5q0 -109 -99 -176.5t-234 -67.5q-109 0 -161.5 53t-52.5 136q0 44 13 86zM98 -285h-25l7 25h10q31 0 51 19.5t36 70.5l30 100h65l-21 -70q-25 -79 -62 -112t-91 -33z" />
    <glyph glyph-name="pi" unicode="&#x3c0;" horiz-adv-x="609" 
d="M98 435l16 55h525l-16 -55h-85l-133 -435h-70l133 435h-215l-133 -435h-70l133 435h-85z" />
    <glyph glyph-name="afii10023" unicode="&#x401;" horiz-adv-x="604" 
d="M10 0l214 700h465l-19 -60h-390l-75 -245h295l-18 -60h-295l-84 -275h390l-19 -60h-464zM333 770l31 100h75l-31 -100h-75zM518 770l31 100h75l-31 -100h-75z" />
    <glyph glyph-name="afii10051" unicode="&#x402;" horiz-adv-x="714" 
d="M640 162l-75 -242q-17 -56 -38.5 -78t-71.5 -22h-95l18 60h71q30 0 39 30l77 252q18 57 18 103q0 107 -114 107q-45 0 -83.5 -18.5t-65.5 -50.5t-45 -66.5t-30 -74.5l-50 -162h-75l196 640h-216l19 60h516l-19 -60h-225l-96 -314h10l8 11q6 7 24.5 24.5t39 30.5t53 24
t66.5 11q77 0 120 -38.5t43 -109.5q0 -55 -19 -117z" />
    <glyph glyph-name="afii10052" unicode="&#x403;" horiz-adv-x="549" 
d="M10 0l214 700h415l-19 -60h-340l-195 -640h-75zM376 750l168 200h115l-244 -200h-39z" />
    <glyph glyph-name="afii10053" unicode="&#x404;" horiz-adv-x="686" 
d="M460 335h-318q-17 -65 -17 -120q0 -80 40 -127.5t118 -47.5q178 0 275 210h76q-57 -132 -146 -201t-224 -69q-101 0 -157.5 62t-56.5 167q0 84 32.5 173.5t88 165t139 124t176.5 48.5q101 0 155.5 -53.5t54.5 -149.5q0 -33 -6 -67h-76q4 25 4 56q0 154 -151 154
q-100 0 -180.5 -76t-125.5 -189h318z" />
    <glyph glyph-name="afii10054" unicode="&#x405;" horiz-adv-x="642" 
d="M43 255h70q-12 -44 -12 -76q0 -60 36.5 -99.5t125.5 -39.5q65 0 115.5 19t76 47.5t38 55t12.5 49.5q0 41 -36.5 66.5t-88.5 40t-104 31t-88.5 49.5t-36.5 84q0 72 48 128t116.5 83t139.5 27q94 0 140.5 -46t46.5 -121q0 -41 -14 -88h-70q12 38 12 76q0 119 -134 119
q-93 0 -152.5 -52.5t-59.5 -105.5q0 -39 36.5 -65.5t88 -42t103.5 -33t88.5 -52t36.5 -85.5q0 -109 -99 -176.5t-234 -67.5q-109 0 -161.5 53t-52.5 136q0 44 13 86z" />
    <glyph glyph-name="uni0406" unicode="&#x406;" horiz-adv-x="244" 
d="M224 700h75l-214 -700h-75z" />
    <glyph glyph-name="afii10056" unicode="&#x407;" horiz-adv-x="244" 
d="M224 700h75l-214 -700h-75zM165 770l30 100h75l-30 -100h-75zM325 770l30 100h75l-30 -100h-75z" />
    <glyph glyph-name="afii10057" unicode="&#x408;" horiz-adv-x="563" 
d="M618 700l-147 -480q-73 -240 -289 -240q-70 0 -113.5 35.5t-43.5 108.5q0 42 31 146h75q-33 -108 -33 -138q0 -48 25.5 -70t77.5 -22q140 0 195 180l147 480h75z" />
    <glyph glyph-name="afii10058" unicode="&#x409;" horiz-adv-x="1006" 
d="M419 0l195 640h-204l-34 -110q-32 -106 -66.5 -190t-64.5 -139t-63 -95t-58 -61t-54.5 -33t-48 -14.5t-41.5 -2.5l-40 5l18 58q9 -3 19 -3q27 0 49 5.5t59 34t71 78t77 146.5t84 231l46 150h345l-106 -345h180q84 0 124 -35.5t40 -89.5q0 -38 -13 -75t-42 -73.5
t-85.5 -59t-132.5 -22.5h-254zM584 295l-72 -235h183q81 0 130.5 46t49.5 113q0 76 -108 76h-183z" />
    <glyph glyph-name="afii10059" unicode="&#x40a;" horiz-adv-x="1029" 
d="M409 0l103 335h-325l-103 -335h-74l214 700h75l-94 -305h325l94 305h75l-94 -305h180q89 0 136.5 -38.5t47.5 -101.5q0 -109 -81 -182t-224 -73h-255zM587 335l-84 -275h183q83 0 147.5 49t64.5 135q0 91 -128 91h-183z" />
    <glyph glyph-name="afii10060" unicode="&#x40b;" horiz-adv-x="714" 
d="M635 700l-19 -60h-225l-96 -314h10l8 11q6 7 24.5 24.5t39 30.5t53 24t66.5 11q77 0 120 -38.5t43 -109.5q0 -55 -19 -117l-50 -162h-75l50 162q18 57 18 103q0 107 -114 107q-45 0 -83.5 -18.5t-65.5 -50.5t-45 -66.5t-30 -74.5l-50 -162h-75l196 640h-216l19 60h516z
" />
    <glyph glyph-name="afii10061" unicode="&#x40c;" horiz-adv-x="634" 
d="M299 700l-114 -371l464 371h95l-352 -277l92 -423h-79l-73 376l-174 -137l-73 -239h-75l214 700h75zM396 750l168 200h115l-244 -200h-39z" />
    <glyph glyph-name="afii10062" unicode="&#x40e;" horiz-adv-x="682" 
d="M787 700l-465 -595q-22 -29 -34 -42.5t-34 -31t-49.5 -24.5t-65.5 -7h-59l20 65h59q32 0 55 14.5t47 45.5l46 59l-143 516h71l121 -453l354 453h77zM612 880h55q-53 -150 -205 -150q-62 0 -97 41t-18 109h55q-8 -42 9 -68.5t67 -26.5t83.5 26.5t50.5 68.5z" />
    <glyph glyph-name="afii10145" unicode="&#x40f;" horiz-adv-x="648" 
d="M282 0l-49 -160h-66l49 160h-206l213 700h75l-196 -640h330l196 640h75l-214 -700h-207z" />
    <glyph glyph-name="afii10017" unicode="&#x410;" horiz-adv-x="652" 
d="M-60 0l485 700h81l46 -700h-73l-12 195h-318l-132 -195h-77zM440 620l-250 -365h273z" />
    <glyph glyph-name="afii10018" unicode="&#x411;" horiz-adv-x="649" 
d="M10 0l214 700h475l-19 -60h-400l-84 -275h220q84 0 123.5 -35t39.5 -93q0 -37 -14 -75t-43 -76t-86 -62t-132 -24h-294zM178 305l-75 -245h213q93 0 142 48.5t49 117.5q0 38 -23.5 58.5t-82.5 20.5h-223z" />
    <glyph glyph-name="afii10019" unicode="&#x412;" horiz-adv-x="655" 
d="M10 0l214 700h245q92 0 144 -32t52 -98q0 -72 -52 -123t-133 -67l-3 -10q5 0 12.5 -1.5t27 -9.5t34.5 -20t27.5 -36.5t12.5 -56.5q0 -113 -86 -179.5t-235 -66.5h-260zM187 335l-84 -275h190q106 0 166 49t60 128q0 51 -34 74.5t-108 23.5h-190zM280 640l-75 -245h170
q55 0 102.5 15t81.5 53t34 92q0 47 -37 66t-106 19h-170z" />
    <glyph glyph-name="afii10020" unicode="&#x413;" horiz-adv-x="549" 
d="M10 0l214 700h415l-19 -60h-340l-195 -640h-75z" />
    <glyph glyph-name="afii10021" unicode="&#x414;" horiz-adv-x="706" 
d="M716 700l-195 -640h120l-67 -220h-65l48 160h-559l-48 -160h-65l67 220h79q38 32 65.5 59t71.5 82t83 136t70 183l55 180h340zM623 640h-200l-34 -110q-31 -103 -67.5 -184t-75.5 -135.5t-68 -86.5t-67 -64h335z" />
    <glyph glyph-name="afii10022" unicode="&#x415;" horiz-adv-x="604" 
d="M10 0l214 700h465l-19 -60h-390l-75 -245h295l-18 -60h-295l-84 -275h390l-19 -60h-464z" />
    <glyph glyph-name="afii10024" unicode="&#x416;" horiz-adv-x="878" 
d="M538 700h75l-98 -321l354 321h84l-370 -337l191 -363h-80l-186 357l-109 -357h-75l109 357l-390 -357h-98l424 383l-175 317h74l171 -322z" />
    <glyph glyph-name="afii10025" unicode="&#x417;" horiz-adv-x="643" 
d="M35 210h75q-8 -26 -8 -49q0 -121 151 -121q111 0 180.5 56.5t69.5 139.5q0 49 -46 71.5t-116 22.5h-95l19 60h90q56 0 105 15.5t84 54t35 94.5q0 47 -33.5 76.5t-108.5 29.5q-84 0 -145 -51.5t-82 -118.5h-75q31 100 118 165t203 65q91 0 144 -42t53 -115
q0 -64 -51 -119.5t-123 -73.5l-3 -10q4 0 11 -1.5t25 -8.5t31.5 -18t24.5 -32.5t11 -48.5q0 -114 -93.5 -192.5t-251.5 -78.5q-96 0 -152.5 46.5t-56.5 121.5q0 31 10 62z" />
    <glyph glyph-name="afii10026" unicode="&#x418;" horiz-adv-x="649" 
d="M10 0l214 700h70l-176 -575l516 575h70l-215 -700h-70l177 575l-517 -575h-69z" />
    <glyph glyph-name="afii10027" unicode="&#x419;" horiz-adv-x="649" 
d="M10 0l214 700h70l-176 -575l516 575h70l-215 -700h-70l177 575l-517 -575h-69zM607 880h55q-53 -150 -205 -150q-62 0 -97 41t-18 109h55q-8 -42 9 -68.5t67 -26.5t83.5 26.5t50.5 68.5z" />
    <glyph glyph-name="afii10028" unicode="&#x41a;" horiz-adv-x="634" 
d="M299 700l-114 -371l464 371h95l-352 -277l92 -423h-79l-73 376l-174 -137l-73 -239h-75l214 700h75z" />
    <glyph glyph-name="afii10029" unicode="&#x41b;" horiz-adv-x="653" 
d="M615 640h-205l-34 -110q-32 -106 -66.5 -190t-64.5 -139t-63 -95t-58 -61t-54.5 -33t-48 -14.5t-41.5 -2.5l-40 5l18 58q9 -3 19 -3q27 0 49 5.5t59 34t71 78t77 146.5t84 231l46 150h345l-214 -700h-75z" />
    <glyph glyph-name="afii10030" unicode="&#x41c;" horiz-adv-x="745" 
d="M260 0l-6 585l-179 -585h-65l214 700h96l4 -606l376 606h100l-215 -700h-70l179 585l-364 -585h-70z" />
    <glyph glyph-name="afii10031" unicode="&#x41d;" horiz-adv-x="650" 
d="M705 700l-214 -700h-75l102 335h-331l-102 -335h-75l214 700h75l-94 -305h331l94 305h75z" />
    <glyph glyph-name="afii10032" unicode="&#x41e;" horiz-adv-x="680" 
d="M480 720q94 0 149.5 -63.5t55.5 -168.5q0 -83 -33 -172.5t-88.5 -164t-138 -123t-172.5 -48.5q-94 0 -148.5 63t-54.5 168q0 83 32.5 172.5t87.5 164.5t137.5 123.5t172.5 48.5zM461 660q-81 0 -159.5 -64.5t-127.5 -168t-49 -210.5q0 -81 38 -129t109 -48q80 0 158.5 64
t128 167.5t49.5 209.5q0 81 -38 130t-109 49z" />
    <glyph glyph-name="afii10033" unicode="&#x41f;" horiz-adv-x="650" 
d="M705 700l-214 -700h-75l196 640h-331l-196 -640h-75l214 700h481z" />
    <glyph glyph-name="afii10034" unicode="&#x420;" horiz-adv-x="632" 
d="M10 0l214 700h275q84 0 123.5 -35.5t39.5 -90.5q0 -30 -8 -60t-28.5 -61t-50.5 -54.5t-78 -38.5t-107 -15h-199l-106 -345h-75zM280 640l-71 -235h192q93 0 141.5 44.5t48.5 113.5q0 77 -108 77h-203z" />
    <glyph glyph-name="afii10035" unicode="&#x421;" horiz-adv-x="686" 
d="M467 660q-95 0 -176.5 -74t-123.5 -175.5t-42 -195.5q0 -80 40 -127.5t118 -47.5q178 0 275 210h76q-57 -132 -146 -201t-224 -69q-101 0 -157.5 62t-56.5 167q0 84 32.5 173.5t88 165t139 124t176.5 48.5q101 0 155.5 -53.5t54.5 -149.5q0 -33 -6 -67h-76q4 25 4 56
q0 154 -151 154z" />
    <glyph glyph-name="afii10036" unicode="&#x422;" horiz-adv-x="605" 
d="M695 700l-19 -60h-225l-196 -640h-75l196 640h-226l19 60h526z" />
    <glyph glyph-name="afii10037" unicode="&#x423;" horiz-adv-x="682" 
d="M787 700l-465 -595q-22 -29 -34 -42.5t-34 -31t-49.5 -24.5t-65.5 -7h-59l20 65h59q32 0 55 14.5t47 45.5l46 59l-143 516h71l121 -453l354 453h77z" />
    <glyph glyph-name="afii10038" unicode="&#x424;" horiz-adv-x="785" 
d="M349 0h-75l30 95h-50q-103 0 -148.5 49t-45.5 127q0 33 10.5 74t37 88.5t65 86t101 64.5t137.5 26h50l28 90h75l-28 -90h50q103 0 148.5 -48t45.5 -126q0 -32 -9.5 -71.5t-34.5 -88.5t-62.5 -88t-101.5 -66t-143 -27h-50zM322 155l121 395h-53q-69 0 -122 -30t-81 -75
t-42 -88.5t-14 -79.5q0 -122 143 -122h48zM518 550l-121 -395h53q56 0 102.5 20.5t74.5 52t47.5 70t27.5 71.5t8 61q0 54 -32.5 87t-106.5 33h-53z" />
    <glyph glyph-name="afii10039" unicode="&#x425;" horiz-adv-x="657" 
d="M264 700l111 -274l274 274h88l-336 -337l148 -363h-75l-126 310l-309 -310h-89l373 373l-132 327h73z" />
    <glyph glyph-name="afii10040" unicode="&#x426;" horiz-adv-x="698" 
d="M633 60l-67 -220h-70l48 160h-534l213 700h75l-195 -640h330l195 640h75l-195 -640h125z" />
    <glyph glyph-name="afii10041" unicode="&#x427;" horiz-adv-x="609" 
d="M374 0l115 374h-10l-8 -11q-6 -7 -24.5 -24.5t-39 -30.5t-53 -24t-66.5 -11q-77 0 -120 38.5t-43 109.5q0 55 19 117l50 162h75l-50 -162q-18 -57 -18 -103q0 -107 114 -107q45 0 83.5 18.5t65.5 50.5t45 66.5t30 74.5l50 162h75l-215 -700h-75z" />
    <glyph glyph-name="afii10042" unicode="&#x428;" horiz-adv-x="834" 
d="M889 700l-215 -700h-664l214 700h75l-196 -640h220l196 640h75l-196 -640h220l196 640h75z" />
    <glyph glyph-name="afii10043" unicode="&#x429;" horiz-adv-x="884" 
d="M818 60l-67 -220h-70l48 160h-719l214 700h75l-196 -640h220l196 640h75l-196 -640h220l196 640h75l-197 -640h126z" />
    <glyph glyph-name="afii10044" unicode="&#x42a;" horiz-adv-x="707" 
d="M110 0l196 640h-181l19 60h255l-106 -345h190q84 0 124 -35.5t40 -89.5q0 -38 -13 -75t-42 -73.5t-85.5 -59t-132.5 -22.5h-264zM275 295l-72 -235h193q81 0 130.5 46t49.5 113q0 76 -108 76h-193z" />
    <glyph glyph-name="afii10045" unicode="&#x42b;" horiz-adv-x="794" 
d="M774 700h75l-214 -700h-75zM10 0l214 700h75l-106 -345h180q84 0 124 -35.5t40 -89.5q0 -38 -13 -75t-42 -73.5t-85.5 -59t-132.5 -22.5h-254zM175 295l-72 -235h183q81 0 130.5 46t49.5 113q0 76 -108 76h-183z" />
    <glyph glyph-name="afii10046" unicode="&#x42c;" horiz-adv-x="607" 
d="M10 0l214 700h75l-106 -345h190q84 0 124 -35.5t40 -89.5q0 -38 -13 -75t-42 -73.5t-85.5 -59t-132.5 -22.5h-264zM175 295l-72 -235h193q81 0 130.5 46t49.5 113q0 76 -108 76h-193z" />
    <glyph glyph-name="afii10047" unicode="&#x42d;" horiz-adv-x="693" 
d="M276 380h331q14 59 14 107q0 80 -38.5 126.5t-119.5 46.5q-172 0 -270 -210h-76q51 126 146 198t219 72q104 0 160 -60t56 -164q0 -69 -18.5 -141t-55.5 -139t-87.5 -119.5t-120 -84.5t-146.5 -32q-104 0 -164.5 55t-60.5 152q0 30 6 63h74q-5 -32 -5 -55
q0 -74 39.5 -114.5t119.5 -40.5q109 0 188.5 77.5t122.5 202.5h-333z" />
    <glyph glyph-name="afii10048" unicode="&#x42e;" horiz-adv-x="879" 
d="M299 700l-94 -305h132q59 151 150 238t213 87q87 0 133 -55.5t46 -151.5q0 -63 -17.5 -135t-53 -142.5t-83 -127.5t-113.5 -92.5t-139 -35.5q-87 0 -133 55.5t-46 151.5q0 65 23 148h-130l-103 -335h-74l214 700h75zM397 350q-27 -87 -27 -156q0 -154 122 -154
q68 0 128.5 49.5t99 122t61 151t22.5 142.5q0 155 -122 155q-89 0 -165.5 -86t-118.5 -224z" />
    <glyph glyph-name="afii10049" unicode="&#x42f;" horiz-adv-x="630" 
d="M685 700l-215 -700h-75l100 325h-165l-290 -325h-85l299 329q-62 11 -91 46.5t-29 84.5q0 38 15.5 77t46.5 77t89.5 62t134.5 24h265zM513 385l78 255h-183q-90 0 -147 -48.5t-57 -123.5q0 -44 27.5 -63.5t88.5 -19.5h193z" />
    <glyph glyph-name="afii10065" unicode="&#x430;" horiz-adv-x="571" 
d="M426 245q13 44 13 81q0 57 -27 93t-82 36q-62 0 -116 -46t-84 -115t-30 -140q0 -52 25.5 -85.5t76.5 -33.5q75 0 137 64.5t87 145.5zM356 0l12 40l25 65h-10q-3 -5 -9 -13.5t-26.5 -30t-43 -38t-58 -30t-71.5 -13.5q-67 0 -106 44t-39 116q0 102 48.5 189.5t117.5 134
t136 46.5q36 0 63.5 -13t41 -31t21.5 -36.5t10 -31.5l1 -13h10l32 105h60l-150 -490h-65z" />
    <glyph glyph-name="afii10066" unicode="&#x431;" horiz-adv-x="535" 
d="M170 430l-26 -45h10q3 5 9 13.5t26.5 30t43 38t58 30t71.5 13.5q69 0 107 -45t38 -119q0 -92 -42 -176t-117 -137t-163 -53q-73 0 -114 44.5t-41 125.5q0 58 22 130q48 159 148 271t239 129l41 5q120 15 135 65h40q-17 -57 -60 -93t-135 -47l-41 -5q-159 -20 -249 -175z
M335 455q-54 0 -101.5 -33t-76.5 -81t-45.5 -99t-16.5 -91q0 -116 107 -116q55 0 102 32.5t74 80.5t42 98t15 90q0 53 -24 86t-76 33z" />
    <glyph glyph-name="afii10067" unicode="&#x432;" horiz-adv-x="552" 
d="M372 368v-5l12 -2q8 -2 28 -12t35.5 -24t28 -41t12.5 -62q0 -94 -74 -168t-187 -74q-86 0 -134 51t-48 138q0 114 60.5 232.5t162 198.5t207.5 80q46 0 74 -23.5t28 -71.5q0 -124 -138 -191q-18 -10 -67 -26zM249 385h37q94 0 158 59.5t67 120.5q0 60 -56 60
q-49 0 -108.5 -37t-112 -96.5t-88 -145t-35.5 -172.5q0 -61 30 -100t95 -39q78 0 131 53t53 131q0 111 -134 111h-56z" />
    <glyph glyph-name="afii10068" unicode="&#x433;" horiz-adv-x="502" 
d="M357 155h70q-9 -30 -27.5 -58t-49 -55.5t-79 -44.5t-107.5 -17q-79 0 -119 35.5t-40 83.5q0 50 30.5 85.5t76 52.5t98.5 32.5t98.5 26.5t76 34.5t30.5 57.5q0 31 -24.5 49t-73.5 18t-88 -25.5t-54 -74.5h-70q18 65 77 110t152 45q71 0 109.5 -31.5t38.5 -77.5
q0 -60 -42.5 -98.5t-103 -56t-121 -31.5t-103 -39.5t-42.5 -66.5q0 -33 27.5 -53.5t83.5 -20.5q67 0 112.5 33t63.5 87z" />
    <glyph glyph-name="afii10069" unicode="&#x434;" horiz-adv-x="559" 
d="M468 385h9q4 18 4 64q0 246 -274 246l16 55q47 0 88 -6.5t84.5 -26t74 -51t50 -85.5t19.5 -125q0 -78 -31.5 -184.5t-98.5 -187.5q-85 -104 -210 -104q-76 0 -122.5 48.5t-46.5 125.5q0 86 41.5 169t111 135t143.5 52q38 0 66.5 -13t42 -31t22 -36.5t9.5 -31.5zM329 455
q-69 0 -124 -50.5t-80.5 -116.5t-25.5 -127q0 -54 28 -90t89 -36q65 0 118 52.5t78 118t25 120.5q0 57 -26.5 93t-81.5 36z" />
    <glyph glyph-name="afii10070" unicode="&#x435;" horiz-adv-x="546" 
d="M111 235q-13 -47 -13 -85q0 -51 28.5 -83t84.5 -32q58 0 105 34.5t71 85.5h70q-82 -175 -263 -175q-78 0 -121 46.5t-43 123.5q0 61 23.5 124t65 116t104 86.5t132.5 33.5q80 0 120.5 -42t40.5 -112q0 -44 -15 -91l-10 -30h-380zM436 290q11 31 11 64q0 44 -26 72.5
t-83 28.5q-71 0 -123 -47.5t-84 -117.5h305z" />
    <glyph glyph-name="afii10072" unicode="&#x436;" horiz-adv-x="903" 
d="M281 245q12 39 17 74.5t3 66.5t-17 50t-43 19q-68 0 -100 -110h-70q51 165 187 165q67 0 91.5 -67t-0.5 -165h75l64 212h70l-64 -212h73q37 103 99.5 167.5t135.5 64.5q44 0 68.5 -25t26 -61.5t-9.5 -78.5h-70q32 110 -32 110q-53 0 -98 -63t-70 -147
q-12 -39 -17.5 -74.5t-3.5 -66.5t17 -50t43 -19q68 0 100 110h70q-51 -165 -187 -165q-75 0 -97 70.5t8 172.5h-73l-68 -223h-70l68 223h-73q-37 -110 -97.5 -176.5t-141.5 -66.5q-43 0 -67.5 25t-26 61.5t9.5 78.5h69q-32 -110 32 -110q53 0 98 63t71 147z" />
    <glyph glyph-name="afii10073" unicode="&#x437;" 
d="M-48 0h70q-6 -22 -6 -40q0 -43 28.5 -74t98.5 -31q57 0 102.5 22.5t69.5 56t36 67t12 61.5q0 103 -129 103h-66l16 55h71q77 0 129.5 46t52.5 106q0 36 -27 59.5t-89 23.5q-74 0 -121 -38.5t-60 -81.5h-70q21 70 90.5 122.5t177.5 52.5q72 0 119 -34t47 -91
q0 -112 -118 -167q-34 -16 -51 -18l-3 -10l10.5 -2.5t23.5 -9.5t30 -19.5t23.5 -35t10.5 -52.5q0 -40 -18 -84.5t-53 -87.5t-96 -71t-137 -28q-93 0 -137 45.5t-44 105.5q0 23 7 49z" />
    <glyph glyph-name="afii10074" unicode="&#x438;" 
d="M214 490l-94 -307q-12 -40 -12 -70q0 -75 80 -75q57 0 112 47.5t82 135.5l82 269h70l-150 -490h-60l24 80h-9q-83 -100 -180 -100q-56 0 -90 33t-34 88q0 30 15 82l94 307h70z" />
    <glyph glyph-name="afii10075" unicode="&#x439;" 
d="M494 700h50q-20 -64 -69.5 -102t-118.5 -38q-61 0 -91 39t-11 101h50q-11 -36 3.5 -63t63.5 -27t80.5 27.5t42.5 62.5zM214 490l-94 -307q-12 -40 -12 -70q0 -75 80 -75q57 0 112 47.5t82 135.5l82 269h70l-150 -490h-60l24 80h-9q-83 -100 -180 -100q-56 0 -90 33
t-34 88q0 30 15 82l94 307h70z" />
    <glyph glyph-name="afii10076" unicode="&#x43a;" horiz-adv-x="519" 
d="M554 490l-252 -185l112 -305h-75l-94 263l-122 -90l-53 -173h-70l150 490h70l-74 -240l318 240h90z" />
    <glyph glyph-name="afii10077" unicode="&#x43b;" 
d="M447 435h-145l-20 -65q-30 -98 -62.5 -169t-61 -110t-62 -61.5t-59 -28.5t-57.5 -6q-9 0 -16.5 1t-10.5 2l-3 2l17 53q9 -3 19 -3q29 0 55.5 13t58 47.5t64.5 105t65 174.5l30 100h275l-150 -490h-70z" />
    <glyph glyph-name="afii10078" unicode="&#x43c;" horiz-adv-x="618" 
d="M199 0l-12 405l-123 -405h-64l148 490h98l10 -416l264 416h98l-149 -490h-70l123 405l-258 -405h-65z" />
    <glyph glyph-name="afii10079" unicode="&#x43d;" horiz-adv-x="530" 
d="M154 275h240l66 215h70l-150 -490h-70l67 220h-240l-67 -220h-70l150 490h70z" />
    <glyph glyph-name="afii10080" unicode="&#x43e;" horiz-adv-x="550" 
d="M356 510q78 0 121 -47.5t43 -124.5q0 -87 -41.5 -169t-118.5 -135.5t-167 -53.5q-78 0 -120.5 47t-42.5 124q0 87 41 169t117.5 136t167.5 54zM339 455q-56 0 -103.5 -31t-76 -78t-44 -97.5t-15.5 -93.5q0 -54 26.5 -87t83.5 -33q73 0 130.5 52.5t83.5 119.5t26 127
q0 54 -27 87.5t-84 33.5z" />
    <glyph glyph-name="afii10081" unicode="&#x43f;" 
d="M320 0l94 307q12 41 12 69q0 74 -81 74q-57 0 -111.5 -46.5t-81.5 -134.5l-82 -269h-70l150 490h60l-24 -80h9q83 100 180 100q56 0 90 -33t34 -88q0 -30 -15 -82l-94 -307h-70z" />
    <glyph glyph-name="afii10082" unicode="&#x440;" horiz-adv-x="571" 
d="M145 245q-13 -44 -13 -81q0 -57 27 -93t82 -36q62 0 116 46t84 115t30 140q0 52 -25.5 85.5t-76.5 33.5q-75 0 -137 -64.5t-87 -145.5zM83 40l-68 -220h-70l205 670h60l-32 -105h10q3 5 9 13.5t26.5 30t43 38t58 30t71.5 13.5q67 0 106 -44t39 -116q0 -102 -48.5 -189.5
t-117.5 -134t-136 -46.5q-36 0 -63.5 13t-41 31t-21.5 36.5t-9 31.5l-2 13h-10z" />
    <glyph glyph-name="afii10083" unicode="&#x441;" horiz-adv-x="554" 
d="M403 175h70q-29 -94 -103 -144.5t-163 -50.5q-84 0 -130.5 47.5t-46.5 124.5q0 140 97.5 249t232.5 109q76 0 120 -37.5t44 -102.5q0 -27 -8 -55h-70q7 21 7 44q0 96 -110 96q-59 0 -108 -31.5t-77.5 -79t-43.5 -96t-15 -87.5q0 -126 115 -126q66 0 118.5 41t70.5 99z
" />
    <glyph glyph-name="afii10084" unicode="&#x442;" horiz-adv-x="739" 
d="M520 0l94 307q18 59 18 83q0 60 -57 60q-48 0 -92 -46t-71 -135l-82 -269h-70l94 307q15 49 15 81q0 62 -54 62q-48 0 -92 -46t-71 -135l-82 -269h-70l150 490h60l-24 -80h9q40 52 73.5 76t76.5 24q44 0 70.5 -27.5t26.5 -77.5h8q37 56 73.5 80.5t81.5 24.5t72 -27
t27 -77q0 -35 -20 -99l-94 -307h-70z" />
    <glyph glyph-name="afii10085" unicode="&#x443;" horiz-adv-x="532" 
d="M212 490l-88 -287q-12 -41 -12 -70q0 -75 80 -75q57 0 112 47.5t82 135.5l76 249h70l-144 -470q-32 -105 -104 -162.5t-182 -57.5q-29 0 -58.5 10t-55 29.5t-37 53.5t-1.5 77h65q-10 -54 19.5 -84.5t84.5 -30.5q150 0 199 165l6 20l21 40l7 20h-9q-83 -100 -180 -100
q-56 0 -90 33t-34 88q0 30 15 82l88 287h70z" />
    <glyph glyph-name="afii10086" unicode="&#x444;" horiz-adv-x="761" 
d="M408 450l76 250h70l-76 -250l-30 -65h10q2 5 6.5 13.5t20.5 30t34 38t47 30t60 13.5q54 0 82 -38.5t28 -103.5q0 -92 -39.5 -183.5t-101 -148t-121.5 -56.5q-33 0 -56 14t-31.5 36.5t-11.5 37.5t-3 30v7h-10l-10 -65l-66 -220h-70l67 220l29 65h-10q-2 -5 -6.5 -13.5
t-20.5 -30t-34 -38t-46.5 -30t-59.5 -13.5q-54 0 -82 38t-28 103q0 92 39.5 183.5t100.5 148.5t121 57q33 0 56 -14t31.5 -36.5t11.5 -38t3 -30.5v-6h10zM162 35q44 0 83.5 35.5t64 87t39 104.5t14.5 92q0 101 -73 101q-42 0 -80.5 -38t-63 -92t-38.5 -108.5t-14 -93.5
q0 -88 68 -88zM471 35q42 0 80.5 38t63 91.5t38.5 108.5t14 93q0 89 -68 89q-58 0 -107 -60t-72.5 -132t-23.5 -127q0 -101 75 -101z" />
    <glyph glyph-name="afii10087" unicode="&#x445;" horiz-adv-x="657" 
d="M291 245q15 51 17.5 97.5t-14.5 79.5t-53 33q-68 0 -100 -110h-70q51 165 187 165q52 0 82 -42t21 -107q32 67 84.5 108t110.5 41q44 0 68.5 -25t26 -61.5t-9.5 -78.5h-70q32 110 -32 110q-54 0 -104 -64.5t-74 -145.5q-26 -73 -15.5 -141.5t64.5 -68.5q68 0 100 110h70
q-51 -165 -183 -165q-55 0 -85 39.5t-24 103.5q-31 -66 -81.5 -104.5t-111.5 -38.5q-43 0 -67.5 25t-26 61.5t9.5 78.5h69q-32 -110 32 -110q54 0 104 64.5t75 145.5z" />
    <glyph glyph-name="afii10088" unicode="&#x446;" horiz-adv-x="564" 
d="M214 490l-94 -307q-12 -40 -12 -70q0 -75 80 -75q57 0 112 47.5t82 135.5l82 269h70l-135 -440h100l-58 -190h-65l43 140h-95l24 80h-9q-83 -100 -180 -100q-56 0 -90 33t-34 88q0 30 15 82l94 307h70z" />
    <glyph glyph-name="afii10089" unicode="&#x447;" horiz-adv-x="503" 
d="M283 0l70 230l30 65h-10q-2 -5 -7 -13.5t-21.5 -30t-35 -38t-49.5 -30t-65 -13.5q-55 0 -90 32.5t-35 92.5q0 58 26 140l17 55h70l-17 -55q-26 -85 -26 -122q0 -88 82 -88q67 0 117.5 62.5t76.5 147.5l17 55h70l-150 -490h-70z" />
    <glyph glyph-name="afii10090" unicode="&#x448;" horiz-adv-x="739" 
d="M219 490l-94 -307q-18 -59 -18 -83q0 -60 57 -60q48 0 92 46t71 135l82 269h70l-94 -307q-15 -49 -15 -81q0 -62 54 -62q48 0 92 46t71 135l82 269h70l-150 -490h-60l24 80h-9q-40 -52 -73.5 -76t-76.5 -24q-44 0 -70.5 27.5t-26.5 77.5h-8q-37 -56 -73.5 -80.5
t-81.5 -24.5q-42 0 -70.5 27.5t-28.5 76.5q0 35 20 99l94 307h70z" />
    <glyph glyph-name="afii10091" unicode="&#x449;" horiz-adv-x="769" 
d="M219 490l-94 -307q-18 -59 -18 -83q0 -60 57 -60q48 0 92 46t71 135l82 269h70l-94 -307q-15 -49 -15 -81q0 -62 54 -62q48 0 92 46t71 135l82 269h70l-135 -440h100l-58 -190h-65l43 140h-95l24 80h-9q-40 -52 -73.5 -76t-76.5 -24q-44 0 -70.5 27.5t-26.5 77.5h-8
q-37 -56 -73.5 -80.5t-81.5 -24.5q-42 0 -70.5 27.5t-28.5 76.5q0 35 20 99l94 307h70z" />
    <glyph glyph-name="afii10092" unicode="&#x44a;" horiz-adv-x="511" 
d="M77 490h197l-52 -170l-32 -90h5q6 8 18 19.5t48.5 31t74.5 19.5q53 0 81.5 -29t28.5 -76q0 -84 -68 -149.5t-160 -65.5q-58 0 -92.5 30t-34.5 81q0 30 12 69l84 275h-127zM299 245q-59 0 -99 -46.5t-40 -100.5q0 -63 75 -63q59 0 99 46.5t40 100.5q0 63 -75 63z" />
    <glyph glyph-name="afii10093" unicode="&#x44b;" horiz-adv-x="635" 
d="M635 490l-150 -490h-70l150 490h70zM238 245q-59 0 -99 -46.5t-40 -100.5q0 -63 75 -63q59 0 99 46.5t40 100.5q0 63 -75 63zM143 490h70l-52 -170l-32 -90h5q6 8 18 19.5t48.5 31t74.5 19.5q53 0 81.5 -29t28.5 -76q0 -84 -68 -149.5t-160 -65.5q-58 0 -92.5 30
t-34.5 81q0 30 12 69z" />
    <glyph glyph-name="afii10094" unicode="&#x44c;" horiz-adv-x="450" 
d="M238 245q-59 0 -99 -46.5t-40 -100.5q0 -63 75 -63q59 0 99 46.5t40 100.5q0 63 -75 63zM143 490h70l-52 -170l-32 -90h5q6 8 18 19.5t48.5 31t74.5 19.5q53 0 81.5 -29t28.5 -76q0 -84 -68 -149.5t-160 -65.5q-58 0 -92.5 30t-34.5 81q0 30 12 69z" />
    <glyph glyph-name="afii10095" unicode="&#x44d;" horiz-adv-x="553" 
d="M219 275h227q6 30 6 60q0 120 -113 120q-61 0 -116 -42t-73 -98h-70q25 81 100 138t176 57q80 0 123.5 -47.5t43.5 -125.5q0 -88 -42 -170t-119 -134.5t-169 -52.5q-74 0 -118.5 41.5t-44.5 104.5q0 25 7 49h70q-6 -19 -6 -39q0 -45 27.5 -73t81.5 -28q79 0 136.5 54
t84.5 131h-229z" />
    <glyph glyph-name="afii10096" unicode="&#x44e;" horiz-adv-x="721" 
d="M218 490l-65 -215h101q43 110 118.5 172.5t167.5 62.5q69 0 110 -43t41 -120q0 -61 -23 -125.5t-63 -118.5t-100 -88.5t-128 -34.5q-67 0 -108.5 43.5t-41.5 119.5q0 37 10 77h-101l-67 -220h-69l148 490h70zM314 245q-17 -56 -17 -99q0 -52 24 -81.5t73 -29.5
q86 0 156 96t70 212q0 52 -24 82t-73 30q-70 0 -125.5 -59t-83.5 -151z" />
    <glyph glyph-name="afii10097" unicode="&#x44f;" horiz-adv-x="574" 
d="M445 0h-65l67 220h-54q-52 -121 -124 -180.5t-150 -59.5q-52 0 -85.5 30.5t-33.5 90.5q0 30 10 64h66q-10 -31 -10 -60q0 -32 18 -51t52 -19q54 0 105 50t89 135h-103q-44 0 -71 28t-27 72q0 86 55.5 138t131.5 52q53 0 84.5 -32.5t34 -78t-10.5 -94.5l-6 -16
q-3 -10 -4 -14h115zM188 336q0 -26 14 -43.5t42 -17.5h107q4 10 10 30q7 22 10 45.5t-0.5 48.5t-21.5 40.5t-50 15.5q-49 0 -80 -38t-31 -81z" />
    <glyph glyph-name="afii10071" unicode="&#x451;" horiz-adv-x="546" 
d="M111 235q-13 -47 -13 -85q0 -51 28.5 -83t84.5 -32q58 0 105 34.5t71 85.5h70q-82 -175 -263 -175q-78 0 -121 46.5t-43 123.5q0 61 23.5 124t65 116t104 86.5t132.5 33.5q80 0 120.5 -42t40.5 -112q0 -44 -15 -91l-10 -30h-380zM436 290q11 31 11 64q0 44 -26 72.5
t-83 28.5q-71 0 -123 -47.5t-84 -117.5h305zM250 585l29 95h70l-29 -95h-70zM430 585l29 95h70l-29 -95h-70z" />
    <glyph glyph-name="afii10099" unicode="&#x452;" horiz-adv-x="543" 
d="M86 610h75q31 0 45 18t34 72l19 50h50l-43 -140h125l-17 -55h-125l-25 -85l-34 -80h9q83 100 180 100q56 0 90 -33t34 -88q0 -30 -15 -82l-113 -367q-17 -56 -38.5 -78t-71.5 -22h-85l17 55h65q30 0 39 30l117 382q12 41 12 69q0 74 -81 74q-57 0 -111.5 -46.5
t-81.5 -134.5l-76 -249h-70l169 555h-110z" />
    <glyph glyph-name="afii10100" unicode="&#x453;" horiz-adv-x="502" 
d="M427 155h-70q-18 -54 -63.5 -87t-112.5 -33q-56 0 -83.5 20.5t-27.5 53.5q0 41 42.5 66.5t103 39.5t121 31.5t103 56t42.5 98.5q0 46 -38.5 77.5t-109.5 31.5q-93 0 -152 -45t-77 -110h70q15 49 54 74.5t88 25.5t73.5 -18t24.5 -49q0 -34 -30.5 -57.5t-76 -34.5
t-98.5 -26.5t-98.5 -32.5t-76 -52.5t-30.5 -85.5q0 -48 40 -83.5t119 -35.5q59 0 107.5 17t79 44.5t49 55.5t27.5 58zM291 550l168 200h115l-244 -200h-39z" />
    <glyph glyph-name="afii10101" unicode="&#x454;" horiz-adv-x="554" 
d="M329 230h-221q-9 -39 -9 -69q0 -126 115 -126q66 0 118.5 41t70.5 99h70q-29 -94 -103 -144.5t-163 -50.5q-84 0 -130.5 47.5t-46.5 124.5q0 140 97.5 249t232.5 109q76 0 120 -37.5t44 -102.5q0 -27 -8 -55h-70q7 21 7 44q0 96 -110 96q-77 0 -131.5 -48.5t-85.5 -121.5
h220z" />
    <glyph glyph-name="afii10102" unicode="&#x455;" horiz-adv-x="510" 
d="M24 165h70q-8 -27 -8 -46q0 -39 26 -61.5t78 -22.5q70 0 119 34t49 83q0 25 -27.5 43t-66.5 30l-79 26q-39 13 -66.5 36t-27.5 54q0 74 69.5 121.5t168.5 47.5q55 0 98 -25.5t43 -80.5q0 -20 -8 -49h-70q6 19 6 34q0 33 -23.5 49.5t-62.5 16.5q-63 0 -106.5 -30
t-43.5 -67q0 -23 27.5 -39.5t66.5 -28t78 -25.5t66.5 -41t27.5 -66q0 -76 -71 -127t-174 -51q-73 0 -120.5 32t-47.5 95q0 27 9 58z" />
    <glyph glyph-name="afii10103" unicode="&#x456;" horiz-adv-x="237" 
d="M230 490l-150 -490h-70l150 490h70zM178 550l29 95h70l-29 -95h-70z" />
    <glyph glyph-name="afii10104" unicode="&#x457;" horiz-adv-x="222" 
d="M220 490l-150 -490h-70l150 490h70zM99 550l28 95h70l-29 -95h-69zM238 550l29 95h70l-29 -95h-70z" />
    <glyph glyph-name="afii10105" unicode="&#x458;" horiz-adv-x="227" 
d="M224 490l-174 -570q-17 -56 -38.5 -78t-71.5 -22h-65l17 55h45q30 0 39 30l178 585h70zM173 550l29 95h70l-29 -95h-70z" />
    <glyph glyph-name="afii10106" unicode="&#x459;" horiz-adv-x="751" 
d="M427 435h-125l-20 -65q-30 -98 -62.5 -169t-61 -110t-62 -61.5t-59 -28.5t-57.5 -6q-9 0 -16.5 1t-10.5 2l-3 2l17 53q9 -3 19 -3q29 0 55.5 13t58 47.5t64.5 105t65 174.5l30 100h255l-52 -170l-32 -90h5q6 8 18 19.5t48.5 31t74.5 19.5q53 0 81.5 -29t28.5 -76
q0 -84 -68 -149.5t-160 -65.5q-58 0 -92.5 30t-34.5 81q0 30 12 69zM539 245q-59 0 -99 -46.5t-40 -100.5q0 -63 75 -63q59 0 99 46.5t40 100.5q0 63 -75 63z" />
    <glyph glyph-name="afii10107" unicode="&#x45a;" horiz-adv-x="737" 
d="M430 490h70l-52 -170l-32 -90h5q6 8 18 19.5t48.5 31t74.5 19.5q53 0 81.5 -29t28.5 -76q0 -84 -68 -149.5t-160 -65.5q-58 0 -92.5 30t-34.5 81q0 30 12 69l18 60h-210l-67 -220h-70l150 490h70l-66 -215h210zM525 245q-59 0 -99 -46.5t-40 -100.5q0 -63 75 -63
q59 0 99 46.5t40 100.5q0 63 -75 63z" />
    <glyph glyph-name="afii10108" unicode="&#x45b;" horiz-adv-x="543" 
d="M86 610h75q31 0 45 18t34 72l19 50h50l-43 -140h125l-17 -55h-125l-25 -85l-34 -80h9q83 100 180 100q56 0 90 -33t34 -88q0 -30 -15 -82l-88 -287h-70l88 287q12 41 12 69q0 74 -81 74q-57 0 -111.5 -46.5t-81.5 -134.5l-76 -249h-70l169 555h-110z" />
    <glyph glyph-name="afii10109" unicode="&#x45c;" horiz-adv-x="519" 
d="M554 490l-252 -185l112 -305h-75l-94 263l-122 -90l-53 -173h-70l150 490h70l-74 -240l318 240h90zM271 550l168 200h115l-244 -200h-39z" />
    <glyph glyph-name="afii10110" unicode="&#x45e;" horiz-adv-x="532" 
d="M212 490l-88 -287q-12 -41 -12 -70q0 -75 80 -75q57 0 112 47.5t82 135.5l76 249h70l-144 -470q-32 -105 -104 -162.5t-182 -57.5q-29 0 -58.5 10t-55 29.5t-37 53.5t-1.5 77h65q-10 -54 19.5 -84.5t84.5 -30.5q150 0 199 165l6 20l21 40l7 20h-9q-83 -100 -180 -100
q-56 0 -90 33t-34 88q0 30 15 82l88 287h70zM489 700h50q-20 -64 -69.5 -102t-118.5 -38q-61 0 -91 39t-11 101h50q-11 -36 3.5 -63t63.5 -27t80.5 27.5t42.5 62.5z" />
    <glyph glyph-name="afii10193" unicode="&#x45f;" 
d="M214 490l-94 -307q-12 -40 -12 -70q0 -75 80 -75q57 0 112 47.5t82 135.5l82 269h70l-150 -490h-60l24 80h-9q-59 -70 -124 -91l-39 -129h-65l37 121q-52 3 -82.5 35.5t-30.5 84.5q0 30 15 82l94 307h70z" />
    <glyph glyph-name="afii10050" unicode="&#x490;" horiz-adv-x="549" 
d="M684 850l-64 -210h-341l-195 -640h-74l213 700h351l45 150h65z" />
    <glyph glyph-name="afii10098" unicode="&#x491;" horiz-adv-x="502" 
d="M175 355h-65l74 245h60l-42 -140h5q4 6 13 14t41.5 22t72.5 14q71 0 109.5 -31.5t38.5 -77.5q0 -60 -42.5 -98.5t-103 -56t-121 -31.5t-103 -39.5t-42.5 -66.5q0 -33 27.5 -53.5t83.5 -20.5q67 0 112.5 33t63.5 87h70q-9 -30 -27.5 -58t-49 -55.5t-79 -44.5t-107.5 -17
q-79 0 -119 35.5t-40 83.5q0 50 30.5 85.5t76 52.5t98.5 32.5t98.5 26.5t76 34.5t30.5 57.5q0 31 -24.5 49t-73.5 18t-88 -25.5t-54 -74.5z" />
    <glyph glyph-name="uni0492" unicode="&#x492;" horiz-adv-x="609" 
d="M40 335l17 60h133l94 305h415l-19 -60h-340l-75 -245h215l-18 -60h-215l-103 -335h-75l103 335h-132z" />
    <glyph glyph-name="uni0493" unicode="&#x493;" horiz-adv-x="502" 
d="M337 204l-39 -39l-56 56l-54 -14q-19 -6 -45 -16t-39.5 -20.5t-23.5 -26.5t-10 -35q0 -33 27.5 -53.5t83.5 -20.5q67 0 112.5 33t63.5 87h70q-9 -30 -27.5 -58t-49 -55.5t-79 -44.5t-107.5 -17q-79 0 -119 35.5t-40 83.5q0 37 15 65t45 47.5t59.5 31t72.5 23.5l-34 35
l39 39l57 -58q78 20 117 42.5t39 63.5q0 31 -24.5 49t-73.5 18t-88 -25.5t-54 -74.5h-70q18 65 77 110t152 45q71 0 109.5 -31.5t38.5 -77.5q0 -68 -47 -103.5t-132 -60.5z" />
    <glyph glyph-name="uni0496" unicode="&#x496;" horiz-adv-x="878" 
d="M862 60l-67 -220h-70l48 160h-79l-186 357l-109 -357h-75l109 357l-390 -357h-98l424 383l-175 317h74l171 -322l99 322h75l-98 -321l354 321h84l-370 -337l159 -303h120z" />
    <glyph glyph-name="uni0497" unicode="&#x497;" horiz-adv-x="923" 
d="M281 245q12 39 17 74.5t3 66.5t-17 50t-43 19q-68 0 -100 -110h-70q51 165 187 165q67 0 91.5 -67t-0.5 -165h85l64 212h70l-64 -212h83q37 103 99.5 167.5t135.5 64.5q44 0 68.5 -25t26 -61.5t-9.5 -78.5h-70q32 110 -32 110q-53 0 -98 -63t-70 -147
q-12 -39 -17.5 -74.5t-3.5 -66.5t17 -50t43 -19q41 0 75.5 38t44.5 72h70l-87 -285h-65l55 180h-5q-1 -2 -3.5 -6.5t-11.5 -14.5t-20 -18t-30 -14.5t-40 -6.5q-75 0 -97 70.5t8 172.5h-83l-68 -223h-70l68 223h-83q-37 -110 -97.5 -176.5t-141.5 -66.5q-43 0 -67.5 25
t-26 61.5t9.5 78.5h69q-32 -110 32 -110q53 0 98 63t71 147z" />
    <glyph glyph-name="uni0498" unicode="&#x498;" horiz-adv-x="643" 
d="M59 -180h60q-7 -23 4.5 -39t38.5 -16t48.5 16.5t29.5 43.5t-3 43.5t-38 16.5q-30 0 -57 -18l-22 44l86 70q-84 7 -132.5 52.5t-48.5 114.5q0 31 10 62h75q-8 -26 -8 -49q0 -121 151 -121q111 0 180.5 56.5t69.5 139.5q0 49 -46 71.5t-116 22.5h-95l19 60h90
q56 0 105 15.5t84 54t35 94.5q0 47 -33.5 76.5t-108.5 29.5q-84 0 -145 -51.5t-82 -118.5h-75q31 100 118 165t203 65q91 0 144 -42t53 -115q0 -64 -51 -119.5t-123 -73.5l-3 -10q4 0 11 -1.5t25 -8.5t31.5 -18t24.5 -32.5t11 -48.5q0 -106 -81.5 -182t-222.5 -87l-55 -42
q50 -2 73.5 -32t6.5 -83q-17 -55 -59 -85t-96 -30q-45 0 -73 30.5t-13 79.5z" />
    <glyph glyph-name="uni0499" unicode="&#x499;" horiz-adv-x="535" 
d="M29 -180h60q-7 -23 4.5 -39t38.5 -16t48.5 16.5t29.5 43.5t-3 43.5t-38 16.5q-30 0 -57 -18l-22 44l84 69q-73 2 -118.5 37t-45.5 98q0 29 10 60h70q-9 -27 -9 -51q0 -84 123 -84q79 0 132.5 38.5t53.5 90.5q0 33 -35 44.5t-99 11.5h-76l17 55h81q69 0 118.5 23t49.5 79
q0 31 -29 49.5t-88 18.5q-53 0 -104.5 -27t-67.5 -78h-70q14 47 44 81t68 51t74.5 25t74.5 8q69 0 118 -29t49 -81q0 -89 -90 -126q-18 -8 -27 -9l-3 -10q3 0 7.5 -1.5t16 -6.5t20.5 -12.5t16 -22t7 -32.5q0 -71 -59 -125.5t-154 -69.5l-59 -45q50 -2 73.5 -32t6.5 -83
q-17 -55 -59 -85t-96 -30q-45 0 -73 30.5t-13 79.5z" />
    <glyph glyph-name="uni049A" unicode="&#x49a;" horiz-adv-x="634" 
d="M583 60l-67 -220h-70l48 160h-89l-73 376l-174 -137l-73 -239h-75l214 700h75l-114 -371l464 371h95l-352 -277l79 -363h112z" />
    <glyph glyph-name="uni049B" unicode="&#x49b;" horiz-adv-x="519" 
d="M339 0l-94 263l-122 -90l-53 -173h-70l150 490h70l-74 -240l318 240h90l-252 -185l93 -255h94l-58 -190h-65l43 140h-70z" />
    <glyph glyph-name="uni04A0" unicode="&#x4a0;" horiz-adv-x="714" 
d="M379 700l-114 -371l464 371h95l-352 -277l92 -423h-79l-73 376l-174 -137l-73 -239h-75l195 640h-170l19 60h245z" />
    <glyph glyph-name="uni04A1" unicode="&#x4a1;" horiz-adv-x="579" 
d="M83 490h197l-74 -240l318 240h90l-252 -185l112 -305h-75l-94 263l-122 -90l-53 -173h-70l133 435h-127z" />
    <glyph glyph-name="uni04A2" unicode="&#x4a2;" horiz-adv-x="680" 
d="M624 60l-67 -220h-70l48 160h-119l102 335h-331l-102 -335h-75l214 700h75l-94 -305h331l94 305h75l-196 -640h115z" />
    <glyph glyph-name="uni04A3" unicode="&#x4a3;" horiz-adv-x="560" 
d="M310 0l67 220h-240l-67 -220h-70l150 490h70l-66 -215h240l66 215h70l-135 -440h100l-58 -190h-65l43 140h-105z" />
    <glyph glyph-name="uni04AA" unicode="&#x4aa;" horiz-adv-x="686" 
d="M89 -180h60q-7 -23 4.5 -39t38.5 -16t48.5 16.5t29.5 43.5t-3 43.5t-38 16.5q-30 0 -57 -18l-22 44l86 71q-89 8 -137.5 68.5t-48.5 158.5q0 84 32.5 173.5t88 165t139 124t176.5 48.5q101 0 155.5 -53.5t54.5 -149.5q0 -33 -6 -67h-76q4 25 4 56q0 154 -151 154
q-95 0 -176.5 -74t-123.5 -175.5t-42 -195.5q0 -80 40 -127.5t118 -47.5q178 0 275 210h76q-53 -122 -132.5 -190t-196.5 -78l-55 -42q50 -2 73.5 -32t6.5 -83q-17 -55 -59 -85t-96 -30q-45 0 -73 30.5t-13 79.5z" />
    <glyph glyph-name="uni04AB" unicode="&#x4ab;" horiz-adv-x="554" 
d="M29 -180h60q-7 -23 4.5 -39t38.5 -16t48.5 16.5t29.5 43.5t-3 43.5t-38 16.5q-30 0 -57 -18l-22 44l86 71q-69 9 -107.5 55t-38.5 115q0 140 97.5 249t232.5 109q76 0 120 -37.5t44 -102.5q0 -27 -8 -55h-70q7 21 7 44q0 96 -110 96q-59 0 -108 -31.5t-77.5 -79
t-43.5 -96t-15 -87.5q0 -126 115 -126q66 0 118.5 41t70.5 99h70q-25 -83 -86.5 -132t-139.5 -60l-57 -43q50 -2 73.5 -32t6.5 -83q-17 -55 -59 -85t-96 -30q-45 0 -73 30.5t-13 79.5z" />
    <glyph glyph-name="uni04AE" unicode="&#x4ae;" horiz-adv-x="648" 
d="M758 700l-376 -356l-106 -344h-75l105 343l-156 357h85l123 -295l310 295h90z" />
    <glyph glyph-name="uni04AF" unicode="&#x4af;" horiz-adv-x="523" 
d="M568 490l-355 -476l-59 -194h-70l59 194l-63 476h70l47 -400l291 400h80z" />
    <glyph glyph-name="uni04B0" unicode="&#x4b0;" horiz-adv-x="648" 
d="M135 340h170l1 3l-156 357h85l123 -295l310 295h90l-376 -356l-1 -4h179l-18 -60h-180l-86 -280h-75l85 280h-169z" />
    <glyph glyph-name="uni04B1" unicode="&#x4b1;" horiz-adv-x="523" 
d="M25 55h112l-57 435h70l47 -400l291 400h80l-325 -435h122l-17 -55h-140l-54 -180h-70l54 180h-130z" />
    <glyph glyph-name="uni04B2" unicode="&#x4b2;" horiz-adv-x="657" 
d="M643 60l-67 -220h-70l48 160h-80l-126 310l-309 -310h-89l373 373l-132 327h73l111 -274l274 274h88l-336 -337l123 -303h119z" />
    <glyph glyph-name="uni04B3" unicode="&#x4b3;" horiz-adv-x="657" 
d="M397 -20q-55 0 -85 39.5t-24 103.5q-31 -66 -81.5 -104.5t-111.5 -38.5q-43 0 -67.5 25t-26 61.5t9.5 78.5h69q-32 -110 32 -110q54 0 104 64.5t75 145.5q15 51 17.5 97.5t-14.5 79.5t-53 33q-68 0 -100 -110h-70q51 165 187 165q52 0 82 -42t21 -107q32 67 84.5 108
t110.5 41q44 0 68.5 -25t26 -61.5t-9.5 -78.5h-70q32 110 -32 110q-54 0 -104 -64.5t-74 -145.5q-26 -73 -15.5 -141.5t64.5 -68.5q41 0 75.5 38t44.5 72h70l-87 -285h-65l55 180h-5q-1 -2 -3.5 -6.5t-11.5 -14.5t-19.5 -18t-28.5 -14.5t-38 -6.5z" />
    <glyph glyph-name="uni04BA" unicode="&#x4ba;" horiz-adv-x="609" 
d="M300 700l-115 -374h10l8 11q6 7 24.5 24.5t39 30.5t53 24t66.5 11q77 0 120 -38.5t43 -109.5q0 -55 -19 -117l-50 -162h-75l50 162q18 57 18 103q0 107 -114 107q-45 0 -83.5 -18.5t-65.5 -50.5t-45 -66.5t-30 -74.5l-50 -162h-75l215 700h75z" />
    <glyph glyph-name="uni04BB" unicode="&#x4bb;" 
d="M320 0l94 307q12 41 12 69q0 74 -81 74q-57 0 -111.5 -46.5t-81.5 -134.5l-82 -269h-70l229 750h70l-79 -260l-34 -80h9q83 100 180 100q56 0 90 -33t34 -88q0 -30 -15 -82l-94 -307h-70z" />
    <glyph glyph-name="uni04D8" unicode="&#x4d8;" horiz-adv-x="680" 
d="M81 380h513q14 59 14 107q0 80 -38.5 126.5t-119.5 46.5q-172 0 -270 -210h-76q51 126 146 198t219 72q104 0 160 -60t56 -164q0 -69 -18.5 -141t-55.5 -139t-87.5 -119.5t-120 -84.5t-146.5 -32q-97 0 -152 62.5t-55 168.5q0 81 31 169zM577 320h-442q-15 -57 -15 -103
q0 -80 38 -128.5t108 -48.5q109 0 188.5 77.5t122.5 202.5z" />
    <glyph glyph-name="afii10846" unicode="&#x4d9;" horiz-adv-x="546" 
d="M435 255q13 47 13 85q0 51 -28.5 83t-84.5 32q-58 0 -105 -34.5t-71 -85.5h-70q82 175 263 175q78 0 121 -46.5t43 -123.5q0 -61 -23.5 -124t-65 -116t-104 -86.5t-132.5 -33.5q-80 0 -120.5 42t-40.5 112q0 44 15 91l10 30h380zM110 200q-11 -31 -11 -64q0 -44 26 -72.5
t83 -28.5q71 0 123 47.5t84 117.5h-305z" />
    <glyph glyph-name="uni04E8" unicode="&#x4e8;" horiz-adv-x="680" 
d="M480 720q94 0 149.5 -63.5t55.5 -168.5q0 -83 -33 -172.5t-88.5 -164t-138 -123t-172.5 -48.5q-94 0 -148.5 63t-54.5 168q0 83 32.5 172.5t87.5 164.5t137.5 123.5t172.5 48.5zM272 40q94 0 183 85.5t129 209.5h-443q-16 -62 -16 -118q0 -81 38 -129t109 -48zM461 660
q-88 0 -172 -76t-129 -189h439q9 42 9 86q0 81 -38 130t-109 49z" />
    <glyph glyph-name="uni04E9" unicode="&#x4e9;" horiz-adv-x="550" 
d="M356 510q78 0 121 -47.5t43 -124.5q0 -87 -41.5 -169t-118.5 -135.5t-167 -53.5q-78 0 -120.5 47t-42.5 124q0 87 41 169t117.5 136t167.5 54zM210 35q77 0 133 53t85 132h-321q-7 -32 -7 -65q0 -54 26.5 -87t83.5 -33zM339 455q-76 0 -131 -51.5t-84 -128.5h319
q7 29 7 59q0 54 -27 87.5t-84 33.5z" />
    <glyph glyph-name="endash" unicode="&#x2013;" horiz-adv-x="649" 
d="M114 370h495l-19 -60h-495z" />
    <glyph glyph-name="emdash" unicode="&#x2014;" horiz-adv-x="858" 
d="M892 370l-18 -60h-858l18 60h858z" />
    <glyph glyph-name="quoteleft" unicode="&#x2018;" horiz-adv-x="215" 
d="M320 750h25l-7 -25h-10q-31 0 -51.5 -19.5t-36.5 -70.5l-30 -100h-65l21 70q25 79 62 112t92 33z" />
    <glyph glyph-name="quoteright" unicode="&#x2019;" horiz-adv-x="215" 
d="M134 535h-24l7 25h9q31 0 51.5 19.5t36.5 70.5l30 100h65l-21 -70q-25 -79 -62 -112t-92 -33z" />
    <glyph glyph-name="quotesinglbase" unicode="&#x201a;" horiz-adv-x="192" 
d="M-72 -115h-25l7 25h10q31 0 51 19.5t36 70.5l30 100h65l-21 -70q-25 -79 -62 -112t-91 -33z" />
    <glyph glyph-name="quotedblleft" unicode="&#x201c;" horiz-adv-x="340" 
d="M445 750h25l-7 -25h-10q-31 0 -51.5 -19.5t-36.5 -70.5l-30 -100h-65l21 70q25 79 62 112t92 33zM320 750h25l-7 -25h-10q-31 0 -51.5 -19.5t-36.5 -70.5l-30 -100h-65l21 70q25 79 62 112t92 33z" />
    <glyph glyph-name="quotedblright" unicode="&#x201d;" horiz-adv-x="340" 
d="M134 535h-24l7 25h9q31 0 51.5 19.5t36.5 70.5l30 100h65l-21 -70q-25 -79 -62 -112t-92 -33zM259 535h-25l7 25h10q31 0 51.5 19.5t36.5 70.5l30 100h65l-21 -70q-25 -79 -62 -112t-92 -33z" />
    <glyph glyph-name="quotedblbase" unicode="&#x201e;" horiz-adv-x="322" 
d="M-72 -115h-25l7 25h10q31 0 51 19.5t36 70.5l30 100h65l-21 -70q-25 -79 -62 -112t-91 -33zM58 -115h-25l7 25h10q31 0 51 19.5t36 70.5l30 100h65l-21 -70q-25 -79 -62 -112t-91 -33z" />
    <glyph glyph-name="dagger" unicode="&#x2020;" horiz-adv-x="304" 
d="M341 750l-56 -118l109 20l-23 -75l-99 20l-56 -257h-75l99 257l-110 -20l23 75l97 -20l16 118h75z" />
    <glyph glyph-name="daggerdbl" unicode="&#x2021;" horiz-adv-x="303" 
d="M340 750l-56 -118l109 20l-22 -75l-99 20l-19 -77l106 19l-23 -75l-93 18l-44 -196h-75l73 196l-102 -18l23 75l94 -19l28 77l-110 -20l22 75l97 -20l16 118h75z" />
    <glyph glyph-name="bullet" unicode="&#x2022;" horiz-adv-x="360" 
d="M120 360q0 38 26 64t64 26t64 -26t26 -64t-26 -64t-64 -26t-64 26t-26 64z" />
    <glyph glyph-name="ellipsis" unicode="&#x2026;" horiz-adv-x="601" 
d="M5 0l31 100h75l-31 -100h-75zM200 0l31 100h75l-31 -100h-75zM395 0l31 100h75l-31 -100h-75z" />
    <glyph glyph-name="perthousand" unicode="&#x2030;" horiz-adv-x="1095" 
d="M443 619q0 -86 -63 -137.5t-132 -51.5q-46 0 -77 27t-31 74q0 85 64 137t133 52q45 0 75.5 -27t30.5 -74zM382 605q0 27 -17.5 43.5t-44.5 16.5q-41 0 -79.5 -35t-38.5 -85q0 -27 17.5 -43.5t45.5 -16.5q41 0 79 35t38 85zM775 725l41 -45l-755 -705l-41 45zM695 169
q0 -86 -63 -137.5t-132 -51.5q-46 0 -77 27t-31 74q0 85 64 137t133 52q45 0 75.5 -27t30.5 -74zM634 155q0 27 -17.5 43.5t-44.5 16.5q-41 0 -79.5 -35t-38.5 -85q0 -27 17.5 -43.5t45.5 -16.5q41 0 79 35t38 85zM1035 169q0 -86 -63 -137.5t-132 -51.5q-46 0 -77 27
t-31 74q0 85 64 137t133 52q45 0 75.5 -27t30.5 -74zM974 155q0 27 -17.5 43.5t-44.5 16.5q-41 0 -79.5 -35t-38.5 -85q0 -27 17.5 -43.5t45.5 -16.5q41 0 79 35t38 85z" />
    <glyph glyph-name="uni2031" unicode="&#x2031;" horiz-adv-x="1435" 
d="M443 619q0 -86 -63 -137.5t-132 -51.5q-46 0 -77 27t-31 74q0 85 64 137t133 52q45 0 75.5 -27t30.5 -74zM382 605q0 27 -17.5 43.5t-44.5 16.5q-41 0 -79.5 -35t-38.5 -85q0 -27 17.5 -43.5t45.5 -16.5q41 0 79 35t38 85zM775 725l41 -45l-755 -705l-41 45zM695 169
q0 -86 -63 -137.5t-132 -51.5q-46 0 -77 27t-31 74q0 85 64 137t133 52q45 0 75.5 -27t30.5 -74zM634 155q0 27 -17.5 43.5t-44.5 16.5q-41 0 -79.5 -35t-38.5 -85q0 -27 17.5 -43.5t45.5 -16.5q41 0 79 35t38 85zM1035 169q0 -86 -63 -137.5t-132 -51.5q-46 0 -77 27
t-31 74q0 85 64 137t133 52q45 0 75.5 -27t30.5 -74zM974 155q0 27 -17.5 43.5t-44.5 16.5q-41 0 -79.5 -35t-38.5 -85q0 -27 17.5 -43.5t45.5 -16.5q41 0 79 35t38 85zM1375 169q0 -86 -63 -137.5t-132 -51.5q-46 0 -77 27t-31 74q0 85 64 137t133 52q45 0 75.5 -27
t30.5 -74zM1314 155q0 27 -17.5 43.5t-44.5 16.5q-41 0 -79.5 -35t-38.5 -85q0 -27 17.5 -43.5t45.5 -16.5q41 0 79 35t38 85z" />
    <glyph glyph-name="guilsinglleft" unicode="&#x2039;" horiz-adv-x="343" 
d="M162 260l70 -121l-33 -26l-129 157l224 157l19 -26z" />
    <glyph glyph-name="guilsinglright" unicode="&#x203a;" horiz-adv-x="344" 
d="M50 139l152 141l-71 121l33 26l130 -157l-225 -157z" />
    <glyph glyph-name="uni203B" unicode="&#x203b;" horiz-adv-x="744" 
d="M180 622l49 38l187 -270l356 271l29 -42l-355 -271l187 -270l-49 -38l-187 270l-356 -273l-28 42l355 273zM424 530l30 100h75l-30 -100h-75zM283 70l31 100h75l-31 -100h-75zM114 300l30 100h75l-30 -100h-75zM594 300l30 100h75l-30 -100h-75z" />
    <glyph glyph-name="uni203D" unicode="&#x203d;" horiz-adv-x="554" 
d="M614 620q0 -26 -8 -51t-18.5 -43.5t-32 -38t-36.5 -31.5t-44 -29t-43 -24l-47 -22q-33 -16 -42 -21l-48 -139q33 13 48 64h65q-14 -48 -53 -86.5t-100 -38.5q-43 0 -65 21.5t-22 54.5q0 94 132 163l57 216h75l-64 -184q40 18 64 31t53 34.5t43 49t14 61.5q0 39 -30 63.5
t-93 24.5q-81 0 -142 -48.5t-61 -118.5q0 -20 7 -37.5t15 -24.5l7 -8l-56 -44q-5 4 -12.5 12t-19.5 35t-12 57q0 102 88.5 172t205.5 70q79 0 127 -39t48 -101zM166 0l31 100h75l-31 -100h-75zM253 220l27 102q-44 -31 -44 -72q0 -21 17 -30z" />
    <glyph glyph-name="uni2042" unicode="&#x2042;" horiz-adv-x="918" 
d="M656 750l-71 -154l162 70l1 -81l-163 -25l77 -111l-84 -50l-30 139l-113 -139l-54 50l144 111l-146 25l51 81l118 -71l23 155h85zM316 390l-71 -154l161 70l2 -81l-163 -25l77 -111l-84 -50l-30 139l-113 -139l-53 50l143 111l-145 25l49 81l119 -71l23 155h85zM776 390
l-71 -154l161 70l2 -81l-163 -25l77 -111l-84 -50l-30 139l-113 -139l-54 50l144 111l-146 25l50 81l119 -71l23 155h85z" />
    <glyph glyph-name="uni2051" unicode="&#x2051;" horiz-adv-x="483" 
d="M437 750l-71 -154l161 70l1 -81l-162 -25l77 -111l-84 -50l-30 139l-113 -139l-54 50l144 111l-147 25l51 81l118 -71l24 155h85zM311 340l-71 -154l162 70l1 -81l-163 -25l77 -111l-84 -50l-29 139l-114 -139l-53 50l143 111l-145 25l50 81l118 -71l23 155h85z" />
    <glyph glyph-name="Euro" unicode="&#x20ac;" horiz-adv-x="802" 
d="M101 440h137q60 127 158.5 203.5t210.5 76.5q95 0 147.5 -53.5t52.5 -149.5q0 -31 -6 -67h-76q5 37 5 61q0 144 -143 144q-83 0 -154.5 -58t-118.5 -157h242l-18 -60h-249q-11 -26 -24 -80h248l-18 -60h-238q-1 -9 -1 -26q0 -80 36.5 -124.5t112.5 -44.5q169 0 264 205
h76q-55 -127 -149 -198.5t-211 -71.5q-94 0 -150 61t-56 163q0 12 2 36h-141l18 60h132q13 54 24 80h-131z" />
    <glyph glyph-name="afii61352" unicode="&#x2116;" horiz-adv-x="862" 
d="M613 700l-214 -700h-55l-101 535l-164 -535h-69l213 700h55l102 -535l163 535h70zM637 565q24 79 77 117t106 38q50 0 80.5 -38.5t6.5 -116.5q-24 -79 -76.5 -117t-105.5 -38q-50 0 -81 38.5t-7 116.5zM697 565q-15 -49 -1 -74.5t46 -25.5t61 25.5t44 74.5q14 53 1 76.5
t-45 23.5t-61 -25t-45 -75zM848 370l-19 -60h-270l19 60h270z" />
    <glyph glyph-name="trademark" unicode="&#x2122;" horiz-adv-x="862" 
d="M559 300l-8 315l-97 -315h-65l106 345h-135l-106 -345h-70l106 345h-145l17 55h448l7 -326l207 326h98l-123 -400h-70l97 315l-202 -315h-65z" />
    <glyph glyph-name="arrowleft" unicode="&#x2190;" horiz-adv-x="880" 
d="M273 481l-92 -108h609v-46h-609l92 -108l-26 -26l-177 157l177 157z" />
    <glyph glyph-name="arrowup" unicode="&#x2191;" horiz-adv-x="880" 
d="M571 517l-108 92v-609h-46v609l-108 -92l-26 26l157 177l157 -177z" />
    <glyph glyph-name="arrowright" unicode="&#x2192;" horiz-adv-x="880" 
d="M699 373l-92 108l26 26l177 -157l-177 -157l-26 26l92 108h-609v46h609z" />
    <glyph glyph-name="arrowdown" unicode="&#x2193;" horiz-adv-x="880" 
d="M309 183l108 -92v609h46v-609l108 92l26 -26l-157 -177l-157 177z" />
    <glyph glyph-name="arrowboth" unicode="&#x2194;" horiz-adv-x="880" 
d="M699 373l-92 108l26 26l177 -157l-177 -157l-26 26l92 108h-518l92 -108l-26 -26l-177 157l177 157l26 -26l-92 -108h518z" />
    <glyph glyph-name="arrowupdn" unicode="&#x2195;" horiz-adv-x="880" 
d="M309 183l108 -92v518l-108 -92l-26 26l157 177l157 -177l-26 -26l-108 92v-518l108 92l26 -26l-157 -177l-157 177z" />
    <glyph glyph-name="uni2196" unicode="&#x2196;" horiz-adv-x="880" 
d="M414 562l-142 -12l431 -430l-33 -33l-430 431l-12 -142h-36l-15 237l237 -15v-36z" />
    <glyph glyph-name="uni2197" unicode="&#x2197;" horiz-adv-x="880" 
d="M608 550l-142 12v36l237 15l-15 -237h-36l-12 142l-430 -431l-33 33z" />
    <glyph glyph-name="uni2198" unicode="&#x2198;" horiz-adv-x="880" 
d="M466 138l142 12l-431 430l33 33l430 -431l12 142h36l15 -237l-237 15v36z" />
    <glyph glyph-name="uni2199" unicode="&#x2199;" horiz-adv-x="880" 
d="M272 150l142 -12v-36l-237 -15l15 237h36l12 -142l430 431l33 -33z" />
    <glyph glyph-name="uni21B0" unicode="&#x21b0;" horiz-adv-x="880" 
d="M271 373h359v-373h-46v327h-313l92 -108l-26 -26l-177 157l177 157l26 -26z" />
    <glyph glyph-name="uni21B1" unicode="&#x21b1;" horiz-adv-x="880" 
d="M250 373h359l-92 108l26 26l177 -157l-177 -157l-26 26l92 108h-313v-327h-46v373z" />
    <glyph glyph-name="uni21B2" unicode="&#x21b2;" horiz-adv-x="880" 
d="M630 327h-359l92 -108l-26 -26l-177 157l177 157l26 -26l-92 -108h313v327h46v-373z" />
    <glyph glyph-name="uni21B3" unicode="&#x21b3;" horiz-adv-x="880" 
d="M609 327h-359v373h46v-327h313l-92 108l26 26l177 -157l-177 -157l-26 26z" />
    <glyph glyph-name="uni21B4" unicode="&#x21b4;" horiz-adv-x="880" 
d="M676 490v-399l108 92l26 -26l-157 -177l-157 177l26 26l108 -92v353h-500v46h546z" />
    <glyph glyph-name="uni21BA" unicode="&#x21ba;" horiz-adv-x="880" 
d="M174 320h46q0 -91 64.5 -155.5t155.5 -64.5t155.5 64.5t64.5 155.5t-64.5 155.5t-155.5 64.5h-24l92 -108l-26 -26l-177 157l177 157l26 -26l-92 -108h24q110 0 188 -78t78 -188t-78 -188t-188 -78t-188 78t-78 188z" />
    <glyph glyph-name="uni21BB" unicode="&#x21bb;" horiz-adv-x="880" 
d="M660 320h46q0 -110 -78 -188t-188 -78t-188 78t-78 188t78 188t188 78h24l-92 108l26 26l177 -157l-177 -157l-26 26l92 108h-24q-91 0 -155.5 -64.5t-64.5 -155.5t64.5 -155.5t155.5 -64.5t155.5 64.5t64.5 155.5z" />
    <glyph glyph-name="uni21C4" unicode="&#x21c4;" horiz-adv-x="880" 
d="M699 513l-92 108l26 26l177 -157l-177 -157l-26 26l92 108h-609v46h609zM273 341l-92 -108h609v-46h-609l92 -108l-26 -26l-177 157l177 157z" />
    <glyph glyph-name="uni21C5" unicode="&#x21c5;" horiz-adv-x="880" 
d="M431 517l-108 92v-609h-46v609l-108 -92l-26 26l157 177l157 -177zM449 183l108 -92v609h46v-609l108 92l26 -26l-157 -177l-157 177z" />
    <glyph glyph-name="Delta" unicode="&#x2206;" horiz-adv-x="652" 
d="M-55 0l485 700h76l56 -700h-617zM444 620l-383 -560h428z" />
    <glyph glyph-name="summation" unicode="&#x2211;" horiz-adv-x="609" 
d="M-30 0l19 62l361 314l-183 271l17 53h515l-20 -65h-415l-3 -10l173 -255l-342 -295l-3 -10h415l-20 -65h-514z" />
    <glyph glyph-name="minus" unicode="&#x2212;" horiz-adv-x="649" 
d="M114 370h495l-19 -60h-495z" />
    <glyph glyph-name="radical" unicode="&#x221a;" horiz-adv-x="586" 
d="M726 750l-475 -750h-76l-18 330h-102l18 60h145l11 -320l427 680h70z" />
    <glyph glyph-name="infinity" unicode="&#x221e;" horiz-adv-x="1091" 
d="M592 399q86 77 156.5 119t146.5 42t121 -39t45 -106q0 -116 -90 -195.5t-205 -79.5q-76 0 -120.5 42t-82.5 119q-86 -77 -156.5 -119t-145.5 -42q-76 0 -121 38.5t-45 104.5q0 117 89.5 197t205.5 80q75 0 119.5 -42t82.5 -119zM617 350q35 -73 71.5 -111.5t96.5 -38.5
q85 0 144.5 60.5t59.5 141.5q0 45 -28 71.5t-85 26.5q-60 0 -118.5 -38t-140.5 -112zM539 350q-35 73 -71.5 111.5t-96.5 38.5q-86 0 -145 -61.5t-59 -142.5q0 -44 28.5 -70t84.5 -26q60 0 118.5 38t140.5 112z" />
    <glyph glyph-name="approxequal" unicode="&#x2248;" horiz-adv-x="649" 
d="M589 485h60q-48 -115 -163 -115q-45 0 -112.5 30t-103.5 30q-31 0 -55 -17.5t-37 -42.5h-60q48 115 163 115q45 0 112.5 -30t103.5 -30q31 0 55 17.5t37 42.5zM540 325h60q-48 -115 -163 -115q-45 0 -112.5 30t-103.5 30q-31 0 -55 -17.5t-37 -42.5h-60q48 115 163 115
q45 0 112.5 -30t103.5 -30q31 0 55 17.5t37 42.5z" />
    <glyph glyph-name="notequal" unicode="&#x2260;" horiz-adv-x="649" 
d="M601 615l42 -35l-137 -130h126l-18 -60h-171l-105 -100h245l-18 -60h-290l-174 -165l-42 35l137 130h-126l18 60h170l106 100h-245l18 60h290z" />
    <glyph glyph-name="lessequal" unicode="&#x2264;" horiz-adv-x="536" 
d="M359 79l-50 -39l-199 214l50 39zM406 234l-50 -39l-200 215l335 234l33 -45l-282 -195z" />
    <glyph glyph-name="greaterequal" unicode="&#x2265;" horiz-adv-x="536" 
d="M69 83l30 -47l329 214l-30 47zM232 609l50 39l195 -238l-332 -215l-33 47l278 177z" />
    <glyph glyph-name="uni25FC" unicode="&#x25fc;" horiz-adv-x="510" 
d="M0 510h510v-510h-510v510z" />
    <glyph glyph-name="uni2605" unicode="&#x2605;" horiz-adv-x="746" 
d="M357 460l148 235l4 -235h247l-245 -145l5 -235l-155 145l-245 -145l148 235l-154 145h247z" />
    <glyph glyph-name="smileface" unicode="&#x263a;" horiz-adv-x="829" 
d="M829 458q0 -122 -69.5 -233t-186 -178t-245.5 -67q-123 0 -198 73.5t-75 188.5q0 121 71.5 232.5t187.5 178.5t241 67q123 0 198.5 -73.5t75.5 -188.5zM762 448q0 93 -59 150t-168 57q-107 0 -203.5 -57.5t-153.5 -151.5t-57 -196q0 -92 59 -148.5t168 -56.5
q107 0 203 57t153.5 150.5t57.5 195.5zM309 390l30 100h75l-30 -100h-75zM524 390l30 100h75l-30 -100h-75zM637 320h20q-32 -76 -111 -133t-172 -57q-92 0 -136 57t-31 133h20q-5 -55 39 -92.5t127 -37.5t149.5 37.5t94.5 92.5z" />
    <glyph glyph-name="uni2713" unicode="&#x2713;" horiz-adv-x="748" 
d="M191 112l636 603l16 -15l-681 -720l-107 305l24 17z" />
    <glyph glyph-name="uni2E2E" unicode="&#x2e2e;" horiz-adv-x="554" 
d="M178 285h65q-5 -15 -5 -32q0 -36 35 -36q27 0 48 20.5t21 50.5q0 26 -20 48t-48 39l-57 37q-28 19 -48 48t-20 64q0 103 83.5 169.5t196.5 66.5q85 0 133.5 -43t48.5 -115q0 -110 -134 -188l-30 46q4 2 10.5 6t23 17t29.5 28t23.5 38.5t10.5 48.5q0 43 -34 70t-91 27
q-90 0 -144 -47t-54 -110q0 -35 29.5 -65t65 -48.5t65 -49t29.5 -67.5q0 -53 -44 -100.5t-111 -47.5q-84 0 -84 79q0 21 7 46zM277 100l-31 -100h-75l31 100h75z" />
    <glyph glyph-name="uni3008" unicode="&#x3008;" horiz-adv-x="491" 
d="M610 900l31 -28l-462 -531l137 -529l-43 -12l-143 550z" />
    <glyph glyph-name="uni3009" unicode="&#x3009;" horiz-adv-x="491" 
d="M-49 -200l-31 28l462 531l-137 529l43 12l143 -550z" />
    <glyph glyph-name="uni300A" unicode="&#x300a;" horiz-adv-x="631" 
d="M610 900l31 -28l-462 -531l137 -529l-43 -12l-143 550zM750 900l31 -28l-462 -531l137 -529l-43 -12l-143 550z" />
    <glyph glyph-name="uni300B" unicode="&#x300b;" horiz-adv-x="631" 
d="M91 -200l-31 28l462 531l-137 529l43 12l143 -550zM-49 -200l-31 28l462 531l-137 529l43 12l143 -550z" />
    <glyph glyph-name="testmark1" unicode="&#xe009;" horiz-adv-x="970" 
d="M485 335l-43 -483q-21 2 -42 6l85 477l-125 -468q-22 5 -41 12l166 456l-205 -439q-21 10 -37 19l242 420l-279 -397q-11 8 -33 26l312 371l-343 -343q-20 20 -29 31l372 312l-397 -279q-7 9 -24 37l421 242l-440 -205q-9 20 -16 39l456 166l-469 -125q-1 7 -4 20t-5 20
l478 85l-484 -43q-1 14 -1 43h485l-484 42l6 42l478 -84l-469 125l13 41l456 -166l-440 205q15 31 19 37l421 -242l-397 278q12 19 25 34l372 -312l-343 343q14 14 31 28l312 -371l-279 397q24 16 37 23l242 -420l-205 439q29 14 39 17l166 -456l-125 468q18 6 40 9l85 -477
l-43 483q28 2 43 2v-485l42 483q20 -1 42 -6l-84 -477l125 468q19 -4 41 -12l-166 -456l205 439q19 -9 38 -19l-243 -420l278 397q12 -8 34 -26l-312 -371l343 343q1 -1 28 -31l-371 -312l397 278q16 -24 23 -36l-420 -242l439 205q12 -26 17 -39l-456 -166l468 125
q6 -22 9 -41l-477 -84l483 42q2 -28 2 -42h-485l483 -43q-2 -21 -6 -42l-477 85l468 -125q-5 -22 -12 -41l-456 166l439 -205q-12 -26 -19 -38l-420 243l397 -279q-8 -11 -26 -33l-371 312l343 -343q-1 -1 -31 -28l-312 371l278 -397q-24 -16 -36 -23l-242 420l205 -439
q-26 -12 -39 -17l-166 456l125 -468q-22 -6 -41 -9l-84 477l42 -483q-28 -2 -42 -2v485z" />
    <glyph glyph-name="testmark2" unicode="&#xe00a;" horiz-adv-x="970" 
d="M557 -145l-60 341v-346h-24v346l-60 -341l-24 4l60 339l-119 -323l-22 8l118 324l-173 -298l-21 12l172 298l-221 -264l-19 16l221 264l-264 -221l-16 19l264 221l-298 -172l-12 21l299 172l-325 -118l-8 23l326 119l-342 -60l-4 24l341 60h-346v24h346l-341 60l4 24
l342 -60l-326 119l8 23l325 -119l-299 173l12 21l298 -172l-264 221l16 19l264 -222l-221 265l19 16l221 -264l-172 298l21 12l172 -299l-118 325l23 8l120 -328l-61 344l24 4l60 -341v346h24v-346l60 341l24 -4l-61 -344l120 328l23 -8l-118 -325l172 299l21 -12l-172 -298
l221 264l19 -16l-221 -265l264 222l16 -19l-264 -221l298 172l12 -21l-299 -173l325 119l8 -23l-326 -119l342 60l4 -24l-341 -60h346v-24h-346l341 -60l-4 -24l-342 60l326 -119l-8 -23l-325 118l299 -172l-12 -21l-298 172l264 -221l-16 -19l-264 221l221 -264l-19 -16
l-221 264l172 -298l-21 -12l-173 298l118 -324l-22 -8l-119 323l60 -339z" />
    <glyph glyph-name="copyleft" horiz-adv-x="1050" 
d="M1022 379q0 -158 -93 -300t-241.5 -225.5t-307.5 -83.5q-154 0 -252 96t-98 244q0 119 55 232.5t143.5 195.5t206 132t236.5 50q155 0 253 -96.5t98 -244.5zM792 315h-70q4 13 4 29q0 26 -12 47l-346 -328q34 -23 94 -23q70 0 135 40t82 95h70q-28 -91 -120 -143
t-186 -52q-75 0 -125 36l-124 -117q82 -64 206 -64q100 0 200.5 43.5t178.5 115.5t127.5 172t49.5 205q0 111 -65 187l-121 -115q30 -35 30 -80q0 -21 -8 -48zM95 118q0 -107 60 -181l124 117q-31 46 -31 108q0 85 46 164.5t130 131.5t182 52q67 0 122 -32l123 117
q-79 60 -200 60q-100 0 -200.5 -44t-179 -116t-127.5 -172t-49 -205zM319 170q0 -38 14 -65l343 324q-37 21 -89 21q-63 0 -116 -28.5t-85 -72t-49.5 -90.5t-17.5 -89z" />
    <glyph glyph-name="bitcoin" horiz-adv-x="655" 
d="M452 880h65l-56 -180h8q92 0 144 -32t52 -98q0 -72 -52 -123t-133 -67l-3 -10q5 0 12.5 -1.5t27 -9.5t34.5 -20t27.5 -36.5t12.5 -56.5q0 -113 -86 -179.5t-235 -66.5h-23l-55 -180h-65l55 180h-172l214 700h173zM377 335h-28l-84 -275h28q106 0 166 49t60 128
q0 51 -34 74.5t-108 23.5zM450 640h-7l-75 -245h7q55 0 102.5 15t81.5 53t34 92q0 47 -37 66t-106 19zM187 335l-84 -275h97l85 275h-98zM280 640l-75 -245h98l75 245h-98z" />
    <glyph glyph-name="ruble" horiz-adv-x="722" 
d="M30 225l18 60h139l19 60h-140l18 60h140l90 295h275q84 0 123.5 -35.5t39.5 -90.5q0 -30 -8 -60t-28.5 -61t-50.5 -54.5t-78 -38.5t-107 -15h-199l-19 -60h276l-19 -60h-275l-69 -225h-75l69 225h-139zM370 640l-71 -235h192q93 0 141.5 44.5t48.5 113.5q0 77 -108 77
h-203z" />
    <glyph glyph-name="sommaccent" horiz-adv-x="510" 
d="M24 165h70q-8 -27 -8 -46q0 -39 26 -61.5t78 -22.5q70 0 119 34t49 83q0 25 -27.5 43t-66.5 30l-79 26q-39 13 -66.5 36t-27.5 54q0 74 69.5 121.5t168.5 47.5q55 0 98 -25.5t43 -80.5q0 -20 -8 -49h-70q6 19 6 34q0 33 -23.5 49.5t-62.5 16.5q-63 0 -106.5 -30
t-43.5 -67q0 -23 27.5 -39.5t66.5 -28t78 -25.5t66.5 -41t27.5 -66q0 -76 -71 -127t-174 -51q-73 0 -120.5 32t-47.5 95q0 27 9 58zM28 -285h-25l7 25h10q31 0 51 19.5t36 70.5l30 100h65l-21 -70q-25 -79 -62 -112t-91 -33z" />
    <glyph glyph-name="ss01.r" horiz-adv-x="435" 
d="M0 0l150 490h70l-32 -104l126 124q37 -40 88 -40q20 0 40 8t30 16l10 8l8 -7l-23 -24l-20 -21q-5 -5 -17 -16t-17.5 -14.5t-15.5 -9t-18 -7t-18 -1.5q-27 0 -48.5 9.5t-29.5 18.5l-8 10l-100 -95l-106 -345h-69z" />
    <glyph glyph-name="ss01.rcaron" horiz-adv-x="435" 
d="M0 0l150 490h70l-32 -104l126 124q37 -40 88 -40q20 0 40 8t30 16l10 8l8 -7l-23 -24l-20 -21q-5 -5 -17 -16t-17.5 -14.5t-15.5 -9t-18 -7t-18 -1.5q-27 0 -48.5 9.5t-29.5 18.5l-8 10l-100 -95l-106 -345h-69zM301 635l213 115l14 -19l-244 -181l-138 183l23 17z" />
    <glyph glyph-name="ss01.rcommaaccent" horiz-adv-x="435" 
d="M0 0l150 490h70l-32 -104l126 124q37 -40 88 -40q20 0 40 8t30 16l10 8l8 -7l-23 -24l-20 -21q-5 -5 -17 -16t-17.5 -14.5t-15.5 -9t-18 -7t-18 -1.5q-27 0 -48.5 9.5t-29.5 18.5l-8 10l-100 -95l-106 -345h-69zM-127 -285h-25l7 25h10q31 0 51 19.5t36 70.5l30 100h65
l-21 -70q-25 -79 -62 -112t-91 -33z" />
    <glyph glyph-name="ss01.racute" horiz-adv-x="435" 
d="M150 490l-150 -490h69l106 345l100 95q3 -4 9 -10.5t28 -17t49 -10.5q10 0 18 1.5t18 7t15.5 9t17.5 14.5t17 16l21 21l22 24l-8 7q-34 -32 -80 -32q-23 0 -45 10t-33 20l-10 10l-126 -124l32 104h-70zM251 550l168 200h115l-244 -200h-39z" />
    <glyph glyph-name="case.parenleft" horiz-adv-x="360" 
d="M214 -110l-26 -20q-7 7 -18.5 20t-37.5 58.5t-40.5 96.5t-14 134t27.5 171t75.5 170t98.5 136t96.5 95t76.5 60l29 19l14 -20q-9 -6 -24.5 -18t-59 -54.5t-81.5 -91.5t-81 -129t-69 -167q-27 -87 -33.5 -166t3.5 -130.5t24 -90t27 -55.5z" />
    <glyph glyph-name="case.parenright" horiz-adv-x="360" 
d="M-71 -130l-14 20q9 6 24.5 18t59 54.5t81.5 91.5t81 129t69 167q27 87 33 166t-4 130.5t-24 90t-27 55.5l-13 18l26 20q7 -7 18.5 -20t37.5 -58.5t41 -96.5t14.5 -134t-27.5 -171t-76 -170t-99 -136t-96 -95t-76 -60z" />
    <glyph glyph-name="case.hyphen" horiz-adv-x="500" 
d="M479 395l-19 -60h-380l19 60h380z" />
    <glyph glyph-name="case.periodcentered" horiz-adv-x="255" 
d="M105 315l31 100h75l-31 -100h-75z" />
    <glyph glyph-name="case.guilsinglleft" horiz-adv-x="353" 
d="M182 340l70 -121l-33 -26l-129 157l224 157l19 -26z" />
    <glyph glyph-name="case.guilsinglright" horiz-adv-x="353" 
d="M70 219l152 141l-71 121l33 26l130 -157l-225 -157z" />
    <glyph glyph-name="case.guillemotleft" horiz-adv-x="498" 
d="M182 340l70 -121l-33 -26l-129 157l224 157l19 -26zM347 340l70 -121l-33 -26l-129 157l224 157l19 -26z" />
    <glyph glyph-name="case.guillemotright" horiz-adv-x="498" 
d="M225 219l152 141l-71 121l33 26l130 -157l-225 -157zM60 219l152 141l-71 121l33 26l130 -157l-225 -157z" />
    <glyph glyph-name="case.at" horiz-adv-x="1050" 
d="M712 350q24 80 -6 142.5t-112 62.5t-145 -62t-87 -143q-12 -38 -12.5 -73.5t9.5 -65.5t38.5 -48t71.5 -18q83 0 150.5 62.5t92.5 142.5zM856 595l-105 -345q-32 -105 35 -105q52 0 97 52.5t76 152.5q53 175 -19 290t-263 115q-112 0 -219 -49.5t-190 -143t-119 -212.5
q-56 -181 24 -293t257 -112q68 0 131 21.5t93 42.5l29 21l31 -56q-5 -4 -14.5 -10.5t-41.5 -24t-65.5 -30.5t-84 -23.5t-100.5 -10.5q-126 0 -216.5 60.5t-121.5 166t9 248.5q64 210 239 342.5t381 132.5q83 0 150.5 -24t110.5 -67.5t68.5 -103t24 -130.5t-23.5 -150
q-42 -135 -114.5 -200t-147.5 -65q-50 0 -76.5 31t-11.5 94h-10q-3 -5 -9.5 -13.5t-29 -30t-47 -38t-63.5 -30t-80 -13.5q-96 0 -139 77.5t-9 187.5q34 113 121.5 189t194.5 76q39 0 68.5 -13t43.5 -31.5t22.5 -36.5t9.5 -31l2 -13h10l32 105h60z" />
    <glyph glyph-name="case.copyright" horiz-adv-x="1050" 
d="M817 420h-70q4 13 4 29q0 46 -37 76t-102 30q-63 0 -116 -28.5t-85 -72t-49.5 -90.5t-17.5 -89q0 -58 34 -94t109 -36q70 0 135 40t82 95h70q-28 -91 -120 -143t-186 -52q-91 0 -143 50.5t-52 131.5q0 85 46 164.5t130 131.5t182 52q74 0 134 -39t60 -108q0 -21 -8 -48z
M981 476q0 126 -81.5 205t-223.5 79q-100 0 -200.5 -44t-179 -116t-127.5 -172t-49 -205q0 -126 81.5 -204.5t223.5 -78.5q100 0 200.5 43.5t178.5 115.5t127.5 172t49.5 205zM1047 484q0 -158 -93 -300t-241.5 -225.5t-307.5 -83.5q-154 0 -252 96t-98 244q0 119 55 232.5
t143.5 195.5t206 132t236.5 50q155 0 253 -96.5t98 -244.5z" />
    <glyph glyph-name="case.registered" horiz-adv-x="1050" 
d="M981 476q0 126 -81.5 205t-223.5 79q-100 0 -200.5 -44t-179 -116t-127.5 -172t-49 -205q0 -126 81.5 -204.5t223.5 -78.5q100 0 200.5 43.5t178.5 115.5t127.5 172t49.5 205zM1047 484q0 -158 -93 -300t-241.5 -225.5t-307.5 -83.5q-154 0 -252 96t-98 244
q0 119 55 232.5t143.5 195.5t206 132t236.5 50q155 0 253 -96.5t98 -244.5zM621 220l-35 -115h130l10 35h-10q-29 0 -34.5 10.5t6.5 59.5l8 27q7 25 5.5 41.5t-8.5 27t-14.5 16t-14.5 6.5l-6 2l3 10q4 1 11 3t25.5 11t34 21t32.5 34t25 49q19 62 -14.5 99t-144.5 38h-200
l-149 -490h70l62 205h135q58 0 73.5 -22.5t-0.5 -67.5zM430 365l54 175h128q70 0 94 -22t11 -64q-27 -89 -149 -89h-138z" />
    <glyph glyph-name="case.copyleft" horiz-adv-x="1050" 
d="M1047 484q0 -158 -93 -300t-241.5 -225.5t-307.5 -83.5q-154 0 -252 96t-98 244q0 119 55 232.5t143.5 195.5t206 132t236.5 50q155 0 253 -96.5t98 -244.5zM817 420h-70q4 13 4 29q0 26 -12 47l-346 -328q34 -23 94 -23q70 0 135 40t82 95h70q-28 -91 -120 -143
t-186 -52q-75 0 -125 36l-124 -117q82 -64 206 -64q100 0 200.5 43.5t178.5 115.5t127.5 172t49.5 205q0 111 -65 187l-121 -115q30 -35 30 -80q0 -21 -8 -48zM120 223q0 -107 60 -181l124 117q-31 47 -31 108q0 85 46 164.5t130 131.5t182 52q67 0 122 -32l123 117
q-79 60 -200 60q-100 0 -200.5 -44t-179 -116t-127.5 -172t-49 -205zM344 275q0 -38 14 -65l343 324q-37 21 -89 21q-63 0 -116 -28.5t-85 -72t-49.5 -90.5t-17.5 -89z" />
    <glyph glyph-name="case.questiondown" horiz-adv-x="550" 
d="M266 415h-65q14 48 53 86.5t100 38.5q43 0 65 -21.5t22 -54.5q0 -16 -6 -34q-14 -47 -57.5 -82.5t-95.5 -58.5l-100 -47q-49 -23 -82 -60.5t-33 -88.5q0 -39 30 -63.5t93 -24.5q81 0 142 48.5t61 118.5q0 20 -7.5 37.5t-14.5 24.5l-7 8l56 44q5 -4 12.5 -12t19.5 -35
t12 -57q0 -102 -88.5 -172t-205.5 -70q-79 0 -127 39t-48 101q0 23 8 50q16 52 60.5 92.5t95.5 65.5l100 48q49 23 81.5 51t32.5 63q0 33 -37 33q-50 0 -70 -68zM443 700l-31 -100h-75l31 100h75z" />
    <glyph glyph-name="case.exclamdown" horiz-adv-x="235" 
d="M283 700l-30 -100h-74l30 100h74zM216 520l-156 -570h-85l192 570h49z" />
    <glyph glyph-name="caps.endash" horiz-adv-x="595" 
d="M89 395h495l-19 -60h-495z" />
    <glyph glyph-name="caps.emdash" horiz-adv-x="860" 
d="M897 395l-18 -60h-858l18 60h858z" />
    <glyph glyph-name="ss02.z" horiz-adv-x="524" 
d="M-49 0h70q-6 -22 -6 -40q0 -43 29.5 -74t97.5 -31q48 0 87.5 16t63.5 39.5t40.5 53.5t23 56t6.5 49q0 48 -29 79.5t-96 31.5h-104l17 55l282 200h-349l17 55h433l-17 -55l-285 -200h27q67 0 119 -39.5t52 -115.5q0 -45 -18.5 -92.5t-53 -90.5t-93 -70t-130.5 -27
q-97 0 -143.5 47.5t-46.5 109.5q0 23 6 43z" />
    <glyph glyph-name="ss02.zcaron" horiz-adv-x="524" 
d="M-49 0h70q-6 -22 -6 -40q0 -43 29.5 -74t97.5 -31q48 0 87.5 16t63.5 39.5t40.5 53.5t23 56t6.5 49q0 48 -29 79.5t-96 31.5h-104l17 55l282 200h-349l17 55h433l-17 -55l-285 -200h27q67 0 119 -39.5t52 -115.5q0 -45 -18.5 -92.5t-53 -90.5t-93 -70t-130.5 -27
q-97 0 -143.5 47.5t-46.5 109.5q0 23 6 43zM341 635l213 115l14 -19l-244 -181l-138 183l23 17z" />
    <glyph glyph-name="ss02.zdot" horiz-adv-x="524" 
d="M-49 0h70q-6 -22 -6 -40q0 -43 29.5 -74t97.5 -31q48 0 87.5 16t63.5 39.5t40.5 53.5t23 56t6.5 49q0 48 -29 79.5t-96 31.5h-104l17 55l282 200h-349l17 55h433l-17 -55l-285 -200h27q67 0 119 -39.5t52 -115.5q0 -45 -18.5 -92.5t-53 -90.5t-93 -70t-130.5 -27
q-97 0 -143.5 47.5t-46.5 109.5q0 23 6 43zM285 585l29 95h70l-29 -95h-70z" />
    <glyph glyph-name="ss02.zacute" horiz-adv-x="524" 
d="M-49 0h70q-6 -22 -6 -40q0 -43 29.5 -74t97.5 -31q48 0 87.5 16t63.5 39.5t40.5 53.5t23 56t6.5 49q0 48 -29 79.5t-96 31.5h-104l17 55l282 200h-349l17 55h433l-17 -55l-285 -200h27q67 0 119 -39.5t52 -115.5q0 -45 -18.5 -92.5t-53 -90.5t-93 -70t-130.5 -27
q-97 0 -143.5 47.5t-46.5 109.5q0 23 6 43zM276 550l168 200h115l-244 -200h-39z" />
    </font>
</defs>
</svg>
