<?xml version="1.0" standalone="no"?>
<!DOCTYPE svg PUBLIC "-//W3C//DTD SVG 1.1//EN" "http://www.w3.org/Graphics/SVG/1.1/DTD/svg11.dtd" >
<svg>
<metadata>
Created by FontForge 20090622 at Tue Apr  7 09:41:23 2020
 By deploy user
Copyright (c) 2018 by The Temporary State. All rights reserved.
</metadata>
<defs>
<font id="Steinbeck-Regular" horiz-adv-x="585" >
  <font-face 
    font-family="Steinbeck"
    font-weight="400"
    font-stretch="normal"
    units-per-em="1000"
    panose-1="0 0 0 0 0 0 0 0 0 0"
    ascent="750"
    descent="-250"
    x-height="490"
    cap-height="700"
    bbox="-112 -290 1390 1000"
    underline-thickness="55"
    underline-position="-288"
    unicode-range="U+000D-U+E00A"
  />
<missing-glyph horiz-adv-x="860" 
d="M218 520l42 42l170 -170l170 170l42 -42l-170 -170l170 -170l-42 -42l-170 170l-170 -170l-42 42l170 170zM80 0v700h700v-700h-700zM140 640v-580h580v580h-580z" />
    <glyph glyph-name=".notdef" horiz-adv-x="860" 
d="M218 520l42 42l170 -170l170 170l42 -42l-170 -170l170 -170l-42 -42l-170 170l-170 -170l-42 42l170 170zM80 0v700h700v-700h-700zM140 640v-580h580v580h-580z" />
    <glyph glyph-name=".null" horiz-adv-x="0" 
 />
    <glyph glyph-name="nonmarkingreturn" horiz-adv-x="333" 
 />
    <glyph glyph-name="NULL" horiz-adv-x="330" 
 />
    <glyph glyph-name="NULL" horiz-adv-x="330" 
 />
    <glyph glyph-name="CR" unicode="&#xd;" horiz-adv-x="330" 
 />
    <glyph glyph-name="space" unicode=" " horiz-adv-x="330" 
 />
    <glyph glyph-name="exclam" unicode="!" horiz-adv-x="235" 
d="M80 0v100h75v-100h-75zM93 180l-18 570h85l-18 -570h-49z" />
    <glyph glyph-name="quotedbl" unicode="&#x22;" horiz-adv-x="340" 
d="M93 510l-28 240h85l-28 -240h-29zM218 510l-28 240h85l-28 -240h-29z" />
    <glyph glyph-name="numbersign" unicode="#" horiz-adv-x="697" 
d="M427 700l-93 -230h135l93 230h65l-93 -230h153v-60h-177l-56 -140h183v-60h-207l-85 -210h-65l84 210h-134l-85 -210h-65l84 210h-154v60h178l57 140h-185v60h209l93 230h65zM310 410l-56 -140h134l57 140h-135z" />
    <glyph glyph-name="dollar" unicode="$" horiz-adv-x="675" 
d="M305 880h65v-163q116 -12 170.5 -82t54.5 -170h-70q0 29 -6.5 56t-21.5 56.5t-48 50.5t-79 28v-268q46 -7 74.5 -13t65.5 -19.5t58.5 -31.5t36.5 -48.5t15 -70.5q0 -88 -64.5 -152t-185.5 -72v-161h-65v162q-134 10 -202 89.5t-68 183.5h70q0 -30 9 -61t29.5 -64.5
t62.5 -57.5t99 -30v285q-42 6 -71 12t-62.5 19.5t-53.5 31t-34 47t-14 68.5q0 86 63.5 147.5t171.5 66.5v161zM555 195q0 32 -14 54t-42.5 35.5t-56.5 20.5t-72 14v-278q66 5 110 33t59.5 59t15.5 62zM135 515q0 -55 43.5 -80t126.5 -38v262q-79 -6 -124.5 -51.5
t-45.5 -92.5z" />
    <glyph glyph-name="percent" unicode="%" horiz-adv-x="780" 
d="M50 575q0 67 44 106t101 39t101 -39t44 -106t-44 -106t-101 -39t-101 39t-44 106zM110 575q0 -40 25 -65t60 -25t60 25t25 65t-25 65t-60 25t-60 -25t-25 -65zM730 125q0 -67 -44 -106t-101 -39t-101 39t-44 106t44 106t101 39t101 -39t44 -106zM670 125q0 40 -25 65
t-60 25t-60 -25t-25 -65t25 -65t60 -25t60 25t25 65zM633 725l47 -35l-533 -715l-47 35z" />
    <glyph glyph-name="ampersand" unicode="&#x26;" horiz-adv-x="750" 
d="M615 365h60q0 -65 -21.5 -139.5t-66.5 -132.5l128 -93h-102l-68 48q-80 -68 -195 -68q-131 0 -205.5 57.5t-74.5 147.5q0 105 93 151q-68 73 -68 154q0 41 15.5 80.5t46 73.5t85 55t124.5 21q119 0 186.5 -59.5t67.5 -150.5q0 -40 -16.5 -70.5t-39 -48t-62 -31t-70 -19
t-79 -13.5t-73.5 -14l63 -44q41 -28 57 -40l139 -102q42 53 59 120t17 117zM555 510q0 54 -46 102t-143 48q-57 0 -98.5 -16t-62.5 -43t-30.5 -54.5t-9.5 -56.5q0 -68 62 -130q34 9 87 18t90.5 16t74.5 20t56.5 36.5t19.5 59.5zM210 291q-75 -33 -75 -106q0 -54 51.5 -99.5
t163.5 -45.5q85 0 145 44l-128 92q-136 97 -157 115z" />
    <glyph glyph-name="quotesingle" unicode="'" horiz-adv-x="215" 
d="M93 510l-28 240h85l-28 -240h-29z" />
    <glyph glyph-name="parenleft" unicode="(" horiz-adv-x="360" 
d="M330 -185l-20 -20l-25 20q-15 13 -55 58.5t-70 96.5t-55 134t-25 171t23.5 170t57.5 136t68 95t57 60l24 19l20 -20q-7 -6 -19 -18t-42.5 -54.5t-53.5 -91.5t-42 -129t-18 -167q-1 -87 17 -166t44 -130.5t52 -90t44 -56.5z" />
    <glyph glyph-name="parenright" unicode=")" horiz-adv-x="360" 
d="M50 -205l-20 20q7 6 19 18t42.5 54.5t53.5 91.5t42 129t18 167q1 87 -17 166t-44 130.5t-52 90t-44 56.5l-18 17l20 20l25 -20q15 -13 55 -58.5t70 -96.5t55 -134t25 -171t-23.5 -170t-57.5 -136t-68 -95t-57 -60z" />
    <glyph glyph-name="asterisk" unicode="*" horiz-adv-x="459" 
d="M272 750l-24 -154l140 70l26 -81l-155 -25l111 -111l-69 -50l-72 139l-71 -139l-69 50l110 111l-154 25l26 81l140 -71l-24 155h85z" />
    <glyph glyph-name="plus" unicode="+" horiz-adv-x="595" 
d="M265 585h65v-215h215v-60h-215v-215h-65v215h-215v60h215v215z" />
    <glyph glyph-name="comma" unicode="," horiz-adv-x="205" 
d="M25 -115h-25v25h10q31 0 45.5 19.5t14.5 70.5v100h65v-70q0 -79 -27.5 -112t-82.5 -33z" />
    <glyph glyph-name="hyphen" unicode="-" horiz-adv-x="500" 
d="M440 320v-60h-380v60h380z" />
    <glyph glyph-name="period" unicode="." horiz-adv-x="195" 
d="M60 0v100h75v-100h-75z" />
    <glyph glyph-name="slash" unicode="/" horiz-adv-x="640" 
d="M563 725l47 -35l-533 -715l-47 35z" />
    <glyph glyph-name="zero" unicode="0" horiz-adv-x="660" 
d="M50 350q0 162 74.5 266t205.5 104t205.5 -104t74.5 -266t-74.5 -266t-205.5 -104t-205.5 104t-74.5 266zM125 350q0 -136 53.5 -220.5t151.5 -84.5t151.5 84.5t53.5 220.5t-53.5 220.5t-151.5 84.5t-151.5 -84.5t-53.5 -220.5z" />
    <glyph glyph-name="one" unicode="1" horiz-adv-x="320" 
d="M220 710v-710h-75v580h-125v45h60q44 0 66 17.5t29 67.5h45z" />
    <glyph glyph-name="two" unicode="2" horiz-adv-x="595" 
d="M550 0h-505v75q23 14 66 37l72 40l69 42.5t67.5 46.5t57 50.5t47.5 57.5t29.5 63.5t11.5 72.5q0 74 -43.5 122t-131.5 48q-72 0 -120 -44t-48 -111q0 -25 7.5 -48t18 -37t21.5 -25t19 -16l7 -4l-46 -45q-4 2 -10 6t-22.5 19.5t-29 34t-22.5 49.5t-10 66q0 95 69.5 157.5
t165.5 62.5q116 0 180.5 -63.5t64.5 -161.5q0 -50 -14 -94.5t-43 -83t-62 -70t-84 -64.5t-95 -57.5t-107 -55.5v-5h420v-65z" />
    <glyph glyph-name="three" unicode="3" horiz-adv-x="610" 
d="M45 210h75q0 -68 45.5 -116.5t139.5 -48.5q95 0 140 42t45 108q0 73 -52 104t-133 31h-95v60h90q78 0 121.5 32.5t43.5 97.5q0 62 -42.5 98.5t-122.5 36.5q-79 0 -122 -47t-43 -118h-75q0 96 67 163t173 67q113 0 176.5 -55.5t63.5 -144.5q0 -36 -11.5 -65t-27.5 -44
t-32 -25t-27 -13l-12 -3v-10q5 -1 14.5 -2.5t32.5 -12.5t41 -27t32.5 -48.5t14.5 -74.5q0 -92 -67.5 -153.5t-192.5 -61.5q-121 0 -190.5 65t-69.5 165z" />
    <glyph glyph-name="four" unicode="4" horiz-adv-x="635" 
d="M405 700h45v-470h145v-65h-145v-165h-75v165h-325v75zM117 230h258v333z" />
    <glyph glyph-name="five" unicode="5" horiz-adv-x="600" 
d="M54 310l46 390h440q-18 -36 -54.5 -55.5t-115.5 -19.5q-36 0 -88.5 3.5t-87.5 7.5l-34 4l-25 -229h10q2 3 6 8.5t19 19t33 24t48 19t64 8.5q107 0 173.5 -67.5t66.5 -182.5q0 -111 -69 -185.5t-191 -74.5q-102 0 -176 60t-74 155h75q0 -60 47.5 -105t132.5 -45
q91 0 135.5 55t44.5 135q0 95 -50 145t-135 50q-67 0 -117 -37.5t-59 -82.5h-65z" />
    <glyph glyph-name="six" unicode="6" horiz-adv-x="635" 
d="M565 510h-70q-4 20 -8.5 35t-16.5 37t-28 36.5t-45.5 25.5t-66.5 11q-185 0 -210 -295h10q2 5 6.5 13.5t21 30t37 38t57 30t78.5 13.5q110 0 182.5 -70.5t72.5 -179.5q0 -110 -74.5 -182.5t-190.5 -72.5q-120 0 -195 81t-75 254q0 180 72.5 292.5t207.5 112.5
q61 0 106.5 -19t71.5 -51.5t39.5 -66.5t17.5 -73zM130 235q0 -79 51 -134.5t139 -55.5t139 55.5t51 134.5t-51 134.5t-139 55.5q-87 0 -138.5 -56.5t-51.5 -133.5z" />
    <glyph glyph-name="seven" unicode="7" horiz-adv-x="575" 
d="M555 700v-55q-6 -4 -16 -12.5t-39.5 -39t-56 -65.5t-59.5 -91.5t-57.5 -118t-42 -145.5t-19.5 -173h-80q4 84 21 163.5t41 140t52.5 114t55.5 90.5t49.5 64t36.5 40l14 13v10h-435v65h535z" />
    <glyph glyph-name="eight" unicode="8" horiz-adv-x="610" 
d="M175 385q-4 1 -11 4t-24 15.5t-30 27.5t-24 42t-11 58q0 85 65.5 136.5t164.5 51.5t164.5 -51.5t65.5 -136.5q0 -31 -10.5 -58t-25 -42.5t-29 -26.5t-24.5 -15l-11 -5v-10q5 -1 14 -4.5t31.5 -17.5t39.5 -32.5t31 -53t14 -75.5q0 -91 -69 -151.5t-191 -60.5t-191 60.5
t-69 151.5q0 41 13.5 75.5t32.5 53.5t38 32t33 17l13 5v10zM120 192q0 -65 48 -108.5t137 -43.5t137 43.5t48 108.5q0 66 -48 109.5t-137 43.5t-137 -43.5t-48 -109.5zM145 532q0 -54 41.5 -90.5t118.5 -36.5t118.5 36.5t41.5 90.5t-41.5 91t-118.5 37t-118.5 -37t-41.5 -91
z" />
    <glyph glyph-name="nine" unicode="9" horiz-adv-x="630" 
d="M65 190h70q29 -145 170 -145q180 0 205 295h-10q-2 -5 -6.5 -13.5t-21 -30t-37 -38t-57 -30t-78.5 -13.5q-110 0 -180 70.5t-70 179.5q0 111 72 183t188 72q129 0 199.5 -87t70.5 -248q0 -181 -70 -293t-205 -112q-110 0 -170.5 64t-69.5 146zM500 465q0 79 -51 134.5
t-139 55.5t-139 -55.5t-51 -134.5t51 -134.5t139 -55.5q87 0 138.5 56.5t51.5 133.5z" />
    <glyph glyph-name="colon" unicode=":" horiz-adv-x="195" 
d="M60 60v100h75v-100h-75zM60 340v100h75v-100h-75z" />
    <glyph glyph-name="semicolon" unicode=";" horiz-adv-x="205" 
d="M60 340v100h75v-100h-75zM0 -115h25q55 0 82.5 33t27.5 112v70h-65v-100q0 -51 -14.5 -70.5t-45.5 -19.5h-10v-25z" />
    <glyph glyph-name="less" unicode="&#x3c;" horiz-adv-x="536" 
d="M406 148l-42 -42l-264 234l264 234l42 -42l-222 -192z" />
    <glyph glyph-name="equal" unicode="=" horiz-adv-x="595" 
d="M50 290h495v-60h-495v60zM50 450h495v-60h-495v60z" />
    <glyph glyph-name="greater" unicode="&#x3e;" horiz-adv-x="536" 
d="M130 532l42 42l264 -234l-264 -234l-42 42l222 192z" />
    <glyph glyph-name="question" unicode="?" horiz-adv-x="550" 
d="M325 285h65q0 -48 -27 -86.5t-88 -38.5q-54 0 -84.5 32.5t-30.5 77.5t28 79t68 56l78 42q40 20 68 51t28 72q0 53 -38.5 89t-116.5 36q-70 0 -112.5 -38.5t-42.5 -96.5q0 -29 14 -54t28 -36l13 -10l-44 -46l-9 6q-5 3 -19 16.5t-24.5 29t-19.5 41t-9 53.5q0 84 63 142
t162 58q100 0 162.5 -53.5t62.5 -136.5q0 -50 -28.5 -89t-69 -63.5t-80.5 -45.5t-68.5 -46.5t-28.5 -55.5q0 -24 13.5 -38.5t36.5 -14.5q50 0 50 68zM235 0v100h75v-100h-75z" />
    <glyph glyph-name="at" unicode="@" horiz-adv-x="1050" 
d="M683 245q0 79 -48.5 142t-131.5 63q-82 0 -126 -62t-44 -143t44 -143t126 -62q83 0 131.5 63t48.5 142zM753 490v-345q0 -105 67 -105q52 0 81 52.5t29 152.5q0 173 -110 289t-295 116q-172 0 -288.5 -112.5t-116.5 -292.5t116.5 -292.5t288.5 -112.5q43 0 82.5 8.5
t65.5 20t46 23.5t29 20l10 9l42 -52q-4 -4 -12 -10.5t-35.5 -24t-57 -30.5t-76 -23.5t-94.5 -10.5q-200 0 -337.5 133.5t-137.5 341.5t137.5 341.5t337.5 133.5q142 0 251.5 -64.5t166.5 -172t57 -238.5q0 -135 -52.5 -200t-127.5 -65q-50 0 -86 31t-41 94h-10
q-2 -5 -6 -13.5t-19.5 -30t-35 -38t-54 -30t-75.5 -13.5q-100 0 -165 77t-65 188q0 113 64 189t171 76q39 0 72.5 -13t53.5 -31t34 -36.5t20 -31.5l5 -13h10v105h60z" />
    <glyph glyph-name="A" unicode="A" horiz-adv-x="648" 
d="M20 0l271 700h76l261 -700h-75l-72 195h-318l-73 -195h-70zM324 620l-138 -365h273z" />
    <glyph glyph-name="B" unicode="B" horiz-adv-x="666" 
d="M75 0v700h275q121 -1 180.5 -41.5t59.5 -126.5q0 -40 -13.5 -70t-33 -45t-38.5 -24t-33 -11l-13 -2v-10q6 0 17 -1t38 -10.5t47.5 -25.5t37.5 -52t17 -84q0 -196 -250 -197h-291zM150 335v-275h220q90 0 133 37t43 100q0 69 -42 103.5t-134 34.5h-220zM150 640v-245h200
q79 0 124.5 33.5t45.5 101.5q0 60 -44.5 85t-125.5 25h-200z" />
    <glyph glyph-name="C" unicode="C" horiz-adv-x="782" 
d="M120 350q0 -130 77 -215t203 -85q111 0 178.5 52.5t82.5 147.5h76q-16 -126 -106.5 -198t-230.5 -72q-156 0 -255.5 104.5t-99.5 265.5q0 162 97.5 266t252.5 104q140 0 230.5 -72t106.5 -198h-76q-15 94 -83 147t-178 53q-125 0 -200 -85t-75 -215z" />
    <glyph glyph-name="D" unicode="D" horiz-adv-x="700" 
d="M75 0v700h245q153 0 244 -95t91 -255t-91 -255t-244 -95h-245zM580 350q0 130 -69 210t-191 80h-170v-580h170q122 0 191 80t69 210z" />
    <glyph glyph-name="E" unicode="E" horiz-adv-x="615" 
d="M75 0v700h485v-60h-410v-245h310v-60h-310v-275h410v-60h-485z" />
    <glyph glyph-name="F" unicode="F" horiz-adv-x="580" 
d="M75 0v700h465v-60h-390v-245h310v-60h-310v-335h-75z" />
    <glyph glyph-name="G" unicode="G" horiz-adv-x="807" 
d="M742 330v-330h-50l-12 204q-23 -104 -93 -164t-187 -60q-156 0 -255.5 104.5t-99.5 265.5q0 162 97.5 266t252.5 104q140 0 230.5 -72t106.5 -198h-76q-15 94 -83 147t-178 53q-125 0 -200 -85t-75 -215t77 -215t203 -85q113 0 177 60t80 160h-235v60h320z" />
    <glyph glyph-name="H" unicode="H" horiz-adv-x="720" 
d="M645 700v-700h-75v335h-420v-335h-75v700h75v-305h420v305h75z" />
    <glyph glyph-name="I" unicode="I" horiz-adv-x="225" 
d="M75 700h75v-700h-75v700z" />
    <glyph glyph-name="J" unicode="J" 
d="M515 700v-480q0 -240 -235 -240t-235 240v50h75v-50q0 -95 39.5 -137.5t120.5 -42.5t120.5 42.5t39.5 137.5v480h75z" />
    <glyph glyph-name="K" unicode="K" horiz-adv-x="645" 
d="M615 700l-275 -273l245 -427h-84l-210 378l-141 -140v-238h-75v700h75v-383l380 383h85z" />
    <glyph glyph-name="L" unicode="L" horiz-adv-x="575" 
d="M75 0v700h75v-640h390v-60h-465z" />
    <glyph glyph-name="M" unicode="M" horiz-adv-x="720" 
d="M325 0l-185 585v-585h-65v700h95l190 -606l190 606h95v-700h-70v585l-185 -585h-65z" />
    <glyph glyph-name="N" unicode="N" horiz-adv-x="750" 
d="M675 700v-700h-55l-475 575v-575h-70v700h55l475 -575v575h70z" />
    <glyph glyph-name="O" unicode="O" horiz-adv-x="800" 
d="M45 350q0 160 101 265t254 105t254 -105t101 -265t-101 -265t-254 -105t-254 105t-101 265zM120 350q0 -129 78.5 -214.5t201.5 -85.5t201.5 85.5t78.5 214.5t-78.5 214.5t-201.5 85.5t-201.5 -85.5t-78.5 -214.5z" />
    <glyph glyph-name="P" unicode="P" horiz-adv-x="625" 
d="M75 0v700h295q116 -1 163 -51.5t47 -126.5q0 -176 -210 -177h-220v-345h-75zM150 640v-235h223q70 0 103.5 31.5t33.5 85.5t-33.5 86t-103.5 32h-223z" />
    <glyph glyph-name="Q" unicode="Q" horiz-adv-x="800" 
d="M45 350q0 160 101 265t254 105t254 -105t101 -265q0 -95 -37.5 -173t-103.5 -128q76 -89 131 -89l50 5v-55q-20 -10 -50 -10q-53 0 -96.5 30t-91.5 85q-75 -35 -157 -35q-153 0 -254 105t-101 265zM120 350q0 -153 102 -238q6 13 15 27t27.5 34.5t48.5 33.5t67 13
q52 0 95 -30.5t92 -85.5q53 40 83 104.5t30 141.5q0 129 -78.5 214.5t-201.5 85.5t-201.5 -85.5t-78.5 -214.5zM370 160q-69 0 -102 -79q60 -31 132 -31q60 0 109 21q-39 43 -71 66t-68 23z" />
    <glyph glyph-name="R" unicode="R" horiz-adv-x="685" 
d="M502 0v160v34q0 9 -1.5 29.5t-3.5 27.5l-8 22q-6 14 -14 19t-20 13.5t-28.5 11.5t-38.5 5.5t-50 2.5h-188v-325h-75v700h350q60 0 102 -17.5t62 -47t28 -58t8 -60.5q0 -40 -14 -72t-34.5 -48.5t-41 -27t-34.5 -13.5l-14 -3v-10q19 -4 33 -12.5t23.5 -16.5t16 -25.5
t9.5 -27.5t4.5 -34.5t1.5 -35.5v-41v-45q0 -46 10.5 -58t39.5 -12h15v-35h-138zM150 640v-255h248q46 0 78.5 12t48.5 32.5t23 42t7 45.5q0 51 -30 87t-97 36h-278z" />
    <glyph glyph-name="S" unicode="S" horiz-adv-x="675" 
d="M35 255h70q0 -32 10.5 -65.5t34.5 -69t73 -58t117 -22.5q59 0 103.5 16t67.5 40.5t33.5 49.5t10.5 49q0 43 -26.5 69t-69.5 37.5t-94.5 18t-103.5 15.5t-95 25.5t-69.5 53t-26.5 91.5q0 90 69.5 152.5t184.5 62.5q73 0 127 -21t84.5 -58t45 -80.5t14.5 -95.5h-70
q0 25 -4 49t-17.5 51.5t-34.5 47.5t-58.5 33.5t-86.5 13.5q-87 0 -138 -47.5t-51 -97.5q0 -41 26.5 -66t69.5 -36t94.5 -18t103.5 -17t95 -27t69.5 -54t26.5 -92q0 -94 -72.5 -159.5t-207.5 -65.5q-78 0 -138.5 24t-96 64.5t-53 88t-17.5 98.5z" />
    <glyph glyph-name="T" unicode="T" horiz-adv-x="625" 
d="M595 700v-60h-245v-640h-75v640h-245v60h565z" />
    <glyph glyph-name="U" unicode="U" horiz-adv-x="680" 
d="M605 700v-470q0 -132 -60.5 -191t-204.5 -59t-204.5 59t-60.5 191v470h75v-470q0 -101 42 -145.5t148 -44.5t148 44.5t42 145.5v470h75z" />
    <glyph glyph-name="V" unicode="V" horiz-adv-x="658" 
d="M638 700l-271 -700h-76l-271 700h75l239 -620l234 620h70z" />
    <glyph glyph-name="W" unicode="W" horiz-adv-x="843" 
d="M808 700l-171 -700h-86l-127 612l-137 -612h-86l-171 700h75l139 -620l141 620h80l134 -620l139 620h70z" />
    <glyph glyph-name="X" unicode="X" horiz-adv-x="705" 
d="M135 700l217 -284l218 284h88l-263 -332l290 -368h-90l-243 320l-242 -320h-90l290 368l-263 332h88z" />
    <glyph glyph-name="Y" unicode="Y" horiz-adv-x="688" 
d="M668 700l-287 -356v-344h-75v343l-286 357h90l234 -295l239 295h85z" />
    <glyph glyph-name="Z" unicode="Z" horiz-adv-x="660" 
d="M130 65h470v-65h-540v75l470 560h-470v65h540v-75z" />
    <glyph glyph-name="bracketleft" unicode="[" horiz-adv-x="335" 
d="M130 900h205v-60h-140v-980h140v-60h-205v1100z" />
    <glyph glyph-name="backslash" unicode="\" horiz-adv-x="640" 
d="M30 690l47 35l533 -715l-47 -35z" />
    <glyph glyph-name="bracketright" unicode="]" horiz-adv-x="335" 
d="M0 900h205v-1100h-205v60h140v980h-140v60z" />
    <glyph glyph-name="asciicircum" unicode="^" horiz-adv-x="540" 
d="M92 485l-42 42l220 226l220 -226l-42 -42l-178 184z" />
    <glyph glyph-name="underscore" unicode="_" horiz-adv-x="710" 
d="M660 60v-60h-610v60h610z" />
    <glyph glyph-name="a" unicode="a" horiz-adv-x="600" 
d="M440 0v115q-22 -27 -49.5 -53.5t-80.5 -54t-105 -27.5q-69 0 -104.5 32.5t-35.5 87.5q0 37 18 67.5t43.5 50t65 35.5t71 24.5t74 15t60.5 7.5l43 4q-1 67 -35.5 106.5t-124.5 39.5q-79 0 -119.5 -38t-40.5 -97h-70q0 90 66 142.5t164 52.5q60 0 102.5 -14t67 -36.5
t38.5 -59t18 -71.5t4 -84v-140q0 -46 10.5 -58t39.5 -12h15v-35h-135zM440 170v79q-305 -29 -305 -144q0 -65 90 -65q59 0 119 43t96 87z" />
    <glyph glyph-name="b" unicode="b" horiz-adv-x="605" 
d="M140 245q0 -79 48.5 -142t131.5 -63q82 0 126 62t44 143t-44 143t-126 62q-83 0 -131.5 -63t-48.5 -142zM140 750v-300l-10 -65h10q2 5 6 13.5t19.5 30t35 38t54 30t75.5 13.5q100 0 165 -77t65 -188q0 -113 -64 -189t-171 -76q-39 0 -72.5 13t-53.5 31t-34 36.5
t-19 31.5l-6 13h-10v-105h-60v750h70z" />
    <glyph glyph-name="c" unicode="c" horiz-adv-x="625" 
d="M115 245q0 -83 51 -144t153 -61q76 0 131 39.5t55 95.5h70q0 -92 -77.5 -143.5t-178.5 -51.5q-124 0 -199 76t-75 189t75 189t199 76q101 0 178.5 -51.5t77.5 -143.5h-70q0 56 -55 95.5t-131 39.5q-102 0 -153 -61t-51 -144z" />
    <glyph glyph-name="d" unicode="d" horiz-adv-x="605" 
d="M465 245q0 79 -48.5 142t-131.5 63q-82 0 -126 -62t-44 -143t44 -143t126 -62q83 0 131.5 63t48.5 142zM465 450v300h70v-750h-60v105h-10q-2 -5 -6 -13.5t-19 -30t-34 -38t-53 -30t-73 -13.5q-107 0 -171 76t-64 189q0 111 65 188t165 77q41 0 75.5 -13t54.5 -31
t34.5 -36.5t20.5 -31.5l5 -13h10z" />
    <glyph glyph-name="e" unicode="e" horiz-adv-x="620" 
d="M316 40q74 0 122.5 32.5t56.5 82.5h70q-14 -87 -83 -131t-166 -44q-124 0 -197.5 76t-73.5 189t72.5 189t196.5 76q129 0 195 -69.5t66 -175.5v-30h-460q3 -81 52.5 -138t148.5 -57zM314 450q-87 0 -135 -45.5t-61 -114.5h385q-3 29 -14 55.5t-32 51t-58 39t-85 14.5z
" />
    <glyph glyph-name="f" unicode="f" horiz-adv-x="340" 
d="M130 435h-110v55h110v160q0 57 18 78.5t82 21.5h90v-55h-90q-30 0 -30 -30v-175h120v-55h-120v-435h-70v435z" />
    <glyph glyph-name="g" unicode="g" horiz-adv-x="610" 
d="M25 -65q0 77 91 106q-51 18 -51 59q0 57 100 73q-80 53 -80 152q0 84 58.5 134.5t141.5 50.5q55 0 102 -24t73 -67v1q0 50 20 65t75 15h50v-65h-90q-30 0 -30 -30v-80q0 -84 -58.5 -134.5t-141.5 -50.5q-61 0 -95 -5t-44.5 -13t-10.5 -22q0 -13 10 -21t43.5 -13.5
t95.5 -5.5h21h63q20 0 53.5 -1.5t48.5 -4t37.5 -7.5t32.5 -12.5t21 -18.5t15 -26t4 -35q0 -81 -80.5 -118t-209.5 -37q-265 0 -265 135zM155 325q0 -57 34 -94.5t96 -37.5t96 37.5t34 94.5t-34 94.5t-96 37.5t-96 -37.5t-34 -94.5zM90 -65q0 -75 200 -75q101 0 163 23.5
t62 71.5q0 31 -41 38t-153 7h-16q-119 0 -167 -11t-48 -54z" />
    <glyph glyph-name="h" unicode="h" horiz-adv-x="590" 
d="M460 0v310q0 140 -130 140q-75 0 -132.5 -46.5t-57.5 -133.5v-270h-70v750h70v-300l-10 -65h10q67 125 210 125q180 0 180 -200v-310h-70z" />
    <glyph glyph-name="i" unicode="i" horiz-adv-x="210" 
d="M140 490v-490h-70v490h70zM70 550v95h70v-95h-70z" />
    <glyph glyph-name="j" unicode="j" horiz-adv-x="210" 
d="M140 490v-570q0 -57 -18 -78.5t-82 -21.5h-50v55h50q30 0 30 30v585h70zM70 550v95h70v-95h-70z" />
    <glyph glyph-name="k" unicode="k" horiz-adv-x="530" 
d="M515 490l-220 -188l200 -302h-84l-168 258l-103 -89v-169h-70v750h70v-510l290 250h85z" />
    <glyph glyph-name="l" unicode="l" horiz-adv-x="210" 
d="M140 750v-750h-70v750h70z" />
    <glyph glyph-name="m" unicode="m" horiz-adv-x="705" 
d="M570 0v310q0 75 -16 107.5t-54 32.5q-47 0 -78 -43.5t-32 -127.5v-279h-70v310q0 75 -16 107.5t-54 32.5q-48 0 -79 -45.5t-31 -134.5v-270h-70v490h60v-95h10q31 115 130 115q52 0 78.5 -28.5t35.5 -86.5h6q31 115 130 115q68 0 94 -48.5t26 -151.5v-310h-70z" />
    <glyph glyph-name="n" unicode="n" horiz-adv-x="580" 
d="M450 0v310q0 140 -130 140q-74 0 -127 -46.5t-53 -133.5v-270h-70v490h60v-105h10q67 125 200 125q180 0 180 -200v-310h-70z" />
    <glyph glyph-name="o" unicode="o" horiz-adv-x="630" 
d="M45 245q0 111 77 188t193 77t193 -77t77 -188t-77 -188t-193 -77t-193 77t-77 188zM115 245q0 -81 52 -143t148 -62t148 62t52 143t-52 143t-148 62t-148 -62t-52 -143z" />
    <glyph glyph-name="p" unicode="p" horiz-adv-x="605" 
d="M140 245q0 -79 48.5 -142t131.5 -63q82 0 126 62t44 143t-44 143t-126 62q-83 0 -131.5 -63t-48.5 -142zM140 40v-220h-70v670h60v-105h10q2 5 6 13.5t19 30t34 38t53 30t73 13.5q107 0 171 -76t64 -189q0 -111 -65 -188t-165 -77q-41 0 -75.5 13t-54.5 31t-34.5 36.5
t-19.5 31.5l-6 13h-10z" />
    <glyph glyph-name="q" unicode="q" horiz-adv-x="605" 
d="M465 245q0 79 -48.5 142t-131.5 63q-82 0 -126 -62t-44 -143t44 -143t126 -62q83 0 131.5 63t48.5 142zM465 -180v220l10 65h-10q-2 -5 -6 -13.5t-19.5 -30t-35 -38t-54 -30t-75.5 -13.5q-100 0 -165 77t-65 188q0 113 64 189t171 76q39 0 72.5 -13t53.5 -31t34 -36.5
t20 -31.5l5 -13h10v105h60v-670h-70z" />
    <glyph glyph-name="r" unicode="r" horiz-adv-x="455" 
d="M130 490v-105h10q16 52 52.5 88.5t82.5 36.5q57 0 88.5 -41t31.5 -119v-35h-70v25q0 47 -17 81t-58 34q-45 0 -77.5 -48.5t-32.5 -136.5v-270h-70v490h60z" />
    <glyph glyph-name="s" unicode="s" 
d="M50 175h70q0 -54 51.5 -94.5t114.5 -40.5q95 0 139.5 33.5t44.5 81.5q0 26 -30 39.5t-75 16t-97.5 7.5t-97.5 13.5t-75 34.5t-30 69q0 84 62 129.5t162 45.5q38 0 74 -8t70.5 -25t55.5 -51t21 -81h-70q0 52 -45 78.5t-106 26.5q-82 0 -120.5 -29t-38.5 -76
q0 -26 30 -39.5t75 -16t97.5 -7.5t97.5 -13.5t75 -34.5t30 -69q0 -87 -66.5 -136t-182.5 -49q-101 0 -168.5 50.5t-67.5 144.5z" />
    <glyph glyph-name="t" unicode="t" horiz-adv-x="385" 
d="M20 490h85q26 0 37 20.5t13 69.5l5 120h50v-210h140v-55h-140v-350q0 -30 30 -30h90v-55h-90q-64 0 -82 21.5t-18 78.5v335h-120v55z" />
    <glyph glyph-name="u" unicode="u" 
d="M135 490v-290q0 -79 38 -119.5t102 -40.5q72 0 121 52t49 148v250h70v-490h-60v105h-10q-32 -59 -72 -92t-108 -33q-200 0 -200 230v280h70z" />
    <glyph glyph-name="v" unicode="v" horiz-adv-x="538" 
d="M523 490l-216 -490h-76l-216 490h75l179 -420l179 420h75z" />
    <glyph glyph-name="w" unicode="w" horiz-adv-x="772" 
d="M757 490l-170 -490h-81l-132 409l-132 -409h-86l-136 490h75l109 -420l136 420h68l136 -420l139 420h74z" />
    <glyph glyph-name="x" unicode="x" horiz-adv-x="542" 
d="M10 0l220 257l-200 233h91l150 -189l150 189h91l-201 -233l221 -257h-91l-170 212l-170 -212h-91z" />
    <glyph glyph-name="y" unicode="y" horiz-adv-x="543" 
d="M103 -120h40q36 0 51.5 10t29.5 43l27 66l-236 491h77l192 -412l169 412h75l-240 -575q-25 -60 -48 -77.5t-77 -17.5h-60v60z" />
    <glyph glyph-name="z" unicode="z" horiz-adv-x="530" 
d="M123 55h357v-55h-430v65l357 370h-357v55h430v-65z" />
    <glyph glyph-name="braceleft" unicode="{" horiz-adv-x="360" 
d="M320 910v-60h-35q-60 0 -81.5 -34.5t-3.5 -125.5l35 -180q8 -47 3 -77t-19.5 -46t-30 -22.5t-27.5 -6.5l-12 -1v-4h6q4 0 16.5 -2t21.5 -7.5t21.5 -16t17 -27t8.5 -41.5t-5 -59l-35 -180q-18 -91 3.5 -125.5t81.5 -34.5h35v-60h-45q-82 0 -122.5 52t-17.5 168l40 200
q21 105 -90 105h-25v60h25q111 0 90 105l-40 200q-23 116 17.5 168t122.5 52h45z" />
    <glyph glyph-name="bar" unicode="|" horiz-adv-x="285" 
d="M110 900h65v-1100h-65v1100z" />
    <glyph glyph-name="braceright" unicode="}" horiz-adv-x="360" 
d="M40 850v60h45q82 0 122.5 -52t17.5 -168l-40 -200q-21 -105 90 -105h25v-60h-25q-111 0 -90 -105l40 -200q23 -116 -17.5 -168t-122.5 -52h-45v60h35q60 0 81.5 34.5t3.5 125.5l-35 180q-8 47 -3 77t19.5 46t30 22.5t27.5 6.5l12 1v4h-6q-4 0 -16.5 2t-21.5 7.5t-21.5 16
t-17 27t-8.5 41.5t5 59l35 180q18 91 -3.5 125.5t-81.5 34.5h-35z" />
    <glyph glyph-name="asciitilde" unicode="~" horiz-adv-x="732" 
d="M614 447l58 -15l-12 -44q-13 -50 -43.5 -78t-82.5 -32t-123 32l-107 52q-57 28 -93.5 30.5t-54.5 -15t-29 -55.5l-9 -34l-58 15l12 44q13 50 43.5 78t82.5 32t123 -32l107 -52q57 -28 93.5 -30.5t54.5 15t29 55.5z" />
    <glyph glyph-name="exclamdown" unicode="&#xa1;" horiz-adv-x="235" 
d="M155 510v-100h-75v100h75zM142 330l18 -570h-85l18 570h49z" />
    <glyph glyph-name="cent" unicode="&#xa2;" horiz-adv-x="625" 
d="M285 650h65v-142q92 -8 158.5 -58.5t66.5 -134.5h-70q0 49 -44.5 87t-110.5 46v-406q66 8 110.5 45.5t44.5 87.5h70q0 -84 -66.5 -134.5t-158.5 -58.5v-142h-65v142q-110 11 -175 85t-65 178t65 178t175 85v142zM115 245q0 -75 42.5 -134t127.5 -69v405
q-85 -10 -127.5 -68.5t-42.5 -133.5z" />
    <glyph glyph-name="currency" unicode="&#xa4;" horiz-adv-x="636" 
d="M108 92l-38 38l108 108q-30 46 -30 102q0 57 30 101l-108 109l38 38l108 -109q44 31 102 31q57 0 101 -31l109 109l38 -38l-109 -109q31 -43 31 -101q0 -57 -31 -102l109 -108l-38 -38l-109 108q-43 -30 -101 -30q-59 0 -102 30zM208 340q0 -53 31.5 -84t78.5 -31
t78.5 31t31.5 84t-31.5 84t-78.5 31t-78.5 -31t-31.5 -84z" />
    <glyph glyph-name="yen" unicode="&#xa5;" horiz-adv-x="688" 
d="M106 350h194l-280 350h90l234 -295l239 295h85l-282 -350h195v-60h-200v-60h200v-60h-200v-170h-75v170h-200v60h200v60h-200v60z" />
    <glyph glyph-name="brokenbar" unicode="&#xa6;" horiz-adv-x="285" 
d="M110 300h65v-500h-65v500zM110 900h65v-500h-65v500z" />
    <glyph glyph-name="section" unicode="&#xa7;" horiz-adv-x="625" 
d="M70 175h70q0 -135 186 -135q82 0 123 28t41 67q0 33 -30 51.5t-75 23t-97.5 12t-97.5 17.5t-75 39t-30 77q0 66 62 107q-62 32 -62 98q0 80 61.5 120t162.5 40q42 0 78.5 -7.5t70 -25.5t53 -51.5t19.5 -80.5h-70q0 53 -42.5 79t-108.5 26q-78 0 -118.5 -25.5t-40.5 -69.5
q0 -36 41.5 -53.5t101 -24t119.5 -16.5t101.5 -40.5t41.5 -85.5q0 -69 -66 -105q66 -32 66 -105q0 -71 -63.5 -113t-165.5 -42q-112 0 -184 48t-72 147zM150 355q0 -23 13 -38t41.5 -23t52.5 -12t68 -8t67 -7q53 9 75.5 27t22.5 51q0 21 -14 35.5t-42.5 22.5t-54.5 12
t-69.5 9.5t-68.5 9.5q-91 -17 -91 -79z" />
    <glyph glyph-name="copyright" unicode="&#xa9;" horiz-adv-x="1050" 
d="M50 245q0 97 37.5 184.5t101.5 151.5t151.5 101.5t184.5 37.5t184.5 -37.5t151.5 -101.5t101.5 -151.5t37.5 -184.5t-37.5 -184.5t-101.5 -151.5t-151.5 -101.5t-184.5 -37.5t-184.5 37.5t-151.5 101.5t-101.5 151.5t-37.5 184.5zM331 245q0 -83 48 -144t146 -61
q70 0 123 40t53 95h70q0 -91 -76 -143t-170 -52q-120 0 -192 76t-72 189t72 189t192 76q94 0 170 -52t76 -143h-70q0 55 -53 95t-123 40q-98 0 -146 -61t-48 -144zM115 245q0 -170 119 -290t291 -120t291 120t119 290t-119 290t-291 120t-291 -120t-119 -290z" />
    <glyph glyph-name="guillemotleft" unicode="&#xab;" horiz-adv-x="498" 
d="M157 270l111 -131l-26 -26l-177 157l177 157l26 -26zM322 270l111 -131l-26 -26l-177 157l177 157l26 -26z" />
    <glyph glyph-name="logicalnot" unicode="&#xac;" horiz-adv-x="595" 
d="M50 440h495v-275h-65v215h-430v60z" />
    <glyph glyph-name="registered" unicode="&#xae;" horiz-adv-x="1050" 
d="M50 245q0 97 37.5 184.5t101.5 151.5t151.5 101.5t184.5 37.5t184.5 -37.5t151.5 -101.5t101.5 -151.5t37.5 -184.5t-37.5 -184.5t-101.5 -151.5t-151.5 -101.5t-184.5 -37.5t-184.5 37.5t-151.5 101.5t-101.5 151.5t-37.5 184.5zM635 115v-115h130v35h-10
q-29 0 -39.5 12t-10.5 58v27q0 37 -16.5 60t-32.5 28l-17 5v10q4 1 10 3t21.5 11t27.5 21t22 34t10 49q0 136 -200 137h-200v-490h70v205h135q57 0 78.5 -21.5t21.5 -68.5zM400 260v175h128q132 0 132 -86q0 -40 -29.5 -64.5t-92.5 -24.5h-138zM115 245q0 -170 119 -290
t291 -120t291 120t119 290t-119 290t-291 120t-291 -120t-119 -290z" />
    <glyph glyph-name="degree" unicode="&#xb0;" horiz-adv-x="360" 
d="M40 580q0 66 43 103t97 37t97 -37t43 -103t-43 -103t-97 -37t-97 37t-43 103zM100 580q0 -39 24 -62t56 -23t56 23t24 62t-24 62t-56 23t-56 -23t-24 -62z" />
    <glyph glyph-name="plusminus" unicode="&#xb1;" horiz-adv-x="595" 
d="M265 645h65v-215h215v-60h-215v-215h-65v215h-215v60h215v215zM545 120v-60h-495v60h495z" />
    <glyph glyph-name="mu" unicode="&#xb5;" horiz-adv-x="590" 
d="M140 490v-290q0 -79 38 -119.5t102 -40.5q72 0 121 52t49 148v250h70v-490h-60v105h-10q-32 -59 -72 -92t-108 -33q-42 0 -74.5 15t-43.5 30l-12 15v-220h-70v670h70z" />
    <glyph glyph-name="paragraph" unicode="&#xb6;" horiz-adv-x="660" 
d="M610 700v-60h-80v-820h-65v820h-60v-820h-65v340q-119 0 -199.5 74.5t-80.5 195.5t80.5 195.5t199.5 74.5h270z" />
    <glyph glyph-name="periodcentered" unicode="&#xb7;" horiz-adv-x="255" 
d="M90 280v100h75v-100h-75z" />
    <glyph glyph-name="guillemotright" unicode="&#xbb;" horiz-adv-x="498" 
d="M230 139l111 131l-111 131l26 26l177 -157l-177 -157zM65 139l111 131l-111 131l26 26l177 -157l-177 -157z" />
    <glyph glyph-name="questiondown" unicode="&#xbf;" horiz-adv-x="550" 
d="M225 225h-65q0 48 27 86.5t88 38.5q54 0 84.5 -32.5t30.5 -77.5t-28 -79t-68 -56l-78 -42q-40 -20 -68 -51t-28 -72q0 -53 38.5 -89t116.5 -36q70 0 112.5 38.5t42.5 96.5q0 29 -14 54t-28 36l-13 10l44 46l9 -6q5 -3 19 -16.5t24.5 -29t19.5 -41t9 -53.5q0 -84 -63 -142
t-162 -58q-100 0 -162.5 53.5t-62.5 136.5q0 50 28.5 89t69 63.5t80.5 45.5t68.5 46.5t28.5 55.5q0 24 -13.5 38.5t-36.5 14.5q-50 0 -50 -68zM315 510v-100h-75v100h75z" />
    <glyph glyph-name="Agrave" unicode="&#xc0;" horiz-adv-x="648" 
d="M20 0l271 700h76l261 -700h-75l-72 195h-318l-73 -195h-70zM324 620l-138 -365h273zM218 950l132 -200h-39l-198 200h105z" />
    <glyph glyph-name="Aacute" unicode="&#xc1;" horiz-adv-x="648" 
d="M20 0l271 700h76l261 -700h-75l-72 195h-318l-73 -195h-70zM324 620l-138 -365h273zM283 750l132 200h105l-198 -200h-39z" />
    <glyph glyph-name="Acircumflex" unicode="&#xc2;" horiz-adv-x="648" 
d="M20 0l271 700h76l261 -700h-75l-72 195h-318l-73 -195h-70zM324 620l-138 -365h273zM325 880l-180 -130l-21 24l201 196l201 -196l-21 -24z" />
    <glyph glyph-name="Atilde" unicode="&#xc3;" horiz-adv-x="648" 
d="M20 0l271 700h76l261 -700h-75l-72 195h-318l-73 -195h-70zM324 620l-138 -365h273zM535 880h30q-5 -46 -33.5 -80.5t-86.5 -34.5q-49 0 -128 30t-102 30q-60 0 -80 -60h-30q5 46 33.5 80.5t86.5 34.5q49 0 128 -30t102 -30q60 0 80 60z" />
    <glyph glyph-name="Adieresis" unicode="&#xc4;" horiz-adv-x="648" 
d="M20 0l271 700h76l261 -700h-75l-72 195h-318l-73 -195h-70zM324 620l-138 -365h273zM179 770v100h75v-100h-75zM399 770v100h75v-100h-75z" />
    <glyph glyph-name="Aring" unicode="&#xc5;" horiz-adv-x="648" 
d="M200 800q0 54 37 87t88 33t88 -33t37 -87q0 -41 -22 -70t-57 -42l257 -688h-75l-72 195h-318l-73 -195h-70l265 685q-38 12 -61.5 42t-23.5 73zM324 620l-138 -365h273zM260 800q0 -29 18.5 -47t46.5 -18t46.5 18t18.5 47t-18.5 47t-46.5 18t-46.5 -18t-18.5 -47z" />
    <glyph glyph-name="AE" unicode="&#xc6;" horiz-adv-x="1030" 
d="M975 0h-485v195h-285l-120 -195h-75l432 700h533v-60h-410v-245h310v-60h-310v-275h410v-60zM480 640l-238 -385h248v385h-10z" />
    <glyph glyph-name="Ccedilla" unicode="&#xc7;" horiz-adv-x="782" 
d="M280 -180h60q0 -23 16.5 -39t43.5 -16t43.5 16.5t16.5 43.5t-16.5 43.5t-43.5 16.5q-30 0 -51 -18l-36 44l65 70q-148 7 -240.5 110.5t-92.5 258.5q0 162 97.5 266t252.5 104q140 0 230.5 -72t106.5 -198h-76q-15 94 -83 147t-178 53q-125 0 -200 -85t-75 -215t77 -215
t203 -85q111 0 178.5 52.5t82.5 147.5h76q-15 -114 -91.5 -184.5t-197.5 -82.5l-43 -43q50 -2 82.5 -32t32.5 -83q0 -54 -34.5 -84.5t-85.5 -30.5t-85.5 29.5t-34.5 80.5z" />
    <glyph glyph-name="Egrave" unicode="&#xc8;" horiz-adv-x="615" 
d="M75 0v700h485v-60h-410v-245h310v-60h-310v-275h410v-60h-485zM218 950l132 -200h-39l-198 200h105z" />
    <glyph glyph-name="Eacute" unicode="&#xc9;" horiz-adv-x="615" 
d="M75 0v700h485v-60h-410v-245h310v-60h-310v-275h410v-60h-485zM253 750l132 200h105l-198 -200h-39z" />
    <glyph glyph-name="Ecircumflex" unicode="&#xca;" horiz-adv-x="615" 
d="M75 0v700h485v-60h-410v-245h310v-60h-310v-275h410v-60h-485zM315 880l-180 -130l-21 24l201 196l201 -196l-21 -24z" />
    <glyph glyph-name="Edieresis" unicode="&#xcb;" horiz-adv-x="615" 
d="M174 770v100h75v-100h-75zM394 770v100h75v-100h-75zM75 0v700h485v-60h-410v-245h310v-60h-310v-275h410v-60h-485z" />
    <glyph glyph-name="Igrave" unicode="&#xcc;" horiz-adv-x="225" 
d="M75 700h75v-700h-75v700zM18 950l132 -200h-39l-198 200h105z" />
    <glyph glyph-name="Iacute" unicode="&#xcd;" horiz-adv-x="225" 
d="M75 700h75v-700h-75v700zM63 750l132 200h105l-198 -200h-39z" />
    <glyph glyph-name="Icircumflex" unicode="&#xce;" horiz-adv-x="225" 
d="M75 700h75v-700h-75v700zM112 840l-142 -90l-19 24l161 156l161 -156l-19 -24z" />
    <glyph glyph-name="Idieresis" unicode="&#xcf;" horiz-adv-x="225" 
d="M-5 770v100h75v-100h-75zM155 770v100h75v-100h-75zM75 700h75v-700h-75v700z" />
    <glyph glyph-name="Eth" unicode="&#xd0;" horiz-adv-x="765" 
d="M140 0v335h-140v60h140v305h245q153 0 244 -95t91 -255t-91 -255t-244 -95h-245zM430 395v-60h-215v-275h170q122 0 191 80t69 210t-69 210t-191 80h-170v-245h215z" />
    <glyph glyph-name="Ntilde" unicode="&#xd1;" horiz-adv-x="750" 
d="M675 700v-700h-55l-475 575v-575h-70v700h55l475 -575v575h70zM585 880h30q-5 -46 -33.5 -80.5t-86.5 -34.5q-49 0 -128 30t-102 30q-60 0 -80 -60h-30q5 46 33.5 80.5t86.5 34.5q49 0 128 -30t102 -30q60 0 80 60z" />
    <glyph glyph-name="Ograve" unicode="&#xd2;" horiz-adv-x="800" 
d="M45 350q0 160 101 265t254 105t254 -105t101 -265t-101 -265t-254 -105t-254 105t-101 265zM120 350q0 -129 78.5 -214.5t201.5 -85.5t201.5 85.5t78.5 214.5t-78.5 214.5t-201.5 85.5t-201.5 -85.5t-78.5 -214.5zM298 950l132 -200h-39l-198 200h105z" />
    <glyph glyph-name="Oacute" unicode="&#xd3;" horiz-adv-x="800" 
d="M45 350q0 160 101 265t254 105t254 -105t101 -265t-101 -265t-254 -105t-254 105t-101 265zM120 350q0 -129 78.5 -214.5t201.5 -85.5t201.5 85.5t78.5 214.5t-78.5 214.5t-201.5 85.5t-201.5 -85.5t-78.5 -214.5zM353 750l132 200h105l-198 -200h-39z" />
    <glyph glyph-name="Ocircumflex" unicode="&#xd4;" horiz-adv-x="800" 
d="M45 350q0 160 101 265t254 105t254 -105t101 -265t-101 -265t-254 -105t-254 105t-101 265zM120 350q0 -129 78.5 -214.5t201.5 -85.5t201.5 85.5t78.5 214.5t-78.5 214.5t-201.5 85.5t-201.5 -85.5t-78.5 -214.5zM400 880l-180 -130l-21 24l201 196l201 -196l-21 -24z
" />
    <glyph glyph-name="Otilde" unicode="&#xd5;" horiz-adv-x="800" 
d="M45 350q0 160 101 265t254 105t254 -105t101 -265t-101 -265t-254 -105t-254 105t-101 265zM120 350q0 -129 78.5 -214.5t201.5 -85.5t201.5 85.5t78.5 214.5t-78.5 214.5t-201.5 85.5t-201.5 -85.5t-78.5 -214.5zM605 880h30q-5 -46 -33.5 -80.5t-86.5 -34.5
q-49 0 -128 30t-102 30q-60 0 -80 -60h-30q5 46 33.5 80.5t86.5 34.5q49 0 128 -30t102 -30q60 0 80 60z" />
    <glyph glyph-name="Odieresis" unicode="&#xd6;" horiz-adv-x="800" 
d="M45 350q0 160 101 265t254 105t254 -105t101 -265t-101 -265t-254 -105t-254 105t-101 265zM120 350q0 -129 78.5 -214.5t201.5 -85.5t201.5 85.5t78.5 214.5t-78.5 214.5t-201.5 85.5t-201.5 -85.5t-78.5 -214.5zM249 770v100h75v-100h-75zM476 770v100h75v-100h-75z
" />
    <glyph glyph-name="multiply" unicode="&#xd7;" horiz-adv-x="604" 
d="M90 510l42 42l170 -170l170 170l42 -42l-170 -170l170 -170l-42 -42l-170 170l-170 -170l-42 42l170 170z" />
    <glyph glyph-name="Oslash" unicode="&#xd8;" horiz-adv-x="800" 
d="M680 720l47 -40l-65 -74q93 -104 93 -256q0 -160 -101 -265t-254 -105q-126 0 -218 72l-62 -72l-47 40l64 74q-92 103 -92 256q0 160 101 265t254 105q123 0 217 -72zM680 350q0 117 -66 200l-385 -444q72 -56 171 -56q123 0 201.5 85.5t78.5 214.5zM120 350
q0 -118 66 -200l384 443q-73 57 -170 57q-123 0 -201.5 -85.5t-78.5 -214.5z" />
    <glyph glyph-name="Ugrave" unicode="&#xd9;" horiz-adv-x="680" 
d="M605 700v-470q0 -132 -60.5 -191t-204.5 -59t-204.5 59t-60.5 191v470h75v-470q0 -101 42 -145.5t148 -44.5t148 44.5t42 145.5v470h75zM243 950l132 -200h-39l-198 200h105z" />
    <glyph glyph-name="Uacute" unicode="&#xda;" horiz-adv-x="680" 
d="M605 700v-470q0 -132 -60.5 -191t-204.5 -59t-204.5 59t-60.5 191v470h75v-470q0 -101 42 -145.5t148 -44.5t148 44.5t42 145.5v470h75zM293 750l132 200h105l-198 -200h-39z" />
    <glyph glyph-name="Ucircumflex" unicode="&#xdb;" horiz-adv-x="680" 
d="M605 700v-470q0 -132 -60.5 -191t-204.5 -59t-204.5 59t-60.5 191v470h75v-470q0 -101 42 -145.5t148 -44.5t148 44.5t42 145.5v470h75zM340 880l-180 -130l-21 24l201 196l201 -196l-21 -24z" />
    <glyph glyph-name="Udieresis" unicode="&#xdc;" horiz-adv-x="680" 
d="M605 700v-470q0 -132 -60.5 -191t-204.5 -59t-204.5 59t-60.5 191v470h75v-470q0 -101 42 -145.5t148 -44.5t148 44.5t42 145.5v470h75zM193 770v100h75v-100h-75zM412 770v100h75v-100h-75z" />
    <glyph glyph-name="Yacute" unicode="&#xdd;" horiz-adv-x="688" 
d="M668 700l-287 -356v-344h-75v343l-286 357h90l234 -295l239 295h85zM313 750l132 200h105l-198 -200h-39z" />
    <glyph glyph-name="Thorn" unicode="&#xde;" horiz-adv-x="635" 
d="M150 0h-75v700h75v-115h180q75 0 130 -21t84 -56t42.5 -73.5t13.5 -81.5t-13.5 -81.5t-42.5 -74t-84 -56.5t-130 -21h-180v-120zM150 525v-345h183q103 0 150 49.5t47 123.5t-47 123t-150 49h-183z" />
    <glyph glyph-name="germandbls" unicode="&#xdf;" horiz-adv-x="575" 
d="M70 -180v660q0 144 60.5 207t159.5 63q77 0 131 -44t54 -126q0 -34 -13 -62t-31.5 -44.5t-36.5 -28t-31 -15.5l-13 -5v-5q8 -1 20 -3.5t44 -16t56.5 -34t44.5 -62t20 -94.5q0 -105 -65.5 -167.5t-159.5 -62.5q-31 0 -58.5 6t-39.5 12l-12 7l20 55q30 -20 85 -20
q72 0 116 46t44 124q0 80 -50.5 127.5t-139.5 47.5h-38v55h18q76 0 113 40t37 95q0 53 -31.5 86.5t-83.5 33.5q-67 0 -108.5 -46t-41.5 -169v-660h-70z" />
    <glyph glyph-name="agrave" unicode="&#xe0;" horiz-adv-x="600" 
d="M440 0v115q-22 -27 -49.5 -53.5t-80.5 -54t-105 -27.5q-69 0 -104.5 32.5t-35.5 87.5q0 37 18 67.5t43.5 50t65 35.5t71 24.5t74 15t60.5 7.5l43 4q-1 67 -35.5 106.5t-124.5 39.5q-79 0 -119.5 -38t-40.5 -97h-70q0 90 66 142.5t164 52.5q60 0 102.5 -14t67 -36.5
t38.5 -59t18 -71.5t4 -84v-140q0 -46 10.5 -58t39.5 -12h15v-35h-135zM440 170v79q-305 -29 -305 -144q0 -65 90 -65q59 0 119 43t96 87zM163 780l152 -230h-39l-218 230h105z" />
    <glyph glyph-name="aacute" unicode="&#xe1;" horiz-adv-x="600" 
d="M440 0v115q-22 -27 -49.5 -53.5t-80.5 -54t-105 -27.5q-69 0 -104.5 32.5t-35.5 87.5q0 37 18 67.5t43.5 50t65 35.5t71 24.5t74 15t60.5 7.5l43 4q-1 67 -35.5 106.5t-124.5 39.5q-79 0 -119.5 -38t-40.5 -97h-70q0 90 66 142.5t164 52.5q60 0 102.5 -14t67 -36.5
t38.5 -59t18 -71.5t4 -84v-140q0 -46 10.5 -58t39.5 -12h15v-35h-135zM440 170v79q-305 -29 -305 -144q0 -65 90 -65q59 0 119 43t96 87zM253 550l152 230h105l-218 -230h-39z" />
    <glyph glyph-name="acircumflex" unicode="&#xe2;" horiz-adv-x="600" 
d="M440 0v115q-22 -27 -49.5 -53.5t-80.5 -54t-105 -27.5q-69 0 -104.5 32.5t-35.5 87.5q0 37 18 67.5t43.5 50t65 35.5t71 24.5t74 15t60.5 7.5l43 4q-1 67 -35.5 106.5t-124.5 39.5q-79 0 -119.5 -38t-40.5 -97h-70q0 90 66 142.5t164 52.5q60 0 102.5 -14t67 -36.5
t38.5 -59t18 -71.5t4 -84v-140q0 -46 10.5 -58t39.5 -12h15v-35h-135zM440 170v79q-305 -29 -305 -144q0 -65 90 -65q59 0 119 43t96 87zM280 660l-170 -120l-21 24l191 186l191 -186l-21 -24z" />
    <glyph glyph-name="atilde" unicode="&#xe3;" horiz-adv-x="600" 
d="M440 0v115q-22 -27 -49.5 -53.5t-80.5 -54t-105 -27.5q-69 0 -104.5 32.5t-35.5 87.5q0 37 18 67.5t43.5 50t65 35.5t71 24.5t74 15t60.5 7.5l43 4q-1 67 -35.5 106.5t-124.5 39.5q-79 0 -119.5 -38t-40.5 -97h-70q0 90 66 142.5t164 52.5q60 0 102.5 -14t67 -36.5
t38.5 -59t18 -71.5t4 -84v-140q0 -46 10.5 -58t39.5 -12h15v-35h-135zM440 170v79q-305 -29 -305 -144q0 -65 90 -65q59 0 119 43t96 87zM500 700h30q-5 -46 -33.5 -80.5t-86.5 -34.5q-49 0 -128 30t-102 30q-60 0 -80 -60h-30q5 46 33.5 80.5t86.5 34.5q49 0 128 -30
t102 -30q60 0 80 60z" />
    <glyph glyph-name="adieresis" unicode="&#xe4;" horiz-adv-x="600" 
d="M440 0v115q-22 -27 -49.5 -53.5t-80.5 -54t-105 -27.5q-69 0 -104.5 32.5t-35.5 87.5q0 37 18 67.5t43.5 50t65 35.5t71 24.5t74 15t60.5 7.5l43 4q-1 67 -35.5 106.5t-124.5 39.5q-79 0 -119.5 -38t-40.5 -97h-70q0 90 66 142.5t164 52.5q60 0 102.5 -14t67 -36.5
t38.5 -59t18 -71.5t4 -84v-140q0 -46 10.5 -58t39.5 -12h15v-35h-135zM440 170v79q-305 -29 -305 -144q0 -65 90 -65q59 0 119 43t96 87zM140 585v95h70v-95h-70zM360 585v95h70v-95h-70z" />
    <glyph glyph-name="aring" unicode="&#xe5;" horiz-adv-x="600" 
d="M440 0v115q-22 -27 -49.5 -53.5t-80.5 -54t-105 -27.5q-69 0 -104.5 32.5t-35.5 87.5q0 37 18 67.5t43.5 50t65 35.5t71 24.5t74 15t60.5 7.5l43 4q-1 67 -35.5 106.5t-124.5 39.5q-79 0 -119.5 -38t-40.5 -97h-70q0 90 66 142.5t164 52.5q60 0 102.5 -14t67 -36.5
t38.5 -59t18 -71.5t4 -84v-140q0 -46 10.5 -58t39.5 -12h15v-35h-135zM440 170v79q-305 -29 -305 -144q0 -65 90 -65q59 0 119 43t96 87zM165 685q0 53 36 84t84 31t84 -31t36 -84t-36 -84t-84 -31t-84 31t-36 84zM220 685q0 -29 18.5 -47t46.5 -18t46.5 18t18.5 47
t-18.5 47t-46.5 18t-46.5 -18t-18.5 -47z" />
    <glyph glyph-name="ae" unicode="&#xe6;" horiz-adv-x="1035" 
d="M460 230v5h-80q-235 0 -235 -110q0 -37 32.5 -63.5t92.5 -26.5q75 0 132.5 51t57.5 144zM729 450q-87 0 -135 -45.5t-61 -114.5h385q-3 29 -14 55.5t-32 51t-58 39t-85 14.5zM731 40q74 0 122.5 32.5t56.5 82.5h70q-14 -87 -83.5 -131t-166.5 -44q-53 0 -97 15.5
t-68.5 37.5t-41 44t-22.5 37l-6 16h-10l-5 -16q-4 -10 -21.5 -36t-40.5 -46t-66.5 -36t-96.5 -16q-86 0 -133 40t-47 100q0 86 80 128t215 42h90q-1 66 -45.5 113t-134.5 47t-140 -43.5t-50 -106.5h-70q0 92 73 151t177 59q52 0 94 -13.5t65.5 -32.5t39.5 -38t21 -32l5 -14
h10q2 5 7 14t23.5 31.5t41.5 39.5t64 31t88 14q123 0 192 -70.5t69 -174.5v-30h-460q3 -81 52.5 -138t148.5 -57z" />
    <glyph glyph-name="ccedilla" unicode="&#xe7;" horiz-adv-x="625" 
d="M190 -180h60q0 -23 16.5 -39t43.5 -16t43.5 16.5t16.5 43.5t-16.5 43.5t-43.5 16.5q-30 0 -51 -18l-36 44l65 71q-111 10 -177 84t-66 179q0 113 75 189t199 76q101 0 178.5 -51.5t77.5 -143.5h-70q0 56 -55 95.5t-131 39.5q-102 0 -153 -61t-51 -144t51 -144t153 -61
q76 0 131 39.5t55 95.5h70q0 -82 -63.5 -132t-153.5 -60l-43 -43q50 -2 82.5 -32t32.5 -83q0 -54 -34.5 -84.5t-85.5 -30.5t-85.5 29.5t-34.5 80.5z" />
    <glyph glyph-name="egrave" unicode="&#xe8;" horiz-adv-x="620" 
d="M316 40q74 0 122.5 32.5t56.5 82.5h70q-14 -87 -83 -131t-166 -44q-124 0 -197.5 76t-73.5 189t72.5 189t196.5 76q129 0 195 -69.5t66 -175.5v-30h-460q3 -81 52.5 -138t148.5 -57zM314 450q-87 0 -135 -45.5t-61 -114.5h385q-3 29 -14 55.5t-32 51t-58 39t-85 14.5z
M188 780l152 -230h-39l-218 230h105z" />
    <glyph glyph-name="eacute" unicode="&#xe9;" horiz-adv-x="620" 
d="M316 40q74 0 122.5 32.5t56.5 82.5h70q-14 -87 -83 -131t-166 -44q-124 0 -197.5 76t-73.5 189t72.5 189t196.5 76q129 0 195 -69.5t66 -175.5v-30h-460q3 -81 52.5 -138t148.5 -57zM314 450q-87 0 -135 -45.5t-61 -114.5h385q-3 29 -14 55.5t-32 51t-58 39t-85 14.5z
M253 550l152 230h105l-218 -230h-39z" />
    <glyph glyph-name="ecircumflex" unicode="&#xea;" horiz-adv-x="620" 
d="M316 40q74 0 122.5 32.5t56.5 82.5h70q-14 -87 -83 -131t-166 -44q-124 0 -197.5 76t-73.5 189t72.5 189t196.5 76q129 0 195 -69.5t66 -175.5v-30h-460q3 -81 52.5 -138t148.5 -57zM314 450q-87 0 -135 -45.5t-61 -114.5h385q-3 29 -14 55.5t-32 51t-58 39t-85 14.5z
M315 660l-170 -120l-21 24l191 186l191 -186l-21 -24z" />
    <glyph glyph-name="edieresis" unicode="&#xeb;" horiz-adv-x="620" 
d="M316 40q74 0 122.5 32.5t56.5 82.5h70q-14 -87 -83 -131t-166 -44q-124 0 -197.5 76t-73.5 189t72.5 189t196.5 76q129 0 195 -69.5t66 -175.5v-30h-460q3 -81 52.5 -138t148.5 -57zM314 450q-87 0 -135 -45.5t-61 -114.5h385q-3 29 -14 55.5t-32 51t-58 39t-85 14.5z
M165 585v95h70v-95h-70zM385 585v95h70v-95h-70z" />
    <glyph glyph-name="igrave" unicode="&#xec;" horiz-adv-x="210" 
d="M140 490v-490h-70v490h70zM-7 780l152 -230h-39l-218 230h105z" />
    <glyph glyph-name="iacute" unicode="&#xed;" horiz-adv-x="210" 
d="M140 490v-490h-70v490h70zM63 550l152 230h105l-218 -230h-39z" />
    <glyph glyph-name="icircumflex" unicode="&#xee;" horiz-adv-x="210" 
d="M140 490v-490h-70v490h70zM105 660l-130 -90l-21 24l151 156l151 -156l-21 -24z" />
    <glyph glyph-name="idieresis" unicode="&#xef;" horiz-adv-x="210" 
d="M140 490v-490h-70v490h70zM0 550v95h70v-95h-70zM140 550v95h70v-95h-70z" />
    <glyph glyph-name="eth" unicode="&#xf0;" horiz-adv-x="600" 
d="M331 686l84 84l35 -35l-77 -77q177 -134 177 -373q0 -151 -72.5 -228t-187.5 -77q-106 0 -175.5 68.5t-69.5 176.5t68 176.5t167 68.5q43 0 79.5 -12.5t56.5 -30t34.5 -35t19.5 -30.5l5 -12h10q-5 74 -46 145t-109 120l-88 -89l-35 35l80 81q-75 41 -162 48v60
q109 -7 206 -64zM475 225q0 78 -46.5 131.5t-133.5 53.5t-133.5 -53.5t-46.5 -131.5t46.5 -131.5t133.5 -53.5t133.5 53.5t46.5 131.5z" />
    <glyph glyph-name="ntilde" unicode="&#xf1;" horiz-adv-x="580" 
d="M450 0v310q0 140 -130 140q-74 0 -127 -46.5t-53 -133.5v-270h-70v490h60v-105h10q67 125 200 125q180 0 180 -200v-310h-70zM500 700h30q-5 -46 -33.5 -80.5t-86.5 -34.5q-49 0 -128 30t-102 30q-60 0 -80 -60h-30q5 46 33.5 80.5t86.5 34.5q49 0 128 -30t102 -30
q60 0 80 60z" />
    <glyph glyph-name="ograve" unicode="&#xf2;" horiz-adv-x="630" 
d="M45 245q0 111 77 188t193 77t193 -77t77 -188t-77 -188t-193 -77t-193 77t-77 188zM115 245q0 -81 52 -143t148 -62t148 62t52 143t-52 143t-148 62t-148 -62t-52 -143zM198 780l152 -230h-39l-218 230h105z" />
    <glyph glyph-name="oacute" unicode="&#xf3;" horiz-adv-x="630" 
d="M45 245q0 111 77 188t193 77t193 -77t77 -188t-77 -188t-193 -77t-193 77t-77 188zM115 245q0 -81 52 -143t148 -62t148 62t52 143t-52 143t-148 62t-148 -62t-52 -143zM263 550l152 230h105l-218 -230h-39z" />
    <glyph glyph-name="ocircumflex" unicode="&#xf4;" horiz-adv-x="630" 
d="M45 245q0 111 77 188t193 77t193 -77t77 -188t-77 -188t-193 -77t-193 77t-77 188zM115 245q0 -81 52 -143t148 -62t148 62t52 143t-52 143t-148 62t-148 -62t-52 -143zM315 660l-170 -120l-21 24l191 186l191 -186l-21 -24z" />
    <glyph glyph-name="otilde" unicode="&#xf5;" horiz-adv-x="630" 
d="M45 245q0 111 77 188t193 77t193 -77t77 -188t-77 -188t-193 -77t-193 77t-77 188zM115 245q0 -81 52 -143t148 -62t148 62t52 143t-52 143t-148 62t-148 -62t-52 -143zM520 700h30q-5 -46 -33.5 -80.5t-86.5 -34.5q-49 0 -128 30t-102 30q-60 0 -80 -60h-30
q5 46 33.5 80.5t86.5 34.5q49 0 128 -30t102 -30q60 0 80 60z" />
    <glyph glyph-name="odieresis" unicode="&#xf6;" horiz-adv-x="630" 
d="M45 245q0 111 77 188t193 77t193 -77t77 -188t-77 -188t-193 -77t-193 77t-77 188zM115 245q0 -81 52 -143t148 -62t148 62t52 143t-52 143t-148 62t-148 -62t-52 -143zM170 585v95h70v-95h-70zM390 585v95h70v-95h-70z" />
    <glyph glyph-name="divide" unicode="&#xf7;" horiz-adv-x="595" 
d="M50 370h495v-60h-495v60zM260 470v100h75v-100h-75zM260 110v100h75v-100h-75z" />
    <glyph glyph-name="oslash" unicode="&#xf8;" horiz-adv-x="630" 
d="M515 510l45 -42l-42 -46q67 -75 67 -177q0 -111 -77 -188t-193 -77q-87 0 -157 47l-43 -47l-45 42l42 46q-67 75 -67 177q0 111 77 188t193 77q87 0 157 -48zM515 245q0 71 -41 129l-274 -301q49 -33 115 -33q96 0 148 62t52 143zM115 245q0 -75 41 -129l274 301
q-50 33 -115 33q-96 0 -148 -62t-52 -143z" />
    <glyph glyph-name="ugrave" unicode="&#xf9;" 
d="M135 490v-290q0 -79 38 -119.5t102 -40.5q72 0 121 52t49 148v250h70v-490h-60v105h-10q-32 -59 -72 -92t-108 -33q-200 0 -200 230v280h70zM178 780l152 -230h-39l-218 230h105z" />
    <glyph glyph-name="uacute" unicode="&#xfa;" 
d="M135 490v-290q0 -79 38 -119.5t102 -40.5q72 0 121 52t49 148v250h70v-490h-60v105h-10q-32 -59 -72 -92t-108 -33q-200 0 -200 230v280h70zM233 550l152 230h105l-218 -230h-39z" />
    <glyph glyph-name="ucircumflex" unicode="&#xfb;" 
d="M135 490v-290q0 -79 38 -119.5t102 -40.5q72 0 121 52t49 148v250h70v-490h-60v105h-10q-32 -59 -72 -92t-108 -33q-200 0 -200 230v280h70zM290 660l-170 -120l-21 24l191 186l191 -186l-21 -24z" />
    <glyph glyph-name="udieresis" unicode="&#xfc;" 
d="M135 490v-290q0 -79 38 -119.5t102 -40.5q72 0 121 52t49 148v250h70v-490h-60v105h-10q-32 -59 -72 -92t-108 -33q-200 0 -200 230v280h70zM150 585v95h70v-95h-70zM370 585v95h70v-95h-70z" />
    <glyph glyph-name="yacute" unicode="&#xfd;" horiz-adv-x="543" 
d="M103 -120h40q36 0 51.5 10t29.5 43l27 66l-236 491h77l192 -412l169 412h75l-240 -575q-25 -60 -48 -77.5t-77 -17.5h-60v60zM238 550l152 230h105l-218 -230h-39z" />
    <glyph glyph-name="thorn" unicode="&#xfe;" horiz-adv-x="605" 
d="M140 245q0 -79 48.5 -142t131.5 -63q82 0 126 62t44 143t-44 143t-126 62q-83 0 -131.5 -63t-48.5 -142zM140 40v-220h-70v930h70v-300l-10 -65h10q2 5 6 13.5t19 30t34 38t53 30t73 13.5q107 0 171 -76t64 -189q0 -111 -65 -188t-165 -77q-41 0 -75.5 13t-54.5 31
t-34.5 36.5t-19.5 31.5l-6 13h-10z" />
    <glyph glyph-name="ydieresis" unicode="&#xff;" horiz-adv-x="543" 
d="M103 -120h40q36 0 51.5 10t29.5 43l27 66l-236 491h77l192 -412l169 412h75l-240 -575q-25 -60 -48 -77.5t-77 -17.5h-60v60zM135 585v95h70v-95h-70zM355 585v95h70v-95h-70z" />
    <glyph glyph-name="Amacron" unicode="&#x100;" horiz-adv-x="648" 
d="M20 0l271 700h76l261 -700h-75l-72 195h-318l-73 -195h-70zM324 620l-138 -365h273zM540 830v-60h-415v60h415z" />
    <glyph glyph-name="amacron" unicode="&#x101;" horiz-adv-x="600" 
d="M440 0v115q-22 -27 -49.5 -53.5t-80.5 -54t-105 -27.5q-69 0 -104.5 32.5t-35.5 87.5q0 37 18 67.5t43.5 50t65 35.5t71 24.5t74 15t60.5 7.5l43 4q-1 67 -35.5 106.5t-124.5 39.5q-79 0 -119.5 -38t-40.5 -97h-70q0 90 66 142.5t164 52.5q60 0 102.5 -14t67 -36.5
t38.5 -59t18 -71.5t4 -84v-140q0 -46 10.5 -58t39.5 -12h15v-35h-135zM440 170v79q-305 -29 -305 -144q0 -65 90 -65q59 0 119 43t96 87zM490 645v-60h-415v60h415z" />
    <glyph glyph-name="Abreve" unicode="&#x102;" horiz-adv-x="648" 
d="M20 0l271 700h76l261 -700h-75l-72 195h-318l-73 -195h-70zM324 620l-138 -365h273zM445 910h60q-1 -70 -50 -112.5t-125 -42.5t-125 42.5t-50 112.5h60q4 -43 31.5 -71.5t83.5 -28.5t83.5 28.5t31.5 71.5z" />
    <glyph glyph-name="abreve" unicode="&#x103;" horiz-adv-x="600" 
d="M440 0v115q-22 -27 -49.5 -53.5t-80.5 -54t-105 -27.5q-69 0 -104.5 32.5t-35.5 87.5q0 37 18 67.5t43.5 50t65 35.5t71 24.5t74 15t60.5 7.5l43 4q-1 67 -35.5 106.5t-124.5 39.5q-79 0 -119.5 -38t-40.5 -97h-70q0 90 66 142.5t164 52.5q60 0 102.5 -14t67 -36.5
t38.5 -59t18 -71.5t4 -84v-140q0 -46 10.5 -58t39.5 -12h15v-35h-135zM440 170v79q-305 -29 -305 -144q0 -65 90 -65q59 0 119 43t96 87zM375 700h55q0 -63 -39 -99t-106 -36t-106 36t-39 99h55q0 -36 20.5 -60.5t69.5 -24.5t69.5 24.5t20.5 60.5z" />
    <glyph glyph-name="Aogonek" unicode="&#x104;" horiz-adv-x="648" 
d="M633 -120h60q0 -53 -32.5 -86.5t-87.5 -33.5q-51 0 -85.5 29.5t-34.5 80.5q0 42 25 74.5t50 43.5l25 12l-72 195h-318l-73 -195h-70l271 700h76l261 -700h-1q-5 -1 -14.5 -4t-28 -12t-33.5 -21.5t-26.5 -34.5t-11.5 -48q0 -28 15.5 -46.5t44.5 -18.5q31 0 45.5 19.5
t14.5 45.5zM324 620l-138 -365h273z" />
    <glyph glyph-name="aogonek" unicode="&#x105;" horiz-adv-x="600" 
d="M440 0v115q-22 -27 -49.5 -53.5t-80.5 -54t-105 -27.5q-69 0 -104.5 32.5t-35.5 87.5q0 37 18 67.5t43.5 50t65 35.5t71 24.5t74 15t60.5 7.5l43 4q-1 67 -35.5 106.5t-124.5 39.5q-79 0 -119.5 -38t-40.5 -97h-70q0 90 66 142.5t164 52.5q60 0 102.5 -14t67 -36.5
t38.5 -59t18 -71.5t4 -84v-140q0 -46 10.5 -58t39.5 -12h15v-35h-26q-5 -1 -14.5 -4t-28 -12t-33.5 -21.5t-26.5 -34.5t-11.5 -48q0 -28 15.5 -46.5t44.5 -18.5q31 0 45.5 19.5t14.5 45.5h60q0 -52 -33.5 -86t-86.5 -34q-51 0 -85.5 29.5t-34.5 80.5q0 54 37 85t87 45h-59z
M440 170v79q-305 -29 -305 -144q0 -65 90 -65q59 0 119 43t96 87z" />
    <glyph glyph-name="Cacute" unicode="&#x106;" horiz-adv-x="782" 
d="M120 350q0 -130 77 -215t203 -85q111 0 178.5 52.5t82.5 147.5h76q-16 -126 -106.5 -198t-230.5 -72q-156 0 -255.5 104.5t-99.5 265.5q0 162 97.5 266t252.5 104q140 0 230.5 -72t106.5 -198h-76q-15 94 -83 147t-178 53q-125 0 -200 -85t-75 -215zM353 750l132 200h105
l-198 -200h-39z" />
    <glyph glyph-name="cacute" unicode="&#x107;" horiz-adv-x="625" 
d="M115 245q0 -83 51 -144t153 -61q76 0 131 39.5t55 95.5h70q0 -92 -77.5 -143.5t-178.5 -51.5q-124 0 -199 76t-75 189t75 189t199 76q101 0 178.5 -51.5t77.5 -143.5h-70q0 56 -55 95.5t-131 39.5q-102 0 -153 -61t-51 -144zM253 550l152 230h105l-218 -230h-39z" />
    <glyph glyph-name="Ccircumflex" unicode="&#x108;" horiz-adv-x="782" 
d="M120 350q0 -130 77 -215t203 -85q111 0 178.5 52.5t82.5 147.5h76q-16 -126 -106.5 -198t-230.5 -72q-156 0 -255.5 104.5t-99.5 265.5q0 162 97.5 266t252.5 104q140 0 230.5 -72t106.5 -198h-76q-15 94 -83 147t-178 53q-125 0 -200 -85t-75 -215zM395 880l-180 -130
l-21 24l201 196l201 -196l-21 -24z" />
    <glyph glyph-name="ccircumflex" unicode="&#x109;" horiz-adv-x="625" 
d="M115 245q0 -83 51 -144t153 -61q76 0 131 39.5t55 95.5h70q0 -92 -77.5 -143.5t-178.5 -51.5q-124 0 -199 76t-75 189t75 189t199 76q101 0 178.5 -51.5t77.5 -143.5h-70q0 56 -55 95.5t-131 39.5q-102 0 -153 -61t-51 -144zM315 660l-170 -120l-21 24l191 186l191 -186
l-21 -24z" />
    <glyph glyph-name="Cdotaccent" unicode="&#x10a;" horiz-adv-x="782" 
d="M120 350q0 -130 77 -215t203 -85q111 0 178.5 52.5t82.5 147.5h76q-16 -126 -106.5 -198t-230.5 -72q-156 0 -255.5 104.5t-99.5 265.5q0 162 97.5 266t252.5 104q140 0 230.5 -72t106.5 -198h-76q-15 94 -83 147t-178 53q-125 0 -200 -85t-75 -215zM359 770v100h75v-100
h-75z" />
    <glyph glyph-name="cdotaccent" unicode="&#x10b;" horiz-adv-x="625" 
d="M115 245q0 -83 51 -144t153 -61q76 0 131 39.5t55 95.5h70q0 -92 -77.5 -143.5t-178.5 -51.5q-124 0 -199 76t-75 189t75 189t199 76q101 0 178.5 -51.5t77.5 -143.5h-70q0 56 -55 95.5t-131 39.5q-102 0 -153 -61t-51 -144zM280 585v95h70v-95h-70z" />
    <glyph glyph-name="Ccaron" unicode="&#x10c;" horiz-adv-x="782" 
d="M120 350q0 -130 77 -215t203 -85q111 0 178.5 52.5t82.5 147.5h76q-16 -126 -106.5 -198t-230.5 -72q-156 0 -255.5 104.5t-99.5 265.5q0 162 97.5 266t252.5 104q140 0 230.5 -72t106.5 -198h-76q-15 94 -83 147t-178 53q-125 0 -200 -85t-75 -215zM395 840l180 120
l21 -24l-201 -186l-201 186l21 24z" />
    <glyph glyph-name="ccaron" unicode="&#x10d;" horiz-adv-x="625" 
d="M115 245q0 -83 51 -144t153 -61q76 0 131 39.5t55 95.5h70q0 -92 -77.5 -143.5t-178.5 -51.5q-124 0 -199 76t-75 189t75 189t199 76q101 0 178.5 -51.5t77.5 -143.5h-70q0 56 -55 95.5t-131 39.5q-102 0 -153 -61t-51 -144zM315 635l170 115l21 -24l-191 -176l-191 176
l21 24z" />
    <glyph glyph-name="Dcaron" unicode="&#x10e;" horiz-adv-x="700" 
d="M75 0v700h245q153 0 244 -95t91 -255t-91 -255t-244 -95h-245zM580 350q0 130 -69 210t-191 80h-170v-580h170q122 0 191 80t69 210zM305 840l180 120l21 -24l-201 -186l-201 186l21 24z" />
    <glyph glyph-name="dcaron" unicode="&#x10f;" horiz-adv-x="705" 
d="M465 245q0 79 -48.5 142t-131.5 63q-82 0 -126 -62t-44 -143t44 -143t126 -62q83 0 131.5 63t48.5 142zM465 450v300h70v-750h-60v105h-10q-2 -5 -6 -13.5t-19 -30t-34 -38t-53 -30t-73 -13.5q-107 0 -171 76t-64 189q0 111 65 188t165 77q41 0 75.5 -13t54.5 -31
t34.5 -36.5t20.5 -31.5l5 -13h10zM595 535h-25v25h10q31 0 45.5 19.5t14.5 70.5v100h65v-70q0 -79 -27.5 -112t-82.5 -33z" />
    <glyph glyph-name="Dcroat" unicode="&#x110;" horiz-adv-x="765" 
d="M140 0v335h-140v60h140v305h245q153 0 244 -95t91 -255t-91 -255t-244 -95h-245zM430 395v-60h-215v-275h170q122 0 191 80t69 210t-69 210t-191 80h-170v-245h215z" />
    <glyph glyph-name="dcroat" unicode="&#x111;" horiz-adv-x="615" 
d="M365 610h45q42 0 54.5 15t15.5 70l3 55h52v-140h100v-55h-100v-555h-60v105h-10q-2 -5 -6 -13.5t-19 -30t-34 -38t-53 -30t-73 -13.5q-107 0 -171 76t-64 189q0 111 65 188t165 77q41 0 75.5 -13t54.5 -31t34.5 -36.5t20.5 -31.5l5 -13h10l-10 65v105h-100v55zM465 245
q0 79 -48.5 142t-131.5 63q-82 0 -126 -62t-44 -143t44 -143t126 -62q83 0 131.5 63t48.5 142z" />
    <glyph glyph-name="Emacron" unicode="&#x112;" horiz-adv-x="615" 
d="M75 0v700h485v-60h-410v-245h310v-60h-310v-275h410v-60h-485zM525 830v-60h-415v60h415z" />
    <glyph glyph-name="emacron" unicode="&#x113;" horiz-adv-x="620" 
d="M316 40q74 0 122.5 32.5t56.5 82.5h70q-14 -87 -83 -131t-166 -44q-124 0 -197.5 76t-73.5 189t72.5 189t196.5 76q129 0 195 -69.5t66 -175.5v-30h-460q3 -81 52.5 -138t148.5 -57zM314 450q-87 0 -135 -45.5t-61 -114.5h385q-3 29 -14 55.5t-32 51t-58 39t-85 14.5z
M520 645v-60h-415v60h415z" />
    <glyph glyph-name="Ebreve" unicode="&#x114;" horiz-adv-x="615" 
d="M75 0v700h485v-60h-410v-245h310v-60h-310v-275h410v-60h-485zM435 910h60q-1 -70 -50 -112.5t-125 -42.5t-125 42.5t-50 112.5h60q4 -43 31.5 -71.5t83.5 -28.5t83.5 28.5t31.5 71.5z" />
    <glyph glyph-name="ebreve" unicode="&#x115;" horiz-adv-x="620" 
d="M316 40q74 0 122.5 32.5t56.5 82.5h70q-14 -87 -83 -131t-166 -44q-124 0 -197.5 76t-73.5 189t72.5 189t196.5 76q129 0 195 -69.5t66 -175.5v-30h-460q3 -81 52.5 -138t148.5 -57zM314 450q-87 0 -135 -45.5t-61 -114.5h385q-3 29 -14 55.5t-32 51t-58 39t-85 14.5z
M405 700h55q0 -63 -39 -99t-106 -36t-106 36t-39 99h55q0 -36 20.5 -60.5t69.5 -24.5t69.5 24.5t20.5 60.5z" />
    <glyph glyph-name="Edotaccent" unicode="&#x116;" horiz-adv-x="615" 
d="M289 770v100h75v-100h-75zM75 0v700h485v-60h-410v-245h310v-60h-310v-275h410v-60h-485z" />
    <glyph glyph-name="edotaccent" unicode="&#x117;" horiz-adv-x="620" 
d="M316 40q74 0 122.5 32.5t56.5 82.5h70q-14 -87 -83 -131t-166 -44q-124 0 -197.5 76t-73.5 189t72.5 189t196.5 76q129 0 195 -69.5t66 -175.5v-30h-460q3 -81 52.5 -138t148.5 -57zM314 450q-87 0 -135 -45.5t-61 -114.5h385q-3 29 -14 55.5t-32 51t-58 39t-85 14.5z
M280 585v95h70v-95h-70z" />
    <glyph glyph-name="Eogonek" unicode="&#x118;" horiz-adv-x="615" 
d="M75 0v700h485v-60h-410v-245h310v-60h-310v-275h410v-60h-185q-5 -1 -12.5 -3.5t-27.5 -11.5t-35 -21.5t-27.5 -34.5t-12.5 -49q0 -28 15.5 -46.5t44.5 -18.5q31 0 45.5 19.5t14.5 45.5h60q0 -53 -32.5 -86.5t-87.5 -33.5q-51 0 -85.5 29.5t-34.5 80.5q0 98 114 130h-239
z" />
    <glyph glyph-name="eogonek" unicode="&#x119;" horiz-adv-x="620" 
d="M375 -120h60q0 -53 -32.5 -86.5t-87.5 -33.5q-51 0 -85.5 29.5t-34.5 80.5q0 74 78 113q-106 12 -167 85.5t-61 176.5q0 113 72.5 189t196.5 76q129 0 195 -69.5t66 -175.5v-30h-460q3 -81 52.5 -138t148.5 -57q74 0 122.5 32.5t56.5 82.5h70q-14 -86 -81.5 -130
t-163.5 -45q-65 -35 -65 -100q0 -28 15.5 -46.5t44.5 -18.5q31 0 45.5 19.5t14.5 45.5zM314 450q-87 0 -135 -45.5t-61 -114.5h385q-3 29 -14 55.5t-32 51t-58 39t-85 14.5z" />
    <glyph glyph-name="Ecaron" unicode="&#x11a;" horiz-adv-x="615" 
d="M75 0v700h485v-60h-410v-245h310v-60h-310v-275h410v-60h-485zM320 840l180 120l21 -24l-201 -186l-201 186l21 24z" />
    <glyph glyph-name="ecaron" unicode="&#x11b;" horiz-adv-x="620" 
d="M316 40q74 0 122.5 32.5t56.5 82.5h70q-14 -87 -83 -131t-166 -44q-124 0 -197.5 76t-73.5 189t72.5 189t196.5 76q129 0 195 -69.5t66 -175.5v-30h-460q3 -81 52.5 -138t148.5 -57zM314 450q-87 0 -135 -45.5t-61 -114.5h385q-3 29 -14 55.5t-32 51t-58 39t-85 14.5z
M310 635l170 115l21 -24l-191 -176l-191 176l21 24z" />
    <glyph glyph-name="Gcircumflex" unicode="&#x11c;" horiz-adv-x="807" 
d="M742 330v-330h-50l-12 204q-23 -104 -93 -164t-187 -60q-156 0 -255.5 104.5t-99.5 265.5q0 162 97.5 266t252.5 104q140 0 230.5 -72t106.5 -198h-76q-15 94 -83 147t-178 53q-125 0 -200 -85t-75 -215t77 -215t203 -85q113 0 177 60t80 160h-235v60h320zM395 880
l-180 -130l-21 24l201 196l201 -196l-21 -24z" />
    <glyph glyph-name="gcircumflex" unicode="&#x11d;" horiz-adv-x="610" 
d="M25 -65q0 77 91 106q-51 18 -51 59q0 57 100 73q-80 53 -80 152q0 84 58.5 134.5t141.5 50.5q55 0 102 -24t73 -67v1q0 50 20 65t75 15h50v-65h-90q-30 0 -30 -30v-80q0 -84 -58.5 -134.5t-141.5 -50.5q-61 0 -95 -5t-44.5 -13t-10.5 -22q0 -13 10 -21t43.5 -13.5
t95.5 -5.5h21h63q20 0 53.5 -1.5t48.5 -4t37.5 -7.5t32.5 -12.5t21 -18.5t15 -26t4 -35q0 -81 -80.5 -118t-209.5 -37q-265 0 -265 135zM155 325q0 -57 34 -94.5t96 -37.5t96 37.5t34 94.5t-34 94.5t-96 37.5t-96 -37.5t-34 -94.5zM90 -65q0 -75 200 -75q101 0 163 23.5
t62 71.5q0 31 -41 38t-153 7h-16q-119 0 -167 -11t-48 -54zM290 660l-170 -120l-21 24l191 186l191 -186l-21 -24z" />
    <glyph glyph-name="Gbreve" unicode="&#x11e;" horiz-adv-x="807" 
d="M742 330v-330h-50l-12 204q-23 -104 -93 -164t-187 -60q-156 0 -255.5 104.5t-99.5 265.5q0 162 97.5 266t252.5 104q140 0 230.5 -72t106.5 -198h-76q-15 94 -83 147t-178 53q-125 0 -200 -85t-75 -215t77 -215t203 -85q113 0 177 60t80 160h-235v60h320zM515 910h60
q-1 -70 -50 -112.5t-125 -42.5t-125 42.5t-50 112.5h60q4 -43 31.5 -71.5t83.5 -28.5t83.5 28.5t31.5 71.5z" />
    <glyph glyph-name="gbreve" unicode="&#x11f;" horiz-adv-x="610" 
d="M25 -65q0 77 91 106q-51 18 -51 59q0 57 100 73q-80 53 -80 152q0 84 58.5 134.5t141.5 50.5q55 0 102 -24t73 -67v1q0 50 20 65t75 15h50v-65h-90q-30 0 -30 -30v-80q0 -84 -58.5 -134.5t-141.5 -50.5q-61 0 -95 -5t-44.5 -13t-10.5 -22q0 -13 10 -21t43.5 -13.5
t95.5 -5.5h21h63q20 0 53.5 -1.5t48.5 -4t37.5 -7.5t32.5 -12.5t21 -18.5t15 -26t4 -35q0 -81 -80.5 -118t-209.5 -37q-265 0 -265 135zM155 325q0 -57 34 -94.5t96 -37.5t96 37.5t34 94.5t-34 94.5t-96 37.5t-96 -37.5t-34 -94.5zM90 -65q0 -75 200 -75q101 0 163 23.5
t62 71.5q0 31 -41 38t-153 7h-16q-119 0 -167 -11t-48 -54zM375 700h55q0 -63 -39 -99t-106 -36t-106 36t-39 99h55q0 -36 20.5 -60.5t69.5 -24.5t69.5 24.5t20.5 60.5z" />
    <glyph glyph-name="Gdotaccent" unicode="&#x120;" horiz-adv-x="807" 
d="M742 330v-330h-50l-12 204q-23 -104 -93 -164t-187 -60q-156 0 -255.5 104.5t-99.5 265.5q0 162 97.5 266t252.5 104q140 0 230.5 -72t106.5 -198h-76q-15 94 -83 147t-178 53q-125 0 -200 -85t-75 -215t77 -215t203 -85q113 0 177 60t80 160h-235v60h320zM359 770v100
h75v-100h-75z" />
    <glyph glyph-name="gdotaccent" unicode="&#x121;" horiz-adv-x="610" 
d="M25 -65q0 77 91 106q-51 18 -51 59q0 57 100 73q-80 53 -80 152q0 84 58.5 134.5t141.5 50.5q55 0 102 -24t73 -67v1q0 50 20 65t75 15h50v-65h-90q-30 0 -30 -30v-80q0 -84 -58.5 -134.5t-141.5 -50.5q-61 0 -95 -5t-44.5 -13t-10.5 -22q0 -13 10 -21t43.5 -13.5
t95.5 -5.5h21h63q20 0 53.5 -1.5t48.5 -4t37.5 -7.5t32.5 -12.5t21 -18.5t15 -26t4 -35q0 -81 -80.5 -118t-209.5 -37q-265 0 -265 135zM155 325q0 -57 34 -94.5t96 -37.5t96 37.5t34 94.5t-34 94.5t-96 37.5t-96 -37.5t-34 -94.5zM90 -65q0 -75 200 -75q101 0 163 23.5
t62 71.5q0 31 -41 38t-153 7h-16q-119 0 -167 -11t-48 -54zM245 585v95h70v-95h-70z" />
    <glyph glyph-name="Gcommaaccent" unicode="&#x122;" horiz-adv-x="807" 
d="M742 330v-330h-50l-12 204q-23 -104 -93 -164t-187 -60q-156 0 -255.5 104.5t-99.5 265.5q0 162 97.5 266t252.5 104q140 0 230.5 -72t106.5 -198h-76q-15 94 -83 147t-178 53q-125 0 -200 -85t-75 -215t77 -215t203 -85q113 0 177 60t80 160h-235v60h320zM335 -285h-25
v25h10q31 0 45.5 19.5t14.5 70.5v100h65v-70q0 -79 -27.5 -112t-82.5 -33z" />
    <glyph glyph-name="gcommaaccent" unicode="&#x123;" horiz-adv-x="610" 
d="M25 -65q0 77 91 106q-51 18 -51 59q0 57 100 73q-80 53 -80 152q0 84 58.5 134.5t141.5 50.5q55 0 102 -24t73 -67v1q0 50 20 65t75 15h50v-65h-90q-30 0 -30 -30v-80q0 -84 -58.5 -134.5t-141.5 -50.5q-61 0 -95 -5t-44.5 -13t-10.5 -22q0 -13 10 -21t43.5 -13.5
t95.5 -5.5h21h63q20 0 53.5 -1.5t48.5 -4t37.5 -7.5t32.5 -12.5t21 -18.5t15 -26t4 -35q0 -81 -80.5 -118t-209.5 -37q-265 0 -265 135zM155 325q0 -57 34 -94.5t96 -37.5t96 37.5t34 94.5t-34 94.5t-96 37.5t-96 -37.5t-34 -94.5zM90 -65q0 -75 200 -75q101 0 163 23.5
t62 71.5q0 31 -41 38t-153 7h-16q-119 0 -167 -11t-48 -54zM360 780h25v-25h-10q-31 0 -45.5 -19.5t-14.5 -70.5v-100h-65v70q0 79 27.5 112t82.5 33z" />
    <glyph glyph-name="Hcircumflex" unicode="&#x124;" horiz-adv-x="720" 
d="M645 700v-700h-75v335h-420v-335h-75v700h75v-305h420v305h75zM360 880l-180 -130l-21 24l201 196l201 -196l-21 -24z" />
    <glyph glyph-name="hcircumflex" unicode="&#x125;" horiz-adv-x="590" 
d="M460 0v310q0 140 -130 140q-75 0 -132.5 -46.5t-57.5 -133.5v-270h-70v750h70v-300l-10 -65h10q67 125 210 125q180 0 180 -200v-310h-70zM294 910l-180 -130l-21 24l201 196l201 -196l-21 -24z" />
    <glyph glyph-name="Hbar" unicode="&#x126;" horiz-adv-x="720" 
d="M745 610v-60h-100v-550h-75v335h-420v-335h-75v550h-100v60h100v90h75v-90h420v90h75v-90h100zM150 395h420v155h-420v-155z" />
    <glyph glyph-name="hbar" unicode="&#x127;" horiz-adv-x="620" 
d="M-5 610h50q42 0 55 15t15 70l3 55h52v-140h110v-55h-110v-125l-10 -65h10q67 125 210 125q180 0 180 -200v-290h-70v290q0 140 -130 140q-75 0 -132.5 -46.5t-57.5 -133.5v-250h-70v555h-105v55z" />
    <glyph glyph-name="Itilde" unicode="&#x128;" horiz-adv-x="225" 
d="M75 700h75v-700h-75v700zM275 880h25q-4 -48 -27 -81.5t-68 -33.5q-38 0 -99.5 30t-80.5 30q-22 0 -39 -18t-21 -42h-25q4 48 27 81.5t68 33.5q38 0 99.5 -30t80.5 -30q22 0 39 18t21 42z" />
    <glyph glyph-name="itilde" unicode="&#x129;" horiz-adv-x="210" 
d="M140 490v-490h-70v490h70zM235 700h25q-10 -115 -85 -115q-38 0 -84.5 30t-65.5 30q-40 0 -50 -60h-25q10 115 85 115q38 0 84.5 -30t65.5 -30q40 0 50 60z" />
    <glyph glyph-name="uni012A" unicode="&#x12a;" horiz-adv-x="225" 
d="M75 700h75v-700h-75v700zM260 830v-60h-295v60h295z" />
    <glyph glyph-name="imacron" unicode="&#x12b;" horiz-adv-x="210" 
d="M140 490v-490h-70v490h70zM250 645v-60h-290v60h290z" />
    <glyph glyph-name="Ibreve" unicode="&#x12c;" horiz-adv-x="225" 
d="M75 700h75v-700h-75v700zM227 910h60q-1 -70 -50 -112.5t-125 -42.5t-125 42.5t-50 112.5h60q4 -43 31.5 -71.5t83.5 -28.5t83.5 28.5t31.5 71.5z" />
    <glyph glyph-name="uni012D" unicode="&#x12d;" horiz-adv-x="210" 
d="M140 490v-490h-70v490h70zM195 700h55q0 -63 -39 -99t-106 -36t-106 36t-39 99h55q0 -36 20.5 -60.5t69.5 -24.5t69.5 24.5t20.5 60.5z" />
    <glyph glyph-name="Iogonek" unicode="&#x12e;" horiz-adv-x="225" 
d="M170 -120h60q0 -53 -32.5 -86.5t-87.5 -33.5q-51 0 -85.5 30.5t-34.5 84.5q0 25 9 47t21 36t24.5 24t21.5 14l9 4v700h75v-700h-1q-4 -1 -12.5 -4t-24.5 -12t-29 -21.5t-23 -34.5t-10 -48q0 -28 15.5 -46.5t44.5 -18.5q31 0 45.5 19.5t14.5 45.5z" />
    <glyph glyph-name="iogonek" unicode="&#x12f;" horiz-adv-x="210" 
d="M160 -120h60q0 -53 -32.5 -86.5t-87.5 -33.5q-52 0 -86 29t-34 86q0 25 9.5 47t22.5 36t26 24t22 14l10 4v490h70v-490h-1q-4 -1 -12.5 -4t-24.5 -12t-29 -21.5t-23 -34.5t-10 -48q0 -28 15.5 -46.5t44.5 -18.5q31 0 45.5 19.5t14.5 45.5zM70 550v95h70v-95h-70z" />
    <glyph glyph-name="Idotaccent" unicode="&#x130;" horiz-adv-x="225" 
d="M75 770v100h75v-100h-75zM75 700h75v-700h-75v700z" />
    <glyph glyph-name="dotlessi" unicode="&#x131;" horiz-adv-x="210" 
d="M140 490v-490h-70v490h70z" />
    <glyph glyph-name="Jcircumflex" unicode="&#x134;" 
d="M515 700v-480q0 -240 -235 -240t-235 240v50h75v-50q0 -95 39.5 -137.5t120.5 -42.5t120.5 42.5t39.5 137.5v480h75zM476 840l-142 -90l-19 24l161 156l161 -156l-19 -24z" />
    <glyph glyph-name="jcircumflex" unicode="&#x135;" horiz-adv-x="210" 
d="M140 490v-570q0 -57 -18 -78.5t-82 -21.5h-50v55h50q30 0 30 30v585h70zM105 660l-130 -90l-21 24l151 156l151 -156l-21 -24z" />
    <glyph glyph-name="Kcommaaccent" unicode="&#x136;" horiz-adv-x="645" 
d="M615 700l-275 -273l245 -427h-84l-210 378l-141 -140v-238h-75v700h75v-383l380 383h85zM225 -285h-25v25h10q31 0 45.5 19.5t14.5 70.5v100h65v-70q0 -79 -27.5 -112t-82.5 -33z" />
    <glyph glyph-name="kcommaaccent" unicode="&#x137;" horiz-adv-x="530" 
d="M515 490l-220 -188l200 -302h-84l-168 258l-103 -89v-169h-70v750h70v-510l290 250h85zM185 -285h-25v25h10q31 0 45.5 19.5t14.5 70.5v100h65v-70q0 -79 -27.5 -112t-82.5 -33z" />
    <glyph glyph-name="Lacute" unicode="&#x139;" horiz-adv-x="575" 
d="M75 0v700h75v-640h390v-60h-465zM93 750l132 200h105l-198 -200h-39z" />
    <glyph glyph-name="lacute" unicode="&#x13a;" horiz-adv-x="210" 
d="M140 750v-750h-70v750h70zM73 790l132 200h105l-198 -200h-39z" />
    <glyph glyph-name="Lcommaaccent" unicode="&#x13b;" horiz-adv-x="575" 
d="M75 0v700h75v-640h390v-60h-465zM220 -285h-25v25h10q31 0 45.5 19.5t14.5 70.5v100h65v-70q0 -79 -27.5 -112t-82.5 -33z" />
    <glyph glyph-name="lcommaaccent" unicode="&#x13c;" horiz-adv-x="210" 
d="M140 750v-750h-70v750h70zM30 -285h-25v25h10q31 0 45.5 19.5t14.5 70.5v100h65v-70q0 -79 -27.5 -112t-82.5 -33z" />
    <glyph glyph-name="Lcaron" unicode="&#x13d;" horiz-adv-x="575" 
d="M75 0v700h75v-640h390v-60h-465zM250 535h-25v25h10q31 0 45.5 19.5t14.5 70.5v100h65v-70q0 -79 -27.5 -112t-82.5 -33z" />
    <glyph glyph-name="lcaron" unicode="&#x13e;" horiz-adv-x="310" 
d="M140 750v-750h-70v750h70zM200 535h-25v25h10q31 0 45.5 19.5t14.5 70.5v100h65v-70q0 -79 -27.5 -112t-82.5 -33z" />
    <glyph glyph-name="Lslash" unicode="&#x141;" horiz-adv-x="635" 
d="M360 490l30 -52l-180 -103v-275h390v-60h-465v292l-95 -54l-30 52l125 71v339h75v-296z" />
    <glyph glyph-name="lslash" unicode="&#x142;" horiz-adv-x="330" 
d="M295 460l30 -52l-125 -74v-334h-70v293l-95 -55l-30 52l125 73v387h70v-346z" />
    <glyph glyph-name="Nacute" unicode="&#x143;" horiz-adv-x="750" 
d="M675 700v-700h-55l-475 575v-575h-70v700h55l475 -575v575h70zM323 750l132 200h105l-198 -200h-39z" />
    <glyph glyph-name="nacute" unicode="&#x144;" horiz-adv-x="580" 
d="M450 0v310q0 140 -130 140q-74 0 -127 -46.5t-53 -133.5v-270h-70v490h60v-105h10q67 125 200 125q180 0 180 -200v-310h-70zM233 550l152 230h105l-218 -230h-39z" />
    <glyph glyph-name="Ncommaaccent" unicode="&#x145;" horiz-adv-x="750" 
d="M675 700v-700h-55l-475 575v-575h-70v700h55l475 -575v575h70zM290 -285h-25v25h10q31 0 45.5 19.5t14.5 70.5v100h65v-70q0 -79 -27.5 -112t-82.5 -33z" />
    <glyph glyph-name="ncommaaccent" unicode="&#x146;" horiz-adv-x="580" 
d="M450 0v310q0 140 -130 140q-74 0 -127 -46.5t-53 -133.5v-270h-70v490h60v-105h10q67 125 200 125q180 0 180 -200v-310h-70zM225 -285h-25v25h10q31 0 45.5 19.5t14.5 70.5v100h65v-70q0 -79 -27.5 -112t-82.5 -33z" />
    <glyph glyph-name="Ncaron" unicode="&#x147;" horiz-adv-x="750" 
d="M675 700v-700h-55l-475 575v-575h-70v700h55l475 -575v575h70zM375 840l180 120l21 -24l-201 -186l-201 186l21 24z" />
    <glyph glyph-name="ncaron" unicode="&#x148;" horiz-adv-x="580" 
d="M450 0v310q0 140 -130 140q-74 0 -127 -46.5t-53 -133.5v-270h-70v490h60v-105h10q67 125 200 125q180 0 180 -200v-310h-70zM285 635l170 115l21 -24l-191 -176l-191 176l21 24z" />
    <glyph glyph-name="Eng" unicode="&#x14a;" horiz-adv-x="750" 
d="M605 700h70v-780q0 -57 -18 -78.5t-82 -21.5h-80v60h80q30 0 30 30v108l-460 557v-575h-70v700h55l475 -575v575z" />
    <glyph glyph-name="eng" unicode="&#x14b;" horiz-adv-x="580" 
d="M520 310v-390q0 -57 -18 -78.5t-82 -21.5h-50v55h50q30 0 30 30v405q0 140 -130 140q-74 0 -127 -46.5t-53 -133.5v-270h-70v490h60v-105h10q67 125 200 125q180 0 180 -200z" />
    <glyph glyph-name="Omacron" unicode="&#x14c;" horiz-adv-x="800" 
d="M45 350q0 160 101 265t254 105t254 -105t101 -265t-101 -265t-254 -105t-254 105t-101 265zM120 350q0 -129 78.5 -214.5t201.5 -85.5t201.5 85.5t78.5 214.5t-78.5 214.5t-201.5 85.5t-201.5 -85.5t-78.5 -214.5zM610 830v-60h-420v60h420z" />
    <glyph glyph-name="omacron" unicode="&#x14d;" horiz-adv-x="630" 
d="M45 245q0 111 77 188t193 77t193 -77t77 -188t-77 -188t-193 -77t-193 77t-77 188zM115 245q0 -81 52 -143t148 -62t148 62t52 143t-52 143t-148 62t-148 -62t-52 -143zM520 645v-60h-410v60h410z" />
    <glyph glyph-name="Obreve" unicode="&#x14e;" horiz-adv-x="800" 
d="M45 350q0 160 101 265t254 105t254 -105t101 -265t-101 -265t-254 -105t-254 105t-101 265zM120 350q0 -129 78.5 -214.5t201.5 -85.5t201.5 85.5t78.5 214.5t-78.5 214.5t-201.5 85.5t-201.5 -85.5t-78.5 -214.5zM515 910h60q-1 -70 -50 -112.5t-125 -42.5t-125 42.5
t-50 112.5h60q4 -43 31.5 -71.5t83.5 -28.5t83.5 28.5t31.5 71.5z" />
    <glyph glyph-name="obreve" unicode="&#x14f;" horiz-adv-x="630" 
d="M45 245q0 111 77 188t193 77t193 -77t77 -188t-77 -188t-193 -77t-193 77t-77 188zM115 245q0 -81 52 -143t148 -62t148 62t52 143t-52 143t-148 62t-148 -62t-52 -143zM405 700h55q0 -63 -39 -99t-106 -36t-106 36t-39 99h55q0 -36 20.5 -60.5t69.5 -24.5t69.5 24.5
t20.5 60.5z" />
    <glyph glyph-name="Ohungarumlaut" unicode="&#x150;" horiz-adv-x="800" 
d="M45 350q0 160 101 265t254 105t254 -105t101 -265t-101 -265t-254 -105t-254 105t-101 265zM120 350q0 -129 78.5 -214.5t201.5 -85.5t201.5 85.5t78.5 214.5t-78.5 214.5t-201.5 85.5t-201.5 -85.5t-78.5 -214.5zM293 750l132 200h105l-198 -200h-39zM443 750l132 200
h105l-198 -200h-39z" />
    <glyph glyph-name="ohungarumlaut" unicode="&#x151;" horiz-adv-x="630" 
d="M45 245q0 111 77 188t193 77t193 -77t77 -188t-77 -188t-193 -77t-193 77t-77 188zM115 245q0 -81 52 -143t148 -62t148 62t52 143t-52 143t-148 62t-148 -62t-52 -143zM353 550l152 230h105l-218 -230h-39zM203 550l152 230h105l-218 -230h-39z" />
    <glyph glyph-name="OE" unicode="&#x152;" horiz-adv-x="1220" 
d="M120 350q0 -131 78.5 -218t201.5 -87t201.5 87t78.5 218t-78.5 218t-201.5 87t-201.5 -87t-78.5 -218zM680 0v135h-10q-3 -6 -9 -16.5t-29.5 -37.5t-52.5 -47t-79.5 -37t-109.5 -17q-145 0 -245 104t-100 266t100 266t245 104q59 0 109.5 -16t80.5 -39t51.5 -45.5
t30.5 -38.5l8 -16h10v135h485v-60h-410v-245h310v-60h-310v-275h410v-60h-485z" />
    <glyph glyph-name="oe" unicode="&#x153;" horiz-adv-x="1090" 
d="M115 245q0 -81 52 -143t148 -62t148 62t52 143t-52 143t-148 62t-148 -62t-52 -143zM784 450q-87 0 -135 -45.5t-61 -114.5h385q-3 29 -14 55.5t-32 51t-58 39t-85 14.5zM786 40q74 0 122.5 32.5t56.5 82.5h70q-14 -87 -83 -131t-166 -44q-82 0 -143.5 34.5t-94.5 94.5
q-35 -59 -96 -94t-137 -35q-116 0 -193 77t-77 188t77 188t193 77q75 0 136.5 -35t96.5 -94q33 60 93.5 94.5t142.5 34.5q129 0 195 -69.5t66 -175.5v-30h-460q3 -81 52.5 -138t148.5 -57z" />
    <glyph glyph-name="Racute" unicode="&#x154;" horiz-adv-x="685" 
d="M502 0v160v34q0 9 -1.5 29.5t-3.5 27.5l-8 22q-6 14 -14 19t-20 13.5t-28.5 11.5t-38.5 5.5t-50 2.5h-188v-325h-75v700h350q60 0 102 -17.5t62 -47t28 -58t8 -60.5q0 -40 -14 -72t-34.5 -48.5t-41 -27t-34.5 -13.5l-14 -3v-10q19 -4 33 -12.5t23.5 -16.5t16 -25.5
t9.5 -27.5t4.5 -34.5t1.5 -35.5v-41v-45q0 -46 10.5 -58t39.5 -12h15v-35h-138zM150 640v-255h248q46 0 78.5 12t48.5 32.5t23 42t7 45.5q0 51 -30 87t-97 36h-278zM243 750l132 200h105l-198 -200h-39z" />
    <glyph glyph-name="racute" unicode="&#x155;" horiz-adv-x="455" 
d="M130 490v-105h10q16 52 52.5 88.5t82.5 36.5q57 0 88.5 -41t31.5 -119v-35h-70v25q0 47 -17 81t-58 34q-45 0 -77.5 -48.5t-32.5 -136.5v-270h-70v490h60zM173 550l152 230h105l-218 -230h-39z" />
    <glyph glyph-name="Rcommaaccent" unicode="&#x156;" horiz-adv-x="685" 
d="M502 0v160v34q0 9 -1.5 29.5t-3.5 27.5l-8 22q-6 14 -14 19t-20 13.5t-28.5 11.5t-38.5 5.5t-50 2.5h-188v-325h-75v700h350q60 0 102 -17.5t62 -47t28 -58t8 -60.5q0 -40 -14 -72t-34.5 -48.5t-41 -27t-34.5 -13.5l-14 -3v-10q19 -4 33 -12.5t23.5 -16.5t16 -25.5
t9.5 -27.5t4.5 -34.5t1.5 -35.5v-41v-45q0 -46 10.5 -58t39.5 -12h15v-35h-138zM150 640v-255h248q46 0 78.5 12t48.5 32.5t23 42t7 45.5q0 51 -30 87t-97 36h-278zM255 -285h-25v25h10q31 0 45.5 19.5t14.5 70.5v100h65v-70q0 -79 -27.5 -112t-82.5 -33z" />
    <glyph glyph-name="rcommaaccent" unicode="&#x157;" horiz-adv-x="455" 
d="M130 490v-105h10q16 52 52.5 88.5t82.5 36.5q57 0 88.5 -41t31.5 -119v-35h-70v25q0 47 -17 81t-58 34q-45 0 -77.5 -48.5t-32.5 -136.5v-270h-70v490h60zM30 -285h-25v25h10q31 0 45.5 19.5t14.5 70.5v100h65v-70q0 -79 -27.5 -112t-82.5 -33z" />
    <glyph glyph-name="Rcaron" unicode="&#x158;" horiz-adv-x="685" 
d="M502 0v160v34q0 9 -1.5 29.5t-3.5 27.5l-8 22q-6 14 -14 19t-20 13.5t-28.5 11.5t-38.5 5.5t-50 2.5h-188v-325h-75v700h350q60 0 102 -17.5t62 -47t28 -58t8 -60.5q0 -40 -14 -72t-34.5 -48.5t-41 -27t-34.5 -13.5l-14 -3v-10q19 -4 33 -12.5t23.5 -16.5t16 -25.5
t9.5 -27.5t4.5 -34.5t1.5 -35.5v-41v-45q0 -46 10.5 -58t39.5 -12h15v-35h-138zM150 640v-255h248q46 0 78.5 12t48.5 32.5t23 42t7 45.5q0 51 -30 87t-97 36h-278zM315 840l180 120l21 -24l-201 -186l-201 186l21 24z" />
    <glyph glyph-name="rcaron" unicode="&#x159;" horiz-adv-x="455" 
d="M130 490v-105h10q16 52 52.5 88.5t82.5 36.5q57 0 88.5 -41t31.5 -119v-35h-70v25q0 47 -17 81t-58 34q-45 0 -77.5 -48.5t-32.5 -136.5v-270h-70v490h60zM209 635l170 115l21 -24l-191 -176l-191 176l21 24z" />
    <glyph glyph-name="Sacute" unicode="&#x15a;" horiz-adv-x="675" 
d="M35 255h70q0 -32 10.5 -65.5t34.5 -69t73 -58t117 -22.5q59 0 103.5 16t67.5 40.5t33.5 49.5t10.5 49q0 43 -26.5 69t-69.5 37.5t-94.5 18t-103.5 15.5t-95 25.5t-69.5 53t-26.5 91.5q0 90 69.5 152.5t184.5 62.5q73 0 127 -21t84.5 -58t45 -80.5t14.5 -95.5h-70
q0 25 -4 49t-17.5 51.5t-34.5 47.5t-58.5 33.5t-86.5 13.5q-87 0 -138 -47.5t-51 -97.5q0 -41 26.5 -66t69.5 -36t94.5 -18t103.5 -17t95 -27t69.5 -54t26.5 -92q0 -94 -72.5 -159.5t-207.5 -65.5q-78 0 -138.5 24t-96 64.5t-53 88t-17.5 98.5zM293 750l132 200h105
l-198 -200h-39z" />
    <glyph glyph-name="sacute" unicode="&#x15b;" 
d="M50 175h70q0 -54 51.5 -94.5t114.5 -40.5q95 0 139.5 33.5t44.5 81.5q0 26 -30 39.5t-75 16t-97.5 7.5t-97.5 13.5t-75 34.5t-30 69q0 84 62 129.5t162 45.5q38 0 74 -8t70.5 -25t55.5 -51t21 -81h-70q0 52 -45 78.5t-106 26.5q-82 0 -120.5 -29t-38.5 -76
q0 -26 30 -39.5t75 -16t97.5 -7.5t97.5 -13.5t75 -34.5t30 -69q0 -87 -66.5 -136t-182.5 -49q-101 0 -168.5 50.5t-67.5 144.5zM238 550l152 230h105l-218 -230h-39z" />
    <glyph glyph-name="Scircumflex" unicode="&#x15c;" horiz-adv-x="675" 
d="M35 255h70q0 -32 10.5 -65.5t34.5 -69t73 -58t117 -22.5q59 0 103.5 16t67.5 40.5t33.5 49.5t10.5 49q0 43 -26.5 69t-69.5 37.5t-94.5 18t-103.5 15.5t-95 25.5t-69.5 53t-26.5 91.5q0 90 69.5 152.5t184.5 62.5q73 0 127 -21t84.5 -58t45 -80.5t14.5 -95.5h-70
q0 25 -4 49t-17.5 51.5t-34.5 47.5t-58.5 33.5t-86.5 13.5q-87 0 -138 -47.5t-51 -97.5q0 -41 26.5 -66t69.5 -36t94.5 -18t103.5 -17t95 -27t69.5 -54t26.5 -92q0 -94 -72.5 -159.5t-207.5 -65.5q-78 0 -138.5 24t-96 64.5t-53 88t-17.5 98.5zM325 880l-180 -130l-21 24
l201 196l201 -196l-21 -24z" />
    <glyph glyph-name="scircumflex" unicode="&#x15d;" 
d="M50 175h70q0 -54 51.5 -94.5t114.5 -40.5q95 0 139.5 33.5t44.5 81.5q0 26 -30 39.5t-75 16t-97.5 7.5t-97.5 13.5t-75 34.5t-30 69q0 84 62 129.5t162 45.5q38 0 74 -8t70.5 -25t55.5 -51t21 -81h-70q0 52 -45 78.5t-106 26.5q-82 0 -120.5 -29t-38.5 -76
q0 -26 30 -39.5t75 -16t97.5 -7.5t97.5 -13.5t75 -34.5t30 -69q0 -87 -66.5 -136t-182.5 -49q-101 0 -168.5 50.5t-67.5 144.5zM285 660l-170 -120l-21 24l191 186l191 -186l-21 -24z" />
    <glyph glyph-name="Scedilla" unicode="&#x15e;" horiz-adv-x="675" 
d="M210 -180h60q0 -23 16.5 -39t43.5 -16t43.5 16.5t16.5 43.5t-16.5 43.5t-43.5 16.5q-30 0 -51 -18l-36 44l65 70q-70 5 -124 31t-85.5 65t-47.5 84t-16 94h70q0 -32 10.5 -65.5t34.5 -69t73 -58t117 -22.5q59 0 103.5 16t67.5 40.5t33.5 49.5t10.5 49q0 43 -26.5 69
t-69.5 37.5t-94.5 18t-103.5 15.5t-95 25.5t-69.5 53t-26.5 91.5q0 90 69.5 152.5t184.5 62.5q73 0 127 -21t84.5 -58t45 -80.5t14.5 -95.5h-70q0 25 -4 49t-17.5 51.5t-34.5 47.5t-58.5 33.5t-86.5 13.5q-87 0 -138 -47.5t-51 -97.5q0 -41 26.5 -66t69.5 -36t94.5 -18
t103.5 -17t95 -27t69.5 -54t26.5 -92q0 -87 -62.5 -150t-179.5 -73l-43 -42q50 -2 82.5 -32t32.5 -83q0 -54 -34.5 -84.5t-85.5 -30.5t-85.5 29.5t-34.5 80.5z" />
    <glyph glyph-name="scedilla" unicode="&#x15f;" 
d="M165 -180h60q0 -23 16.5 -39t43.5 -16t43.5 16.5t16.5 43.5t-16.5 43.5t-43.5 16.5q-30 0 -51 -18l-36 44l65 70q-93 6 -153 56t-60 138h70q0 -54 51.5 -94.5t114.5 -40.5q95 0 139.5 33.5t44.5 81.5q0 26 -30 39.5t-75 16t-97.5 7.5t-97.5 13.5t-75 34.5t-30 69
q0 84 62 129.5t162 45.5q38 0 74 -8t70.5 -25t55.5 -51t21 -81h-70q0 52 -45 78.5t-106 26.5q-82 0 -120.5 -29t-38.5 -76q0 -26 30 -39.5t75 -16t97.5 -7.5t97.5 -13.5t75 -34.5t30 -69q0 -78 -53 -125t-149 -57l-43 -43q50 -2 82.5 -32t32.5 -83q0 -54 -34.5 -84.5
t-85.5 -30.5t-85.5 29.5t-34.5 80.5z" />
    <glyph glyph-name="Scaron" unicode="&#x160;" horiz-adv-x="675" 
d="M35 255h70q0 -32 10.5 -65.5t34.5 -69t73 -58t117 -22.5q59 0 103.5 16t67.5 40.5t33.5 49.5t10.5 49q0 43 -26.5 69t-69.5 37.5t-94.5 18t-103.5 15.5t-95 25.5t-69.5 53t-26.5 91.5q0 90 69.5 152.5t184.5 62.5q73 0 127 -21t84.5 -58t45 -80.5t14.5 -95.5h-70
q0 25 -4 49t-17.5 51.5t-34.5 47.5t-58.5 33.5t-86.5 13.5q-87 0 -138 -47.5t-51 -97.5q0 -41 26.5 -66t69.5 -36t94.5 -18t103.5 -17t95 -27t69.5 -54t26.5 -92q0 -94 -72.5 -159.5t-207.5 -65.5q-78 0 -138.5 24t-96 64.5t-53 88t-17.5 98.5zM325 840l180 120l21 -24
l-201 -186l-201 186l21 24z" />
    <glyph glyph-name="scaron" unicode="&#x161;" 
d="M50 175h70q0 -54 51.5 -94.5t114.5 -40.5q95 0 139.5 33.5t44.5 81.5q0 26 -30 39.5t-75 16t-97.5 7.5t-97.5 13.5t-75 34.5t-30 69q0 84 62 129.5t162 45.5q38 0 74 -8t70.5 -25t55.5 -51t21 -81h-70q0 52 -45 78.5t-106 26.5q-82 0 -120.5 -29t-38.5 -76
q0 -26 30 -39.5t75 -16t97.5 -7.5t97.5 -13.5t75 -34.5t30 -69q0 -87 -66.5 -136t-182.5 -49q-101 0 -168.5 50.5t-67.5 144.5zM285 635l170 115l21 -24l-191 -176l-191 176l21 24z" />
    <glyph glyph-name="Tcommaaccent" unicode="&#x162;" horiz-adv-x="625" 
d="M595 700v-60h-245v-640h-75v640h-245v60h565zM235 -285h-25v25h10q31 0 45.5 19.5t14.5 70.5v100h65v-70q0 -79 -27.5 -112t-82.5 -33z" />
    <glyph glyph-name="tcommaaccent" unicode="&#x163;" horiz-adv-x="385" 
d="M20 490h85q26 0 37 20.5t13 69.5l5 120h50v-210h140v-55h-140v-350q0 -30 30 -30h90v-55h-90q-64 0 -82 21.5t-18 78.5v335h-120v55zM135 -285h-25v25h10q31 0 45.5 19.5t14.5 70.5v100h65v-70q0 -79 -27.5 -112t-82.5 -33z" />
    <glyph glyph-name="Tcaron" unicode="&#x164;" horiz-adv-x="625" 
d="M595 700v-60h-245v-640h-75v640h-245v60h565zM315 840l180 120l21 -24l-201 -186l-201 186l21 24z" />
    <glyph glyph-name="tcaron" unicode="&#x165;" horiz-adv-x="395" 
d="M20 490h85q26 0 37 20.5t13 69.5l5 120h50v-210h140v-55h-140v-350q0 -30 30 -30h90v-55h-90q-64 0 -82 21.5t-18 78.5v335h-120v55zM280 535h-25v25h10q31 0 45.5 19.5t14.5 70.5v100h65v-70q0 -79 -27.5 -112t-82.5 -33z" />
    <glyph glyph-name="Utilde" unicode="&#x168;" horiz-adv-x="680" 
d="M605 700v-470q0 -132 -60.5 -191t-204.5 -59t-204.5 59t-60.5 191v470h75v-470q0 -101 42 -145.5t148 -44.5t148 44.5t42 145.5v470h75zM545 880h30q-5 -46 -33.5 -80.5t-86.5 -34.5q-49 0 -128 30t-102 30q-60 0 -80 -60h-30q5 46 33.5 80.5t86.5 34.5q49 0 128 -30
t102 -30q60 0 80 60z" />
    <glyph glyph-name="utilde" unicode="&#x169;" 
d="M135 490v-290q0 -79 38 -119.5t102 -40.5q72 0 121 52t49 148v250h70v-490h-60v105h-10q-32 -59 -72 -92t-108 -33q-200 0 -200 230v280h70zM500 700h30q-5 -46 -33.5 -80.5t-86.5 -34.5q-49 0 -128 30t-102 30q-60 0 -80 -60h-30q5 46 33.5 80.5t86.5 34.5q49 0 128 -30
t102 -30q60 0 80 60z" />
    <glyph glyph-name="Umacron" unicode="&#x16a;" horiz-adv-x="680" 
d="M605 700v-470q0 -132 -60.5 -191t-204.5 -59t-204.5 59t-60.5 191v470h75v-470q0 -101 42 -145.5t148 -44.5t148 44.5t42 145.5v470h75zM550 830v-60h-420v60h420z" />
    <glyph glyph-name="umacron" unicode="&#x16b;" 
d="M135 490v-290q0 -79 38 -119.5t102 -40.5q72 0 121 52t49 148v250h70v-490h-60v105h-10q-32 -59 -72 -92t-108 -33q-200 0 -200 230v280h70zM500 645v-60h-415v60h415z" />
    <glyph glyph-name="Ubreve" unicode="&#x16c;" horiz-adv-x="680" 
d="M605 700v-470q0 -132 -60.5 -191t-204.5 -59t-204.5 59t-60.5 191v470h75v-470q0 -101 42 -145.5t148 -44.5t148 44.5t42 145.5v470h75zM455 910h60q-1 -70 -50 -112.5t-125 -42.5t-125 42.5t-50 112.5h60q4 -43 31.5 -71.5t83.5 -28.5t83.5 28.5t31.5 71.5z" />
    <glyph glyph-name="ubreve" unicode="&#x16d;" 
d="M135 490v-290q0 -79 38 -119.5t102 -40.5q72 0 121 52t49 148v250h70v-490h-60v105h-10q-32 -59 -72 -92t-108 -33q-200 0 -200 230v280h70zM380 700h55q0 -63 -39 -99t-106 -36t-106 36t-39 99h55q0 -36 20.5 -60.5t69.5 -24.5t69.5 24.5t20.5 60.5z" />
    <glyph glyph-name="Uring" unicode="&#x16e;" horiz-adv-x="680" 
d="M605 700v-470q0 -132 -60.5 -191t-204.5 -59t-204.5 59t-60.5 191v470h75v-470q0 -101 42 -145.5t148 -44.5t148 44.5t42 145.5v470h75zM215 800q0 54 37 87t88 33t88 -33t37 -87t-37 -87t-88 -33t-88 33t-37 87zM275 800q0 -29 18.5 -47t46.5 -18t46.5 18t18.5 47
t-18.5 47t-46.5 18t-46.5 -18t-18.5 -47z" />
    <glyph glyph-name="uring" unicode="&#x16f;" 
d="M135 490v-290q0 -79 38 -119.5t102 -40.5q72 0 121 52t49 148v250h70v-490h-60v105h-10q-32 -59 -72 -92t-108 -33q-200 0 -200 230v280h70zM180 685q0 53 36 84t84 31t84 -31t36 -84t-36 -84t-84 -31t-84 31t-36 84zM235 685q0 -29 18.5 -47t46.5 -18t46.5 18t18.5 47
t-18.5 47t-46.5 18t-46.5 -18t-18.5 -47z" />
    <glyph glyph-name="Uhungarumlaut" unicode="&#x170;" horiz-adv-x="680" 
d="M605 700v-470q0 -132 -60.5 -191t-204.5 -59t-204.5 59t-60.5 191v470h75v-470q0 -101 42 -145.5t148 -44.5t148 44.5t42 145.5v470h75zM218 750l132 200h105l-198 -200h-39zM368 750l132 200h105l-198 -200h-39z" />
    <glyph glyph-name="uhungarumlaut" unicode="&#x171;" 
d="M135 490v-290q0 -79 38 -119.5t102 -40.5q72 0 121 52t49 148v250h70v-490h-60v105h-10q-32 -59 -72 -92t-108 -33q-200 0 -200 230v280h70zM323 550l152 230h105l-218 -230h-39zM173 550l152 230h105l-218 -230h-39z" />
    <glyph glyph-name="Uogonek" unicode="&#x172;" horiz-adv-x="680" 
d="M400 -120h60q0 -52 -34 -86t-86 -34q-51 0 -85.5 29.5t-34.5 80.5q0 73 76 112q-119 8 -170 67t-51 181v470h75v-470q0 -101 42 -145.5t148 -44.5t148 44.5t42 145.5v470h75v-470q0 -131 -59.5 -190t-200.5 -60q-65 -35 -65 -100q0 -28 15.5 -46.5t44.5 -18.5
q31 0 45.5 19.5t14.5 45.5z" />
    <glyph glyph-name="uogonek" unicode="&#x173;" 
d="M520 -120h60q0 -53 -32.5 -86.5t-87.5 -33.5q-51 0 -85.5 29.5t-34.5 80.5q0 98 115 130v105h-10q-32 -59 -72 -92t-108 -33q-200 0 -200 230v280h70v-290q0 -79 38 -119.5t102 -40.5q72 0 121 52t49 148v250h70v-490h-1q-5 -1 -14.5 -4t-28 -12t-33.5 -21.5t-26.5 -34.5
t-11.5 -48q0 -28 15.5 -46.5t44.5 -18.5q31 0 45.5 19.5t14.5 45.5z" />
    <glyph glyph-name="Ycircumflex" unicode="&#x176;" horiz-adv-x="688" 
d="M668 700l-287 -356v-344h-75v343l-286 357h90l234 -295l239 295h85zM344 880l-180 -130l-21 24l201 196l201 -196l-21 -24z" />
    <glyph glyph-name="ycircumflex" unicode="&#x177;" horiz-adv-x="543" 
d="M103 -120h40q36 0 51.5 10t29.5 43l27 66l-236 491h77l192 -412l169 412h75l-240 -575q-25 -60 -48 -77.5t-77 -17.5h-60v60zM280 660l-170 -120l-21 24l191 186l191 -186l-21 -24z" />
    <glyph glyph-name="Ydieresis" unicode="&#x178;" horiz-adv-x="688" 
d="M668 700l-287 -356v-344h-75v343l-286 357h90l234 -295l239 295h85zM202 770v100h75v-100h-75zM421 770v100h75v-100h-75z" />
    <glyph glyph-name="Zacute" unicode="&#x179;" horiz-adv-x="660" 
d="M130 65h470v-65h-540v75l470 560h-470v65h540v-75zM293 750l132 200h105l-198 -200h-39z" />
    <glyph glyph-name="zacute" unicode="&#x17a;" horiz-adv-x="530" 
d="M123 55h357v-55h-430v65l357 370h-357v55h430v-65zM208 550l152 230h105l-218 -230h-39z" />
    <glyph glyph-name="Zdotaccent" unicode="&#x17b;" horiz-adv-x="660" 
d="M130 65h470v-65h-540v75l470 560h-470v65h540v-75zM289 770v100h75v-100h-75z" />
    <glyph glyph-name="zdotaccent" unicode="&#x17c;" horiz-adv-x="530" 
d="M123 55h357v-55h-430v65l357 370h-357v55h430v-65zM225 585v95h70v-95h-70z" />
    <glyph glyph-name="Zcaron" unicode="&#x17d;" horiz-adv-x="660" 
d="M130 65h470v-65h-540v75l470 560h-470v65h540v-75zM330 840l180 120l21 -24l-201 -186l-201 186l21 24z" />
    <glyph glyph-name="zcaron" unicode="&#x17e;" horiz-adv-x="530" 
d="M123 55h357v-55h-430v65l357 370h-357v55h430v-65zM265 635l170 115l21 -24l-191 -176l-191 176l21 24z" />
    <glyph glyph-name="Scommaaccent" unicode="&#x218;" horiz-adv-x="675" 
d="M35 255h70q0 -32 10.5 -65.5t34.5 -69t73 -58t117 -22.5q59 0 103.5 16t67.5 40.5t33.5 49.5t10.5 49q0 43 -26.5 69t-69.5 37.5t-94.5 18t-103.5 15.5t-95 25.5t-69.5 53t-26.5 91.5q0 90 69.5 152.5t184.5 62.5q73 0 127 -21t84.5 -58t45 -80.5t14.5 -95.5h-70
q0 25 -4 49t-17.5 51.5t-34.5 47.5t-58.5 33.5t-86.5 13.5q-87 0 -138 -47.5t-51 -97.5q0 -41 26.5 -66t69.5 -36t94.5 -18t103.5 -17t95 -27t69.5 -54t26.5 -92q0 -94 -72.5 -159.5t-207.5 -65.5q-78 0 -138.5 24t-96 64.5t-53 88t-17.5 98.5zM265 -285h-25v25h10
q31 0 45.5 19.5t14.5 70.5v100h65v-70q0 -79 -27.5 -112t-82.5 -33z" />
    <glyph glyph-name="pi" unicode="&#x3c0;" horiz-adv-x="625" 
d="M30 435v55h565v-55h-85v-435h-70v435h-255v-435h-70v435h-85z" />
    <glyph glyph-name="afii10023" unicode="&#x401;" horiz-adv-x="615" 
d="M174 770v100h75v-100h-75zM394 770v100h75v-100h-75zM75 0v700h485v-60h-410v-245h310v-60h-310v-275h410v-60h-485z" />
    <glyph glyph-name="afii10051" unicode="&#x402;" horiz-adv-x="805" 
d="M585 700v-60h-245v-245h215h11q33 0 48 -0.5t38.5 -3t34 -8t24.5 -16t19.5 -27t10 -40t4.5 -55.5v-325q0 -56 -20.5 -78t-84.5 -22h-80v60h80q30 0 30 30v335q0 20 -1.5 34t-3.5 24.5t-9 16.5t-10.5 9.5t-17.5 4.5l-21 2q-7 0 -28.5 -0.5t-33.5 -0.5h-205v-335h-75v640
h-235v60h555z" />
    <glyph glyph-name="afii10052" unicode="&#x403;" horiz-adv-x="555" 
d="M75 0v700h445v-60h-370v-640h-75zM233 750l132 200h105l-198 -200h-39z" />
    <glyph glyph-name="afii10053" unicode="&#x404;" horiz-adv-x="782" 
d="M395 50q111 0 181 53t85 147h76q-16 -125 -108.5 -197.5t-233.5 -72.5q-161 0 -255.5 103t-94.5 267q0 163 97 266.5t258 103.5q140 0 227.5 -72t104.5 -198h-76q-15 95 -80.5 147.5t-175.5 52.5q-129 0 -199.5 -74t-79.5 -196h441v-60h-441q8 -123 76.5 -196.5
t197.5 -73.5z" />
    <glyph glyph-name="afii10054" unicode="&#x405;" horiz-adv-x="675" 
d="M35 255h70q0 -32 10.5 -65.5t34.5 -69t73 -58t117 -22.5q59 0 103.5 16t67.5 40.5t33.5 49.5t10.5 49q0 43 -26.5 69t-69.5 37.5t-94.5 18t-103.5 15.5t-95 25.5t-69.5 53t-26.5 91.5q0 90 69.5 152.5t184.5 62.5q73 0 127 -21t84.5 -58t45 -80.5t14.5 -95.5h-70
q0 25 -4 49t-17.5 51.5t-34.5 47.5t-58.5 33.5t-86.5 13.5q-87 0 -138 -47.5t-51 -97.5q0 -41 26.5 -66t69.5 -36t94.5 -18t103.5 -17t95 -27t69.5 -54t26.5 -92q0 -94 -72.5 -159.5t-207.5 -65.5q-78 0 -138.5 24t-96 64.5t-53 88t-17.5 98.5z" />
    <glyph glyph-name="uni0406" unicode="&#x406;" horiz-adv-x="225" 
d="M75 700h75v-700h-75v700z" />
    <glyph glyph-name="afii10056" unicode="&#x407;" horiz-adv-x="225" 
d="M-5 770v100h75v-100h-75zM155 770v100h75v-100h-75zM75 700h75v-700h-75v700z" />
    <glyph glyph-name="afii10057" unicode="&#x408;" 
d="M515 700v-480q0 -240 -235 -240t-235 240v50h75v-50q0 -95 39.5 -137.5t120.5 -42.5t120.5 42.5t39.5 137.5v480h75z" />
    <glyph glyph-name="afii10058" unicode="&#x409;" horiz-adv-x="1030" 
d="M510 0v640h-185v-110q0 -105 -12 -190t-30 -139.5t-45 -95t-51.5 -61t-55 -32.5t-49.5 -14.5t-41 -2.5q-9 0 -17 1t-11 2l-3 2v59q10 -1 20 -1q19 0 35 2.5t41 13.5t44.5 29.5t41 55.5t35.5 87.5t23.5 128.5t9.5 175v150h325v-345h190q210 -1 210 -177q0 -76 -47 -126.5
t-163 -51.5h-265zM585 295v-235h193q70 0 103.5 32t33.5 86t-33.5 85.5t-103.5 31.5h-193z" />
    <glyph glyph-name="afii10059" unicode="&#x40a;" horiz-adv-x="1065" 
d="M515 0v335h-365v-335h-75v700h75v-305h365v305h75v-305h195q121 -1 178 -55t57 -142q0 -87 -57.5 -142t-177.5 -56h-270zM590 335v-275h198q76 0 119 35t43 103q0 67 -43 102t-119 35h-198z" />
    <glyph glyph-name="afii10060" unicode="&#x40b;" horiz-adv-x="805" 
d="M585 700v-60h-245v-245h215h11q33 0 48 -0.5t38.5 -3t34 -8t24.5 -16t19.5 -27t10 -40t4.5 -55.5v-245h-75v245q0 20 -1.5 34t-3.5 24.5t-9 16.5t-10.5 9.5t-17.5 4.5l-21 2q-7 0 -28.5 -0.5t-33.5 -0.5h-205v-335h-75v640h-235v60h555z" />
    <glyph glyph-name="afii10061" unicode="&#x40c;" horiz-adv-x="680" 
d="M500 70v177q0 56 -20.5 72t-81.5 16h-248v-335h-75v700h75v-305h248q61 0 81.5 31t20.5 96v98q0 45 13.5 67.5t61.5 22.5h45v-60h-20q-30 0 -30 -50v-103q0 -32 -8.5 -56t-20 -35.5t-23.5 -17.5t-20 -7l-9 -1v-10h9q6 0 21 -5t26 -14.5t20.5 -31.5t9.5 -52v-177
q0 -12 0.5 -17t5 -9t14.5 -4h25v-60h-50q-42 0 -56 13t-14 57zM273 750l132 200h105l-198 -200h-39z" />
    <glyph glyph-name="afii10062" unicode="&#x40e;" horiz-adv-x="683" 
d="M663 700l-283 -595q-13 -30 -21 -44.5t-25 -34t-42.5 -28t-61.5 -8.5h-75v65h75q31 0 49 18t34 52l13 27l-301 548h82l254 -473l225 473h77zM470 880h60q-1 -70 -50 -112.5t-125 -42.5t-125 42.5t-50 112.5h60q4 -43 31.5 -71.5t83.5 -28.5t83.5 28.5t31.5 71.5z" />
    <glyph glyph-name="afii10145" unicode="&#x40f;" horiz-adv-x="690" 
d="M378 0v-160h-66v160h-237v700h75v-640h390v640h75v-700h-237z" />
    <glyph glyph-name="afii10017" unicode="&#x410;" horiz-adv-x="648" 
d="M20 0l271 700h76l261 -700h-75l-72 195h-318l-73 -195h-70zM324 620l-138 -365h273z" />
    <glyph glyph-name="afii10018" unicode="&#x411;" horiz-adv-x="640" 
d="M75 0v700h485v-60h-410v-275h230q116 -1 163 -53t47 -129q0 -35 -9.5 -65t-31.5 -57.5t-65 -44t-104 -16.5h-305zM150 305v-245h233q70 0 103.5 34t33.5 89t-33.5 88.5t-103.5 33.5h-233z" />
    <glyph glyph-name="afii10019" unicode="&#x412;" horiz-adv-x="666" 
d="M75 0v700h275q121 -1 180.5 -41.5t59.5 -126.5q0 -40 -13.5 -70t-33 -45t-38.5 -24t-33 -11l-13 -2v-10q6 0 17 -1t38 -10.5t47.5 -25.5t37.5 -52t17 -84q0 -196 -250 -197h-291zM150 335v-275h220q90 0 133 37t43 100q0 69 -42 103.5t-134 34.5h-220zM150 640v-245h200
q79 0 124.5 33.5t45.5 101.5q0 60 -44.5 85t-125.5 25h-200z" />
    <glyph glyph-name="afii10020" unicode="&#x413;" horiz-adv-x="555" 
d="M75 0v700h445v-60h-370v-640h-75z" />
    <glyph glyph-name="afii10021" unicode="&#x414;" horiz-adv-x="760" 
d="M620 700v-640h130v-220h-65v160h-620v-160h-65v220h95q27 29 46.5 58.5t43.5 83t37 135t13 183.5v180h385zM545 640h-240v-110q0 -103 -11 -184t-32 -135.5t-40.5 -87t-46.5 -63.5h370v580z" />
    <glyph glyph-name="afii10022" unicode="&#x415;" horiz-adv-x="615" 
d="M75 0v700h485v-60h-410v-245h310v-60h-310v-275h410v-60h-485z" />
    <glyph glyph-name="afii10024" unicode="&#x416;" horiz-adv-x="965" 
d="M180 247v-177q0 -44 -14 -57t-56 -13h-50v60h25q14 0 17 6t3 24v177q0 48 21.5 73.5t43.5 27.5l21 2v10q-3 0 -8.5 1t-19.5 7t-24.5 17.5t-19.5 35.5t-9 56v103q0 50 -30 50h-20v60h45q48 0 61.5 -22.5t13.5 -67.5v-98q0 -65 20.5 -96t81.5 -31h163v305h75v-305h163
q61 0 81.5 31t20.5 96v98q0 45 13.5 67.5t61.5 22.5h45v-60h-20q-30 0 -30 -50v-103q0 -32 -8.5 -56t-20.5 -35.5t-23.5 -17.5t-20.5 -7l-8 -1v-10h9q6 0 21 -5t26 -14.5t20.5 -31.5t9.5 -52v-177q0 -12 0.5 -17t5 -9t14.5 -4h25v-60h-50q-42 0 -56 13t-14 57v177
q0 56 -20.5 72t-81.5 16h-163v-335h-75v335h-163q-61 0 -81.5 -16t-20.5 -72z" />
    <glyph glyph-name="afii10025" unicode="&#x417;" horiz-adv-x="690" 
d="M45 210h75q0 -66 58 -113t167 -47q110 0 167.5 43t57.5 107q0 37 -15.5 62t-46.5 38.5t-70 19t-93 5.5h-125v60h120q105 0 155 30.5t50 94.5q0 60 -52.5 100t-152.5 40q-99 0 -152 -47t-53 -113h-75q0 98 78.5 164t201.5 66q130 0 205 -57.5t75 -152.5q0 -35 -13 -63
t-31 -42.5t-36.5 -24t-31.5 -12.5l-13 -3v-10q6 0 16 -1.5t36 -11.5t46 -24.5t36 -45.5t16 -72q0 -94 -79.5 -157t-220.5 -63q-136 0 -218 65t-82 165z" />
    <glyph glyph-name="afii10026" unicode="&#x418;" horiz-adv-x="740" 
d="M75 0v700h75v-605l440 605h75v-700h-75v605l-440 -605h-75z" />
    <glyph glyph-name="afii10027" unicode="&#x419;" horiz-adv-x="740" 
d="M75 700v-700h75l440 605v-605h75v700h-75l-440 -605v605h-75zM485 880h60q-1 -70 -50 -112.5t-125 -42.5t-125 42.5t-50 112.5h60q4 -43 31.5 -71.5t83.5 -28.5t83.5 28.5t31.5 71.5z" />
    <glyph glyph-name="afii10028" unicode="&#x41a;" horiz-adv-x="680" 
d="M500 70v177q0 56 -20.5 72t-81.5 16h-248v-335h-75v700h75v-305h248q61 0 81.5 31t20.5 96v98q0 45 13.5 67.5t61.5 22.5h45v-60h-20q-30 0 -30 -50v-103q0 -32 -8.5 -56t-20 -35.5t-23.5 -17.5t-20 -7l-9 -1v-10h9q6 0 21 -5t26 -14.5t20.5 -31.5t9.5 -52v-177
q0 -12 0.5 -17t5 -9t14.5 -4h25v-60h-50q-42 0 -56 13t-14 57z" />
    <glyph glyph-name="afii10029" unicode="&#x41b;" horiz-adv-x="680" 
d="M530 640h-205v-110q0 -105 -12 -190t-30 -139.5t-45 -95t-51.5 -61t-55 -32.5t-49.5 -14.5t-41 -2.5q-9 0 -17 1t-11 2l-3 2v59q10 -1 20 -1q19 0 35 2.5t41 13.5t44.5 29.5t41 55.5t35.5 87.5t23.5 128.5t9.5 175v150h345v-700h-75v640z" />
    <glyph glyph-name="afii10030" unicode="&#x41c;" horiz-adv-x="720" 
d="M325 0l-185 585v-585h-65v700h95l190 -606l190 606h95v-700h-70v585l-185 -585h-65z" />
    <glyph glyph-name="afii10031" unicode="&#x41d;" horiz-adv-x="720" 
d="M645 700v-700h-75v335h-420v-335h-75v700h75v-305h420v305h75z" />
    <glyph glyph-name="afii10032" unicode="&#x41e;" horiz-adv-x="800" 
d="M45 350q0 160 101 265t254 105t254 -105t101 -265t-101 -265t-254 -105t-254 105t-101 265zM120 350q0 -129 78.5 -214.5t201.5 -85.5t201.5 85.5t78.5 214.5t-78.5 214.5t-201.5 85.5t-201.5 -85.5t-78.5 -214.5z" />
    <glyph glyph-name="afii10033" unicode="&#x41f;" horiz-adv-x="710" 
d="M635 700v-700h-75v640h-410v-640h-75v700h560z" />
    <glyph glyph-name="afii10034" unicode="&#x420;" horiz-adv-x="625" 
d="M75 0v700h295q116 -1 163 -51.5t47 -126.5q0 -176 -210 -177h-220v-345h-75zM150 640v-235h223q70 0 103.5 31.5t33.5 85.5t-33.5 86t-103.5 32h-223z" />
    <glyph glyph-name="afii10035" unicode="&#x421;" horiz-adv-x="782" 
d="M120 350q0 -130 77 -215t203 -85q111 0 178.5 52.5t82.5 147.5h76q-16 -126 -106.5 -198t-230.5 -72q-156 0 -255.5 104.5t-99.5 265.5q0 162 97.5 266t252.5 104q140 0 230.5 -72t106.5 -198h-76q-15 94 -83 147t-178 53q-125 0 -200 -85t-75 -215z" />
    <glyph glyph-name="afii10036" unicode="&#x422;" horiz-adv-x="625" 
d="M595 700v-60h-245v-640h-75v640h-245v60h565z" />
    <glyph glyph-name="afii10037" unicode="&#x423;" horiz-adv-x="683" 
d="M663 700l-283 -595q-13 -30 -21 -44.5t-25 -34t-42.5 -28t-61.5 -8.5h-75v65h75q31 0 49 18t34 52l13 27l-301 548h82l254 -473l225 473h77z" />
    <glyph glyph-name="afii10038" unicode="&#x424;" horiz-adv-x="785" 
d="M430 0h-75v95h-50q-75 0 -130.5 25t-84 65.5t-42 82.5t-13.5 85t14.5 85.5t44.5 82t85 64.5t126 25h50v90h75v-90h50q60 0 108.5 -16.5t78 -43t49 -61.5t27 -68.5t7.5 -67.5q0 -43 -13.5 -85t-42 -82.5t-84 -65.5t-130.5 -25h-50v-95zM355 155v395h-53q-101 0 -149 -59.5
t-48 -137.5t48 -138t149 -60h53zM430 550v-395h53q101 0 149 60t48 138t-48 137.5t-149 59.5h-53z" />
    <glyph glyph-name="afii10039" unicode="&#x425;" horiz-adv-x="705" 
d="M135 700l217 -284l218 284h88l-263 -332l290 -368h-90l-243 320l-242 -320h-90l290 368l-263 332h88z" />
    <glyph glyph-name="afii10040" unicode="&#x426;" horiz-adv-x="740" 
d="M715 60v-220h-65v160h-575v700h75v-640h390v640h75v-640h100z" />
    <glyph glyph-name="afii10041" unicode="&#x427;" horiz-adv-x="650" 
d="M575 700v-700h-75v305h-245h-11q-33 0 -48 0.5t-38.5 3t-34 8t-24.5 16t-19.5 27t-10 40t-4.5 55.5v245h75v-245q0 -20 1.5 -34t3.5 -24.5t9 -16.5t10.5 -9.5t17.5 -4.5l21 -2q7 0 28.5 0.5t33.5 0.5h235v335h75z" />
    <glyph glyph-name="afii10042" unicode="&#x428;" horiz-adv-x="855" 
d="M780 700v-700h-705v700h75v-640h240v640h75v-640h240v640h75z" />
    <glyph glyph-name="afii10043" unicode="&#x429;" horiz-adv-x="905" 
d="M880 60v-220h-65v160h-740v700h75v-640h240v640h75v-640h240v640h75v-640h100z" />
    <glyph glyph-name="afii10044" unicode="&#x42a;" horiz-adv-x="765" 
d="M290 700v-345h220q210 -1 210 -177q0 -76 -47 -126.5t-163 -51.5h-295v640h-200v60h275zM290 295v-235h223q70 0 103.5 32t33.5 86t-33.5 85.5t-103.5 31.5h-223z" />
    <glyph glyph-name="afii10045" unicode="&#x42b;" horiz-adv-x="825" 
d="M75 0v700h75v-345h220q210 -1 210 -177q0 -76 -47 -126.5t-163 -51.5h-295zM150 295v-235h223q70 0 103.5 32t33.5 86t-33.5 85.5t-103.5 31.5h-223zM675 0v700h75v-700h-75z" />
    <glyph glyph-name="afii10046" unicode="&#x42c;" horiz-adv-x="625" 
d="M75 0v700h75v-345h220q210 -1 210 -177q0 -76 -47 -126.5t-163 -51.5h-295zM150 295v-235h223q70 0 103.5 32t33.5 86t-33.5 85.5t-103.5 31.5h-223z" />
    <glyph glyph-name="afii10047" unicode="&#x42d;" horiz-adv-x="782" 
d="M387 50q129 0 197.5 73.5t76.5 196.5h-441v60h441q-9 120 -82.5 195t-196.5 75q-110 0 -175.5 -52.5t-80.5 -147.5h-76q17 126 104.5 198t227.5 72q161 0 258 -103.5t97 -266.5q0 -166 -91.5 -268t-258.5 -102q-141 0 -233.5 72.5t-108.5 197.5h76q15 -94 85 -147
t181 -53z" />
    <glyph glyph-name="afii10048" unicode="&#x42e;" horiz-adv-x="935" 
d="M150 700v-305h132q12 145 94 235t209 90q137 0 221 -104t84 -266t-84 -266t-221 -104q-134 0 -217.5 99t-87.5 256h-130v-335h-75v700h75zM355 350q0 -133 65.5 -216.5t164.5 -83.5t164.5 83.5t65.5 216.5t-65.5 216.5t-164.5 83.5t-164.5 -83.5t-65.5 -216.5z" />
    <glyph glyph-name="afii10049" unicode="&#x42f;" horiz-adv-x="675" 
d="M175 190v-190h-140v35h15q29 0 39.5 12t10.5 58v75q0 87 18.5 125t64.5 48v10q-4 1 -11.5 3.5t-26 13.5t-33 26.5t-26 45t-11.5 65.5q0 25 5.5 48t20 48t38 43.5t62.5 31t89 12.5h310v-700h-75v325h-226q-78 0 -101 -26.5t-23 -108.5zM525 385v255h-238q-72 0 -107 -35.5
t-35 -87.5q0 -24 7 -45.5t23 -42t48.5 -32.5t78.5 -12h223z" />
    <glyph glyph-name="afii10065" unicode="&#x430;" horiz-adv-x="600" 
d="M440 0v115q-22 -27 -49.5 -53.5t-80.5 -54t-105 -27.5q-69 0 -104.5 32.5t-35.5 87.5q0 37 18 67.5t43.5 50t65 35.5t71 24.5t74 15t60.5 7.5l43 4q-1 67 -35.5 106.5t-124.5 39.5q-79 0 -119.5 -38t-40.5 -97h-70q0 90 66 142.5t164 52.5q60 0 102.5 -14t67 -36.5
t38.5 -59t18 -71.5t4 -84v-140q0 -46 10.5 -58t39.5 -12h15v-35h-135zM440 170v79q-305 -29 -305 -144q0 -65 90 -65q59 0 119 43t96 87z" />
    <glyph glyph-name="afii10066" unicode="&#x431;" horiz-adv-x="595" 
d="M550 225q0 -109 -70 -177t-180 -68q-115 0 -182.5 75t-67.5 230q0 94 16.5 163t41.5 110t66 67.5t77.5 37t88.5 17.5q94 13 105 17q24 12 25 43v10h55v-20q0 -30 -7 -50t-19.5 -32t-35.5 -19t-49 -10.5t-66 -7.5q-9 -1 -13 -1q-113 -11 -165 -74t-60 -186h10q2 5 5.5 13
t18.5 28.5t34.5 36.5t54.5 29t77 13q103 0 171.5 -68.5t68.5 -176.5zM120 225q0 -78 46.5 -131.5t133.5 -53.5t133.5 53.5t46.5 131.5t-46.5 131.5t-133.5 53.5t-133.5 -53.5t-46.5 -131.5z" />
    <glyph glyph-name="afii10067" unicode="&#x432;" horiz-adv-x="546" 
d="M70 0v490h235q175 -1 175 -123q0 -38 -24 -63.5t-48 -31.5l-24 -7v-10q5 0 13 -0.5t28 -7t35.5 -17t28 -33.5t12.5 -55q0 -57 -42.5 -99t-132.5 -43h-256zM140 230v-175h179q56 0 84 24.5t28 62.5q0 88 -143 88h-148zM140 435v-150h163q107 0 107 80q0 70 -107 70h-163z
" />
    <glyph glyph-name="afii10068" unicode="&#x433;" horiz-adv-x="435" 
d="M415 490v-55h-275v-435h-70v490h345z" />
    <glyph glyph-name="afii10069" unicode="&#x434;" horiz-adv-x="600" 
d="M490 490v-435h95v-180h-60v125h-455v-125h-60v180h80q90 98 90 335v100h310zM420 435h-180v-65q0 -203 -80 -315h260v380z" />
    <glyph glyph-name="afii10070" unicode="&#x435;" horiz-adv-x="620" 
d="M316 40q74 0 122.5 32.5t56.5 82.5h70q-14 -87 -83 -131t-166 -44q-124 0 -197.5 76t-73.5 189t72.5 189t196.5 76q129 0 195 -69.5t66 -175.5v-30h-460q3 -81 52.5 -138t148.5 -57zM314 450q-87 0 -135 -45.5t-61 -114.5h385q-3 29 -14 55.5t-32 51t-58 39t-85 14.5z
" />
    <glyph glyph-name="afii10072" unicode="&#x436;" horiz-adv-x="750" 
d="M165 135v-65q0 -44 -14 -57t-56 -13h-45v55h25q14 0 17 6.5t3 23.5v75q0 26 7 45t17.5 28t21 14t17.5 5l7 1v10q-3 0 -7 0.5t-15.5 6t-20 15t-15.5 30.5t-7 50v45q0 22 -5.5 28.5t-24.5 6.5h-15v55h35q45 0 60 -18.5t15 -71.5v-25q0 -24 0.5 -34.5t4 -27.5t11.5 -24.5
t23 -14t38 -6.5h98v212h70v-212h98q23 0 38 6.5t23 14t11.5 24.5t4 27.5t0.5 34.5v25q0 53 15 71.5t60 18.5h35v-55h-15q-19 0 -24.5 -6.5t-5.5 -28.5v-45q0 -29 -6.5 -50t-16 -30.5t-19.5 -15t-16 -5.5l-7 -1v-10q3 0 7.5 -0.5t16.5 -5.5t21.5 -14t17 -28t7.5 -45v-75
q0 -12 0.5 -17t5 -9t14.5 -4h25v-55h-45q-42 0 -56 13t-14 57v65q0 20 -0.5 28.5t-4 22.5t-11.5 20.5t-23 11.5t-38 5h-98v-223h-70v223h-98q-28 0 -44.5 -6t-23 -21t-8 -26t-1.5 -35z" />
    <glyph glyph-name="afii10073" unicode="&#x437;" 
d="M50 175h70q0 -61 41.5 -98t133.5 -37q90 0 132.5 29t42.5 76q0 48 -43 64t-126 16h-106v55h111q69 0 104.5 17t35.5 63q0 90 -156 90q-61 0 -108 -27t-47 -78h-70q0 47 21.5 81t57 51t72 25t74.5 8q100 0 160.5 -37.5t60.5 -107.5q0 -42 -20.5 -67t-40.5 -29l-20 -4v-10
q4 0 11 -1t25.5 -7.5t32 -17t25 -33t11.5 -51.5q0 -78 -65 -121.5t-175 -43.5q-114 0 -179.5 49.5t-65.5 145.5z" />
    <glyph glyph-name="afii10074" unicode="&#x438;" horiz-adv-x="570" 
d="M500 490v-490h-70v412l-280 -412h-80v490h70v-412l280 412h80z" />
    <glyph glyph-name="afii10075" unicode="&#x439;" horiz-adv-x="570" 
d="M375 700h55q0 -63 -39 -99t-106 -36t-106 36t-39 99h55q0 -36 20.5 -60.5t69.5 -24.5t69.5 24.5t20.5 60.5zM500 490v-490h-70v412l-280 -412h-80v490h70v-412l280 412h80z" />
    <glyph glyph-name="afii10076" unicode="&#x43a;" horiz-adv-x="560" 
d="M395 70v65q0 20 -0.5 28.5t-4 22.5t-11.5 20.5t-23 11.5t-38 5h-178v-223h-70v490h70v-212h178q23 0 38 6.5t23 14t11.5 24.5t4 27.5t0.5 34.5v25q0 53 15 71.5t60 18.5h35v-55h-15q-19 0 -24.5 -6.5t-5.5 -28.5v-45q0 -29 -6.5 -50t-16 -30.5t-19.5 -15t-16 -5.5l-7 -1
v-10q3 0 7.5 -0.5t16.5 -5.5t21.5 -14t17 -28t7.5 -45v-75q0 -12 0.5 -17t5 -9t14.5 -4h25v-55h-45q-42 0 -56 13t-14 57z" />
    <glyph glyph-name="afii10077" unicode="&#x43b;" horiz-adv-x="540" 
d="M400 435h-155v-65q0 -97 -13.5 -169t-33 -110.5t-48.5 -61t-52.5 -28.5t-51.5 -6q-9 0 -17 1t-11 2l-3 2v53q10 -3 20 -3q150 0 150 340v100h285v-490h-70v435z" />
    <glyph glyph-name="afii10078" unicode="&#x43c;" horiz-adv-x="610" 
d="M270 0l-135 405v-405h-65v490h98l137 -416l137 416h98v-490h-70v405l-135 -405h-65z" />
    <glyph glyph-name="afii10079" unicode="&#x43d;" horiz-adv-x="570" 
d="M500 490v-490h-70v220h-290v-220h-70v490h70v-215h290v215h70z" />
    <glyph glyph-name="afii10080" unicode="&#x43e;" horiz-adv-x="630" 
d="M45 245q0 111 77 188t193 77t193 -77t77 -188t-77 -188t-193 -77t-193 77t-77 188zM115 245q0 -81 52 -143t148 -62t148 62t52 143t-52 143t-148 62t-148 -62t-52 -143z" />
    <glyph glyph-name="afii10081" unicode="&#x43f;" horiz-adv-x="565" 
d="M495 490v-490h-70v435h-285v-435h-70v490h425z" />
    <glyph glyph-name="afii10082" unicode="&#x440;" horiz-adv-x="605" 
d="M140 245q0 -79 48.5 -142t131.5 -63q82 0 126 62t44 143t-44 143t-126 62q-83 0 -131.5 -63t-48.5 -142zM140 40v-220h-70v670h60v-105h10q2 5 6 13.5t19 30t34 38t53 30t73 13.5q107 0 171 -76t64 -189q0 -111 -65 -188t-165 -77q-41 0 -75.5 13t-54.5 31t-34.5 36.5
t-19.5 31.5l-6 13h-10z" />
    <glyph glyph-name="afii10083" unicode="&#x441;" horiz-adv-x="625" 
d="M115 245q0 -83 51 -144t153 -61q76 0 131 39.5t55 95.5h70q0 -92 -77.5 -143.5t-178.5 -51.5q-124 0 -199 76t-75 189t75 189t199 76q101 0 178.5 -51.5t77.5 -143.5h-70q0 56 -55 95.5t-131 39.5q-102 0 -153 -61t-51 -144z" />
    <glyph glyph-name="afii10084" unicode="&#x442;" horiz-adv-x="480" 
d="M20 435v55h440v-55h-185v-435h-70v435h-185z" />
    <glyph glyph-name="afii10085" unicode="&#x443;" horiz-adv-x="543" 
d="M103 -120h40q36 0 51.5 10t29.5 43l27 66l-236 491h77l192 -412l169 412h75l-240 -575q-25 -60 -48 -77.5t-77 -17.5h-60v60z" />
    <glyph glyph-name="afii10086" unicode="&#x444;" horiz-adv-x="710" 
d="M455 0h-65v-180h-70v180h-65q-92 0 -143.5 43t-51.5 147v110q0 104 51.5 147t143.5 43h65v210h70v-210h65q92 0 143.5 -43t51.5 -147v-110q0 -104 -51.5 -147t-143.5 -43zM455 435h-65v-380h65q65 0 95 30.5t30 109.5v100q0 79 -30.5 109.5t-94.5 30.5zM320 435h-65
q-64 0 -94.5 -30.5t-30.5 -109.5v-100q0 -79 30 -109.5t95 -30.5h65v380z" />
    <glyph glyph-name="afii10087" unicode="&#x445;" horiz-adv-x="542" 
d="M10 0l220 257l-200 233h91l150 -189l150 189h91l-201 -233l221 -257h-91l-170 212l-170 -212h-91z" />
    <glyph glyph-name="afii10088" unicode="&#x446;" horiz-adv-x="600" 
d="M70 0v490h70v-435h285v435h70v-435h90v-180h-60v125h-455z" />
    <glyph glyph-name="afii10089" unicode="&#x447;" horiz-adv-x="525" 
d="M455 490v-490h-70v205h-215q-67 0 -91 26t-24 79v180h70v-160q0 -38 11.5 -54t53.5 -16h195v230h70z" />
    <glyph glyph-name="afii10090" unicode="&#x448;" horiz-adv-x="700" 
d="M70 0v490h70v-435h175v435h70v-435h175v435h70v-490h-560z" />
    <glyph glyph-name="afii10091" unicode="&#x449;" horiz-adv-x="735" 
d="M70 0v490h70v-435h175v435h70v-435h175v435h70v-435h90v-180h-60v125h-590z" />
    <glyph glyph-name="afii10092" unicode="&#x44a;" horiz-adv-x="605" 
d="M20 435v55h225v-225h120q61 0 102.5 -10.5t61.5 -30t28 -41t8 -50.5t-8 -50.5t-28 -41t-61.5 -30.5t-102.5 -11h-190v435h-155zM245 210v-155h118q73 0 105 18.5t32 59.5t-32 59t-105 18h-118z" />
    <glyph glyph-name="afii10093" unicode="&#x44b;" horiz-adv-x="650" 
d="M70 0v490h70v-225h95q61 0 102.5 -10.5t61.5 -30t28 -41t8 -50.5t-8 -50.5t-28 -41t-61.5 -30.5t-102.5 -11h-165zM140 210v-155h93q73 0 105 18.5t32 59.5t-32 59t-105 18h-93zM580 490v-490h-70v490h70z" />
    <glyph glyph-name="afii10094" unicode="&#x44c;" horiz-adv-x="505" 
d="M70 0v490h70v-225h125q61 0 102.5 -10.5t61.5 -30t28 -41t8 -50.5t-8 -50.5t-28 -41t-61.5 -30.5t-102.5 -11h-195zM140 210v-155h123q73 0 105 18.5t32 59.5t-32 59t-105 18h-123z" />
    <glyph glyph-name="afii10095" unicode="&#x44d;" horiz-adv-x="625" 
d="M210 275h298q-8 74 -59 124.5t-143 50.5q-76 0 -131 -39.5t-55 -95.5h-70q0 92 77.5 143.5t178.5 51.5q124 0 199 -76t75 -189t-75 -189t-199 -76q-101 0 -178.5 51.5t-77.5 143.5h70q0 -56 55 -95.5t131 -39.5q94 0 144.5 52.5t58.5 127.5h-299v55z" />
    <glyph glyph-name="afii10096" unicode="&#x44e;" horiz-adv-x="755" 
d="M140 490v-215h91q9 108 75 171.5t164 63.5q105 0 172.5 -71.5t67.5 -193.5t-67.5 -193.5t-172.5 -71.5q-99 0 -165.5 64.5t-73.5 175.5h-91v-220h-70v490h70zM300 245q0 -90 45.5 -147.5t124.5 -57.5t124.5 57.5t45.5 147.5t-45.5 147.5t-124.5 57.5t-124.5 -57.5
t-45.5 -147.5z" />
    <glyph glyph-name="afii10097" unicode="&#x44f;" horiz-adv-x="555" 
d="M155 125v-125h-125v35h10q29 0 39.5 12t10.5 58v27q0 37 16.5 60t33.5 28l16 5v10l-10 2q-6 2 -21.5 10t-27.5 19t-22 33t-10 49q0 58 45.5 99.5t154.5 42.5h220v-490h-70v205h-160q-57 0 -78.5 -20t-21.5 -60zM415 260v175h-148q-137 0 -137 -91q0 -39 31.5 -61.5
t95.5 -22.5h158z" />
    <glyph glyph-name="afii10071" unicode="&#x451;" horiz-adv-x="620" 
d="M316 40q74 0 122.5 32.5t56.5 82.5h70q-14 -87 -83 -131t-166 -44q-124 0 -197.5 76t-73.5 189t72.5 189t196.5 76q129 0 195 -69.5t66 -175.5v-30h-460q3 -81 52.5 -138t148.5 -57zM314 450q-87 0 -135 -45.5t-61 -114.5h385q-3 29 -14 55.5t-32 51t-58 39t-85 14.5z
M165 585v95h70v-95h-70zM385 585v95h70v-95h-70z" />
    <glyph glyph-name="afii10099" unicode="&#x452;" horiz-adv-x="620" 
d="M-5 610h50q42 0 55 15t15 70l3 55h52v-140h110v-55h-110v-125l-10 -65h10q67 125 210 125q180 0 180 -200v-370q0 -57 -18 -78.5t-82 -21.5h-50v55h50q30 0 30 30v385q0 140 -130 140q-75 0 -132.5 -46.5t-57.5 -133.5v-250h-70v555h-105v55z" />
    <glyph glyph-name="afii10100" unicode="&#x453;" horiz-adv-x="435" 
d="M168 550l152 230h105l-218 -230h-39zM415 490v-55h-275v-435h-70v490h345z" />
    <glyph glyph-name="afii10101" unicode="&#x454;" horiz-adv-x="625" 
d="M117 275h298v-55h-299q8 -75 58.5 -127.5t144.5 -52.5q76 0 131 39.5t55 95.5h70q0 -92 -77.5 -143.5t-178.5 -51.5q-124 0 -199 76t-75 189t75 189t199 76q101 0 178.5 -51.5t77.5 -143.5h-70q0 56 -55 95.5t-131 39.5q-92 0 -143 -50.5t-59 -124.5z" />
    <glyph glyph-name="afii10102" unicode="&#x455;" 
d="M50 175h70q0 -54 51.5 -94.5t114.5 -40.5q95 0 139.5 33.5t44.5 81.5q0 26 -30 39.5t-75 16t-97.5 7.5t-97.5 13.5t-75 34.5t-30 69q0 84 62 129.5t162 45.5q38 0 74 -8t70.5 -25t55.5 -51t21 -81h-70q0 52 -45 78.5t-106 26.5q-82 0 -120.5 -29t-38.5 -76
q0 -26 30 -39.5t75 -16t97.5 -7.5t97.5 -13.5t75 -34.5t30 -69q0 -87 -66.5 -136t-182.5 -49q-101 0 -168.5 50.5t-67.5 144.5z" />
    <glyph glyph-name="afii10103" unicode="&#x456;" horiz-adv-x="210" 
d="M140 490v-490h-70v490h70zM70 550v95h70v-95h-70z" />
    <glyph glyph-name="afii10104" unicode="&#x457;" horiz-adv-x="210" 
d="M140 490v-490h-70v490h70zM0 550v95h70v-95h-70zM140 550v95h70v-95h-70z" />
    <glyph glyph-name="afii10105" unicode="&#x458;" horiz-adv-x="210" 
d="M140 490v-570q0 -57 -18 -78.5t-82 -21.5h-50v55h50q30 0 30 30v585h70zM70 550v95h70v-95h-70z" />
    <glyph glyph-name="afii10106" unicode="&#x459;" horiz-adv-x="780" 
d="M385 435h-140v-65q0 -97 -13.5 -169t-33 -110.5t-48.5 -61t-52.5 -28.5t-51.5 -6q-9 0 -17 1t-11 2l-3 2v53q10 -3 20 -3q150 0 150 340v100h270v-225h85q61 0 102.5 -10.5t61.5 -30t28 -41t8 -50.5t-8 -50.5t-28 -41t-61.5 -30.5t-102.5 -11h-155v435zM455 210v-155h83
q73 0 105 18.5t32 59.5t-32 59t-105 18h-83z" />
    <glyph glyph-name="afii10107" unicode="&#x45a;" horiz-adv-x="825" 
d="M400 0v220h-260v-220h-70v490h70v-215h260v215h70v-215h115q61 0 102.5 -11.5t61.5 -32t28 -42.5t8 -51q0 -62 -42 -99.5t-158 -38.5h-185zM470 220v-165h113q72 0 104.5 20.5t32.5 62.5t-32.5 62t-104.5 20h-113z" />
    <glyph glyph-name="afii10108" unicode="&#x45b;" horiz-adv-x="620" 
d="M-5 610h50q42 0 55 15t15 70l3 55h52v-140h110v-55h-110v-125l-10 -65h10q67 125 210 125q180 0 180 -200v-290h-70v290q0 140 -130 140q-75 0 -132.5 -46.5t-57.5 -133.5v-250h-70v555h-105v55z" />
    <glyph glyph-name="afii10109" unicode="&#x45c;" horiz-adv-x="560" 
d="M395 70v65q0 20 -0.5 28.5t-4 22.5t-11.5 20.5t-23 11.5t-38 5h-178v-223h-70v490h70v-212h178q23 0 38 6.5t23 14t11.5 24.5t4 27.5t0.5 34.5v25q0 53 15 71.5t60 18.5h35v-55h-15q-19 0 -24.5 -6.5t-5.5 -28.5v-45q0 -29 -6.5 -50t-16 -30.5t-19.5 -15t-16 -5.5l-7 -1
v-10q3 0 7.5 -0.5t16.5 -5.5t21.5 -14t17 -28t7.5 -45v-75q0 -12 0.5 -17t5 -9t14.5 -4h25v-55h-45q-42 0 -56 13t-14 57zM223 550l152 230h105l-218 -230h-39z" />
    <glyph glyph-name="afii10110" unicode="&#x45e;" horiz-adv-x="543" 
d="M103 -120h40q36 0 51.5 10t29.5 43l27 66l-236 491h77l192 -412l169 412h75l-240 -575q-25 -60 -48 -77.5t-77 -17.5h-60v60zM375 700h55q0 -63 -39 -99t-106 -36t-106 36t-39 99h55q0 -36 20.5 -60.5t69.5 -24.5t69.5 24.5t20.5 60.5z" />
    <glyph glyph-name="afii10193" unicode="&#x45f;" horiz-adv-x="565" 
d="M70 0v490h70v-435h285v435h70v-490h-182v-125h-61v125h-182z" />
    <glyph glyph-name="afii10050" unicode="&#x490;" horiz-adv-x="565" 
d="M530 850v-210h-380v-640h-75v700h390v150h65z" />
    <glyph glyph-name="afii10098" unicode="&#x491;" horiz-adv-x="445" 
d="M70 0v490h295v125h60v-180h-285v-435h-70z" />
    <glyph glyph-name="uni0492" unicode="&#x492;" horiz-adv-x="620" 
d="M0 335v60h140v305h445v-60h-370v-245h215v-60h-215v-335h-75v335h-140z" />
    <glyph glyph-name="uni0493" unicode="&#x493;" horiz-adv-x="455" 
d="M290 275v-55h-130v-220h-70v220h-90v55h90v215h345v-55h-275v-160h130z" />
    <glyph glyph-name="uni0496" unicode="&#x496;" horiz-adv-x="965" 
d="M965 60v-220h-65v160h-45q-42 0 -56 13t-14 57v177q0 56 -20.5 72t-81.5 16h-163v-335h-75v335h-163q-61 0 -81.5 -16t-20.5 -72v-177q0 -44 -14 -57t-56 -13h-50v60h25q14 0 17 6t3 24v177q0 48 21.5 73.5t43.5 27.5l21 2v10q-3 0 -8.5 1t-19.5 7t-24.5 17.5t-19.5 35.5
t-9 56v103q0 50 -30 50h-20v60h45q48 0 61.5 -22.5t13.5 -67.5v-98q0 -65 20.5 -96t81.5 -31h163v305h75v-305h163q61 0 81.5 31t20.5 96v98q0 45 13.5 67.5t61.5 22.5h45v-60h-20q-30 0 -30 -50v-103q0 -32 -8.5 -56t-20.5 -35.5t-23.5 -17.5t-20.5 -7l-8 -1v-10h9
q6 0 21 -5t26 -14.5t20.5 -31.5t9.5 -52v-177q0 -12 0.5 -17t5 -9t14.5 -4h85z" />
    <glyph glyph-name="uni0497" unicode="&#x497;" horiz-adv-x="750" 
d="M685 0h-30q-42 0 -56 13t-14 57v65q0 20 -0.5 28.5t-4 22.5t-11.5 20.5t-23 11.5t-38 5h-98v-223h-70v223h-98q-28 0 -44.5 -6t-23 -21t-8 -26t-1.5 -35v-65q0 -44 -14 -57t-56 -13h-45v55h25q14 0 17 6.5t3 23.5v75q0 26 7 45t17.5 28t21 14t17.5 5l7 1v10q-3 0 -7 0.5
t-15.5 6t-20 15t-15.5 30.5t-7 50v45q0 22 -5.5 28.5t-24.5 6.5h-15v55h35q45 0 60 -18.5t15 -71.5v-25q0 -24 0.5 -34.5t4 -27.5t11.5 -24.5t23 -14t38 -6.5h98v212h70v-212h98q23 0 38 6.5t23 14t11.5 24.5t4 27.5t0.5 34.5v25q0 53 15 71.5t60 18.5h35v-55h-15
q-19 0 -24.5 -6.5t-5.5 -28.5v-45q0 -29 -6.5 -50t-16 -30.5t-19.5 -15t-16 -5.5l-7 -1v-10q3 0 7.5 -0.5t16.5 -5.5t21.5 -14t17 -28t7.5 -45v-75q0 -12 0.5 -17t5 -9t14.5 -4h70v-180h-60v125z" />
    <glyph glyph-name="uni0498" unicode="&#x498;" horiz-adv-x="690" 
d="M215 -180h60q0 -23 16.5 -39t43.5 -16t43.5 16.5t16.5 43.5t-16.5 43.5t-43.5 16.5q-30 0 -51 -18l-36 44l65 70q-123 8 -195.5 71.5t-72.5 157.5h75q0 -66 58 -113t167 -47q110 0 167.5 43t57.5 107q0 37 -15.5 62t-46.5 38.5t-70 19t-93 5.5h-125v60h120
q105 0 155 30.5t50 94.5q0 60 -52.5 100t-152.5 40q-99 0 -152 -47t-53 -113h-75q0 98 78.5 164t201.5 66q130 0 205 -57.5t75 -152.5q0 -35 -13 -63t-31 -42.5t-36.5 -24t-31.5 -12.5l-13 -3v-10q6 0 16 -1.5t36 -11.5t46 -24.5t36 -45.5t16 -72q0 -87 -69.5 -148.5
t-193.5 -70.5l-42 -41q50 -2 82.5 -32t32.5 -83q0 -54 -34.5 -84.5t-85.5 -30.5t-85.5 29.5t-34.5 80.5z" />
    <glyph glyph-name="uni0499" unicode="&#x499;" 
d="M170 -180h60q0 -23 16.5 -39t43.5 -16t43.5 16.5t16.5 43.5t-16.5 43.5t-43.5 16.5q-30 0 -51 -18l-36 44l65 70q-102 6 -160 55t-58 139h70q0 -61 41.5 -98t133.5 -37q90 0 132.5 29t42.5 76q0 48 -43 64t-126 16h-106v55h111q69 0 104.5 17t35.5 63q0 90 -156 90
q-61 0 -108 -27t-47 -78h-70q0 47 21.5 81t57 51t72 25t74.5 8q100 0 160.5 -37.5t60.5 -107.5q0 -42 -20.5 -67t-40.5 -29l-20 -4v-10q4 0 11 -1t25.5 -7.5t32 -17t25 -33t11.5 -51.5q0 -69 -53 -112t-144 -51l-43 -42q50 -2 82.5 -32t32.5 -83q0 -54 -34.5 -84.5
t-85.5 -30.5t-85.5 29.5t-34.5 80.5z" />
    <glyph glyph-name="uni049A" unicode="&#x49a;" horiz-adv-x="680" 
d="M680 60v-220h-65v160h-45q-42 0 -56 13t-14 57v177q0 56 -20.5 72t-81.5 16h-248v-335h-75v700h75v-305h248q61 0 81.5 31t20.5 96v98q0 45 13.5 67.5t61.5 22.5h45v-60h-20q-30 0 -30 -50v-103q0 -32 -8.5 -56t-20 -35.5t-23.5 -17.5t-20 -7l-9 -1v-10h9q6 0 21 -5
t26 -14.5t20.5 -31.5t9.5 -52v-177q0 -12 0.5 -17t5 -9t14.5 -4h85z" />
    <glyph glyph-name="uni049B" unicode="&#x49b;" horiz-adv-x="560" 
d="M495 0h-30q-42 0 -56 13t-14 57v65q0 20 -0.5 28.5t-4 22.5t-11.5 20.5t-23 11.5t-38 5h-178v-223h-70v490h70v-212h178q23 0 38 6.5t23 14t11.5 24.5t4 27.5t0.5 34.5v25q0 53 15 71.5t60 18.5h35v-55h-15q-19 0 -24.5 -6.5t-5.5 -28.5v-45q0 -29 -6.5 -50t-16 -30.5
t-19.5 -15t-16 -5.5l-7 -1v-10q3 0 7.5 -0.5t16.5 -5.5t21.5 -14t17 -28t7.5 -45v-75q0 -12 0.5 -17t5 -9t14.5 -4h70v-180h-60v125z" />
    <glyph glyph-name="uni04A0" unicode="&#x4a0;" horiz-adv-x="765" 
d="M585 70v177q0 56 -20.5 72t-81.5 16h-248v-335h-75v640h-150v60h225v-305h248q61 0 81.5 31t20.5 96v98q0 45 13.5 67.5t61.5 22.5h45v-60h-20q-30 0 -30 -50v-103q0 -32 -8.5 -56t-20.5 -35.5t-23.5 -17.5t-20.5 -7l-8 -1v-10h9q6 0 21 -5t26 -14.5t20.5 -31.5t9.5 -52
v-177q0 -12 0.5 -17t5 -9t14.5 -4h25v-60h-50q-42 0 -56 13t-14 57z" />
    <glyph glyph-name="uni04A1" unicode="&#x4a1;" horiz-adv-x="610" 
d="M10 435v55h180v-212h178q23 0 38 6.5t23 14t11.5 24.5t4 27.5t0.5 34.5v25q0 53 15 71.5t60 18.5h35v-55h-15q-19 0 -24.5 -6.5t-5.5 -28.5v-45q0 -29 -6.5 -50t-16 -30.5t-19.5 -15t-16 -5.5l-7 -1v-10q3 0 7.5 -0.5t16.5 -5.5t21.5 -14t17 -28t7.5 -45v-75
q0 -12 0.5 -17t5 -9t14.5 -4h25v-55h-45q-42 0 -56 13t-14 57v65q0 20 -0.5 28.5t-4 22.5t-11.5 20.5t-23 11.5t-38 5h-178v-223h-70v435h-110z" />
    <glyph glyph-name="uni04A2" unicode="&#x4a2;" horiz-adv-x="770" 
d="M645 700v-640h100v-220h-65v160h-110v335h-420v-335h-75v700h75v-305h420v305h75z" />
    <glyph glyph-name="uni04A3" unicode="&#x4a3;" horiz-adv-x="605" 
d="M530 0h-100v220h-290v-220h-70v490h70v-215h290v215h70v-435h90v-180h-60v125z" />
    <glyph glyph-name="uni04AA" unicode="&#x4aa;" horiz-adv-x="782" 
d="M280 -180h60q0 -23 16.5 -39t43.5 -16t43.5 16.5t16.5 43.5t-16.5 43.5t-43.5 16.5q-30 0 -51 -18l-36 44l65 70q-148 7 -240.5 110.5t-92.5 258.5q0 162 97.5 266t252.5 104q140 0 230.5 -72t106.5 -198h-76q-15 94 -83 147t-178 53q-125 0 -200 -85t-75 -215t77 -215
t203 -85q111 0 178.5 52.5t82.5 147.5h76q-15 -114 -91.5 -184.5t-197.5 -82.5l-43 -43q50 -2 82.5 -32t32.5 -83q0 -54 -34.5 -84.5t-85.5 -30.5t-85.5 29.5t-34.5 80.5z" />
    <glyph glyph-name="uni04AB" unicode="&#x4ab;" horiz-adv-x="625" 
d="M190 -180h60q0 -23 16.5 -39t43.5 -16t43.5 16.5t16.5 43.5t-16.5 43.5t-43.5 16.5q-30 0 -51 -18l-36 44l65 71q-111 10 -177 84t-66 179q0 113 75 189t199 76q101 0 178.5 -51.5t77.5 -143.5h-70q0 56 -55 95.5t-131 39.5q-102 0 -153 -61t-51 -144t51 -144t153 -61
q76 0 131 39.5t55 95.5h70q0 -82 -63.5 -132t-153.5 -60l-43 -43q50 -2 82.5 -32t32.5 -83q0 -54 -34.5 -84.5t-85.5 -30.5t-85.5 29.5t-34.5 80.5z" />
    <glyph glyph-name="uni04AE" unicode="&#x4ae;" horiz-adv-x="688" 
d="M668 700l-287 -356v-344h-75v343l-286 357h90l234 -295l239 295h85z" />
    <glyph glyph-name="uni04AF" unicode="&#x4af;" horiz-adv-x="538" 
d="M523 490l-219 -476v-194h-70v194l-219 476h75l179 -400l179 400h75z" />
    <glyph glyph-name="uni04B0" unicode="&#x4b0;" horiz-adv-x="688" 
d="M116 340h190v3l-286 357h90l234 -295l239 295h85l-287 -356v-4h190v-60h-190v-280h-75v280h-190v60z" />
    <glyph glyph-name="uni04B1" unicode="&#x4b1;" horiz-adv-x="538" 
d="M94 55h121l-200 435h75l179 -400l179 400h75l-200 -435h121v-55h-140v-180h-70v180h-140v55z" />
    <glyph glyph-name="uni04B2" unicode="&#x4b2;" horiz-adv-x="715" 
d="M725 60v-220h-65v160h-65l-243 320l-242 -320h-90l290 368l-263 332h88l217 -284l218 284h88l-263 -332l242 -308h88z" />
    <glyph glyph-name="uni04B3" unicode="&#x4b3;" horiz-adv-x="552" 
d="M10 0l220 257l-200 233h91l150 -189l150 189h91l-201 -233l173 -202h68v-180h-60v125h-51l-170 212l-170 -212h-91z" />
    <glyph glyph-name="uni04BA" unicode="&#x4ba;" horiz-adv-x="650" 
d="M75 0v700h75v-305h245h11q33 0 48 -0.5t38.5 -3t34 -8t24.5 -16t19.5 -27t10 -40t4.5 -55.5v-245h-75v245q0 20 -1.5 34t-3.5 24.5t-9 16.5t-10.5 9.5t-17.5 4.5l-21 2q-7 0 -28.5 -0.5t-33.5 -0.5h-235v-335h-75z" />
    <glyph glyph-name="uni04BB" unicode="&#x4bb;" horiz-adv-x="590" 
d="M460 0v310q0 140 -130 140q-75 0 -132.5 -46.5t-57.5 -133.5v-270h-70v750h70v-300l-10 -65h10q67 125 210 125q180 0 180 -200v-310h-70z" />
    <glyph glyph-name="uni04D8" unicode="&#x4d8;" horiz-adv-x="790" 
d="M745 350q0 -161 -99 -265.5t-256 -104.5q-156 0 -250.5 103.5t-94.5 266.5v15h625q-5 124 -79.5 204.5t-195.5 80.5q-110 0 -178 -53t-83 -147h-76q17 118 108.5 194t228.5 76q155 0 252.5 -104t97.5 -266zM390 50q117 0 190.5 70.5t86.5 184.5h-545q12 -115 82 -185
t186 -70z" />
    <glyph glyph-name="afii10846" unicode="&#x4d9;" horiz-adv-x="620" 
d="M304 450q-74 0 -122.5 -32.5t-56.5 -82.5h-70q14 87 83 131t166 44q124 0 197.5 -76t73.5 -189t-72.5 -189t-196.5 -76q-128 0 -194.5 74t-66.5 181v20h460q-3 81 -52.5 138t-148.5 57zM306 40q87 0 135 45.5t61 114.5h-385q3 -29 14 -55.5t32 -51t58 -39t85 -14.5z" />
    <glyph glyph-name="uni04E8" unicode="&#x4e8;" horiz-adv-x="800" 
d="M45 350q0 160 101 265t254 105t254 -105t101 -265t-101 -265t-254 -105t-254 105t-101 265zM400 50q119 0 197 80.5t83 204.5h-560q5 -124 82.5 -204.5t197.5 -80.5zM400 650q-112 0 -187.5 -71.5t-89.5 -183.5h554q-15 112 -90.5 183.5t-186.5 71.5z" />
    <glyph glyph-name="uni04E9" unicode="&#x4e9;" horiz-adv-x="630" 
d="M45 245q0 111 77 188t193 77t193 -77t77 -188t-77 -188t-193 -77t-193 77t-77 188zM315 40q88 0 139 52.5t59 127.5h-397q8 -75 59.5 -127.5t139.5 -52.5zM315 450q-87 0 -138 -51t-60 -124h396q-10 73 -61 124t-137 51z" />
    <glyph glyph-name="endash" unicode="&#x2013;" horiz-adv-x="595" 
d="M50 370h495v-60h-495v60z" />
    <glyph glyph-name="emdash" unicode="&#x2014;" horiz-adv-x="860" 
d="M860 370v-60h-860v60h860z" />
    <glyph glyph-name="quoteleft" unicode="&#x2018;" horiz-adv-x="215" 
d="M170 750h25v-25h-10q-31 0 -45.5 -19.5t-14.5 -70.5v-100h-65v70q0 79 27.5 112t82.5 33z" />
    <glyph glyph-name="quoteright" unicode="&#x2019;" horiz-adv-x="215" 
d="M45 535h-25v25h10q31 0 45.5 19.5t14.5 70.5v100h65v-70q0 -79 -27.5 -112t-82.5 -33z" />
    <glyph glyph-name="quotesinglbase" unicode="&#x201a;" horiz-adv-x="205" 
d="M25 -115h-25v25h10q31 0 45.5 19.5t14.5 70.5v100h65v-70q0 -79 -27.5 -112t-82.5 -33z" />
    <glyph glyph-name="quotedblleft" unicode="&#x201c;" horiz-adv-x="340" 
d="M295 750h25v-25h-10q-31 0 -45.5 -19.5t-14.5 -70.5v-100h-65v70q0 79 27.5 112t82.5 33zM170 750h25v-25h-10q-31 0 -45.5 -19.5t-14.5 -70.5v-100h-65v70q0 79 27.5 112t82.5 33z" />
    <glyph glyph-name="quotedblright" unicode="&#x201d;" horiz-adv-x="340" 
d="M45 535h-25v25h10q31 0 45.5 19.5t14.5 70.5v100h65v-70q0 -79 -27.5 -112t-82.5 -33zM170 535h-25v25h10q31 0 45.5 19.5t14.5 70.5v100h65v-70q0 -79 -27.5 -112t-82.5 -33z" />
    <glyph glyph-name="quotedblbase" unicode="&#x201e;" horiz-adv-x="330" 
d="M25 -115h-25v25h10q31 0 45.5 19.5t14.5 70.5v100h65v-70q0 -79 -27.5 -112t-82.5 -33zM150 -115h-25v25h10q31 0 45.5 19.5t14.5 70.5v100h65v-70q0 -79 -27.5 -112t-82.5 -33z" />
    <glyph glyph-name="dagger" unicode="&#x2020;" horiz-adv-x="301" 
d="M188 750l-20 -118l103 20v-75l-105 20l22 -257h-75l21 257l-104 -20v75l103 -20l-20 118h75z" />
    <glyph glyph-name="daggerdbl" unicode="&#x2021;" horiz-adv-x="301" 
d="M188 750l-20 -118l103 20v-75l-105 20l5 -77l100 19v-75l-98 18l15 -196h-75l14 196l-97 -18v75l100 -19l4 77l-104 -20v75l103 -20l-20 118h75z" />
    <glyph glyph-name="bullet" unicode="&#x2022;" horiz-adv-x="360" 
d="M90 360q0 38 26 64t64 26t64 -26t26 -64t-26 -64t-64 -26t-64 26t-26 64z" />
    <glyph glyph-name="ellipsis" unicode="&#x2026;" 
d="M60 0v100h75v-100h-75zM255 0v100h75v-100h-75zM450 0v100h75v-100h-75z" />
    <glyph glyph-name="perthousand" unicode="&#x2030;" horiz-adv-x="1100" 
d="M50 575q0 67 44 106t101 39t101 -39t44 -106t-44 -106t-101 -39t-101 39t-44 106zM110 575q0 -40 25 -65t60 -25t60 25t25 65t-25 65t-60 25t-60 -25t-25 -65zM730 125q0 -67 -44 -106t-101 -39t-101 39t-44 106t44 106t101 39t101 -39t44 -106zM670 125q0 40 -25 65
t-60 25t-60 -25t-25 -65t25 -65t60 -25t60 25t25 65zM633 725l47 -35l-533 -715l-47 35zM1060 125q0 -67 -44 -106t-101 -39t-101 39t-44 106t44 106t101 39t101 -39t44 -106zM1000 125q0 40 -25 65t-60 25t-60 -25t-25 -65t25 -65t60 -25t60 25t25 65z" />
    <glyph glyph-name="uni2031" unicode="&#x2031;" horiz-adv-x="1430" 
d="M50 575q0 67 44 106t101 39t101 -39t44 -106t-44 -106t-101 -39t-101 39t-44 106zM110 575q0 -40 25 -65t60 -25t60 25t25 65t-25 65t-60 25t-60 -25t-25 -65zM730 125q0 -67 -44 -106t-101 -39t-101 39t-44 106t44 106t101 39t101 -39t44 -106zM670 125q0 40 -25 65
t-60 25t-60 -25t-25 -65t25 -65t60 -25t60 25t25 65zM633 725l47 -35l-533 -715l-47 35zM1060 125q0 -67 -44 -106t-101 -39t-101 39t-44 106t44 106t101 39t101 -39t44 -106zM1000 125q0 40 -25 65t-60 25t-60 -25t-25 -65t25 -65t60 -25t60 25t25 65zM1390 125
q0 -67 -44 -106t-101 -39t-101 39t-44 106t44 106t101 39t101 -39t44 -106zM1330 125q0 40 -25 65t-60 25t-60 -25t-25 -65t25 -65t60 -25t60 25t25 65z" />
    <glyph glyph-name="guilsinglleft" unicode="&#x2039;" horiz-adv-x="353" 
d="M157 270l111 -131l-26 -26l-177 157l177 157l26 -26z" />
    <glyph glyph-name="guilsinglright" unicode="&#x203a;" horiz-adv-x="353" 
d="M85 139l111 131l-111 131l26 26l177 -157l-177 -157z" />
    <glyph glyph-name="uni203B" unicode="&#x203b;" horiz-adv-x="744" 
d="M60 619l42 42l270 -270l270 270l42 -42l-270 -270l270 -270l-42 -42l-270 270l-270 -270l-42 42l270 270zM334 530v100h75v-100h-75zM334 70v100h75v-100h-75zM94 300v100h75v-100h-75zM574 300v100h75v-100h-75z" />
    <glyph glyph-name="uni203D" unicode="&#x203d;" horiz-adv-x="550" 
d="M325 285h65q0 -48 -27 -86.5t-88 -38.5q-54 0 -84.5 32.5t-30.5 77.5q0 75 87 129l-9 216h75l-8 -184q30 15 47.5 26t38 28.5t30 38.5t9.5 46q0 53 -38.5 89t-116.5 36q-70 0 -112.5 -38.5t-42.5 -96.5q0 -29 14 -54t28 -36l13 -10l-44 -46l-9 6q-5 3 -19 16.5t-24.5 29
t-19.5 41t-9 53.5q0 84 63 142t162 58q100 0 162.5 -53.5t62.5 -136.5q0 -28 -10 -53.5t-22 -42t-37 -36t-40 -28.5t-47 -26.5t-42 -23.5l-6 -139q29 14 29 64zM235 0v100h75v-100h-75zM225 270q0 -37 29 -50l-4 102q-25 -23 -25 -52z" />
    <glyph glyph-name="uni2042" unicode="&#x2042;" horiz-adv-x="889" 
d="M487 750l-24 -154l140 70l26 -81l-155 -25l111 -111l-69 -50l-72 139l-71 -139l-69 50l110 111l-154 25l26 81l140 -71l-24 155h85zM257 390l-24 -154l140 70l26 -81l-155 -25l111 -111l-69 -50l-72 139l-71 -139l-69 50l110 111l-154 25l26 81l140 -71l-24 155h85z
M717 390l-24 -154l140 70l26 -81l-155 -25l111 -111l-69 -50l-72 139l-71 -139l-69 50l110 111l-154 25l26 81l140 -71l-24 155h85z" />
    <glyph glyph-name="uni2051" unicode="&#x2051;" horiz-adv-x="459" 
d="M272 750l-24 -154l140 70l26 -81l-155 -25l111 -111l-69 -50l-72 139l-71 -139l-69 50l110 111l-154 25l26 81l140 -71l-24 155h85zM272 340l-24 -154l140 70l26 -81l-155 -25l111 -111l-69 -50l-72 139l-71 -139l-69 50l110 111l-154 25l26 81l140 -71l-24 155h85z" />
    <glyph glyph-name="Euro" unicode="&#x20ac;" horiz-adv-x="892" 
d="M30 240v60h128q-3 24 -3 50q0 20 1 30h-126v60h134q26 126 117.5 203t223.5 77q140 0 230.5 -72t106.5 -198h-76q-15 94 -83 147t-178 53q-102 0 -171.5 -57.5t-92.5 -152.5h274v-60h-284q0 -5 -0.5 -15t-0.5 -15q0 -26 3 -50h282v-60h-268q28 -87 97 -138.5t166 -51.5
q111 0 178.5 52.5t82.5 147.5h76q-16 -126 -106.5 -198t-230.5 -72q-127 0 -218.5 71t-122.5 189h-139z" />
    <glyph glyph-name="afii61352" unicode="&#x2116;" horiz-adv-x="850" 
d="M475 700v-700h-55l-265 525v-525h-70v700h55l265 -525v525h70zM540 565q0 79 41 117t94 38t94 -38t41 -117t-41 -117t-94 -38t-94 38t-41 117zM600 565q0 -49 21.5 -74.5t53.5 -25.5t53.5 25.5t21.5 74.5t-21.5 74.5t-53.5 25.5t-53.5 -25.5t-21.5 -74.5zM810 370v-60
h-270v60h270z" />
    <glyph glyph-name="trademark" unicode="&#x2122;" horiz-adv-x="850" 
d="M550 300l-105 315v-315h-65v345h-135v-345h-70v345h-145v55h448l107 -326l107 326h98v-400h-70v315l-105 -315h-65z" />
    <glyph glyph-name="arrowleft" unicode="&#x2190;" horiz-adv-x="880" 
d="M273 481l-92 -108h609v-46h-609l92 -108l-26 -26l-177 157l177 157z" />
    <glyph glyph-name="arrowup" unicode="&#x2191;" horiz-adv-x="880" 
d="M571 517l-108 92v-609h-46v609l-108 -92l-26 26l157 177l157 -177z" />
    <glyph glyph-name="arrowright" unicode="&#x2192;" horiz-adv-x="880" 
d="M699 373l-92 108l26 26l177 -157l-177 -157l-26 26l92 108h-609v46h609z" />
    <glyph glyph-name="arrowdown" unicode="&#x2193;" horiz-adv-x="880" 
d="M309 183l108 -92v609h46v-609l108 92l26 -26l-157 -177l-157 177z" />
    <glyph glyph-name="arrowboth" unicode="&#x2194;" horiz-adv-x="880" 
d="M699 373l-92 108l26 26l177 -157l-177 -157l-26 26l92 108h-518l92 -108l-26 -26l-177 157l177 157l26 -26l-92 -108h518z" />
    <glyph glyph-name="arrowupdn" unicode="&#x2195;" horiz-adv-x="880" 
d="M309 183l108 -92v518l-108 -92l-26 26l157 177l157 -177l-26 -26l-108 92v-518l108 92l26 -26l-157 -177l-157 177z" />
    <glyph glyph-name="uni2196" unicode="&#x2196;" horiz-adv-x="880" 
d="M414 562l-142 -12l431 -430l-33 -33l-430 431l-12 -142h-36l-15 237l237 -15v-36z" />
    <glyph glyph-name="uni2197" unicode="&#x2197;" horiz-adv-x="880" 
d="M608 550l-142 12v36l237 15l-15 -237h-36l-12 142l-430 -431l-33 33z" />
    <glyph glyph-name="uni2198" unicode="&#x2198;" horiz-adv-x="880" 
d="M466 138l142 12l-431 430l33 33l430 -431l12 142h36l15 -237l-237 15v36z" />
    <glyph glyph-name="uni2199" unicode="&#x2199;" horiz-adv-x="880" 
d="M272 150l142 -12v-36l-237 -15l15 237h36l12 -142l430 431l33 -33z" />
    <glyph glyph-name="uni21B0" unicode="&#x21b0;" horiz-adv-x="880" 
d="M271 373h359v-373h-46v327h-313l92 -108l-26 -26l-177 157l177 157l26 -26z" />
    <glyph glyph-name="uni21B1" unicode="&#x21b1;" horiz-adv-x="880" 
d="M250 373h359l-92 108l26 26l177 -157l-177 -157l-26 26l92 108h-313v-327h-46v373z" />
    <glyph glyph-name="uni21B2" unicode="&#x21b2;" horiz-adv-x="880" 
d="M630 327h-359l92 -108l-26 -26l-177 157l177 157l26 -26l-92 -108h313v327h46v-373z" />
    <glyph glyph-name="uni21B3" unicode="&#x21b3;" horiz-adv-x="880" 
d="M609 327h-359v373h46v-327h313l-92 108l26 26l177 -157l-177 -157l-26 26z" />
    <glyph glyph-name="uni21B4" unicode="&#x21b4;" horiz-adv-x="880" 
d="M676 490v-399l108 92l26 -26l-157 -177l-157 177l26 26l108 -92v353h-500v46h546z" />
    <glyph glyph-name="uni21BA" unicode="&#x21ba;" horiz-adv-x="880" 
d="M174 320h46q0 -91 64.5 -155.5t155.5 -64.5t155.5 64.5t64.5 155.5t-64.5 155.5t-155.5 64.5h-24l92 -108l-26 -26l-177 157l177 157l26 -26l-92 -108h24q110 0 188 -78t78 -188t-78 -188t-188 -78t-188 78t-78 188z" />
    <glyph glyph-name="uni21BB" unicode="&#x21bb;" horiz-adv-x="880" 
d="M660 320h46q0 -110 -78 -188t-188 -78t-188 78t-78 188t78 188t188 78h24l-92 108l26 26l177 -157l-177 -157l-26 26l92 108h-24q-91 0 -155.5 -64.5t-64.5 -155.5t64.5 -155.5t155.5 -64.5t155.5 64.5t64.5 155.5z" />
    <glyph glyph-name="uni21C4" unicode="&#x21c4;" horiz-adv-x="880" 
d="M699 513l-92 108l26 26l177 -157l-177 -157l-26 26l92 108h-609v46h609zM273 341l-92 -108h609v-46h-609l92 -108l-26 -26l-177 157l177 157z" />
    <glyph glyph-name="uni21C5" unicode="&#x21c5;" horiz-adv-x="880" 
d="M431 517l-108 92v-609h-46v609l-108 -92l-26 26l157 177l157 -177zM449 183l108 -92v609h46v-609l108 92l26 -26l-157 -177l-157 177z" />
    <glyph glyph-name="Delta" unicode="&#x2206;" horiz-adv-x="658" 
d="M20 0l271 700h76l271 -700h-618zM324 620l-212 -560h428z" />
    <glyph glyph-name="summation" unicode="&#x2211;" horiz-adv-x="615" 
d="M40 0v55l266 314l-266 271v60h535v-65h-435v-10l251 -255l-251 -295v-10h435v-65h-535z" />
    <glyph glyph-name="minus" unicode="&#x2212;" horiz-adv-x="595" 
d="M50 370h495v-60h-495v60z" />
    <glyph glyph-name="radical" unicode="&#x221a;" horiz-adv-x="583" 
d="M573 750l-246 -750h-76l-119 330h-112v60h160l109 -320l219 680h65z" />
    <glyph glyph-name="infinity" unicode="&#x221e;" horiz-adv-x="1075" 
d="M537 399q62 77 119.5 119t133.5 42q101 0 160.5 -57.5t59.5 -152.5t-59.5 -152.5t-160.5 -57.5q-76 0 -133.5 42t-119.5 119q-62 -77 -119.5 -119t-132.5 -42q-101 0 -160.5 57.5t-59.5 152.5t59.5 152.5t160.5 57.5q75 0 132.5 -42t119.5 -119zM576 350
q59 -74 106.5 -112t107.5 -38q72 0 111 42t39 108t-39 108t-111 42q-60 0 -107.5 -38t-106.5 -112zM498 350q-58 74 -105.5 112t-107.5 38q-72 0 -111 -42t-39 -108t39 -108t111 -42q60 0 107.5 38t105.5 112z" />
    <glyph glyph-name="approxequal" unicode="&#x2248;" horiz-adv-x="595" 
d="M485 485h60q-5 -45 -37 -80t-93 -35q-47 0 -123 30t-112 30q-31 0 -48.5 -17t-21.5 -43h-60q5 45 37 80t93 35q47 0 123 -30t112 -30q31 0 48.5 17.5t21.5 42.5zM485 325h60q-5 -45 -37 -80t-93 -35q-47 0 -123 30t-112 30q-31 0 -48.5 -17t-21.5 -43h-60q5 45 37 80
t93 35q47 0 123 -30t112 -30q31 0 48.5 17t21.5 43z" />
    <glyph glyph-name="notequal" unicode="&#x2260;" horiz-adv-x="595" 
d="M466 615l47 -35l-97 -130h129v-60h-174l-74 -100h248v-60h-293l-123 -165l-47 35l97 130h-129v60h173l75 100h-248v60h293z" />
    <glyph glyph-name="lessequal" unicode="&#x2264;" horiz-adv-x="536" 
d="M406 238l-40 -43l-266 215l264 234l42 -42l-222 -192zM404 79l-40 -43l-264 214l40 43z" />
    <glyph glyph-name="greaterequal" unicode="&#x2265;" horiz-adv-x="536" 
d="M140 195l-40 43l222 172l-222 192l42 42l264 -234zM142 36l-40 43l264 214l40 -43z" />
    <glyph glyph-name="uni25FC" unicode="&#x25fc;" horiz-adv-x="490" 
d="M0 490h490v-490h-490v490z" />
    <glyph glyph-name="uni2605" unicode="&#x2605;" horiz-adv-x="746" 
d="M297 460l76 235l76 -235h247l-200 -145l77 -235l-200 145l-200 -145l76 235l-199 145h247z" />
    <glyph glyph-name="smileface" unicode="&#x263a;" horiz-adv-x="840" 
d="M50 350q0 155 105.5 262.5t264.5 107.5t264.5 -107.5t105.5 -262.5t-105.5 -262.5t-264.5 -107.5t-264.5 107.5t-105.5 262.5zM115 350q0 -130 83.5 -217.5t221.5 -87.5t221.5 87.5t83.5 217.5t-83.5 217.5t-221.5 87.5t-221.5 -87.5t-83.5 -217.5zM625 320h20
q-10 -76 -71.5 -133t-153.5 -57t-153.5 57t-71.5 133h20q12 -55 67 -92.5t138 -37.5t138 37.5t67 92.5zM275 390v100h75v-100h-75zM490 390v100h75v-100h-75z" />
    <glyph glyph-name="uni2713" unicode="&#x2713;" horiz-adv-x="741" 
d="M240 110l445 605l21 -15l-461 -720l-200 305l18 17z" />
    <glyph glyph-name="uni2E2E" unicode="&#x2e2e;" horiz-adv-x="550" 
d="M160 285h65q0 -68 50 -68q23 0 36.5 14.5t13.5 38.5q0 30 -28.5 55.5t-68.5 46.5t-80.5 45.5t-69 63.5t-28.5 89q0 83 62.5 136.5t162.5 53.5q99 0 162 -58t63 -142q0 -28 -8.5 -53.5t-20 -41.5t-23.5 -28t-20 -17l-9 -6l-44 46q6 4 15 11.5t24.5 33.5t15.5 55
q0 58 -42.5 96.5t-112.5 38.5q-78 0 -116.5 -36t-38.5 -89q0 -41 28 -72t68 -52l78 -42q40 -21 68 -55t28 -79t-30.5 -77.5t-84.5 -32.5q-61 0 -88 38.5t-27 86.5zM315 100v-100h-75v100h75z" />
    <glyph glyph-name="uni3008" unicode="&#x3008;" horiz-adv-x="490" 
d="M412 900l38 -24l-303 -526l303 -526l-38 -24l-312 550z" />
    <glyph glyph-name="uni3009" unicode="&#x3009;" horiz-adv-x="490" 
d="M40 876l38 24l312 -550l-312 -550l-38 24l303 526z" />
    <glyph glyph-name="uni300A" unicode="&#x300a;" horiz-adv-x="640" 
d="M412 900l38 -24l-303 -526l303 -526l-38 -24l-312 550zM562 900l38 -24l-303 -526l303 -526l-38 -24l-312 550z" />
    <glyph glyph-name="uni300B" unicode="&#x300b;" horiz-adv-x="640" 
d="M190 876l38 24l312 -550l-312 -550l-38 24l303 526zM40 876l38 24l312 -550l-312 -550l-38 24l303 526z" />
    <glyph glyph-name="testmark1" unicode="&#xe009;" horiz-adv-x="970" 
d="M485 335l-43 -483q-21 2 -42 6l85 477l-125 -468q-22 5 -41 12l166 456l-205 -439q-21 10 -37 19l242 420l-279 -397q-11 8 -33 26l312 371l-343 -343q-20 20 -29 31l372 312l-397 -279q-7 9 -24 37l421 242l-440 -205q-9 20 -16 39l456 166l-469 -125q-1 7 -4 20t-5 20
l478 85l-484 -43q-1 14 -1 43h485l-484 42l6 42l478 -84l-469 125l13 41l456 -166l-440 205q15 31 19 37l421 -242l-397 278q12 19 25 34l372 -312l-343 343q14 14 31 28l312 -371l-279 397q24 16 37 23l242 -420l-205 439q29 14 39 17l166 -456l-125 468q18 6 40 9l85 -477
l-43 483q28 2 43 2v-485l42 483q20 -1 42 -6l-84 -477l125 468q19 -4 41 -12l-166 -456l205 439q19 -9 38 -19l-243 -420l278 397q12 -8 34 -26l-312 -371l343 343q1 -1 28 -31l-371 -312l397 278q16 -24 23 -36l-420 -242l439 205q12 -26 17 -39l-456 -166l468 125
q6 -22 9 -41l-477 -84l483 42q2 -28 2 -42h-485l483 -43q-2 -21 -6 -42l-477 85l468 -125q-5 -22 -12 -41l-456 166l439 -205q-12 -26 -19 -38l-420 243l397 -279q-8 -11 -26 -33l-371 312l343 -343q-1 -1 -31 -28l-312 371l278 -397q-24 -16 -36 -23l-242 420l205 -439
q-26 -12 -39 -17l-166 456l125 -468q-22 -6 -41 -9l-84 477l42 -483q-28 -2 -42 -2v485z" />
    <glyph glyph-name="testmark2" unicode="&#xe00a;" horiz-adv-x="970" 
d="M557 -145l-60 341v-346h-24v346l-60 -341l-24 4l60 339l-119 -323l-22 8l118 324l-173 -298l-21 12l172 298l-221 -264l-19 16l221 264l-264 -221l-16 19l264 221l-298 -172l-12 21l299 172l-325 -118l-8 23l326 119l-342 -60l-4 24l341 60h-346v24h346l-341 60l4 24
l342 -60l-326 119l8 23l325 -119l-299 173l12 21l298 -172l-264 221l16 19l264 -222l-221 265l19 16l221 -264l-172 298l21 12l172 -299l-118 325l23 8l120 -328l-61 344l24 4l60 -341v346h24v-346l60 341l24 -4l-61 -344l120 328l23 -8l-118 -325l172 299l21 -12l-172 -298
l221 264l19 -16l-221 -265l264 222l16 -19l-264 -221l298 172l12 -21l-299 -173l325 119l8 -23l-326 -119l342 60l4 -24l-341 -60h346v-24h-346l341 -60l-4 -24l-342 60l326 -119l-8 -23l-325 118l299 -172l-12 -21l-298 172l264 -221l-16 -19l-264 221l221 -264l-19 -16
l-221 264l172 -298l-21 -12l-173 298l118 -324l-22 -8l-119 323l60 -339z" />
    <glyph glyph-name="copyleft" horiz-adv-x="1050" 
d="M50 245q0 97 37.5 184.5t101.5 151.5t151.5 101.5t184.5 37.5t184.5 -37.5t151.5 -101.5t101.5 -151.5t37.5 -184.5t-37.5 -184.5t-101.5 -151.5t-151.5 -101.5t-184.5 -37.5t-184.5 37.5t-151.5 101.5t-101.5 151.5t-37.5 184.5zM701 315q0 40 -31 74l-245 -326
q43 -23 100 -23q70 0 123 40t53 95h70q0 -91 -76 -143t-170 -52q-78 0 -138 33l-85 -113q101 -65 223 -65q172 0 291 120t119 290q0 91 -37.5 171.5t-103.5 138.5l-83 -110q60 -53 60 -130h-70zM115 245q0 -90 36 -169.5t100 -136.5l85 113q-75 77 -75 193q0 113 72 189
t192 76q70 0 133 -30l85 113q-100 62 -218 62q-172 0 -291 -120t-119 -290zM331 245q0 -85 45 -140l243 323q-44 22 -94 22q-98 0 -146 -61t-48 -144z" />
    <glyph glyph-name="bitcoin" horiz-adv-x="666" 
d="M275 880h65v-180h10q121 -1 180.5 -41.5t59.5 -126.5q0 -40 -13.5 -70t-33 -45t-38.5 -24t-33 -11l-13 -2v-10q6 0 17 -1t38 -10.5t47.5 -25.5t37.5 -52t17 -84q0 -196 -250 -197h-26v-180h-65v180h-200v700h200v180zM370 335h-30v-275h30q90 0 133 37t43 100
q0 69 -42 103.5t-134 34.5zM350 640h-10v-245h10q79 0 124.5 33.5t45.5 101.5q0 60 -44.5 85t-125.5 25zM150 335v-275h125v275h-125zM150 640v-245h125v245h-125z" />
    <glyph glyph-name="ruble" horiz-adv-x="720" 
d="M30 405h140v295h295q116 -1 163 -51.5t47 -126.5q0 -176 -210 -177h-220v-60h275v-60h-275v-225h-75v225h-140v60h140v60h-140v60zM245 640v-235h223q70 0 103.5 31.5t33.5 85.5t-33.5 86t-103.5 32h-223z" />
    <glyph glyph-name="sommaccent" 
d="M50 175h70q0 -54 51.5 -94.5t114.5 -40.5q95 0 139.5 33.5t44.5 81.5q0 26 -30 39.5t-75 16t-97.5 7.5t-97.5 13.5t-75 34.5t-30 69q0 84 62 129.5t162 45.5q38 0 74 -8t70.5 -25t55.5 -51t21 -81h-70q0 52 -45 78.5t-106 26.5q-82 0 -120.5 -29t-38.5 -76
q0 -26 30 -39.5t75 -16t97.5 -7.5t97.5 -13.5t75 -34.5t30 -69q0 -87 -66.5 -136t-182.5 -49q-101 0 -168.5 50.5t-67.5 144.5zM225 -285h-25v25h10q31 0 45.5 19.5t14.5 70.5v100h65v-70q0 -79 -27.5 -112t-82.5 -33z" />
    <glyph glyph-name="ss01.r" horiz-adv-x="450" 
d="M70 0v490h70v-105l100 125q59 -40 120 -40q20 0 37.5 8t24.5 16l8 8l10 -7l-15 -24q-10 -15 -15 -21l-12 -17q-7 -10 -12 -14t-12.5 -9t-15.5 -6.5t-18 -1.5q-33 0 -64 10t-45 20l-14 9l-77 -94v-347h-70z" />
    <glyph glyph-name="ss01.rcaron" horiz-adv-x="450" 
d="M70 0v490h70v-105l100 125q59 -40 120 -40q20 0 37.5 8t24.5 16l8 8l10 -7l-15 -24q-10 -15 -15 -21l-12 -17q-7 -10 -12 -14t-12.5 -9t-15.5 -6.5t-18 -1.5q-33 0 -64 10t-45 20l-14 9l-77 -94v-347h-70zM230 635l170 115l21 -24l-191 -176l-191 176l21 24z" />
    <glyph glyph-name="ss01.rcommaaccent" horiz-adv-x="450" 
d="M70 0v490h70v-105l100 125q59 -40 120 -40q20 0 37.5 8t24.5 16l8 8l10 -7l-15 -24q-10 -15 -15 -21l-12 -17q-7 -10 -12 -14t-12.5 -9t-15.5 -6.5t-18 -1.5q-33 0 -64 10t-45 20l-14 9l-77 -94v-347h-70zM30 -285h-25v25h10q31 0 45.5 19.5t14.5 70.5v100h65v-70
q0 -79 -27.5 -112t-82.5 -33z" />
    <glyph glyph-name="ss01.racute" horiz-adv-x="450" 
d="M70 490v-490h70v347l77 94q48 -39 123 -39q10 0 18 1.5t15.5 6.5t12.5 9t12 15l12 16q5 6 15 22l15 23l-10 7q-24 -32 -70 -32q-27 0 -57 10t-47 20l-16 10l-100 -125v105h-70zM163 550l152 230h105l-218 -230h-39z" />
    <glyph glyph-name="case.parenleft" horiz-adv-x="360" 
d="M330 -110l-20 -20l-25 20q-15 13 -55 58.5t-70 96.5t-55 134t-25 171t23.5 170t57.5 136t68 95t57 60l24 19l20 -20q-7 -6 -19 -18t-42.5 -54.5t-53.5 -91.5t-42 -129t-18 -167q-1 -87 17 -166t44 -130.5t52 -90t44 -55.5z" />
    <glyph glyph-name="case.parenright" horiz-adv-x="360" 
d="M50 -130l-20 20q7 6 19 18t42.5 54.5t53.5 91.5t42 129t18 167q1 87 -17 166t-44 130.5t-52 90t-44 55.5l-18 18l20 20l25 -20q15 -13 55 -58.5t70 -96.5t55 -134t25 -171t-23.5 -170t-57.5 -136t-68 -95t-57 -60z" />
    <glyph glyph-name="case.hyphen" horiz-adv-x="500" 
d="M440 395v-60h-380v60h380z" />
    <glyph glyph-name="case.periodcentered" horiz-adv-x="255" 
d="M90 315v100h75v-100h-75z" />
    <glyph glyph-name="case.guilsinglleft" horiz-adv-x="353" 
d="M157 350l111 -131l-26 -26l-177 157l177 157l26 -26z" />
    <glyph glyph-name="case.guilsinglright" horiz-adv-x="353" 
d="M85 219l111 131l-111 131l26 26l177 -157l-177 -157z" />
    <glyph glyph-name="case.guillemotleft" horiz-adv-x="498" 
d="M157 350l111 -131l-26 -26l-177 157l177 157l26 -26zM322 350l111 -131l-26 -26l-177 157l177 157l26 -26z" />
    <glyph glyph-name="case.guillemotright" horiz-adv-x="498" 
d="M230 219l111 131l-111 131l26 26l177 -157l-177 -157zM65 219l111 131l-111 131l26 26l177 -157l-177 -157z" />
    <glyph glyph-name="case.at" horiz-adv-x="1050" 
d="M683 350q0 79 -48.5 142t-131.5 63q-82 0 -126 -62t-44 -143t44 -143t126 -62q83 0 131.5 63t48.5 142zM753 595v-345q0 -105 67 -105q52 0 81 52.5t29 152.5q0 173 -110 289t-295 116q-172 0 -288.5 -112.5t-116.5 -292.5t116.5 -292.5t288.5 -112.5q68 0 126 20.5
t83 40.5l24 20l42 -52q-4 -4 -12 -10.5t-35.5 -24t-57 -30.5t-76 -23.5t-94.5 -10.5q-200 0 -337.5 133.5t-137.5 341.5t137.5 341.5t337.5 133.5q142 0 251.5 -64.5t166.5 -172t57 -238.5q0 -135 -52.5 -200t-127.5 -65q-50 0 -86 31t-41 94h-10q-2 -5 -6 -13.5t-19.5 -30
t-35 -38t-54 -30t-75.5 -13.5q-100 0 -165 77t-65 188q0 113 64 189t171 76q39 0 72.5 -13t53.5 -31.5t34 -36.5t20 -31l5 -13h10v105h60z" />
    <glyph glyph-name="case.copyright" horiz-adv-x="1050" 
d="M50 350q0 97 37.5 184.5t101.5 151.5t151.5 101.5t184.5 37.5t184.5 -37.5t151.5 -101.5t101.5 -151.5t37.5 -184.5t-37.5 -184.5t-101.5 -151.5t-151.5 -101.5t-184.5 -37.5t-184.5 37.5t-151.5 101.5t-101.5 151.5t-37.5 184.5zM331 350q0 -83 48 -144t146 -61
q70 0 123 40t53 95h70q0 -91 -76 -143t-170 -52q-120 0 -192 76t-72 189t72 189t192 76q94 0 170 -52t76 -143h-70q0 55 -53 95t-123 40q-98 0 -146 -61t-48 -144zM115 350q0 -170 119 -290t291 -120t291 120t119 290t-119 290t-291 120t-291 -120t-119 -290z" />
    <glyph glyph-name="case.registered" horiz-adv-x="1050" 
d="M50 350q0 97 37.5 184.5t101.5 151.5t151.5 101.5t184.5 37.5t184.5 -37.5t151.5 -101.5t101.5 -151.5t37.5 -184.5t-37.5 -184.5t-101.5 -151.5t-151.5 -101.5t-184.5 -37.5t-184.5 37.5t-151.5 101.5t-101.5 151.5t-37.5 184.5zM635 220v-115h130v35h-10
q-29 0 -39.5 12t-10.5 58v27q0 37 -16.5 60t-32.5 28l-17 5v10q4 1 10 3t21.5 11t27.5 21t22 34t10 49q0 136 -200 137h-200v-490h70v205h135q57 0 78.5 -21t21.5 -69zM400 365v175h128q132 0 132 -86q0 -40 -29.5 -64.5t-92.5 -24.5h-138zM115 350q0 -170 119 -290
t291 -120t291 120t119 290t-119 290t-291 120t-291 -120t-119 -290z" />
    <glyph glyph-name="case.copyleft" horiz-adv-x="1050" 
d="M50 350q0 97 37.5 184.5t101.5 151.5t151.5 101.5t184.5 37.5t184.5 -37.5t151.5 -101.5t101.5 -151.5t37.5 -184.5t-37.5 -184.5t-101.5 -151.5t-151.5 -101.5t-184.5 -37.5t-184.5 37.5t-151.5 101.5t-101.5 151.5t-37.5 184.5zM701 420q0 40 -31 74l-245 -326
q43 -23 100 -23q70 0 123 40t53 95h70q0 -91 -76 -143t-170 -52q-78 0 -138 33l-85 -113q101 -65 223 -65q172 0 291 120t119 290q0 91 -37.5 171.5t-103.5 138.5l-83 -110q60 -53 60 -130h-70zM115 350q0 -90 36 -169.5t100 -136.5l85 113q-75 77 -75 193q0 113 72 189
t192 76q70 0 133 -30l85 113q-100 62 -218 62q-172 0 -291 -120t-119 -290zM331 350q0 -85 45 -140l243 323q-44 22 -94 22q-98 0 -146 -61t-48 -144z" />
    <glyph glyph-name="case.questiondown" horiz-adv-x="550" 
d="M225 415h-65q0 48 27 86.5t88 38.5q54 0 84.5 -32.5t30.5 -77.5t-28 -79t-68 -56l-78 -42q-40 -20 -68 -51t-28 -72q0 -53 38.5 -89t116.5 -36q70 0 112.5 38.5t42.5 96.5q0 29 -14 54t-28 36l-13 10l44 46l9 -6q5 -3 19 -16.5t24.5 -29t19.5 -41t9 -53.5q0 -84 -63 -142
t-162 -58q-100 0 -162.5 53.5t-62.5 136.5q0 50 28.5 89t69 63.5t80.5 45.5t68.5 46.5t28.5 55.5q0 24 -13.5 38.5t-36.5 14.5q-50 0 -50 -68zM315 700v-100h-75v100h75z" />
    <glyph glyph-name="case.exclamdown" horiz-adv-x="235" 
d="M155 700v-100h-75v100h75zM142 520l18 -570h-85l18 570h49z" />
    <glyph glyph-name="caps.endash" horiz-adv-x="595" 
d="M50 395h495v-60h-495v60z" />
    <glyph glyph-name="caps.emdash" horiz-adv-x="860" 
d="M860 395v-60h-860v60h860z" />
    </font>
</defs>
</svg>
